<svg width="60" height="60" viewBox="0 0 60 60" fill="none" xmlns="http://www.w3.org/2000/svg">
<path d="M53.8435 34.8568C53.8435 34.3715 53.4501 33.9779 52.9646 33.9779H45.0889C44.6034 33.9779 44.21 34.3715 44.21 34.8568V39.8637C44.21 40.3491 44.6034 40.7426 45.0889 40.7426H52.9646C53.4501 40.7426 53.8435 40.3491 53.8435 39.8637V34.8568ZM52.0857 38.9848H45.9678V35.7357H52.0857V38.9848Z" fill="white"/>
<path d="M52.9646 44.5045H45.0889C44.6034 44.5045 44.21 44.898 44.21 45.3834V50.3869C44.21 50.8722 44.6034 51.2658 45.0889 51.2658H52.9646C53.4501 51.2658 53.8435 50.8722 53.8435 50.3869V45.3834C53.8435 44.898 53.45 44.5045 52.9646 44.5045V44.5045ZM52.0857 49.508H45.9678V46.2623H52.0857V49.508Z" fill="white"/>
<path d="M60 17.1649C60 15.4808 58.6277 14.1108 56.9409 14.1108H41.9748V9.94722C43.6304 9.91113 44.9663 8.55621 44.9663 6.89484C44.9663 5.21074 43.594 3.8407 41.9072 3.8407H17.7622C16.0754 3.8407 14.7032 5.21074 14.7032 6.89484C14.7032 8.57894 16.0754 9.94898 17.7622 9.94898H18.0252V14.1108H3.05906C1.37227 14.1108 0 15.4808 0 17.1649C0 18.5368 0.910664 19.7 2.16012 20.0843V55.2805C2.16012 55.7659 2.55352 56.1594 3.03902 56.1594H56.9611C57.4466 56.1594 57.84 55.7659 57.84 55.2805V38.7877C57.84 38.3023 57.4466 37.9087 56.9611 37.9087C56.4756 37.9087 56.0822 38.3023 56.0822 38.7877V54.4015H41.9748V20.2191H56.0822V34.7169C56.0822 35.2023 56.4756 35.5958 56.9611 35.5958C57.4466 35.5958 57.84 35.2023 57.84 34.7169V20.0843C59.0893 19.7 60 18.5367 60 17.1649V17.1649ZM16.4611 6.89484C16.4611 6.18 17.0448 5.59851 17.7623 5.59851H41.9073C42.6247 5.59851 43.2086 6.18 43.2086 6.89484C43.2086 7.60968 42.6248 8.19117 41.9073 8.19117H17.7622C17.0448 8.19117 16.4611 7.60968 16.4611 6.89484ZM1.75781 17.1649C1.75781 16.4501 2.34152 15.8686 3.05906 15.8686H18.0253V18.4614H3.05906C2.34152 18.4612 1.75781 17.8798 1.75781 17.1649V17.1649ZM3.91793 20.2191H18.0253V54.4015H3.91793V20.2191ZM19.783 9.94898H40.2169V54.4016H37.324V41.8923C37.324 41.4069 36.9306 41.0134 36.4451 41.0134H23.5548C23.0693 41.0134 22.6759 41.4069 22.6759 41.8923V54.4015H19.783V9.94898ZM30.8771 42.7712H35.5663V54.4015H30.8771V42.7712ZM29.1193 54.4016H24.4337V42.7713H29.1193V54.4016ZM56.9409 18.4612H41.9748V15.8685H56.9411C57.6585 15.8685 58.2423 16.45 58.2423 17.1648C58.2422 17.8798 57.6585 18.4612 56.9409 18.4612V18.4612Z" fill="white"/>
<path d="M14.9078 23.4547H7.0354C6.54989 23.4547 6.15649 23.8482 6.15649 24.3336V29.3405C6.15649 29.8258 6.54989 30.2194 7.0354 30.2194H14.9078C15.3933 30.2194 15.7867 29.8258 15.7867 29.3405V24.3336C15.7867 23.8482 15.3932 23.4547 14.9078 23.4547V23.4547ZM14.0289 28.4615H7.91431V25.2125H14.0289V28.4615Z" fill="white"/>
<path d="M14.9078 33.9779H7.0354C6.54989 33.9779 6.15649 34.3715 6.15649 34.8568V39.8637C6.15649 40.3491 6.54989 40.7426 7.0354 40.7426H14.9078C15.3933 40.7426 15.7867 40.3491 15.7867 39.8637V34.8568C15.7867 34.3715 15.3932 33.9779 14.9078 33.9779ZM14.0289 38.9848H7.91431V35.7357H14.0289V38.9848Z" fill="white"/>
<path d="M14.9078 44.5045H7.0354C6.54989 44.5045 6.15649 44.898 6.15649 45.3834V50.3869C6.15649 50.8722 6.54989 51.2658 7.0354 51.2658H14.9078C15.3933 51.2658 15.7867 50.8722 15.7867 50.3869V45.3834C15.7867 44.898 15.3932 44.5045 14.9078 44.5045V44.5045ZM14.0289 49.508H7.91431V46.2623H14.0289V49.508Z" fill="white"/>
<path d="M53.8435 24.3336C53.8435 23.8482 53.4501 23.4547 52.9646 23.4547H45.0889C44.6034 23.4547 44.21 23.8482 44.21 24.3336V29.3405C44.21 29.8258 44.6034 30.2194 45.0889 30.2194H52.9646C53.4501 30.2194 53.8435 29.8258 53.8435 29.3405V24.3336ZM52.0857 28.4615H45.9678V25.2125H52.0857V28.4615Z" fill="white"/>
<path d="M24.5096 23.9167H26.986V26.389C26.986 27.0463 27.521 27.581 28.1787 27.581H31.8179C32.4774 27.581 33.0139 27.0463 33.0139 26.389V23.9167H35.4903C36.1498 23.9167 36.6864 23.382 36.6864 22.7247V19.0937C36.6864 18.4345 36.1498 17.8983 35.4903 17.8983H33.0139V15.4294C33.0139 14.7702 32.4774 14.2341 31.8179 14.2341H28.1787C27.5211 14.2341 26.986 14.7703 26.986 15.4294V17.8983H24.5096C23.8501 17.8983 23.3135 18.4345 23.3135 19.0937V22.7247C23.3135 23.382 23.8501 23.9167 24.5096 23.9167V23.9167ZM25.0713 19.6561H27.8649C28.3504 19.6561 28.7438 19.2626 28.7438 18.7772V15.9918H31.2561V18.7772C31.2561 19.2626 31.6495 19.6561 32.135 19.6561H34.9286V22.1589H32.135C31.6495 22.1589 31.2561 22.5524 31.2561 23.0378V25.8232H28.7438V23.0378C28.7438 22.5524 28.3504 22.1589 27.8649 22.1589H25.0713V19.6561Z" fill="white"/>
<path d="M33.7145 30.3604H26.2861C25.8006 30.3604 25.4072 30.7539 25.4072 31.2393C25.4072 31.7246 25.8006 32.1182 26.2861 32.1182H33.7145C34.2 32.1182 34.5934 31.7246 34.5934 31.2393C34.5934 30.7539 34.2 30.3604 33.7145 30.3604Z" fill="white"/>
<path d="M33.7145 34.511H26.2861C25.8006 34.511 25.4072 34.9045 25.4072 35.3899C25.4072 35.8753 25.8006 36.2688 26.2861 36.2688H33.7145C34.2 36.2688 34.5934 35.8753 34.5934 35.3899C34.5934 34.9045 34.2 34.511 33.7145 34.511Z" fill="white"/>
</svg>
