<svg width="54" height="54" viewBox="0 0 54 54" fill="none" xmlns="http://www.w3.org/2000/svg">
<path d="M9.26591 26.0323C8.36858 26.0323 7.52472 26.3819 6.88906 27.0177C5.58241 28.3283 5.58241 30.4606 6.88991 31.772C7.52483 32.407 8.36858 32.7566 9.26591 32.7566C10.1633 32.7566 11.0071 32.407 11.6412 31.7729C12.2773 31.1386 12.6279 30.2952 12.6286 29.398C12.6293 28.4995 12.2789 27.6539 11.642 27.0169C11.0071 26.3819 10.1633 26.0323 9.26591 26.0323ZM10.5233 30.6534C10.1872 30.9896 9.74073 31.1746 9.26591 31.1746C8.79119 31.1746 8.34464 30.9895 8.00946 30.6542C7.31684 29.9596 7.31684 28.8292 8.00861 28.1355C8.34464 27.7994 8.79119 27.6144 9.26591 27.6144C9.74073 27.6144 10.1872 27.7994 10.5233 28.1355C10.8611 28.4734 11.0471 28.9213 11.0466 29.3969C11.0463 29.871 10.8607 30.317 10.5233 30.6534Z" fill="black"/>
<path d="M25.3424 43.1642C25.0347 42.8539 24.537 42.8546 24.2267 43.1624C23.9166 43.4699 23.9173 43.9737 24.2248 44.284C24.3796 44.44 24.5829 44.5182 24.7866 44.5182C24.9878 44.5182 25.1892 44.4418 25.3434 44.2889C25.6536 43.9813 25.6558 43.4805 25.3483 43.1703L25.3424 43.1642Z" fill="black"/>
<path d="M48.2305 29.6494H40.1283C39.6913 29.6494 39.3372 30.0035 39.3372 30.4404C39.3372 30.8772 39.6913 31.2314 40.1283 31.2314H48.2305C49.3155 31.2314 50.1983 32.2315 50.1983 33.4608V34.2206H27.3865V31.2314H36.4557C36.8927 31.2314 37.2467 30.8772 37.2467 30.4404C37.2467 30.0035 36.8927 29.6494 36.4557 29.6494H27.1334C26.4007 29.6494 25.8044 30.2671 25.8044 31.0265V34.4255C25.8044 35.1849 26.4005 35.8026 27.1334 35.8026H35.5451C35.2124 36.224 34.8532 36.6287 34.469 37.0129C32.9643 38.5176 31.1258 39.6513 29.1212 40.32C28.2481 38.8302 26.6311 37.827 24.7833 37.827C22.9366 37.827 21.3204 38.829 20.447 40.3172C18.4459 39.6491 16.61 38.5162 15.1067 37.013C14.4984 36.4045 13.9519 35.7446 13.4743 35.0453C13.7439 34.8442 14.0027 34.6224 14.2473 34.3779C15.5783 33.0467 16.3114 31.2771 16.3114 29.395C16.3114 27.513 15.5784 25.7444 14.2476 24.4148C13.553 23.7192 12.7377 23.1888 11.8499 22.8389C12.3888 21.2789 13.1954 19.8521 14.2565 18.582L21.6599 24.7528C21.9003 24.9548 22.1979 25.0626 22.5086 25.0626C22.549 25.0626 22.5896 25.0609 22.6304 25.0572C22.8411 25.0382 23.0392 24.9699 23.2131 24.8613L24.2953 25.7649C24.7133 26.1128 25.2213 26.2825 25.7264 26.2825C26.3671 26.2825 27.003 26.0093 27.4434 25.4803L27.5683 25.3305L29.0941 26.603C29.5788 27.0072 30.1714 27.2053 30.7743 27.2053C31.5192 27.2053 32.2797 26.9025 32.871 26.3113C33.3565 25.8256 33.6062 25.1644 33.5738 24.4493C33.5384 23.6678 33.1742 22.9331 32.5752 22.434L31.0478 21.1583L31.1722 21.0092C31.554 20.5528 31.7346 19.9731 31.6808 19.3768C31.6271 18.7807 31.3456 18.2427 30.8892 17.8628L29.8034 16.956C29.8804 16.762 29.9115 16.5514 29.8906 16.3376C29.8562 15.9846 29.6863 15.6672 29.419 15.4492L27.2312 13.6249L27.2311 13.6248L18.3396 6.21443C17.6277 5.61896 16.7237 5.33704 15.7926 5.42025C15.0094 5.4905 14.2904 5.81291 13.7263 6.33804L10.9857 4.04948L10.9976 4.03524C11.8676 2.99626 11.729 1.44218 10.6874 0.569745C10.1837 0.149558 9.54464 -0.0489344 8.88873 0.010339C8.23282 0.0698234 7.64029 0.380112 7.22021 0.883726L3.34318 5.53015C2.92331 6.03366 2.72439 6.67217 2.78335 7.32787C2.84241 7.98367 3.15175 8.57567 3.65431 8.99438C4.11373 9.37765 4.67325 9.56465 5.22991 9.56465C5.93434 9.56465 6.63423 9.26501 7.12054 8.68451C7.12086 8.68409 7.12128 8.68367 7.1216 8.68314L7.13415 8.66806L9.8757 10.9551C9.08996 12.1838 9.16031 13.7694 10.0133 14.9179C8.0087 17.2993 6.61155 20.1349 5.94193 23.18C5.33949 23.5033 4.78125 23.9167 4.28428 24.4137C2.95295 25.7434 2.21973 27.5124 2.21973 29.3946C2.21973 31.2767 2.95284 33.0463 4.28428 34.3778C5.25069 35.343 6.43015 35.9674 7.67225 36.2537C8.57496 37.9884 9.74081 39.5759 11.1419 40.9771C13.5361 43.3715 16.5042 45.0862 19.7578 45.9623V48.0389H14.406C13.9691 48.0389 13.615 48.3931 13.615 48.8299C13.615 49.2668 13.9691 49.6209 14.406 49.6209H43.9599C43.9677 49.6209 43.9803 49.6335 43.9803 49.6413V52.3972C43.9803 52.405 43.9677 52.4177 43.9599 52.4177H5.60654C5.59873 52.4177 5.58618 52.405 5.58618 52.3972V49.6413C5.58618 49.6335 5.59873 49.6209 5.60654 49.6209H10.7336C11.1705 49.6209 11.5246 49.2668 11.5246 48.8299C11.5246 48.3931 11.1705 48.0389 10.7336 48.0389H5.60654C4.72292 48.0389 4.00415 48.7578 4.00415 49.6413V52.3972C4.00415 53.2808 4.72292 53.9997 5.60654 53.9997H43.9599C44.8436 53.9997 45.5623 53.2808 45.5623 52.3972V49.6413C45.5623 48.7578 44.8436 48.0389 43.9599 48.0389H29.8088V45.9655C33.0674 45.089 36.0377 43.3731 38.4306 40.9771C39.9525 39.4551 41.1945 37.7159 42.1286 35.8022H50.4545C51.1857 35.8022 51.7804 35.1845 51.7804 34.4251V33.4604C51.7803 31.3591 50.188 29.6494 48.2305 29.6494ZM31.5617 23.6488C31.8168 23.8615 31.9782 24.1875 31.9932 24.5211C32.0018 24.709 31.9669 24.9781 31.7521 25.1928C31.3275 25.6173 30.6265 25.8209 30.1072 25.388L28.5814 24.1157L29.3854 23.1518L30.0347 22.3736L31.5617 23.6488ZM29.876 19.0779C30.008 19.1878 30.0893 19.3444 30.1051 19.519C30.1209 19.6937 30.0689 19.8624 29.9579 19.995L26.2279 24.4675C26.0017 24.739 25.5802 24.7763 25.3081 24.5496L24.2771 23.6889L28.8416 18.2141L29.876 19.0779ZM14.6347 7.67349C14.9609 7.28251 15.4223 7.04194 15.9338 6.99606C15.9928 6.99079 16.0513 6.98815 16.1097 6.98815C16.5558 6.98815 16.9819 7.1414 17.3255 7.42891L28.2102 16.5011L22.4786 23.3758L11.5938 14.3035C10.7852 13.631 10.6761 12.4239 11.3499 11.6134L14.6347 7.67349ZM5.90712 7.66948C5.59557 8.04062 5.03975 8.09009 4.66745 7.77938C4.48963 7.63119 4.38004 7.42057 4.35895 7.18622C4.33786 6.95113 4.40852 6.72279 4.55797 6.54371L8.43489 1.89728C8.58455 1.71788 8.79644 1.60735 9.03153 1.58604C9.05906 1.58351 9.08648 1.58225 9.11369 1.58225C9.31915 1.58225 9.51553 1.65259 9.67268 1.78369C10.0442 2.09503 10.0946 2.64938 9.78352 3.02084L5.90712 7.66948ZM8.14739 7.45316L9.97242 5.26448L12.6909 7.53459L10.8672 9.72211L8.14739 7.45316ZM11.1664 16.0066L13.0418 17.5696C11.8467 19.0062 10.9192 20.6624 10.32 22.4279C9.97442 22.3764 9.62247 22.35 9.26662 22.35C8.74603 22.35 8.2345 22.4081 7.73806 22.5174C8.41095 20.1323 9.57807 17.9131 11.1664 16.0066ZM5.40256 33.259C4.37023 32.2267 3.80165 30.8544 3.80165 29.3948C3.80165 27.9354 4.37013 26.564 5.40256 25.5328C6.43478 24.5005 7.80714 23.9319 9.26662 23.9319C10.7259 23.9319 12.0973 24.5004 13.128 25.5324C13.1283 25.5326 13.1285 25.5328 13.1288 25.5331C14.1608 26.5639 14.7293 27.9353 14.7293 29.3947C14.7293 30.8543 14.1607 32.2266 13.1284 33.2589C10.9995 35.3878 7.53366 35.3876 5.40256 33.259ZM19.7578 42.8525V44.317C16.9331 43.4824 14.3571 41.9554 12.2606 39.8588C11.2221 38.8202 10.3249 37.6706 9.58187 36.4292C10.4443 36.3909 11.3002 36.194 12.1038 35.8416C12.6519 36.6575 13.2826 37.4259 13.9878 38.1314C15.6458 39.7894 17.667 41.0436 19.8713 41.7925C19.7976 42.1345 19.7578 42.4888 19.7578 42.8525ZM28.2267 48.0392H21.3398V42.8526C21.3398 40.9538 22.8845 39.409 24.7832 39.409C26.6819 39.409 28.2266 40.9538 28.2266 42.8526V48.0392H28.2267ZM37.3115 39.8592C35.2159 41.9573 32.638 43.4854 29.8088 44.3203V42.8525C29.8088 42.4899 29.7692 42.1366 29.696 41.7956C31.904 41.0463 33.9281 39.7909 35.5877 38.1314C36.3055 37.4135 36.9471 36.6316 37.4997 35.8025H40.349C39.541 37.2869 38.5231 38.6476 37.3115 39.8592Z" fill="black"/>
</svg>
