<svg width="52" height="52" viewBox="0 0 52 52" fill="none" xmlns="http://www.w3.org/2000/svg">
<g clip-path="url(#clip0_83_2402)">
<path d="M36.5132 3.29755C33.6556 3.29755 30.8645 4.10081 28.4391 5.6208C27.9739 5.87227 24.4475 7.91094 24.9949 11.625C25.1947 12.9815 25.9125 13.9509 26.6067 14.8885C27.5862 16.2116 28.5211 17.4763 28.2662 20.0348C28.2524 20.0275 28.2395 20.019 28.2256 20.0119C27.5004 19.6421 26.6747 19.5771 25.9005 19.8285C25.1918 20.0588 24.6048 20.5295 24.2272 21.1636C23.9692 20.9138 23.6744 20.6992 23.3476 20.5277C22.7785 20.2288 22.157 20.0823 21.5317 20.0917C21.4847 19.5824 21.5112 19.2478 21.5413 18.8728C21.5794 18.3984 21.6225 17.8608 21.508 17.0148C21.2854 15.3713 20.3442 13.9355 18.8576 12.9718C17.0647 11.8093 14.655 11.4683 12.569 12.0813C8.77538 13.1962 6.58223 17.1912 7.68002 20.987C8.00401 22.107 8.59927 23.1402 9.40151 23.9746C9.82259 24.4127 10.0504 24.991 10.0267 25.5611C9.9594 27.1814 10.1832 28.7905 10.6921 30.3443C11.7817 33.6711 14.1499 36.4217 17.3603 38.089C19.3696 39.1326 21.5361 39.6626 23.6973 39.6624C24.9889 39.6624 26.2787 39.4731 27.5313 39.0912C28.225 38.8796 28.9045 38.6121 29.5512 38.2957C31.3202 37.4303 32.7225 35.9531 33.4995 34.1357C33.9327 33.1228 34.1566 32.0401 34.1677 30.9531C34.6478 31.0414 35.1553 31.0158 35.6487 30.8567C37.2317 30.3466 38.1104 28.6181 37.608 27.004L36.8289 24.5013C36.3111 22.8386 34.999 21.5718 33.3192 21.1125C32.2467 20.8196 31.1363 20.8873 30.1372 21.2778C30.8735 17.239 29.4259 15.282 28.2396 13.6797C27.6444 12.8758 27.1305 12.1816 27.0048 11.3286C26.6446 8.88401 29.3033 7.46091 29.4134 7.40323C29.4396 7.38972 29.4653 7.37509 29.4902 7.35935C31.5986 6.03081 34.0273 5.3286 36.5138 5.3286C43.9333 5.3286 49.9695 11.5317 49.9695 19.1561C49.9695 27.5229 43.4001 34.5536 37.8893 38.9783C32.729 43.1214 27.5003 45.8208 25.9998 46.5595C24.5572 45.8493 19.6729 43.3294 14.7189 39.4598C14.2768 39.1146 13.6387 39.193 13.2933 39.635C12.948 40.0771 13.0265 40.7154 13.4685 41.0607C19.5362 45.8002 25.3303 48.4966 25.5741 48.609C25.7092 48.6714 25.8544 48.7025 25.9996 48.7025C26.1449 48.7025 26.2902 48.6713 26.4252 48.609C26.6849 48.4892 32.8563 45.6166 39.1273 40.5889C42.8339 37.6175 45.793 34.5103 47.9226 31.354C50.6282 27.3439 52.0001 23.2399 52.0001 19.1563C52.0002 10.4117 45.0527 3.29755 36.5132 3.29755ZM20.1939 23.6225C20.6541 23.2181 21.1509 22.7808 21.421 22.1315C21.7578 22.0998 22.0969 22.165 22.4034 22.326C22.7597 22.5131 23.0345 22.8098 23.1949 23.1725L22.7713 24.0037L19.8331 23.9455C19.9549 23.8324 20.0758 23.7262 20.1939 23.6225ZM29.1196 24.9668L29.458 24.303C29.5929 24.1031 29.7527 23.9178 29.9359 23.752C30.7109 23.0508 31.7752 22.7966 32.7831 23.072C33.7911 23.3476 34.5783 24.1078 34.889 25.1054L35.6681 27.6078C35.8411 28.1634 35.5526 28.7536 35.0252 28.9236C34.5244 29.0854 33.9824 28.835 33.7791 28.3541L33.1854 26.4471C33.0186 25.9115 32.4493 25.6124 31.9137 25.7793C31.3782 25.9461 31.0792 26.5153 31.246 27.051L31.8552 29.008C32.7751 31.9764 31.4305 35.1153 28.6582 36.4712C28.1081 36.7403 27.5295 36.9682 26.9385 37.1484C21.0831 38.9339 14.527 35.5282 12.6221 29.7121C12.1891 28.3903 11.9987 27.0221 12.0559 25.6456C12.1025 24.5248 11.6687 23.4028 10.8656 22.5673C10.2826 21.9605 9.86708 21.239 9.63104 20.4227C8.84312 17.6983 10.4179 14.8305 13.1415 14.0301C13.6482 13.8812 14.1804 13.8085 14.713 13.8085C15.793 13.8085 16.8752 14.1074 17.7525 14.6761C18.4471 15.1265 19.3132 15.945 19.495 17.2873C19.5802 17.9163 19.5507 18.2842 19.5165 18.7102C19.475 19.227 19.428 19.8126 19.5717 20.8036C19.6544 21.3739 19.5424 21.4907 18.8528 22.0967C18.6631 22.2634 18.4482 22.4522 18.2258 22.6716L18.2182 22.6791L18.2058 22.6912C17.6502 23.2339 17.4755 24.0497 17.7603 24.7695C18.0432 25.4839 18.7234 25.9553 19.4933 25.9706L22.9793 26.0396C23.6044 26.0531 24.1849 25.7027 24.4673 25.1487L25.937 22.2652C26.0601 22.0236 26.27 21.8444 26.528 21.7606C26.7861 21.6769 27.0612 21.6984 27.303 21.8218C27.5447 21.9449 27.724 22.1548 27.8078 22.4128C27.8915 22.6709 27.8698 22.946 27.7466 23.1877L27.6948 23.2893C27.5255 23.5568 27.382 23.8388 27.2658 24.1309L26.277 26.0711C25.8327 26.9429 25.0351 27.6119 24.0888 27.9066C23.7142 28.0232 23.3271 28.0787 22.939 28.0707L18.5466 27.9823C17.9833 27.9716 17.5221 28.4166 17.5108 28.9773C17.4995 29.5382 17.945 30.0019 18.5058 30.0132L22.8982 30.1015C23.5051 30.1134 24.1089 30.0278 24.6927 29.8461C25.7161 29.5274 26.6279 28.9244 27.3204 28.1279L28.0361 30.4266C28.2028 30.9622 28.7718 31.2613 29.3077 31.0944C29.8433 30.9276 30.1423 30.3583 29.9755 29.8227L29.0709 26.9173C28.8692 26.2688 28.8951 25.5834 29.1196 24.9668Z" fill="black"/>
<path d="M11.8852 37.0911L11.8561 37.065C11.4388 36.6902 10.7966 36.7247 10.4218 37.1421C10.0471 37.5594 10.0816 38.2016 10.4989 38.5763L10.5281 38.6024C10.722 38.7766 10.9646 38.8624 11.2063 38.8624C11.4846 38.8624 11.7617 38.7487 11.9623 38.5254C12.3371 38.1078 12.3026 37.4659 11.8852 37.0911Z" fill="black"/>
<path d="M23.5928 5.64121C21.16 4.10792 18.3571 3.29755 15.4869 3.29755C6.94741 3.29755 0 10.4117 0 19.1563C0 24.6787 2.48362 30.1792 7.3819 35.5053C7.58218 35.723 7.85548 35.8333 8.1297 35.8333C8.37538 35.8333 8.62188 35.7447 8.81698 35.5652C9.22983 35.1856 9.25675 34.5431 8.877 34.1301C4.3344 29.191 2.03126 24.153 2.03126 19.1563C2.03126 11.5318 8.06755 5.3288 15.4869 5.3288C17.9732 5.3288 20.4018 6.03111 22.5098 7.35966C22.9842 7.65876 23.6114 7.51657 23.9105 7.04197C24.2095 6.56747 24.0673 5.94031 23.5928 5.64121Z" fill="black"/>
<path d="M36.5133 8.12524C35.9524 8.12524 35.4976 8.57994 35.4976 9.14087C35.4976 9.7018 35.9523 10.1565 36.5132 10.1565H36.5188C37.0797 10.1565 37.5317 9.7018 37.5317 9.14087C37.5317 8.57994 37.0742 8.12524 36.5133 8.12524Z" fill="black"/>
<path d="M45.3336 12.8129C44.0775 10.987 42.338 9.60868 40.3031 8.82665C39.7795 8.62546 39.192 8.88678 38.9907 9.41033C38.7895 9.93389 39.0508 10.5214 39.5744 10.7227C42.9763 12.03 45.2621 15.4193 45.2621 19.1564C45.2621 19.7173 45.7168 20.172 46.2777 20.172C46.8387 20.172 47.2933 19.7173 47.2933 19.1564C47.2933 16.8699 46.6157 14.6763 45.3336 12.8129Z" fill="black"/>
</g>
<defs>
<clipPath id="clip0_83_2402">
<rect width="52" height="52" fill="white"/>
</clipPath>
</defs>
</svg>
