<svg width="375" height="372" viewBox="0 0 375 372" fill="none" xmlns="http://www.w3.org/2000/svg">
<g clip-path="url(#clip0_162_7080)">
<path d="M256.574 74.6299C272.117 24.0354 357.289 23.9485 405.645 38.8357C454.001 53.7229 447.229 77.9467 431.686 128.541C416.143 179.136 411.88 228.123 363.524 213.236C343.657 207.119 331.537 168.091 310.973 147.915C281.486 118.984 247.418 104.438 256.574 74.6299Z" fill="#FFEBC5"/>
<path d="M153.361 244.524C168.319 251.099 168.718 269.504 164.549 279.003C160.379 288.502 153.221 285.499 138.262 278.924C123.304 272.35 108.868 268.314 113.037 258.814C114.75 254.911 123.5 246.115 129.348 242.956C137.733 238.425 144.548 240.65 153.361 244.524Z" fill="#E8BDD8"/>
<path d="M-701.696 371.992C-701.696 371.992 246.175 371.992 246.864 370.614C247.553 369.236 246.226 359.027 245.819 358.618C245.411 358.21 44.4996 359.537 43.6827 360.456C42.8669 361.375 42.4585 368.827 43.4786 368.93C44.4986 369.031 55.7232 369.746 57.356 369.031C58.9887 368.317 88.171 322.378 90.0079 321.765C91.8449 321.152 101.232 322.684 101.691 323.603C102.15 324.522 102.66 356.321 101.946 356.831C101.232 357.342 94.4457 358.516 94.0892 356.985C93.7315 355.454 93.9876 324.164 94.2934 324.726C94.5992 325.288 96.6912 350.4 97.0489 350.604C97.4066 350.809 111.028 354.637 111.896 354.535C112.763 354.434 122.813 354.74 123.63 354.28C124.447 353.821 124.115 315.257 123.273 315.028C122.43 314.798 109.192 313.19 108.809 314.339C108.426 315.487 109.039 352.162 109.957 350.936C110.876 349.711 111.258 316.253 111.105 316.023C110.952 315.793 99.0139 309.821 93.6565 295.963C88.2991 282.105 91.9476 246.425 107.865 230.5C123.783 214.575 142.456 210.492 143.68 208.45C144.904 206.408 150.822 189.666 148.985 188.543C147.148 187.42 92.8142 192.831 74.447 253.24C56.0799 313.649 78.5791 332.485 80.416 330.187C82.253 327.89 95.4151 310.587 95.5685 308.29C95.722 305.993 93.2723 281.953 93.5792 281.34C93.8861 280.727 172.403 279.379 173.627 280.206C174.851 281.034 204.391 307.679 203.932 309.363C203.473 311.047 201.33 313.65 200.412 313.956C199.493 314.262 122.047 313.037 121.129 312.426C120.21 311.814 98.1705 288.537 98.7831 287.007C99.3958 285.476 117.303 286.393 117.609 285.782C117.915 285.169 125.262 259.596 127.099 258.525C128.936 257.452 142.251 257.606 148.374 260.974C154.496 264.343 157.022 271.004 157.022 272C157.022 272.996 154.649 277.36 154.879 277.59C155.109 277.82 169.649 280.576 171.791 275.829C173.934 271.082 166.052 259.597 157.328 254.392C148.603 249.185 131.462 242.83 119.676 247.195C107.89 251.559 121.054 270.394 119.6 269.935C118.146 269.475 109.116 260.365 111.259 252.402C113.401 244.438 117.763 239.08 131.13 239.692C144.497 240.305 165.211 253.167 166.231 252.452C167.251 251.738 179.801 216.518 179.087 216.416C178.373 216.315 173.782 218.56 171.435 217.744C169.088 216.928 172.659 208.658 175.21 207.74C177.761 206.821 196.179 197.735 194.037 196.918C191.894 196.101 170.977 208.505 168.578 207.79C166.18 207.076 166.231 202.788 168.119 200.389C170.006 197.991 189.164 187.169 191.536 187.169C193.909 187.169 195.898 187.323 196.281 186.48C196.664 185.637 193.525 175.454 180.44 169.942C167.354 164.429 154.803 166.037 152.431 167.339C150.058 168.64 146.538 176.449 147.303 178.517C148.068 180.584 149.063 186.097 150.058 185.178C151.053 184.259 153.349 175.454 162.379 175.378C171.409 175.302 186.715 187.321 187.175 187.016C187.634 186.71 190.619 184.412 190.465 183.647C190.312 182.882 187.251 176.373 178.45 174.383C169.65 172.393 167.354 171.626 167.43 171.014C167.506 170.401 175.389 147.202 177.838 145.977C180.286 144.752 189.316 147.508 190.312 150.111C191.307 152.714 185.873 166.726 184.573 167.339C183.272 167.952 187.659 154.552 188.272 154.246C188.885 153.94 197.455 150.469 198.578 152.613C199.701 154.757 200.007 178.951 200.925 178.032C201.844 177.113 214.088 159.146 216.128 161.188C218.17 163.23 222.862 169.558 222.557 170.58C222.251 171.601 217.403 176.986 217.403 177.829C217.403 178.671 221.383 202.406 220.082 201.87C218.781 201.335 198.654 188.549 198.731 187.706C198.807 186.863 206.383 191.152 206.996 189.85C207.608 188.547 210.898 177.447 210.898 176.45C210.898 175.455 208.985 171.602 210.108 169.661C211.23 167.722 215.822 163.842 216.332 164.659C216.842 165.475 226.638 178.746 227.658 177.522C228.678 176.297 241.331 153.123 240.718 150.878C240.106 148.632 238.015 144.803 236.484 145.161C234.954 145.518 216.637 158.738 215.107 158.586C213.577 158.432 200.261 151.082 200.006 149.908C199.751 148.734 199.904 143.374 200.056 143.171C200.21 142.966 213.168 142.201 222.351 132.707C231.535 123.213 233.116 107.39 231.79 103.256C230.463 99.1217 227.861 93.711 232.148 88.0959C236.433 82.4809 242.76 82.1749 246.535 88.0959C250.31 94.0169 243.065 104.43 238.628 104.072C234.189 103.715 232.884 94.8563 231.434 93.8126C229.984 92.7689 227.404 94.5272 224.904 90.1889C222.403 85.8506 217.199 81.869 212.863 74.2129C208.527 66.5568 207.965 47.2619 209.445 48.5895C210.925 49.917 214.088 56.3483 191.64 69.9254C169.192 83.5025 156.947 82.3803 157.151 84.1155C157.355 85.8506 164.498 125.461 177.457 134.955C190.416 144.449 205.313 140.876 203.374 140.06C201.435 139.243 183.171 136.487 178.068 132.096C172.966 127.706 167.865 102.39 163.171 99.5315C158.477 96.6731 149.6 92.4872 147.661 80.5436C145.722 68.6 153.579 21.6396 191.332 20.925C229.085 20.2104 222.351 34.4005 220.514 34.7065C218.677 35.0124 214.495 31.4395 231.331 30.0103C248.167 28.5811 252.146 56.7061 246.483 72.3254C240.82 87.9446 242.809 87.4852 242.657 94.6056C242.505 101.726 234.468 105.478 234.316 107.238C234.163 108.999 230.949 121.326 232.479 128.676C234.009 136.026 236.229 152.615 238.881 153.687C241.534 154.76 257.146 169.052 256.432 171.604C255.718 174.156 241.228 182.017 242.657 185.181C244.085 188.345 256.227 201.209 254.799 203.046C253.371 204.883 238.473 215.296 236.943 214.582C235.413 213.867 220.004 203.148 222.658 203.148C225.312 203.148 250.515 220.605 250.616 223.77C250.718 226.934 247.81 254.855 241.892 257.305C235.974 259.755 227.045 235.101 227.045 233.366C227.045 231.631 210.413 229.998 205.515 227.65C200.617 225.302 190.618 234.081 187.965 232.958C185.312 231.834 202.76 218.768 199.597 218.768C196.434 218.768 185.618 226.424 180.823 224.79C176.027 223.157 199.291 208.15 197.761 208.048C196.231 207.946 180.313 214.377 181.69 214.683C183.068 214.989 187.251 215.499 184.905 220.604C182.558 225.709 180.314 224.076 181.69 229.282C183.068 234.488 186.129 240.92 193.476 238.47C200.822 236.02 203.985 225.097 203.884 230.711C203.782 236.326 200.032 350.866 205.771 350.866C211.511 350.866 207.149 230.966 209.598 231.12C212.046 231.273 224.137 233.57 225.209 238.929C226.281 244.289 239.138 269.555 243.423 267.259C247.709 264.963 252.607 228.976 254.444 230.049C256.281 231.121 297.299 256.692 298.218 255.008C299.136 253.324 257.505 222.239 257.658 225.761C257.812 229.283 255.21 261.287 247.097 269.403C238.985 277.518 240.056 281.806 241.893 285.328C243.73 288.85 271.126 308.91 289.493 311.36C307.861 313.809 320.104 298.497 322.859 277.366C325.615 256.234 320.334 182.732 312.757 171.707C305.181 160.681 243.678 149.553 244.699 151.698C245.719 153.842 289.289 163.439 290.31 166.399C291.33 169.36 277.402 224.077 278.78 230.05C280.157 236.021 311.381 250.951 314.135 263.585C316.889 276.219 301.049 302.404 297.835 305.389C294.62 308.375 289.34 304.93 288.651 305.389C287.962 305.848 294.161 372 294.161 372H634.304" stroke="#161616" stroke-width="1.5" stroke-miterlimit="10"/>
</g>
<defs>
<clipPath id="clip0_162_7080">
<rect width="375" height="372" fill="white"/>
</clipPath>
</defs>
</svg>
