<svg width="1920" height="741" viewBox="0 0 1920 741" fill="none" xmlns="http://www.w3.org/2000/svg">
<g clip-path="url(#clip0_40_288)">
<path d="M1415.41 148.658C1446.41 47.8771 1616.24 47.7041 1712.66 77.3584C1809.09 107.013 1795.58 155.265 1764.59 256.046C1733.6 356.827 1725.1 454.406 1628.67 424.752C1589.06 412.568 1564.89 334.827 1523.89 294.638C1465.09 237.008 1397.16 208.033 1415.41 148.658Z" fill="#FFEBC5"/>
<path d="M1209.6 487.076C1239.43 500.172 1240.23 536.834 1231.91 555.756C1223.6 574.678 1209.33 568.696 1179.5 555.6C1149.67 542.503 1120.89 534.464 1129.2 515.541C1132.61 507.767 1150.06 490.245 1161.72 483.952C1178.44 474.928 1192.03 479.36 1209.6 487.076Z" fill="#E8BDD8"/>
<path d="M-495.388 740.985C-495.388 740.985 1394.68 740.985 1396.05 738.239C1397.43 735.493 1394.78 715.159 1393.97 714.345C1393.16 713.531 992.535 716.175 990.906 718.005C989.279 719.836 988.465 734.679 990.499 734.884C992.533 735.086 1014.92 736.51 1018.17 735.086C1021.43 733.663 1079.62 642.156 1083.28 640.935C1086.94 639.714 1105.66 642.765 1106.57 644.596C1107.49 646.426 1108.51 709.769 1107.08 710.785C1105.66 711.801 1092.13 714.14 1091.42 711.091C1090.7 708.042 1091.21 645.713 1091.82 646.833C1092.43 647.953 1096.61 697.974 1097.32 698.381C1098.03 698.788 1125.19 706.414 1126.92 706.211C1128.65 706.009 1148.69 706.618 1150.32 705.703C1151.95 704.788 1151.29 627.972 1149.61 627.515C1147.93 627.057 1121.53 623.854 1120.77 626.142C1120 628.43 1121.23 701.483 1123.06 699.041C1124.89 696.602 1125.65 629.955 1125.35 629.497C1125.04 629.039 1101.24 617.144 1090.55 589.538C1079.87 561.935 1087.15 490.863 1118.89 459.142C1150.63 427.42 1187.86 419.286 1190.3 415.218C1192.74 411.151 1204.54 377.803 1200.88 375.565C1197.22 373.328 1088.87 384.106 1052.25 504.438C1015.63 624.769 1060.49 662.288 1064.15 657.712C1067.82 653.136 1094.06 618.668 1094.37 614.095C1094.67 609.519 1089.79 561.631 1090.4 560.41C1091.01 559.189 1247.58 556.505 1250.02 558.153C1252.46 559.801 1311.36 612.876 1310.45 616.231C1309.53 619.586 1305.26 624.771 1303.43 625.381C1301.59 625.99 1147.17 623.55 1145.33 622.332C1143.5 621.113 1099.56 574.748 1100.78 571.698C1102 568.649 1137.7 570.477 1138.32 569.258C1138.93 568.037 1153.58 517.099 1157.24 514.965C1160.9 512.828 1187.45 513.134 1199.66 519.844C1211.87 526.554 1216.91 539.822 1216.91 541.807C1216.91 543.791 1212.18 552.484 1212.63 552.941C1213.09 553.399 1242.08 558.89 1246.36 549.434C1250.63 539.979 1234.91 517.101 1217.52 506.732C1200.12 496.361 1165.94 483.702 1142.44 492.397C1118.94 501.089 1145.18 538.608 1142.29 537.693C1139.39 536.778 1121.38 518.63 1125.65 502.768C1129.93 486.906 1138.62 476.231 1165.28 477.45C1191.93 478.671 1233.23 504.292 1235.27 502.869C1237.3 501.445 1262.33 431.289 1260.9 431.087C1259.48 430.885 1250.33 435.357 1245.65 433.731C1240.97 432.106 1248.09 415.634 1253.17 413.804C1258.26 411.973 1294.99 393.876 1290.71 392.248C1286.44 390.62 1244.73 415.328 1239.95 413.905C1235.17 412.482 1235.27 403.941 1239.03 399.163C1242.8 394.384 1281 372.829 1285.73 372.829C1290.46 372.829 1294.42 373.134 1295.19 371.456C1295.95 369.777 1289.69 349.493 1263.6 338.513C1237.51 327.533 1212.48 330.736 1207.75 333.328C1203.02 335.919 1196 351.475 1197.53 355.594C1199.05 359.712 1201.03 370.692 1203.02 368.862C1205 367.032 1209.58 349.493 1227.59 349.341C1245.59 349.19 1276.11 373.132 1277.03 372.523C1277.95 371.913 1283.9 367.337 1283.59 365.813C1283.29 364.288 1277.18 351.324 1259.63 347.359C1242.09 343.395 1237.51 341.868 1237.66 340.649C1237.81 339.428 1253.53 293.217 1258.41 290.777C1263.29 288.337 1281.3 293.826 1283.29 299.012C1285.27 304.197 1274.44 332.107 1271.84 333.328C1269.25 334.549 1278 307.858 1279.22 307.249C1280.44 306.639 1297.53 299.725 1299.77 303.995C1302.01 308.265 1302.62 356.458 1304.45 354.628C1306.28 352.798 1330.7 317.008 1334.76 321.076C1338.83 325.143 1348.19 337.749 1347.58 339.784C1346.97 341.817 1337.31 352.545 1337.31 354.223C1337.31 355.902 1345.24 403.18 1342.65 402.113C1340.05 401.046 1299.92 375.576 1300.07 373.898C1300.23 372.219 1315.33 380.762 1316.55 378.168C1317.78 375.574 1324.34 353.462 1324.34 351.478C1324.34 349.495 1320.52 341.82 1322.76 337.954C1325 334.091 1334.15 326.362 1335.17 327.99C1336.19 329.616 1355.72 356.051 1357.75 353.612C1359.79 351.172 1385.02 305.011 1383.8 300.539C1382.58 296.066 1378.41 288.439 1375.35 289.151C1372.3 289.862 1335.78 316.196 1332.73 315.892C1329.68 315.587 1303.12 300.946 1302.62 298.607C1302.11 296.268 1302.41 285.592 1302.72 285.187C1303.02 284.78 1328.86 283.255 1347.17 264.344C1365.49 245.433 1368.64 213.913 1365.99 205.679C1363.35 197.444 1358.16 186.666 1366.71 175.481C1375.25 164.296 1387.87 163.687 1395.4 175.481C1402.92 187.276 1388.48 208.017 1379.63 207.304C1370.78 206.594 1368.18 188.948 1365.29 186.869C1362.39 184.79 1357.25 188.292 1352.26 179.65C1347.28 171.009 1336.9 163.078 1328.25 147.827C1319.61 132.577 1318.49 94.1427 1321.44 96.7871C1324.39 99.4315 1330.7 112.242 1285.93 139.287C1241.17 166.332 1216.76 164.096 1217.16 167.553C1217.57 171.009 1231.81 249.91 1257.65 268.821C1283.49 287.732 1313.2 280.615 1309.33 278.99C1305.47 277.364 1269.05 271.873 1258.87 263.127C1248.7 254.382 1238.53 203.954 1229.17 198.26C1219.81 192.567 1202.11 184.229 1198.24 160.438C1194.37 136.647 1210.04 43.1047 1285.32 41.6813C1360.6 40.2579 1347.17 68.5236 1343.51 69.133C1339.85 69.7424 1331.51 62.6253 1365.08 59.7785C1398.65 56.9317 1406.58 112.955 1395.29 144.067C1384 175.18 1387.97 174.265 1387.66 188.448C1387.36 202.632 1371.33 210.105 1371.03 213.612C1370.73 217.119 1364.32 241.673 1367.37 256.314C1370.42 270.955 1374.85 303.999 1380.13 306.135C1385.42 308.272 1416.55 336.74 1415.13 341.824C1413.71 346.908 1384.81 362.566 1387.66 368.869C1390.51 375.172 1414.72 400.795 1411.87 404.454C1409.03 408.115 1379.32 428.856 1376.27 427.433C1373.22 426.009 1342.49 404.658 1347.79 404.658C1353.08 404.658 1403.33 439.432 1403.53 445.735C1403.74 452.038 1397.94 507.654 1386.14 512.536C1374.34 517.415 1356.53 468.307 1356.53 464.851C1356.53 461.394 1323.37 458.141 1313.6 453.463C1303.84 448.786 1283.9 466.274 1278.61 464.037C1273.32 461.799 1308.11 435.771 1301.8 435.771C1295.49 435.771 1273.93 451.021 1264.36 447.768C1254.8 444.514 1301.19 414.622 1298.14 414.418C1295.09 414.215 1263.35 427.026 1266.09 427.635C1268.84 428.245 1277.18 429.261 1272.5 439.429C1267.83 449.598 1263.35 446.344 1266.09 456.715C1268.84 467.086 1274.95 479.896 1289.6 475.017C1304.24 470.137 1310.55 448.379 1310.35 459.562C1310.15 470.747 1302.67 698.903 1314.11 698.903C1325.56 698.903 1316.86 460.07 1321.74 460.376C1326.62 460.682 1350.73 465.255 1352.87 475.932C1355.01 486.609 1380.65 536.936 1389.19 532.362C1397.74 527.788 1407.5 456.106 1411.17 458.242C1414.83 460.378 1496.62 511.315 1498.45 507.96C1500.28 504.605 1417.27 442.685 1417.58 449.701C1417.88 456.717 1412.69 520.467 1396.52 536.632C1380.34 552.798 1382.48 561.339 1386.14 568.354C1389.8 575.37 1444.43 615.329 1481.06 620.208C1517.68 625.088 1542.09 594.587 1547.59 552.494C1553.08 510.402 1542.55 363.991 1527.44 342.029C1512.34 320.066 1389.7 297.901 1391.74 302.173C1393.77 306.443 1480.65 325.559 1482.68 331.455C1484.72 337.354 1456.94 446.346 1459.69 458.244C1462.44 470.139 1524.7 499.879 1530.19 525.045C1535.68 550.211 1504.1 602.369 1497.69 608.315C1491.28 614.264 1480.75 607.4 1479.38 608.315C1478 609.23 1490.36 741 1490.36 741H2168.61" stroke="#161616" stroke-width="2.5" stroke-miterlimit="10"/>
</g>
<defs>
<clipPath id="clip0_40_288">
<rect width="2664" height="741" fill="white" transform="translate(-494)"/>
</clipPath>
</defs>
</svg>
