<svg width="1200" height="90" viewBox="0 0 1200 90" fill="none" xmlns="http://www.w3.org/2000/svg">
<mask id="mask0_106_2244" style="mask-type:alpha" maskUnits="userSpaceOnUse" x="0" y="0" width="1200" height="90">
<rect x="5" y="5" width="1190" height="80" rx="7" stroke="#B6CFDC" stroke-width="10"/>
</mask>
<g mask="url(#mask0_106_2244)">
<rect x="5" y="5" width="1190" height="80" rx="7" stroke="#B6CFDC" stroke-width="10"/>
<path d="M-21.3063 89.5L8.36038 0.5H29.3063L-0.36038 89.5H-21.3063Z" fill="white" stroke="#B6CFDC"/>
<path d="M394.694 89.5L424.36 0.5H445.306L415.64 89.5H394.694Z" fill="white" stroke="#B6CFDC"/>
<path d="M810.694 89.5L840.36 0.5H861.306L831.64 89.5H810.694Z" fill="white" stroke="#B6CFDC"/>
<path d="M186.694 89.5L216.36 0.5H237.306L207.64 89.5H186.694Z" fill="white" stroke="#B6CFDC"/>
<path d="M602.694 89.5L632.36 0.5H653.306L623.64 89.5H602.694Z" fill="white" stroke="#B6CFDC"/>
<path d="M1018.69 89.5L1048.36 0.5H1069.31L1039.64 89.5H1018.69Z" fill="white" stroke="#B6CFDC"/>
<path d="M82.6937 89.5L112.36 0.5H133.306L103.64 89.5H82.6937Z" fill="white" stroke="#B6CFDC"/>
<path d="M498.694 89.5L528.36 0.5H549.306L519.64 89.5H498.694Z" fill="white" stroke="#B6CFDC"/>
<path d="M914.694 89.5L944.36 0.5H965.306L935.64 89.5H914.694Z" fill="white" stroke="#B6CFDC"/>
<path d="M290.694 89.5L320.36 0.5H341.306L311.64 89.5H290.694Z" fill="white" stroke="#B6CFDC"/>
<path d="M706.694 89.5L736.36 0.5H757.306L727.64 89.5H706.694Z" fill="white" stroke="#B6CFDC"/>
<path d="M1122.69 89.5L1152.36 0.5H1173.31L1143.64 89.5H1122.69Z" fill="white" stroke="#B6CFDC"/>
<path d="M30.6937 89.5L60.3604 0.5H81.3063L51.6396 89.5H30.6937Z" fill="white" stroke="#B6CFDC"/>
<path d="M446.694 89.5L476.36 0.5H497.306L467.64 89.5H446.694Z" fill="white" stroke="#B6CFDC"/>
<path d="M862.694 89.5L892.36 0.5H913.306L883.64 89.5H862.694Z" fill="white" stroke="#B6CFDC"/>
<path d="M238.694 89.5L268.36 0.5H289.306L259.64 89.5H238.694Z" fill="white" stroke="#B6CFDC"/>
<path d="M654.694 89.5L684.36 0.5H705.306L675.64 89.5H654.694Z" fill="white" stroke="#B6CFDC"/>
<path d="M1070.69 89.5L1100.36 0.5H1121.31L1091.64 89.5H1070.69Z" fill="white" stroke="#B6CFDC"/>
<path d="M134.694 89.5L164.36 0.5H185.306L155.64 89.5H134.694Z" fill="white" stroke="#B6CFDC"/>
<path d="M550.694 89.5L580.36 0.5H601.306L571.64 89.5H550.694Z" fill="white" stroke="#B6CFDC"/>
<path d="M966.694 89.5L996.36 0.5H1017.31L987.64 89.5H966.694Z" fill="white" stroke="#B6CFDC"/>
<path d="M342.694 89.5L372.36 0.5H393.306L363.64 89.5H342.694Z" fill="white" stroke="#B6CFDC"/>
<path d="M758.694 89.5L788.36 0.5H809.306L779.64 89.5H758.694Z" fill="white" stroke="#B6CFDC"/>
<path d="M1174.69 89.5L1204.36 0.5H1225.31L1195.64 89.5H1174.69Z" fill="white" stroke="#B6CFDC"/>
</g>
</svg>
