<svg width="40" height="40" viewBox="0 0 40 40" fill="none" xmlns="http://www.w3.org/2000/svg">
<g clip-path="url(#clip0_111_2274)">
<path d="M34.1422 5.85781C30.3646 2.08039 25.3422 0 20 0C14.6578 0 9.63539 2.08039 5.85781 5.85781C2.08039 9.63539 0 14.6578 0 20C0 25.3422 2.08039 30.3646 5.85781 34.1422C9.63539 37.9196 14.6578 40 20 40C25.3422 40 30.3646 37.9196 34.1422 34.1422C37.9196 30.3646 40 25.3422 40 20C40 14.6578 37.9196 9.63539 34.1422 5.85781ZM20 37.6562C10.2643 37.6562 2.34375 29.7357 2.34375 20C2.34375 10.2643 10.2643 2.34375 20 2.34375C29.7357 2.34375 37.6562 10.2643 37.6562 20C37.6562 29.7357 29.7357 37.6562 20 37.6562Z" fill="#89CBC4"/>
<path d="M20 4.6875C11.5566 4.6875 4.6875 11.5566 4.6875 20C4.6875 28.4434 11.5566 35.3125 20 35.3125C28.4434 35.3125 35.3125 28.4434 35.3125 20C35.3125 11.5566 28.4434 4.6875 20 4.6875ZM20 32.9688C12.849 32.9688 7.03125 27.151 7.03125 20C7.03125 12.849 12.849 7.03125 20 7.03125C27.151 7.03125 32.9688 12.849 32.9688 20C32.9688 27.151 27.151 32.9688 20 32.9688Z" fill="#89CBC4"/>
<path d="M20 9.375C16.726 9.375 14.0625 12.0385 14.0625 15.3125C14.0625 18.5865 16.726 21.25 20 21.25C23.274 21.25 25.9375 18.5865 25.9375 15.3125C25.9375 12.0385 23.274 9.375 20 9.375ZM20 18.9062C18.0184 18.9062 16.4062 17.2941 16.4062 15.3125C16.4062 13.3309 18.0184 11.7188 20 11.7188C21.9816 11.7188 23.5938 13.3309 23.5938 15.3125C23.5938 17.2941 21.9816 18.9062 20 18.9062Z" fill="#89CBC4"/>
</g>
<defs>
<clipPath id="clip0_111_2274">
<rect width="40" height="40" fill="white"/>
</clipPath>
</defs>
</svg>
