<svg width="40" height="40" viewBox="0 0 40 40" fill="none" xmlns="http://www.w3.org/2000/svg">
<g clip-path="url(#clip0_111_2271)">
<path d="M38.8281 18.8281H34.5477L37.2348 16.141C37.6926 15.6833 37.6926 14.9416 37.2348 14.4839C36.7771 14.0262 36.0355 14.0262 35.5777 14.4839L31.2335 18.8281H23.2998C23.259 18.7138 23.2154 18.6024 23.1634 18.4938L28.7725 12.8852H34.9163C35.564 12.8852 36.0881 12.3611 36.0881 11.7134C36.0881 11.0656 35.564 10.5415 34.9163 10.5415H31.1166L34.0877 7.57062C34.5455 7.11289 34.5455 6.37125 34.0877 5.91352C33.63 5.45578 32.8884 5.45578 32.4306 5.91352L29.4574 8.88641V5.08492C29.4574 4.43719 28.9333 3.91305 28.2855 3.91305C27.6378 3.91305 27.1137 4.43719 27.1137 5.08492V11.2298L21.5063 16.8367C21.3977 16.7848 21.2863 16.741 21.1719 16.7002V8.76648L25.516 4.42234C25.9738 3.96461 25.9738 3.22297 25.516 2.76523C25.0583 2.3075 24.3166 2.3075 23.8589 2.76523L21.1719 5.45227V1.17188C21.1719 0.524141 20.6477 0 20 0C19.3523 0 18.8281 0.524141 18.8281 1.17188V5.45227L16.141 2.76516C15.6833 2.30742 14.9416 2.30742 14.4839 2.76516C14.0262 3.22289 14.0262 3.96453 14.4839 4.42227L18.8281 8.76648V16.7002C18.7137 16.741 18.6023 16.7848 18.4937 16.8367L12.8863 11.2298V5.08492C12.8863 4.43719 12.3622 3.91305 11.7145 3.91305C11.0667 3.91305 10.5426 4.43719 10.5426 5.08492V8.88633L7.56945 5.91344C7.11172 5.4557 6.37008 5.4557 5.91234 5.91344C5.45461 6.37117 5.45461 7.11281 5.91234 7.57055L8.88352 10.5414H5.08375C4.43602 10.5414 3.91187 11.0655 3.91187 11.7133C3.91187 12.361 4.43602 12.8852 5.08375 12.8852H11.2275L16.8366 18.4937C16.7846 18.6023 16.741 18.7137 16.7002 18.828H8.76648L4.42234 14.4839C3.96461 14.0262 3.22297 14.0262 2.76523 14.4839C2.3075 14.9416 2.3075 15.6833 2.76523 16.141L5.45227 18.8281H1.17188C0.524141 18.8281 0 19.3523 0 20C0 20.6477 0.524141 21.1719 1.17188 21.1719H5.45227L2.76516 23.859C2.30742 24.3167 2.30742 25.0584 2.76516 25.5161C3.22289 25.9738 3.96445 25.9739 4.42227 25.5161L8.76648 21.1719H16.7002C16.741 21.2862 16.7846 21.3976 16.8366 21.5062L11.2275 27.1148H5.08375C4.43602 27.1148 3.91187 27.6389 3.91187 28.2866C3.91187 28.9344 4.43602 29.4585 5.08375 29.4585H8.88344L5.91227 32.4294C5.45453 32.8871 5.45453 33.6287 5.91227 34.0865C6.37 34.5442 7.11156 34.5443 7.56938 34.0865L10.5426 31.1136V34.915C10.5426 35.5627 11.0667 36.0869 11.7145 36.0869C12.3622 36.0869 12.8863 35.5627 12.8863 34.915V28.7701L18.4937 23.1632C18.6023 23.2152 18.7137 23.2589 18.8281 23.2997V31.2334L14.484 35.5776C14.0262 36.0353 14.0262 36.777 14.484 37.2347C14.9417 37.6924 15.6834 37.6924 16.1411 37.2347L18.8281 34.5477V38.8281C18.8281 39.4759 19.3523 40 20 40C20.6477 40 21.1719 39.4759 21.1719 38.8281V34.5477L23.859 37.2348C24.3167 37.6926 25.0583 37.6927 25.5161 37.2348C25.9738 36.7771 25.9738 36.0355 25.5161 35.5777L21.1719 31.2335V23.2998C21.2863 23.259 21.3977 23.2152 21.5063 23.1633L27.1137 28.7702V34.9151C27.1137 35.5628 27.6378 36.087 28.2855 36.087C28.9333 36.087 29.4574 35.5628 29.4574 34.9151V31.1137L32.4306 34.0866C32.8884 34.5443 33.6299 34.5444 34.0877 34.0866C34.5455 33.6288 34.5455 32.8872 34.0877 32.4295L31.1166 29.4586H34.9163C35.564 29.4586 36.0881 28.9345 36.0881 28.2867C36.0881 27.639 35.564 27.1148 34.9163 27.1148H28.7725L23.1634 21.5063C23.2154 21.3977 23.259 21.2863 23.2998 21.172H31.2335L35.5777 25.5161C35.8066 25.745 36.1064 25.8595 36.4062 25.8595C36.7059 25.8595 37.0059 25.745 37.2347 25.5161C37.6924 25.0584 37.6924 24.3167 37.2347 23.859L34.5477 21.1719H38.8281C39.4759 21.1719 40 20.6477 40 20C40 19.3523 39.4759 18.8281 38.8281 18.8281Z" fill="#89CBC4"/>
</g>
<defs>
<clipPath id="clip0_111_2271">
<rect width="40" height="40" fill="white"/>
</clipPath>
</defs>
</svg>
