<svg width="830" height="434" viewBox="0 0 830 434" fill="none" xmlns="http://www.w3.org/2000/svg">
<g clip-path="url(#clip0_119_3072)">
<path d="M784.063 87.16C776.607 112.648 767.839 90.6928 753.877 86.6076C739.914 82.5225 726.716 86.3225 734.173 60.8343C741.629 35.346 744.884 22.8956 758.846 26.9808C764.583 28.6591 766.191 46.765 771.386 55.2026C778.836 67.3019 788.456 72.1437 784.063 87.16Z" fill="#B8DDF1"/>
<path d="M774.865 148.412C758.97 165.54 743.073 182.663 719.783 201.903C696.493 221.142 665.811 242.498 636.33 260.324C606.85 278.15 578.578 292.444 562.659 299.836C546.739 307.227 543.173 307.715 543.88 303.674C544.587 299.633 549.567 291.058 553.669 284.291C557.768 277.523 560.988 272.558 567.965 269.781C574.943 267.004 585.678 266.411 598.765 260.294C611.847 254.175 627.281 242.532 649.823 226.032C672.362 209.527 702.012 188.17 717.537 174.697C733.058 161.222 734.455 155.629 734.575 149.461C734.695 143.292 733.536 136.545 733.252 132.512C732.967 128.48 733.555 127.165 735.195 126.626C736.836 126.087 739.531 126.33 744.991 128.081C750.45 129.831 758.677 133.09 765.382 135.023C772.088 136.957 777.275 137.563 783.33 136.747C789.388 135.935 796.316 133.703 801.681 129.963C807.046 126.222 810.856 120.975 814.379 115.656C817.902 110.337 821.141 104.947 823.44 99.5375C825.736 94.1269 827.091 88.6963 827.454 81.2103C827.816 73.7243 827.186 64.1829 824.336 56.1098C821.487 48.0367 816.421 41.4362 813.008 37.8692C809.593 34.3057 807.831 33.7792 802.35 33.488C796.869 33.1969 787.674 33.1385 782.134 34.1242C776.594 35.11 774.71 37.1364 772.798 40.6621C770.886 44.1878 768.943 49.2119 767.382 53.7326C765.825 58.2506 764.65 62.2616 762.271 65.0679C759.891 67.8743 756.306 69.476 752.609 69.4571C748.913 69.4382 745.105 67.7986 743.987 64.5071C742.873 61.2166 744.45 56.2706 748.106 53.1801C751.762 50.0897 757.493 48.8505 762.496 49.1542C767.501 49.4544 771.774 51.2967 773.236 55.1073C774.695 58.917 773.34 64.6905 769.645 69.1491C765.949 73.6077 759.912 76.7514 754.577 77.442C749.239 78.1317 744.599 76.371 741.115 73.7805C737.631 71.19 735.301 67.7652 732.704 64.5337C730.11 61.3031 727.253 58.2666 724.71 56.5548C722.166 54.8429 719.939 54.4601 717.053 56.8804C714.167 59.3006 710.625 64.5318 709.46 69.3624C708.296 74.1931 709.515 78.632 712.779 82.2859C716.042 85.9399 721.349 88.8159 728.341 90.4746C735.33 92.1324 743.999 92.5756 751.89 91.3142C759.78 90.0564 766.89 87.0939 773.288 81.6303C779.689 76.1676 785.378 68.2037 788.626 61.7391C791.874 55.2745 792.684 50.3102 792.147 45.0549C791.606 39.7987 789.723 34.2488 786.096 29.9845C782.469 25.7202 777.101 22.7459 771.589 21.0237C766.077 19.3015 760.428 18.8403 754.35 19.7332C748.272 20.6262 741.772 22.8786 733.975 29.2847C726.179 35.6908 717.087 46.247 711.386 53.5641C705.685 60.8812 703.377 64.952 702.023 71.072C700.669 77.192 700.265 85.3568 702.538 92.8116C704.808 100.266 709.755 107.01 715.814 111.365C721.875 115.717 729.047 117.681 736.225 118.395C743.408 119.111 750.6 118.583 758.733 116.35C766.865 114.118 775.939 110.184 782.036 106.8C788.134 103.415 791.251 100.578 795.624 95.9872C799.997 91.3963 805.628 85.0522 810.182 78.183C814.735 71.3139 818.219 63.9179 820.223 57.0976C822.226 50.2809 822.751 44.0407 821.403 38.2363C820.054 32.4319 816.831 27.0634 812.344 22.4565C807.857 17.8496 802.1 14.0026 795.77 11.259C789.441 8.51544 782.53 6.87708 775.128 6.70897C767.723 6.53998 759.822 7.84034 751.561 10.2556C743.296 12.6699 734.667 16.1983 727.002 21.5605C719.338 26.9227 712.633 34.117 707.654 40.2775C702.671 46.437 699.414 51.5662 697.055 57.0477C694.697 62.5293 693.241 68.364 692.864 74.8788C692.488 81.3936 693.19 88.5842 694.948 94.4681C696.706 100.352 699.524 104.93 702.502 108.343C705.479 111.756 708.623 114.002 710.467 117.132C712.31 120.262 712.859 124.274 712.852 127.413C712.844 130.551 712.277 132.824 710.901 135.063C709.525 137.303 707.335 139.513 701.262 142.817C695.185 146.12 685.219 150.52 671.52 158.597C657.817 166.67 640.381 178.419 623.901 190.212C607.422 202.005 591.898 213.844 581.406 221.983C570.916 230.127 565.458 234.575 560.343 236.872C555.229 239.169 550.457 239.311 547.232 238.958C544.006 238.605 542.325 237.756 540.754 237.318C539.183 236.885 537.727 236.864 536.603 237.916C535.478 238.969 534.69 241.099 532.857 244.129C531.024 247.158 528.148 251.091 523.755 255.07C519.361 259.053 513.448 263.087 506.904 265.501C500.359 267.916 493.193 268.706 486.11 268.618C479.03 268.53 472.039 267.561 465.98 265.981C459.916 264.403 454.78 262.217 450.825 259.961C446.87 257.705 444.093 255.374 442.193 252.384C440.293 249.39 439.27 245.735 439.045 241.977C438.819 238.219 439.395 234.36 440.691 230.809C441.988 227.257 444.002 224.017 448.232 220.509C452.466 217.002 458.916 213.231 466.416 210.607C473.917 207.983 482.465 206.498 489.985 206.029C497.505 205.56 503.999 206.104 510.611 207.626C517.227 209.149 523.961 211.647 529.7 214.435C535.438 217.224 540.179 220.301 544.143 224.604C548.106 228.907 551.286 234.438 552.515 239.693C553.741 244.951 553.017 249.933 551.316 254.848C549.614 259.763 546.945 264.606 542.669 269.65C538.394 274.695 532.524 279.947 524.645 284.179C516.766 288.41 506.882 291.626 497.555 293.3C488.228 294.975 479.456 295.109 472.841 294.622C466.227 294.134 461.768 293.021 456.388 291.482C451.003 289.946 444.693 287.983 438.884 285.219C433.075 282.455 427.767 278.893 423.997 275.712C420.227 272.534 417.999 269.737 416.524 265.905C415.048 262.072 414.329 257.2 414.498 252.117C414.666 247.038 415.73 241.749 419.175 235.357C422.623 228.965 428.452 221.465 434.923 216.148C441.392 210.834 448.504 207.698 457.444 205.068C466.389 202.436 477.162 200.305 485.189 199.447C493.216 198.588 498.494 199.002 504.795 200.142C511.095 201.285 518.418 203.154 523.959 204.925C529.5 206.696 533.259 208.365 537.291 211.009C541.323 213.65 545.628 217.267 549.252 221.376C552.876 225.489 555.814 230.097 557.314 236.067C558.813 242.037 558.876 249.373 558.281 255.724C557.686 262.075 556.432 267.445 554.803 272.765C553.174 278.083 551.17 283.351 548.493 288.042C545.817 292.732 542.466 296.848 538.977 300.992C535.487 305.137 531.862 309.312 528.33 312.949C524.798 316.586 521.354 319.688 515.257 322.557C509.16 325.426 500.411 328.062 493.047 328.766C485.685 329.466 479.708 328.234 474.164 326.312C468.619 324.389 463.502 321.779 458.44 318.256C453.378 314.733 448.374 310.299 443.704 306.591C439.01 302.893 434.673 299.916 431.004 295.125C427.335 290.335 424.338 283.731 420.171 279.034C416.005 274.334 410.677 271.543 401.186 270.421C391.695 269.302 378.041 269.851 362.174 277.425C346.307 284.999 328.225 299.588 322.776 323.409C317.327 347.23 324.516 360.279 317.39 380.529C310.264 400.78 288.825 408.232 263.04 404.432C237.256 400.631 204 338 161.826 333.804C97.5 328.766 113 400.129 56.0006 384.5C25.0006 376 17.0282 424.452 9.50057 435" stroke="black" stroke-width="2.5" stroke-miterlimit="2.6131"/>
<path d="M566.056 101.919C542.321 32.8241 369.536 55.4242 269.137 89.8775C168.739 124.331 209.275 185.656 233.01 254.751C256.745 323.845 298.57 175.023 398.969 140.569C499.368 106.116 589.791 171.013 566.056 101.919Z" fill="#E8BDD8"/>
</g>
<defs>
<clipPath id="clip0_119_3072">
<rect width="830" height="434" fill="white"/>
</clipPath>
</defs>
</svg>
