<svg width="603" height="724" viewBox="0 0 603 724" fill="none" xmlns="http://www.w3.org/2000/svg">
<path d="M220.141 230.658C251.133 129.877 420.968 129.704 517.389 159.358C613.811 189.013 600.308 237.265 569.316 338.046C538.323 438.827 529.822 536.406 433.4 506.752C393.785 494.568 369.617 416.827 328.613 376.638C269.815 319.008 201.882 290.033 220.141 230.658Z" fill="#FFEBC5"/>
<path d="M117.167 583.992C146.995 597.088 147.791 633.75 139.477 652.672C131.163 671.594 116.888 665.612 87.0607 652.515C57.2334 639.419 28.4479 631.38 36.7616 612.457C40.1774 604.683 57.6255 587.161 69.2859 580.868C86.0065 571.844 99.5947 576.276 117.167 583.992Z" fill="#E8BDD8"/>
<path d="M833.5 745.234C833.5 745.234 539.01 743.826 476.828 742.235C448.159 741.502 455.312 658.099 457.502 639.216C458.889 627.212 479.518 645.116 486.987 632.316C489.959 627.233 494.127 618.397 496.971 612.173C507.123 589.967 546.726 542.83 549.007 531.438C549.507 528.932 557.522 519.711 560 518C563.584 515.536 569.699 518.483 566.433 524.996C565.285 527.277 563.264 529.946 561.835 531.438C558.78 534.621 551.38 542.303 553.83 541C556.59 539.529 563.476 533.635 564.37 544.534C565.264 555.426 563.124 558.819 561.87 562.213C561.532 563.128 561.201 563.769 560.913 564.29C559.667 566.564 557.338 569.41 556 576.5C554.747 583.111 555.78 581.677 551.141 586.5C546.501 591.323 545.05 595.789 543.804 599C542.551 602.218 540.974 603.295 539.904 606.688C535.919 619.319 536.616 614.651 521.331 618.658C513.833 620.622 511.51 620.263 507.046 621.157C492.43 624.079 498.182 609.103 506.63 609.42C512.059 609.624 519.332 611.258 517.762 613.117C516.36 614.771 512.875 611.075 510.278 608.294C503.73 601.295 491.184 594.353 483.108 588.108C475.765 582.433 472 570.5 483.869 573.605C490.17 576.069 497.485 580.49 499.006 581.497C500.611 582.567 514.544 591.143 517.043 592.748C519.543 594.353 533.835 601.14 528.829 601.5C524.837 601.788 525.401 597.74 523.697 594.55C521.937 591.262 504.385 581.603 500.519 579.885C499.9 579.61 492.388 574.351 487.586 571.38C473.934 562.938 480.003 554.156 487.586 557C490.444 558.07 502.294 563.22 504.265 564.29C506.229 565.36 527.47 574.161 529.526 575.498C531.582 576.836 535.968 578.984 537.222 579.695C538.475 580.406 542.403 585.229 539.094 584.961C535.384 584.658 539.045 577.674 533.201 574.618C527.125 571.443 506.067 558.861 504.265 558.615C503.012 558.446 497.823 555.672 493.796 553.328C485 544.534 489.539 541.344 505.5 544.534C509.07 545.245 534.011 553.968 537.222 558.615C540.439 563.262 556.146 565.487 551.141 566.022C546.107 566.557 548.055 560.055 542.5 555.5C538.05 551.853 522.901 548.196 517.043 542C507.616 532.03 511.679 524.075 525.358 529.327C530.378 531.256 535.891 535.733 539.094 537C541.523 537.965 547.212 527.833 549.007 525.482C557.674 514.146 586.59 464.334 597.354 442.86C602.938 431.722 603.86 432.144 593.616 430.659C567.073 426.8 480.799 416.127 463.521 413.994C456.333 413.106 458.368 433.552 460.614 433.82L567.566 446.711C575.501 448.07 582.731 431.391 571.276 430.412L463.31 416.789C450.644 415.564 437.521 413.761 425.01 412.684C424.306 412.621 423.75 412.677 423.56 412.973C423.538 413.008 423.51 413.05 423.489 413.092M423.56 412.98C423.56 412.98 372.136 501.544 345.994 546.85C332.061 571 323.099 590.685 312.594 615.82C309.525 623.171 305.089 621.622 318.276 622.783L443.02 633.739C456.925 635.196 455.01 636.484 454.995 624.551C454.96 597.838 459.297 520.413 463.092 452.935C465.563 408.995 488.079 331.266 437.443 324.226C420.863 321.923 400.544 322.008 384.224 313.496C367.792 304.913 365.743 290.036 373.248 294.676C377.444 297.274 378.367 306.427 378.557 315.115C379.092 339.757 376.522 361.407 374.269 385.035C371.889 410.051 364.588 428.187 357.076 452.083C348.677 478.81 344.136 465.2 327.788 469.769C314.678 473.431 312.186 494.193 327.612 498.347C339.271 501.487 352.26 493.912 352.26 482.098C352.26 478.528 347.438 469.952 346.543 475.845C345.649 481.738 359.935 486.561 358.512 495.137C355.14 515.372 341.207 519.378 322.789 514.963C311.594 512.274 305.526 495.432 307.426 484.956C308.497 479.063 314.038 473.529 318.853 469.952C328.562 462.75 336.166 469.192 342.861 456.646C356.851 430.433 365.581 401.032 366.334 371.088C366.693 356.669 367.714 332.308 366.025 315.671C362.765 283.524 314.305 260.48 315.981 285.622C316.473 292.986 317.037 300.055 317.403 306.371C319.043 334.674 307.814 355.648 295.444 381.163C286.692 399.208 278.117 413.501 277.758 422.787C277.399 432.074 276.329 452.435 284.545 447.796C291.388 443.93 282.376 422.231 274.019 410.544C263.536 395.885 252.658 383.557 242.048 368.314C228.664 349.058 216.407 319.551 206.325 298.119C201.748 288.403 198.707 279.088 196.855 272.519C192.089 255.587 132.026 276.821 138.644 312.545C140.961 325.042 146.685 348.459 150.381 359.063C153.662 368.462 157.464 368.201 162.139 367.434C174.016 365.484 187.66 371.433 192.004 383.127C194.666 390.288 196.912 395.927 198.32 399.94C203.487 414.733 192.265 400.215 195.468 413.634C196.75 418.985 199.728 427.976 202.269 435.545C207.177 450.196 216.477 482.393 217.709 499.791C218.413 509.725 213.865 523.996 205.466 530.368C201.671 533.241 193.441 536.669 187.21 538.225C181.535 539.641 169.672 537.761 164.948 537.733C159.991 537.704 161.695 544.238 157.52 545.949C154.007 547.392 147.445 546.132 143.77 545.843C133.702 545.041 145.945 526.482 156.541 533.966C158.062 535.036 159.132 537 158.597 539.95C158.062 542.9 162.082 543.971 166.278 544.414C168.996 544.703 179.993 543.604 188.667 542.309C211.028 538.972 221.462 524.651 223.109 504.374C224.693 484.78 210.289 446.866 206.733 426.709C205.649 420.577 204.283 409.509 197.538 410.185C190.976 410.846 190.934 405.904 189.273 401.025C187.315 395.287 184.365 387.183 181.254 381.691C172.967 367.04 132.766 378.213 134.012 397.518C134.42 403.82 136.807 411.17 138.039 415.986C141.073 427.878 131.526 420.429 133.42 431.405C136.912 451.703 142.601 478.901 149.839 496.988C156.161 512.802 166.546 527.073 172.192 532.494C189.266 548.899 219.244 544.52 233.691 526.967C238.859 520.68 233.79 522.532 235.12 518.42C236.106 515.386 240.57 511.633 243.161 511.901C249.553 512.562 246.477 519.483 242.443 522.708C239.767 524.848 239.887 519.378 237.444 519.138C234.994 518.899 230.213 521.462 229.404 522.088C211.232 536.219 206.057 541.619 186.597 535.289C169.876 529.847 164.729 517.146 159.125 502.903C152.035 484.893 144.404 461.666 140.714 443.233C140.271 441.008 139.862 436.221 139.461 432.623C138.313 422.196 133.378 436.432 132.139 424.66C131.963 422.963 126.866 400.997 128.654 391.351C133.808 363.498 161.913 377.425 156.239 356.62C153.077 345.002 146.825 323.43 144.432 312.355C142.728 304.448 143.559 294.585 152.676 291.642C156.922 290.269 170.475 283.657 178.001 281.461C186.999 278.835 191.399 303.301 195.806 321.205C203.107 350.846 229.115 406.875 242.59 433.834C256.087 460.835 277.441 479.056 295.26 453.879C308.989 434.475 325.091 362.435 330.463 337.385C341.812 284.418 324.232 275.878 314.467 264.57C305.8 254.545 303.709 241.519 312.327 231.05C326.084 214.321 338.369 171.141 341.566 140.423C343.403 122.821 336.799 102.798 325.521 86.7664C310.771 65.7854 277.462 54.0064 267.831 47.8106C263.078 44.755 263.508 26.386 265.078 15.6702C266.775 4.10244 271.435 -0.614771 284.151 3.55328C293.106 6.48218 313.129 18.8878 322.782 27.9702C337.553 41.8613 312.841 49.1413 312.193 42.671C311.475 35.4544 334.539 30.1809 345.107 52.2674C360.772 84.9852 370.101 111.528 373.312 145.901C375.98 174.542 364.708 160.299 358.808 147.576C355.45 140.324 353.837 133.573 357.555 135.544C368.432 141.317 371.03 153.512 373.706 165.122C381.936 200.832 383.907 260.445 393.982 286.643C401.143 305.209 468.654 331.287 441.147 311.285C420.272 296.105 407.296 299.351 397.355 299.682C379.458 300.273 354.006 278.102 342.214 258.537C334.708 246.096 330.695 218.708 333.716 202.634C336.433 188.18 342.904 170.416 346.03 153.857C355.436 104.051 302.716 33.2647 250.384 43.7341C241.267 45.5577 223.18 55.7736 208.317 67.1442C180.212 88.6463 179.641 103.263 182.148 138.395C182.443 142.486 187.513 185.575 187.59 209.9C187.745 261.733 92.9586 289.459 107.856 298.774C114.158 302.709 122.62 297.098 129.379 288.642C134.878 281.75 139.243 272.97 140.362 265.908C142.369 253.284 145.298 235.584 146.283 225.777C147.853 210.111 162.645 197.227 162.153 207.147C161.765 214.92 146.403 223.179 148.001 202.993C148.994 190.524 151.655 167.544 152.655 155.743C154.324 135.98 169.756 135.53 169.468 143.922C169.207 151.575 148.163 154.631 152.838 132.031C164.244 76.9659 187.315 13.0229 250.187 1.9269C252.151 1.58191 253.919 1.55375 255.411 1.80017C260.994 2.72953 261.973 15.0929 261.656 26.4071C261.346 37.3835 264.043 44.5297 255.024 47.0855C238.563 51.7464 217.597 62.5326 203.509 75.8182C191.131 87.4846 188.245 104.262 187.703 121.202C186.963 144.528 189.357 181.047 195.778 205.415C201.995 228.987 213.527 246.406 237.768 254.84C251.06 259.466 270.598 256.291 283.918 251.44C329.639 234.774 259.6 233.803 220.188 243.66C192.708 250.517 170.228 274.955 146.579 292.261C141.616 295.894 136.638 299.386 131.54 302.287C113.848 312.341 74.5406 312.355 67.8521 330.273C63.7123 341.377 58.3826 365.786 54.1724 384.557C40.4927 445.465 23.2716 546.294 30.1995 614.264C33.417 645.806 45.4844 663.464 71.0626 678.996C73.6676 680.58 78.7649 683.917 81.3558 684.663M80.9474 684.558C80.9474 684.558 117.234 693.865 145.333 699.322C162.73 702.701 267.5 713.636 262.6 683.086C261.607 676.919 257.904 666.069 257.904 650.073C257.904 638.78 260.072 600.45 267.95 591.262C272.062 586.475 273.395 585.442 275.5 576.5C276.442 572.5 291.106 573.387 294.5 572.5C300.189 571 311.573 566.007 320.451 566.5C343.903 567.803 331.772 578.332 320.5 583.5C316.212 585.464 302.5 592.752 302.5 586.5C302.5 582.036 313.601 589.296 318.487 591C325.345 593.394 320.064 589.397 327.788 588.108C328.858 587.932 348.572 580.14 355 578C361.59 575.803 381.746 569.045 379.5 581C378.965 583.858 371.393 587.001 365.5 589.5C351.602 595.4 348.003 594.966 333.5 598.592C324.214 600.915 318.764 611.814 314.124 612.173C309.477 612.532 304.071 614.419 305.5 609.42C306.683 605.28 314.559 605.639 321.353 606.47C332.294 607.808 332.322 607.006 345.994 603.5C352.957 601.712 370.29 592.15 376 591.262C383.245 590.129 390.934 597.804 378.5 603.5C374.212 605.464 367.306 607.747 364.448 609C361.589 610.253 321.522 628.296 316.882 629.366C312.242 630.436 308.666 636.689 309.56 630.436C310.306 625.198 316.326 628.993 320.881 629.937C325.091 630.81 343.615 624.318 348.494 622.579C350.993 621.685 366.071 615.253 370 614C374.872 612.451 383.5 611 379.5 618.383C377.36 620.523 359.223 628.704 352.26 631.739C345.297 634.773 341.462 635.86 332 638C322.531 640.14 318.128 648.762 318.487 643.763C318.79 639.546 321.374 644.221 326.351 644.932C330.829 645.573 337.783 644.457 342 642.5C346.14 640.578 348.494 639.117 354 636.276C369 631.5 362.011 639.159 359.744 640.729C355.105 643.947 350.106 647.254 348.494 648.5C339.735 655.315 333 653 318.276 654.192C309.525 650.263 307.06 656.268 295.268 651.98C283.482 647.692 284.193 653.121 278.3 654.192C269.816 655.733 261.227 666.442 261.431 651.924C261.473 648.939 261.959 646.348 262.226 645.44C262.6 644.187 262.6 628.437 263.867 618.383C265.669 604.098 268.612 598.254 249.539 598.592C228.721 598.958 173.382 599.845 160.238 596.86C149.219 594.353 136.631 594.487 130.076 592.692C123.078 590.784 124.183 578.371 122.993 571.232C117.776 539.831 107.244 475.902 106.3 444.951C104.942 400.37 117.481 446.944 118.713 466.01C122.803 529.002 116.108 667.879 113.01 730.906C111.637 758.829 107.004 751.254 71.5765 751.5C-19.1756 752.134 -231.63 750.557 -231.63 750.557" stroke="black" stroke-width="2.4001" stroke-miterlimit="2.6131"/>
</svg>
