<svg width="26" height="26" viewBox="0 0 26 26" fill="none" xmlns="http://www.w3.org/2000/svg">
<path d="M21.0537 7.71875H4.94691C4.9303 7.91675 4.87048 6.85938 6.03668 24.3532C6.09812 25.2764 6.87152 26 7.79726 26H18.2034C19.1291 26 19.9025 25.2764 19.9639 24.3532C21.1311 6.8443 21.07 7.91273 21.0537 7.71875ZM9.82089 22.747C9.36986 22.7853 8.97975 22.4523 8.94086 22.0081L8.12836 12.6643C8.08925 12.217 8.42035 11.8234 8.86722 11.7843C9.3141 11.7457 9.70816 12.0763 9.74726 12.5232L10.5598 21.8669C10.5989 22.3143 10.2678 22.7079 9.82089 22.747ZM13.8128 21.9375C13.8128 22.3864 13.4492 22.75 13.0003 22.75C12.5514 22.75 12.1878 22.3864 12.1878 21.9375V12.5938C12.1878 12.1448 12.5514 11.7812 13.0003 11.7812C13.4492 11.7812 13.8128 12.1448 13.8128 12.5938V21.9375ZM17.8723 12.6643L17.0598 22.0081C17.0232 22.4311 16.6682 22.75 16.2513 22.75C15.7712 22.75 15.3996 22.3395 15.4409 21.8669L16.2534 12.5232C16.2925 12.0763 16.686 11.7457 17.1334 11.7843C17.5803 11.8234 17.9114 12.217 17.8723 12.6643ZM21.3919 2.84375H17.463C17.4712 2.73686 17.4691 2.81673 17.4691 1.76465C17.4691 0.79168 16.6774 0 15.7044 0H10.2962C9.32324 0 8.53156 0.79168 8.53156 1.76465C8.53156 2.79642 8.52937 2.73645 8.53765 2.84375H4.60871C3.63574 2.84375 2.84406 3.63543 2.84406 4.6084C2.84406 6.05988 2.84177 5.99107 2.84964 6.09375H23.151C23.1589 5.9895 23.1566 6.0515 23.1566 4.6084C23.1566 3.63543 22.3649 2.84375 21.3919 2.84375ZM15.8441 2.7041C15.8441 2.78129 15.7816 2.84375 15.7044 2.84375H10.2962C10.219 2.84375 10.1566 2.78129 10.1566 2.7041V1.76465C10.1566 1.68746 10.219 1.625 10.2962 1.625H15.7044C15.7816 1.625 15.8441 1.68746 15.8441 1.76465V2.7041Z" fill="white"/>
</svg>
