<svg width="14" height="14" viewBox="0 0 14 14" fill="none" xmlns="http://www.w3.org/2000/svg">
<g clip-path="url(#clip0_132_3997)">
<path d="M8.64576 2.35143L0.942758 10.055C0.904005 10.0938 0.876022 10.1429 0.862697 10.1957L0.00889325 13.6227C-0.0166465 13.7258 0.0136681 13.8355 0.0889547 13.9108C0.145919 13.9678 0.223538 13.9993 0.302933 13.9993C0.327251 13.9993 0.352125 13.9963 0.376332 13.9902L3.80332 13.1363C3.85673 13.123 3.90525 13.0951 3.94401 13.0563L11.6477 5.35334L8.64576 2.35143Z" fill="#89CBC4"/>
<path d="M13.5561 1.30108L12.6986 0.443616C12.1255 -0.129473 11.1267 -0.128918 10.5543 0.443616L9.50391 1.49396L12.5057 4.49577L13.5561 3.44542C13.8423 3.15926 14 2.77839 14 2.37331C14 1.96823 13.8423 1.58735 13.5561 1.30108Z" fill="#89CBC4"/>
</g>
<defs>
<clipPath id="clip0_132_3997">
<rect width="14" height="14" fill="white"/>
</clipPath>
</defs>
</svg>
