<svg width="90" height="90" viewBox="0 0 90 90" fill="none" xmlns="http://www.w3.org/2000/svg">
<path d="M89.1324 26.9939L87.3662 25.3416C86.7297 24.7462 85.8385 24.4889 84.9828 24.6529C84.1267 24.8171 83.3943 25.3859 83.0234 26.1744L81.1174 30.2244H77.7043C77.2785 30.2244 76.879 30.4301 76.6315 30.7765L70.2036 39.7758L69.5572 39.4525L70.3841 37.7986C70.6815 37.2039 70.4896 36.4809 69.9362 36.1121L65.6866 33.2789C65.3143 33.0307 64.8416 32.9884 64.4311 33.1661C64.0207 33.344 63.7284 33.7178 63.6547 34.1591L62.5586 40.736C62.4793 41.2117 62.0718 41.5569 61.5897 41.5569C61.0479 41.5569 60.6074 41.1162 60.6074 40.5745V34.3758C60.6074 33.6477 60.0171 33.0574 59.2891 33.0574C58.561 33.0574 57.9707 33.6477 57.9707 34.3758V40.5745C57.9707 42.5701 59.5942 44.1936 61.5897 44.1936C63.3661 44.1936 64.8674 42.9219 65.1594 41.1695L65.9203 36.6038L67.5052 37.6604L66.6091 39.4525C66.2833 40.1038 66.5474 40.8956 67.1986 41.2212L70.0317 42.6378C70.6117 42.9278 71.317 42.7528 71.694 42.2249L78.3824 32.8609H81.9536C82.4642 32.8609 82.929 32.566 83.1464 32.1038L85.4085 27.2968C85.415 27.2832 85.4298 27.2516 85.4788 27.2421C85.5284 27.2326 85.5534 27.2567 85.5645 27.2669L87.3307 28.9192C87.3636 28.95 87.3713 28.999 87.3497 29.0384L84.0833 34.9654C83.7318 35.6031 83.964 36.4048 84.6015 36.7562C85.2393 37.1076 86.0412 36.8756 86.3924 36.238L89.6589 30.3111C90.2639 29.2138 90.0474 27.8498 89.1324 26.9939Z" fill="white"/>
<path d="M21.3272 26.5251L35.4507 29.5097C37.0781 29.8535 38.7464 30.0279 40.4095 30.0279C41.1376 30.0279 41.7279 29.4376 41.7279 28.7096C41.7279 27.9815 41.1376 27.3912 40.4095 27.3912C38.9293 27.3912 37.4443 27.236 35.996 26.9299L21.8725 23.9454C21.1595 23.7949 20.4606 24.2503 20.31 24.9626C20.1595 25.675 20.615 26.3745 21.3272 26.5251Z" fill="white"/>
<path d="M79.0279 56.6985C78.4596 56.2435 77.6298 56.3358 77.1749 56.9043L73.037 62.0766C72.7644 62.4173 72.6781 62.8708 72.8064 63.2879L76.0877 73.9518C76.1669 74.2096 76.1378 74.4811 76.005 74.7161C75.8725 74.9511 75.6554 75.1165 75.3937 75.1819C74.9752 75.2865 74.5454 75.1082 74.3235 74.7386L69.2089 66.2141C68.9438 65.772 68.4453 65.5252 67.9329 65.582L58.9505 66.5801C58.4394 66.6369 58.008 66.9858 57.8454 67.4736L57.2465 69.2702L51.4741 67.6211C51.0475 67.4992 50.5885 67.6 50.2521 67.8891L44.2639 73.0402C43.9729 73.2907 43.8053 73.6556 43.8053 74.0397V75.4563C43.8053 75.5104 43.7614 75.5545 43.7071 75.5545H43.4056C41.5935 75.5545 39.9543 74.4123 39.3268 72.7125L37.3783 67.434C37.1536 66.8253 36.5193 66.4708 35.8831 66.5979L32.3796 67.2985C31.8824 67.398 31.3705 67.2433 31.0115 66.8844L26.0955 61.9683C25.7838 61.6567 25.337 61.5213 24.9048 61.6078L21.0178 62.3851C20.637 62.4614 20.2468 62.3899 19.9179 62.1844L5.9209 53.4362C5.57531 53.2201 5.32799 52.8677 5.24256 52.469L2.67055 40.4661C2.61096 40.1875 2.63065 39.8986 2.72803 39.6311L6.44173 29.4183C6.47285 29.3329 6.49499 29.2443 6.50783 29.1543L7.2918 23.6668C7.39464 22.9459 6.89384 22.2783 6.17314 22.1753C5.45192 22.0723 4.78466 22.5733 4.68165 23.294L3.91701 28.6461L0.250061 38.7295C-0.0167724 39.4632 -0.0712642 40.2546 0.0923869 41.0182L2.6644 53.0211C2.89854 54.1134 3.57617 55.0795 4.52345 55.6717L18.5206 64.4201C19.422 64.9835 20.4929 65.1788 21.5349 64.9705L24.73 64.3315L29.1472 68.7485C30.1311 69.7324 31.5331 70.1567 32.897 69.8839L35.2955 69.4042L36.8538 73.6254C37.8619 76.3563 40.495 78.1911 43.406 78.1911H43.7074C45.2154 78.1911 46.4424 76.9643 46.4424 75.4561V74.6445L51.4333 70.3513L57.7361 72.1521C58.4147 72.346 59.1256 71.9711 59.349 71.3014L60.0803 69.1076L67.3834 68.2961L72.0626 76.0951C72.8855 77.4667 74.4807 78.1276 76.0332 77.7397C76.9901 77.5006 77.8168 76.8706 78.3014 76.0116C78.7861 75.1525 78.8979 74.1191 78.6078 73.1764L75.5317 63.1791L79.2338 58.5515C79.6889 57.9829 79.5966 57.1532 79.0279 56.6985Z" fill="white"/>
<path d="M80.5368 38.7238C77.4666 38.7238 74.9688 41.2214 74.9688 44.2918C74.9688 49.0332 79.4151 53.534 79.6046 53.7233C79.8518 53.9705 80.1872 54.1095 80.5368 54.1095C80.8864 54.1095 81.2218 53.9707 81.469 53.7233C81.6583 53.534 86.1048 49.033 86.1048 44.2918C86.1048 41.2214 83.607 38.7238 80.5368 38.7238ZM80.5368 50.7969C79.393 49.3859 77.6055 46.7821 77.6055 44.2918C77.6055 42.6755 78.9205 41.3605 80.5368 41.3605C82.1531 41.3605 83.4681 42.6753 83.4681 44.2918C83.4681 46.7823 81.6801 49.3863 80.5368 50.7969Z" fill="white"/>
<path d="M67.3049 62.2226C67.4942 62.0333 71.9408 57.5322 71.9408 52.7911C71.9408 49.7209 69.4431 47.223 66.3727 47.223C63.3024 47.223 60.8047 49.7209 60.8047 52.7911C60.8047 57.5322 65.2512 62.0335 65.4406 62.2226C65.6877 62.4699 66.0231 62.6088 66.3727 62.6088C66.7224 62.6088 67.0578 62.4699 67.3049 62.2226ZM63.4414 52.7911C63.4414 51.1748 64.7564 49.8597 66.3727 49.8597C67.989 49.8597 69.3041 51.1748 69.3041 52.7911C69.3041 55.2815 67.5162 57.8856 66.3727 59.2962C65.2289 57.8852 63.4414 55.2814 63.4414 52.7911Z" fill="white"/>
<path d="M13.9606 27.195C14.3103 27.195 14.6456 27.0559 14.8928 26.8088C15.0821 26.6197 19.5287 22.1184 19.5287 17.3773C19.5287 14.3071 17.0308 11.8092 13.9606 11.8092C10.8904 11.8092 8.39258 14.3071 8.39258 17.3773C8.39258 22.1186 12.839 26.6197 13.0285 26.8088C13.2756 27.0561 13.611 27.195 13.9606 27.195ZM13.9606 14.4459C15.5769 14.4459 16.892 15.7608 16.892 17.3773C16.892 19.8677 15.1041 22.4717 13.9606 23.8824C12.8168 22.4714 11.0293 19.8675 11.0293 17.3773C11.0293 15.7608 12.3443 14.4459 13.9606 14.4459Z" fill="white"/>
<path d="M5.55859 41.4588C5.55859 46.2 10.0052 50.701 10.1945 50.8903C10.4416 51.1375 10.777 51.2764 11.1266 51.2764C11.4763 51.2764 11.8117 51.1375 12.0588 50.8903C12.2481 50.701 16.6947 46.2 16.6947 41.4588C16.6947 38.3884 14.197 35.8907 11.1266 35.8907C8.05627 35.8907 5.55859 38.3884 5.55859 41.4588ZM14.058 41.4588C14.058 43.9493 12.2701 46.5533 11.1266 47.9639C9.98283 46.5529 8.19531 43.9491 8.19531 41.4588C8.19531 39.8425 9.51033 38.5275 11.1266 38.5275C12.7429 38.5273 14.058 39.8423 14.058 41.4588Z" fill="white"/>
<path d="M33.8887 54.2076C33.8887 58.9487 38.3351 63.45 38.5246 63.6391C38.7717 63.8864 39.1071 64.0253 39.4567 64.0253C39.8063 64.0253 40.1417 63.8864 40.3889 63.6391C40.5782 63.4498 45.0248 58.9487 45.0248 54.2076C45.0248 51.1374 42.5269 48.6395 39.4567 48.6395C36.3865 48.6395 33.8887 51.1374 33.8887 54.2076ZM42.388 54.2076C42.388 56.698 40.6002 59.3021 39.4567 60.7127C38.3129 59.3017 36.5254 56.6979 36.5254 54.2076C36.5254 52.5913 37.8404 51.2762 39.4567 51.2762C41.073 51.2762 42.388 52.5913 42.388 54.2076Z" fill="white"/>
<path d="M50.4821 38.5274C50.8317 38.5274 51.1671 38.3885 51.4143 38.1412C51.6036 37.9519 56.0502 33.4508 56.0502 28.7096C56.0502 25.6395 53.5523 23.1416 50.4821 23.1416C47.4119 23.1416 44.9141 25.6393 44.9141 28.7096C44.9141 33.451 49.3604 37.9519 49.5499 38.1412C49.7971 38.3885 50.1325 38.5274 50.4821 38.5274ZM50.4821 25.7783C52.0984 25.7783 53.4134 27.0932 53.4134 28.7096C53.4134 31.2001 51.6256 33.8041 50.4821 35.2148C49.3383 33.8038 47.5508 31.1999 47.5508 28.7096C47.5508 27.0933 48.8658 25.7783 50.4821 25.7783Z" fill="white"/>
</svg>
