<svg width="64" height="64" viewBox="0 0 64 64" fill="none" xmlns="http://www.w3.org/2000/svg">
<g clip-path="url(#clip0_72_1986)">
<path d="M13.9438 51.6973C13.6208 51.3918 13.2948 51.0842 12.9687 50.7735C17.8256 46.0089 22.7717 40.1554 22.7717 32.2153C22.7717 24.2753 17.8256 18.4218 12.9687 13.6562C13.2948 13.3455 13.6208 13.0379 13.9438 12.7324C18.1312 8.77671 21.7464 5.36037 21.7464 1.45598V0.430664H19.6958V1.45598C19.6958 2.13166 19.5215 2.81452 19.22 3.5066H3.76653C3.46508 2.81452 3.29078 2.13166 3.29078 1.45598V0.430664H1.24016V1.45598C1.24016 5.36037 4.85541 8.77671 9.04278 12.7334C9.36576 13.0389 9.69181 13.3465 10.0179 13.6572C5.16095 18.4218 0.214844 24.2753 0.214844 32.2153C0.214844 40.1554 5.16095 46.0089 10.0179 50.7745C9.69181 51.0852 9.36576 51.3928 9.04278 51.6983C4.85541 55.654 1.24016 59.0703 1.24016 62.9747V64H3.29078V62.9747C3.29078 62.299 3.46508 61.6162 3.76653 60.9241H19.2211C19.5215 61.6162 19.6958 62.299 19.6958 62.9747V64H21.7464V62.9747C21.7464 59.0703 18.1312 55.654 13.9438 51.6973ZM4.9928 5.55723H17.9938C17.4934 6.22676 16.8998 6.90961 16.2425 7.60785H6.74403C6.08681 6.90961 5.49213 6.22676 4.9928 5.55723ZM8.78646 9.65848H14.1991C13.6608 10.1773 13.1051 10.7033 12.535 11.2426C12.1925 11.5666 11.8439 11.8957 11.4933 12.2289C11.1416 11.8957 10.794 11.5666 10.4516 11.2426C9.88149 10.7033 9.32475 10.1773 8.78646 9.65848ZM11.4933 15.0793C12.7339 16.2933 13.9602 17.5534 15.0932 18.8863H7.89341C9.02638 17.5534 10.2527 16.2933 11.4933 15.0793ZM3.8547 25.0382H13.5439V22.9875H4.93538C5.37524 22.2442 5.85304 21.5234 6.36672 20.8221V20.9369H16.6198V20.8221C17.1335 21.5224 17.6113 22.2442 18.0512 22.9875H15.5945V25.0382H19.1329C19.4333 25.7015 19.6866 26.3885 19.909 27.0888H3.07854C3.30103 26.3885 3.55326 25.7015 3.8547 25.0382ZM2.54948 29.1394H20.4381C20.5611 29.8038 20.6319 30.4908 20.675 31.19H2.31263C2.35467 30.4908 2.42542 29.8038 2.54948 29.1394ZM3.07752 37.3419H6.36672V35.2913H2.54846C2.42542 34.6269 2.35467 33.9399 2.31161 33.2407H20.6739C20.6319 33.9399 20.5611 34.6269 20.4371 35.2913H8.41734V37.3419H19.908C19.6855 38.0422 19.4333 38.7292 19.1319 39.3925H3.85368C3.55326 38.7292 3.30001 38.0422 3.07752 37.3419ZM6.36672 43.6086C5.85304 42.9073 5.37524 42.1865 4.93538 41.4432H18.0512C17.6123 42.1865 17.1335 42.9073 16.6198 43.6086V43.4938H6.36672V43.6086ZM7.89341 45.5444H15.0932C13.9602 46.8773 12.7339 48.1374 11.4933 49.3514C10.2527 48.1374 9.02638 46.8773 7.89341 45.5444ZM10.4516 53.1881C10.794 52.8641 11.1426 52.535 11.4933 52.2018C11.845 52.536 12.1925 52.8651 12.535 53.1881C13.1051 53.7274 13.6618 54.2534 14.1991 54.7722H8.78646C9.32475 54.2534 9.88149 53.7274 10.4516 53.1881ZM4.9928 58.8735C5.49315 58.2039 6.08681 57.5211 6.74403 56.8228H16.2436C16.9008 57.5211 17.4944 58.2039 17.9948 58.8735H4.9928Z" fill="white"/>
<path d="M58.6574 55.7975H57.0036C59.4213 51.4204 60.708 46.4743 60.708 41.4431C60.708 33.1658 57.2415 25.2698 51.1849 19.6491L53.9687 16.8654L51.917 14.8137L55.5948 11.138L56.6242 12.1664L61.1294 7.62115L53.5288 0L49.0236 4.57187L50.0407 5.58898L46.3598 9.25755L44.3164 7.2141L29.962 21.5685L27.9114 19.5178L23.3856 24.0436L37.1392 37.7971L41.6649 33.2714L39.6143 31.2208L45.3663 25.4688C48.3243 28.1397 50.5041 31.5981 51.6228 35.3938C49.7854 35.7978 48.4043 37.4342 48.4043 39.3925C48.4043 41.6205 50.1924 43.4302 52.4071 43.4835C52.3261 44.3407 52.1908 45.1917 52.0083 46.0314C51.2065 45.7218 50.3391 45.5444 49.4296 45.5444H34.0499C31.2231 45.5444 28.9234 47.8442 28.9234 50.6709V51.6963H42.3344C42.2863 52.0326 42.2524 52.373 42.2524 52.7216V55.7975H27.898C25.0713 55.7975 22.7715 58.0973 22.7715 60.9241V64H63.784V60.9241C63.784 58.0973 61.4842 55.7975 58.6574 55.7975ZM53.537 2.91189L58.236 7.62525L56.616 9.26062L51.9129 4.56059L53.537 2.91189ZM51.4915 7.03774L54.144 9.68818L50.4672 13.3629L47.8106 10.7063L51.4915 7.03774ZM37.1392 34.8965L26.2852 24.0426L27.9114 22.4164L38.7653 33.2704L37.1392 34.8965ZM38.1645 29.7699L31.4118 23.0172L44.3164 10.1127L51.0691 16.8654L38.1645 29.7699ZM46.8181 24.0169L49.7352 21.0999C55.4082 26.3362 58.6574 33.7102 58.6574 41.4431C58.6574 45.0789 57.9418 48.6675 56.5699 51.9977C56.3699 50.0106 55.3528 48.2645 53.8651 47.0905C54.1983 45.7371 54.4116 44.3499 54.5008 42.9534C55.7507 42.25 56.6068 40.9264 56.6068 39.3925C56.6068 37.5798 55.4174 36.0561 53.7841 35.5158C52.6388 31.1193 50.1965 27.0949 46.8181 24.0169ZM50.4549 39.3925C50.4549 38.2616 51.3746 37.3419 52.5055 37.3419C53.6365 37.3419 54.5562 38.2616 54.5562 39.3925C54.5562 40.5234 53.6365 41.4431 52.5055 41.4431C51.3746 41.4431 50.4549 40.5234 50.4549 39.3925ZM31.1493 49.6456C31.5728 48.4522 32.7129 47.595 34.0499 47.595H44.4158C43.814 48.1835 43.3208 48.8777 42.9548 49.6456H31.1493ZM61.7334 61.9494H24.8221V60.9241C24.8221 59.2282 26.2022 57.8481 27.898 57.8481H46.3537V55.7975H44.303V52.7216C44.303 49.8948 46.6028 47.595 49.4296 47.595C52.2564 47.595 54.5562 49.8948 54.5562 52.7216V55.7975H48.4043V57.8481H58.6574C60.3533 57.8481 61.7334 59.2282 61.7334 60.9241V61.9494Z" fill="white"/>
</g>
<defs>
<clipPath id="clip0_72_1986">
<rect width="64" height="64" fill="white"/>
</clipPath>
</defs>
</svg>
