<svg width="94" height="94" viewBox="0 0 94 94" fill="none" xmlns="http://www.w3.org/2000/svg">
<path d="M43.2397 76.4533C43.9319 76.4533 44.493 75.8922 44.493 75.2C44.493 74.5078 43.9319 73.9467 43.2397 73.9467C42.5475 73.9467 41.9863 74.5078 41.9863 75.2C41.9863 75.8922 42.5475 76.4533 43.2397 76.4533Z" fill="white"/>
<path d="M34.0985 70.5538C33.6091 70.0644 32.8157 70.0644 32.3263 70.5538L31.3324 71.5477L30.3385 70.5538C29.8491 70.0644 29.0557 70.0644 28.5663 70.5538C28.0769 71.0433 28.0769 71.8366 28.5663 72.3261L29.5602 73.3199L28.5663 74.3138C28.0769 74.8033 28.0769 75.5966 28.5663 76.0861C28.811 76.3308 29.1319 76.4533 29.4524 76.4533C29.7729 76.4533 30.0938 76.3308 30.3385 76.0861L31.3324 75.0922L32.3263 76.0861C32.571 76.3308 32.8919 76.4533 33.2124 76.4533C33.5329 76.4533 33.8538 76.3308 34.0985 76.0861C34.5879 75.5966 34.5879 74.8033 34.0985 74.3138L33.1046 73.3199L34.0985 72.3261C34.5882 71.8366 34.5882 71.0433 34.0985 70.5538Z" fill="white"/>
<path d="M78.3329 16.2933H15.6662C13.5929 16.2933 11.9062 17.98 11.9062 20.0533V61.4133C11.9062 63.4867 13.5929 65.1733 15.6662 65.1733H54.5196V76.4533C54.5196 76.9283 54.7875 77.362 55.2124 77.5744C55.6369 77.7856 56.1439 77.7408 56.5249 77.4557L60.7862 74.26L65.0476 77.4557C65.2691 77.6214 65.5336 77.7067 65.7996 77.7067C65.9904 77.7067 66.1828 77.6631 66.3601 77.5744C66.785 77.362 67.0529 76.9283 67.0529 76.4533V65.1733H78.3329C80.4062 65.1733 82.0929 63.4867 82.0929 61.4133V20.0533C82.0929 17.98 80.4062 16.2933 78.3329 16.2933ZM55.8299 59.9714L54.3999 58.0362C54.3259 57.936 54.237 57.847 54.1367 57.773L52.2015 56.343L51.9311 53.9526C51.917 53.8285 51.8848 53.7072 51.8349 53.5928L50.8733 51.3867L51.8346 49.1805C51.8841 49.0661 51.9167 48.9449 51.9308 48.8208L52.2012 46.4304L54.1364 45.0003C54.2366 44.9264 54.3256 44.8374 54.3996 44.7371L55.8296 42.802L58.22 42.5316C58.3441 42.5175 58.4654 42.4852 58.5797 42.4354L60.7859 41.4741L62.9921 42.4354C63.1065 42.4849 63.2277 42.5175 63.3518 42.5316L65.7422 42.802L67.1723 44.7371C67.2462 44.8374 67.3352 44.9264 67.4355 45.0003L69.3706 46.4304L69.641 48.8208C69.6551 48.9449 69.6874 49.0661 69.7372 49.1805L70.6985 51.3867L69.7372 53.5928C69.6877 53.7072 69.6551 53.8285 69.641 53.9526L69.3706 56.343L67.4355 57.773C67.3352 57.847 67.2462 57.936 67.1723 58.0362L65.7422 59.9714L63.3518 60.2418C63.2277 60.2559 63.1065 60.2882 62.9921 60.338L60.7862 61.2996L58.5801 60.3383C58.4657 60.2888 58.3444 60.2562 58.2204 60.2421L55.8299 59.9714ZM71.3001 58.0347C71.5806 57.8279 71.7617 57.5139 71.8008 57.1674L72.111 54.4213L73.2155 51.8871C73.3544 51.5675 73.3544 51.2052 73.2155 50.886L72.111 48.3517L71.8008 45.6057C71.7617 45.2594 71.5806 44.9455 71.3001 44.7384L69.0767 43.0959L67.4342 40.8725C67.2274 40.592 66.9135 40.4109 66.5669 40.3717L63.8209 40.0616L61.2866 38.957C60.967 38.8189 60.6048 38.8189 60.2855 38.957L57.7513 40.0616L55.0052 40.3717C54.659 40.4109 54.3451 40.592 54.1379 40.8725L52.4954 43.0959L50.272 44.7384C49.9916 44.9452 49.8105 45.2591 49.7713 45.6057L49.4611 48.3517L48.3566 50.886C48.2178 51.2056 48.2178 51.5678 48.3566 51.8871L49.4611 54.4213L49.7713 57.1674C49.8105 57.5136 49.9916 57.8275 50.272 58.0347L51.4524 58.9067H19.4262V22.56H74.5729V58.9067H70.1195L71.3001 58.0347ZM62.0396 72.0667V68.9333C62.0396 68.2412 61.4784 67.68 60.7862 67.68C60.0941 67.68 59.5329 68.2412 59.5329 68.9333V72.0667L57.0262 73.9467V62.6294L57.7513 62.7112L60.2855 63.8157C60.4453 63.8849 60.6155 63.9197 60.7862 63.9197C60.957 63.9197 61.1272 63.8849 61.287 63.8157L63.8212 62.7112L64.5462 62.6294V73.9467L62.0396 72.0667ZM79.5862 61.4133C79.5862 62.1042 79.0238 62.6667 78.3329 62.6667H67.0529V62.2412C67.2005 62.1559 67.3308 62.0406 67.4342 61.9006L67.7943 61.4133H75.8262C76.5184 61.4133 77.0796 60.8522 77.0796 60.16V21.3067C77.0796 20.6145 76.5184 20.0533 75.8262 20.0533H18.1729C17.4808 20.0533 16.9196 20.6145 16.9196 21.3067V60.16C16.9196 60.8522 17.4808 61.4133 18.1729 61.4133H53.7785L54.1386 61.9006C54.242 62.0406 54.3723 62.1559 54.5199 62.2412V62.6667H15.6662C14.9753 62.6667 14.4129 62.1042 14.4129 61.4133V20.0533C14.4129 19.3624 14.9753 18.8 15.6662 18.8H78.3329C79.0238 18.8 79.5862 19.3624 79.5862 20.0533V61.4133Z" fill="white"/>
<path d="M68.3056 51.3867C68.3056 47.24 64.9323 43.8667 60.7856 43.8667C56.639 43.8667 53.2656 47.24 53.2656 51.3867C53.2656 55.5334 56.639 58.9067 60.7856 58.9067C64.9323 58.9067 68.3056 55.5334 68.3056 51.3867ZM55.7723 51.3867C55.7723 48.6225 58.0214 46.3734 60.7856 46.3734C63.5499 46.3734 65.799 48.6225 65.799 51.3867C65.799 54.1509 63.5499 56.4 60.7856 56.4C58.0214 56.4 55.7723 54.1509 55.7723 51.3867Z" fill="white"/>
<path d="M47.4292 25.0667H44.4936C43.8014 25.0667 43.2402 25.6278 43.2402 26.32V33.84C43.2402 34.5321 43.8014 35.0933 44.4936 35.0933H47.4292C49.2656 35.0933 50.7602 33.5987 50.7602 31.7623V28.3977C50.7602 26.5612 49.2656 25.0667 47.4292 25.0667ZM48.2536 31.7623C48.2536 32.2169 47.8838 32.5867 47.4292 32.5867H45.7469V27.5733H47.4292C47.8838 27.5733 48.2536 27.943 48.2536 28.3977V31.7623Z" fill="white"/>
<path d="M57.027 25.0667H54.5203C53.9078 25.0667 53.3845 25.5097 53.2842 26.1138L52.0309 33.6338C51.9172 34.3169 52.3784 34.9623 53.0608 35.0764C53.7524 35.1933 54.3894 34.7283 54.5034 34.0465L54.7466 32.587H56.8011L57.0442 34.0465C57.1464 34.659 57.6772 35.0936 58.2791 35.0936C58.3471 35.0936 58.4166 35.088 58.4865 35.0764C59.169 34.9627 59.6302 34.3169 59.5164 33.6338L58.2631 26.1138C58.1628 25.5097 57.6396 25.0667 57.027 25.0667ZM55.1642 30.08L55.5819 27.5733H55.9651L56.3828 30.08H55.1642Z" fill="white"/>
<path d="M36.9721 35.0933C37.6642 35.0933 38.2254 34.5321 38.2254 33.84V31.3333H40.7321C41.4242 31.3333 41.9854 30.7721 41.9854 30.08C41.9854 29.3878 41.4242 28.8267 40.7321 28.8267H38.2254V27.5733H40.7321C41.4242 27.5733 41.9854 27.0121 41.9854 26.32C41.9854 25.6278 41.4242 25.0667 40.7321 25.0667H36.9721C36.2799 25.0667 35.7188 25.6278 35.7188 26.32V33.84C35.7188 34.5321 36.2799 35.0933 36.9721 35.0933Z" fill="white"/>
<path d="M45.7469 38.8534H23.1869C22.4948 38.8534 21.9336 39.4146 21.9336 40.1067C21.9336 40.7989 22.4948 41.3601 23.1869 41.3601H45.7469C46.4391 41.3601 47.0003 40.7989 47.0003 40.1067C47.0003 39.4146 46.4391 38.8534 45.7469 38.8534Z" fill="white"/>
<path d="M23.1869 45.1199H33.2136C33.9057 45.1199 34.4669 44.5588 34.4669 43.8666C34.4669 43.1745 33.9057 42.6133 33.2136 42.6133H23.1869C22.4948 42.6133 21.9336 43.1745 21.9336 43.8666C21.9336 44.5588 22.4948 45.1199 23.1869 45.1199Z" fill="white"/>
<path d="M33.2136 53.8933H23.1869C22.4948 53.8933 21.9336 54.4545 21.9336 55.1466C21.9336 55.8388 22.4948 56.4 23.1869 56.4H33.2136C33.9057 56.4 34.4669 55.8388 34.4669 55.1466C34.4669 54.4545 33.9057 53.8933 33.2136 53.8933Z" fill="white"/>
<path d="M43.2403 46.3733H23.1869C22.4948 46.3733 21.9336 46.9345 21.9336 47.6266V51.3866C21.9336 52.0788 22.4948 52.64 23.1869 52.64H43.2403C43.9324 52.64 44.4936 52.0788 44.4936 51.3866V47.6266C44.4936 46.9345 43.9324 46.3733 43.2403 46.3733ZM41.9869 50.1333H24.4403V48.88H41.9869V50.1333Z" fill="white"/>
</svg>
