<svg width="26" height="26" viewBox="0 0 26 26" fill="none" xmlns="http://www.w3.org/2000/svg">
<path d="M15.2496 8.0125H10.7496C10.047 8.01316 9.37334 8.29257 8.87651 8.7894C8.37968 9.28623 8.10027 9.95988 8.09961 10.6625V16.8125C8.10018 16.9985 8.15576 17.1802 8.25937 17.3346C8.36297 17.4891 8.50995 17.6094 8.68182 17.6805C8.85368 17.7516 9.04274 17.7703 9.22519 17.7342C9.40763 17.698 9.57531 17.6087 9.70711 17.4775C9.82557 17.3597 9.91167 17.2133 9.95711 17.0525V16.8025C9.9575 16.762 9.96872 16.7223 9.98961 16.6875V12.12C9.98961 12.0537 10.0159 11.9901 10.0628 11.9432C10.1097 11.8963 10.1733 11.87 10.2396 11.87C10.3059 11.87 10.3695 11.8963 10.4164 11.9432C10.4633 11.9901 10.4896 12.0537 10.4896 12.12V16.8125C10.489 16.9117 10.4781 17.0106 10.4571 17.1075V23.8575C10.4499 24.0122 10.4741 24.1668 10.5283 24.3118C10.5825 24.4569 10.6656 24.5895 10.7725 24.7015C10.8794 24.8135 11.008 24.9027 11.1504 24.9636C11.2927 25.0246 11.446 25.056 11.6009 25.056C11.7557 25.056 11.909 25.0246 12.0514 24.9636C12.1937 24.9027 12.3223 24.8135 12.4292 24.7015C12.5361 24.5895 12.6192 24.4569 12.6734 24.3118C12.7276 24.1668 12.7518 24.0122 12.7446 23.8575V18C12.7446 17.9337 12.7709 17.8701 12.8178 17.8232C12.8647 17.7763 12.9283 17.75 12.9946 17.75C13.0609 17.75 13.1245 17.7763 13.1714 17.8232C13.2183 17.8701 13.2446 17.9337 13.2446 18V23.85C13.2446 24.1537 13.3652 24.4449 13.58 24.6596C13.7947 24.8744 14.0859 24.995 14.3896 24.995C14.6933 24.995 14.9845 24.8744 15.1992 24.6596C15.414 24.4449 15.5346 24.1537 15.5346 23.85V16.8125C15.5346 16.8125 15.5346 16.7825 15.5346 16.7675V12.12C15.5346 12.0537 15.5609 11.9901 15.6078 11.9432C15.6547 11.8963 15.7183 11.87 15.7846 11.87C15.8509 11.87 15.9145 11.8963 15.9614 11.9432C16.0083 11.9901 16.0346 12.0537 16.0346 12.12V16.75C16.0315 16.889 16.0568 17.0272 16.1088 17.1561C16.1608 17.285 16.2385 17.402 16.3371 17.5C16.4256 17.5834 16.5296 17.6484 16.6433 17.6913C16.7571 17.7342 16.8781 17.7542 16.9996 17.75C17.2432 17.7416 17.4741 17.6388 17.6434 17.4635C17.8127 17.2881 17.9073 17.0538 17.9071 16.81V10.6625C17.9068 10.314 17.8378 9.9689 17.704 9.64705C17.5702 9.32519 17.3744 9.03286 17.1276 8.78675C16.8808 8.54064 16.5879 8.34559 16.2656 8.21274C15.9434 8.07989 15.5982 8.01184 15.2496 8.0125Z" fill="#89CBC4"/>
<path d="M12.9996 6.2825C13.5225 6.28299 14.0337 6.12837 14.4687 5.8382C14.9036 5.54803 15.2427 5.13535 15.443 4.65239C15.6433 4.16944 15.6958 3.63791 15.594 3.12509C15.4921 2.61226 15.2404 2.14118 14.8706 1.77147C14.5009 1.40176 14.0299 1.15003 13.517 1.04815C13.0042 0.94627 12.4727 0.998811 11.9897 1.19913C11.5068 1.39944 11.0941 1.73852 10.8039 2.17346C10.5137 2.6084 10.3591 3.11965 10.3596 3.6425C10.3609 4.34226 10.6395 5.01299 11.1343 5.5078C11.6291 6.00261 12.2999 6.28118 12.9996 6.2825Z" fill="#89CBC4"/>
</svg>
