<svg width="26" height="26" viewBox="0 0 26 26" fill="none" xmlns="http://www.w3.org/2000/svg">
<path d="M5.17728 14.2362C5.58773 13.6144 6.28378 13.2412 7.02881 13.2434H7.64004C7.92136 13.2434 8.14941 13.0154 8.14941 12.7341V10.7323C8.15021 10.5664 8.0685 10.411 7.9314 10.3176C7.89167 10.2906 7.84735 10.2728 7.80661 10.2479C7.03524 11.223 6.18735 12.1351 5.271 12.9755C4.88297 13.3348 4.28375 13.3348 3.89572 12.9755C3.70217 12.7977 3.47397 12.5812 3.22591 12.3352C3.11371 12.9714 3.05679 13.6161 3.05579 14.2621C3.05579 14.4358 3.07056 14.6024 3.07871 14.7715H4.17638C4.57893 14.7732 4.95523 14.5719 5.17728 14.2362Z" fill="#89CBC4"/>
<path d="M7.13061 4.58425C7.13061 3.17769 5.99036 2.03745 4.5838 2.03745C3.17723 2.03745 2.03699 3.17769 2.03699 4.58425C2.03699 5.99082 3.17723 7.13106 4.5838 7.13106C5.98966 7.12938 7.12892 5.99012 7.13061 4.58425ZM4.1106 6.11234H4.07444C3.93936 6.11231 3.80982 6.05863 3.71432 5.9631L3.20495 5.45374C3.01192 5.25387 3.01468 4.93618 3.21116 4.7397C3.40764 4.54322 3.72533 4.54046 3.92519 4.7335L4.01942 4.82773L5.19503 3.25991C5.30422 3.11433 5.48278 3.03806 5.66345 3.05983C5.84412 3.08159 5.99945 3.19809 6.07094 3.36544C6.14242 3.53279 6.1192 3.72557 6.01001 3.87115L4.48193 5.9086C4.39359 6.02719 4.25808 6.10155 4.1106 6.11234Z" fill="#89CBC4"/>
<path d="M11.2371 6.37671L11.6553 6.78878C11.8004 6.93469 12.019 6.97894 12.2095 6.90094C12.3999 6.82294 12.5247 6.63801 12.5258 6.43223C12.5262 6.29789 12.472 6.16915 12.3755 6.07567L12.1076 5.8266C11.8455 5.58796 11.7275 5.2295 11.7966 4.88185C11.8657 4.5342 12.1119 4.24812 12.4453 4.12787C12.9529 3.94609 13.3653 3.56645 13.5883 3.07553C12.3945 3.14486 11.22 3.40897 10.1114 3.8574C10.1596 4.15623 10.1848 4.45832 10.1868 4.76101C10.1835 5.15038 10.1389 5.5383 10.0538 5.91828C10.4945 5.902 10.9224 6.0678 11.2371 6.37671Z" fill="#89CBC4"/>
<path d="M18.3369 8.64897V10.1872C18.3369 10.7499 18.793 11.206 19.3556 11.206H20.4406C20.8171 11.2049 21.1633 11.4122 21.3401 11.7446C21.5169 12.077 21.4954 12.48 21.2841 12.7916L20.3199 14.2438C20.2681 14.3197 20.2409 14.4097 20.2419 14.5015C20.2432 14.6567 20.3207 14.8013 20.4492 14.8881C20.6435 15.0189 20.9051 14.9822 21.0559 14.8031L22.448 13.1813C23.082 12.4425 23.4305 11.5011 23.4305 10.5275V7.83093C22.9136 7.09628 22.3109 6.42597 21.635 5.83424L18.5351 8.24454C18.4098 8.34124 18.3365 8.4907 18.3369 8.64897Z" fill="#89CBC4"/>
<path d="M4.58401 12.2247C5.65672 11.2381 9.16826 7.78254 9.16826 4.76152C9.21344 2.18223 7.16315 0.0526634 4.58401 0C2.00507 0.0526642 -0.0451436 2.18192 -0.000253246 4.76101C-0.000253246 7.78203 3.50976 11.2375 4.58401 12.2247ZM1.01847 4.58426C1.01847 2.61507 2.61481 1.01872 4.58401 1.01872C6.5532 1.01872 8.14954 2.61507 8.14954 4.58426C8.14954 6.55345 6.5532 8.14979 4.58401 8.14979C2.61575 8.14755 1.02072 6.55252 1.01847 4.58426Z" fill="#89CBC4"/>
<path d="M16.4881 16.9414L12.5202 15.3542C12.3995 15.3058 12.2707 15.2809 12.1407 15.2809C12.0463 15.2805 11.9523 15.2935 11.8616 15.3196L9.53789 15.9817C9.31917 16.0441 9.16826 16.2438 9.16809 16.4712V18.337C9.16809 18.6183 9.39614 18.8464 9.67745 18.8464H10.1868C11.5927 18.8481 12.7319 19.9873 12.7336 21.3932V22.8892C12.7339 23.1147 12.8739 23.3165 13.0851 23.3958C13.2962 23.4751 13.5344 23.4153 13.6831 23.2458L16.5564 19.9619C16.7189 19.7762 16.8085 19.5378 16.8085 19.2911V17.4141C16.8094 17.2055 16.6822 17.0178 16.4881 16.9414Z" fill="#89CBC4"/>
<path d="M24.2278 19.367C25.7998 16.3195 25.8816 12.7181 24.4493 9.60249V10.5275C24.4493 11.7446 24.0135 12.9214 23.2207 13.845L21.8307 15.4647C21.4277 15.9365 20.7733 16.1071 20.1912 15.8921C19.6092 15.677 19.2228 15.122 19.2233 14.5015C19.2216 14.2086 19.3082 13.9219 19.4718 13.6789L20.4391 12.2247H19.3557C18.2305 12.2247 17.3183 11.3125 17.3183 10.1872V8.64897C17.3169 8.17593 17.5354 7.7291 17.9096 7.43974L20.8161 5.18072C19.0229 3.88063 16.883 3.14451 14.6696 3.06636C14.409 4.00605 13.7078 4.76033 12.7895 5.08853L13.0799 5.34321C13.4715 5.72554 13.6282 6.28843 13.4905 6.81814C13.3528 7.34785 12.9418 7.76314 12.4135 7.90634C11.8853 8.04955 11.3208 7.89869 10.9344 7.51105L10.5213 7.10356C10.3418 6.91527 10.0547 6.8787 9.83369 7.01595C9.78581 7.05212 9.73488 7.07657 9.68598 7.10764C9.34933 7.92527 8.9222 8.70264 8.41257 9.42524C8.43906 9.44204 8.46962 9.45427 8.4956 9.47159C8.91528 9.75404 9.16739 10.2264 9.16847 10.7323V12.7341C9.16847 13.578 8.48432 14.2621 7.64038 14.2621H7.02915C6.6266 14.2604 6.2503 14.4617 6.02825 14.7975C5.6178 15.4193 4.92175 15.7925 4.17672 15.7902H3.1748C3.9616 21.318 8.67869 25.4355 14.2621 25.4681C16.0387 25.4721 17.7899 25.047 19.3669 24.2288C21.7087 23.0139 23.0971 21.3301 24.2278 19.367ZM17.8276 19.2911C17.8276 19.7846 17.6484 20.2613 17.3234 20.6327L14.45 23.9161C14.0222 24.4055 13.3356 24.5783 12.727 24.3498C12.1184 24.1213 11.7153 23.5393 11.7153 22.8892V21.3932C11.7153 20.5493 11.0311 19.8651 10.1872 19.8651H9.67783C8.83389 19.8651 8.14974 19.181 8.14974 18.337V16.4738C8.1522 15.7926 8.60329 15.1944 9.25761 15.0048L11.5823 14.3426C12.0167 14.2194 12.4796 14.2432 12.899 14.4104L16.867 15.9975C17.4476 16.2278 17.8285 16.7895 17.8276 17.4141V19.2911Z" fill="#89CBC4"/>
</svg>
