<svg width="26" height="26" viewBox="0 0 26 26" fill="none" xmlns="http://www.w3.org/2000/svg">
<g clip-path="url(#clip0_46_420)">
<path d="M12.9047 0.00124948C12.9047 0.00124948 3.8948 -0.40006 4.92697 13.5462C4.92697 13.5462 4.8703 24.9663 9.9776 26C9.9776 26 7.74001 23.4173 8.37087 21.5794C8.37087 21.5794 11.1832 21.0625 10.7821 16.7605C10.7821 16.7605 8.42854 14.6939 8.14132 13.2597C8.14132 13.2597 8.14132 8.78238 8.54375 8.20856C8.54375 8.20856 10.7821 8.3807 11.0109 8.20856C11.0109 8.20856 12.8481 6.54403 13.2494 5.68387C13.2494 5.68387 13.5938 7.17514 12.7337 8.09522H15.0858C15.0858 8.09522 15.8321 7.3489 15.9454 6.54541C15.9454 6.54541 16.175 7.98039 15.8322 8.15102H17.2102C17.2102 8.15102 17.9559 12.1111 17.7834 13.2596C17.7834 13.2596 16.4638 16.1851 15.1428 16.7011C15.1428 16.7011 14.683 21.1217 17.8973 21.6939C17.8973 21.6939 17.61 25.6547 15.6582 25.8265C15.6582 25.8265 18.9304 26.6875 20.8252 19.6859C20.8252 19.6859 21.7433 9.93039 20.5181 6.75474C20.5196 6.75561 19.3339 0.747573 12.9047 0.00124948Z" fill="#89CBC4"/>
</g>
<defs>
<clipPath id="clip0_46_420">
<rect width="26" height="26" fill="white"/>
</clipPath>
</defs>
</svg>
