<svg width="22" height="22" viewBox="0 0 22 22" fill="none" xmlns="http://www.w3.org/2000/svg">
<path d="M11.0001 14.3888C12.8707 14.3888 14.387 12.8724 14.387 11.0019C14.387 9.13133 12.8707 7.61494 11.0001 7.61494C9.12954 7.61494 7.61316 9.13133 7.61316 11.0019C7.61316 12.8724 9.12954 14.3888 11.0001 14.3888Z" fill="#89CBC4"/>
<path d="M21.6626 10.0637C19.0591 6.91766 15.1182 3.88931 11 3.88931C6.8811 3.88931 2.93925 6.91978 0.33753 10.0637C-0.11251 10.6073 -0.11251 11.3965 0.33753 11.9401C0.991633 12.7305 2.36292 14.2563 4.19441 15.5895C8.80696 18.9473 13.183 18.9547 17.8057 15.5895C19.6372 14.2563 21.0085 12.7305 21.6626 11.9401C22.1113 11.3975 22.1136 10.6091 21.6626 10.0637ZM11 6.26017C13.6148 6.26017 15.7418 8.38717 15.7418 11.0019C15.7418 13.6166 13.6148 15.7436 11 15.7436C8.38532 15.7436 6.25833 13.6166 6.25833 11.0019C6.25833 8.38717 8.38532 6.26017 11 6.26017Z" fill="#89CBC4"/>
</svg>
