<svg width="26" height="26" viewBox="0 0 26 26" fill="none" xmlns="http://www.w3.org/2000/svg">
<g clip-path="url(#clip0_46_473)">
<path d="M9.8616 3.5862C9.8616 1.85317 11.2665 0.448273 12.9995 0.448273C14.7326 0.448273 16.1375 1.85317 16.1375 3.5862C16.1375 5.31923 14.7326 6.72413 12.9995 6.72413C11.2673 6.72216 9.86357 5.31842 9.8616 3.5862ZM16.5857 7.62069C18.3179 7.62266 19.7217 9.0264 19.7237 10.7586V14.3448C19.7237 15.0876 19.1216 15.6897 18.3788 15.6897C17.6361 15.6897 17.034 15.0876 17.034 14.3448V10.7586C17.034 10.511 16.8333 10.3103 16.5857 10.3103C16.3382 10.3103 16.1375 10.511 16.1375 10.7586V24.2069C16.1375 24.9496 15.5354 25.5517 14.7926 25.5517C14.0499 25.5517 13.4478 24.9496 13.4478 24.2069V18.3793C13.4478 18.1317 13.2471 17.931 12.9995 17.931C12.752 17.931 12.5513 18.1317 12.5513 18.3793V24.2069C12.5513 24.6874 12.2949 25.1313 11.8788 25.3715C11.4627 25.6118 10.9501 25.6118 10.534 25.3715C10.1179 25.1313 9.8616 24.6874 9.8616 24.2069V10.7586C9.8616 10.511 9.6609 10.3103 9.41332 10.3103C9.16575 10.3103 8.96505 10.511 8.96505 10.7586V14.3448C8.96505 15.0876 8.36295 15.6897 7.62022 15.6897C6.87749 15.6897 6.27539 15.0876 6.27539 14.3448V10.7586C6.27737 9.0264 7.68111 7.62266 9.41332 7.62069H16.5857Z" fill="#89CBC4"/>
<path d="M3.58617 0.896549V25.1034C3.58617 25.351 3.38547 25.5517 3.1379 25.5517H0.896518C0.648942 25.5517 0.448242 25.351 0.448242 25.1034V24.2069H1.79307C2.04065 24.2069 2.24135 24.0062 2.24135 23.7586C2.24135 23.511 2.04065 23.3103 1.79307 23.3103H0.448242V22.4138H1.34479C1.59237 22.4138 1.79307 22.2131 1.79307 21.9655C1.79307 21.7179 1.59237 21.5172 1.34479 21.5172H0.448242V20.6207H1.79307C2.04065 20.6207 2.24135 20.42 2.24135 20.1724C2.24135 19.9248 2.04065 19.7241 1.79307 19.7241H0.448242V18.8276H1.34479C1.59237 18.8276 1.79307 18.6269 1.79307 18.3793C1.79307 18.1317 1.59237 17.931 1.34479 17.931H0.448242V17.0345H1.79307C2.04065 17.0345 2.24135 16.8338 2.24135 16.5862C2.24135 16.3386 2.04065 16.1379 1.79307 16.1379H0.448242V15.2414H1.34479C1.59237 15.2414 1.79307 15.0407 1.79307 14.7931C1.79307 14.5455 1.59237 14.3448 1.34479 14.3448H0.448242V13.4483H1.79307C2.04065 13.4483 2.24135 13.2476 2.24135 13C2.24135 12.7524 2.04065 12.5517 1.79307 12.5517H0.448242V11.6552H1.34479C1.59237 11.6552 1.79307 11.4545 1.79307 11.2069C1.79307 10.9593 1.59237 10.7586 1.34479 10.7586H0.448242V9.86207H1.79307C2.04065 9.86207 2.24135 9.66137 2.24135 9.41379C2.24135 9.16621 2.04065 8.96551 1.79307 8.96551H0.448242V8.06896H1.34479C1.59237 8.06896 1.79307 7.86826 1.79307 7.62069C1.79307 7.37311 1.59237 7.17241 1.34479 7.17241H0.448242V6.27586H1.79307C2.04065 6.27586 2.24135 6.07516 2.24135 5.82758C2.24135 5.58001 2.04065 5.37931 1.79307 5.37931H0.448242V4.48276H1.34479C1.59237 4.48276 1.79307 4.28206 1.79307 4.03448C1.79307 3.7869 1.59237 3.5862 1.34479 3.5862H0.448242V2.68965H1.79307C2.04065 2.68965 2.24135 2.48895 2.24135 2.24138C2.24135 1.9938 2.04065 1.7931 1.79307 1.7931H0.448242V0.896549C0.448242 0.648973 0.648942 0.448273 0.896518 0.448273H3.1379C3.38547 0.448273 3.58617 0.648973 3.58617 0.896549Z" fill="#89CBC4"/>
<path d="M25.0276 22.8621H24.2073V3.13793H25.0276C25.2026 3.13794 25.3616 3.03613 25.4348 2.8772C25.508 2.71826 25.482 2.53125 25.3683 2.39828L23.6514 0.398966C23.5662 0.299374 23.4418 0.242035 23.3107 0.242035C23.1797 0.242035 23.0552 0.299374 22.97 0.398966L21.2531 2.39828C21.1394 2.53125 21.1134 2.71826 21.1866 2.8772C21.2598 3.03613 21.4188 3.13794 21.5938 3.13793H22.4142V22.8621H21.5938C21.4188 22.8621 21.2598 22.9639 21.1866 23.1228C21.1134 23.2817 21.1394 23.4687 21.2531 23.6017L22.97 25.601C23.0552 25.7006 23.1797 25.758 23.3107 25.758C23.4418 25.758 23.5662 25.7006 23.6514 25.601L25.3683 23.6017C25.482 23.4687 25.508 23.2817 25.4348 23.1228C25.3616 22.9639 25.2026 22.8621 25.0276 22.8621Z" fill="#89CBC4"/>
</g>
<defs>
<clipPath id="clip0_46_473">
<rect width="26" height="26" fill="white"/>
</clipPath>
</defs>
</svg>
