<svg width="26" height="26" viewBox="0 0 26 26" fill="none" xmlns="http://www.w3.org/2000/svg">
<g clip-path="url(#clip0_46_446)">
<path d="M19.9719 0H6.02736C2.98942 0 0.619256 2.62656 0.933237 5.6452L2.57332 21.4125C2.84454 24.0194 5.04388 26 7.66749 26H12.2379V19.8797C12.2379 19.4594 12.579 19.1187 12.9996 19.1187C13.4203 19.1187 13.7613 19.4594 13.7613 19.8797V26H18.3318C20.9554 26 23.1547 24.0194 23.4259 21.4125L25.066 5.6452C25.38 2.62656 23.0098 0 19.9719 0V0ZM21.6406 8.33747L17.4901 13.1035C17.3453 13.2696 17.1358 13.3651 16.9154 13.3651H9.08388C8.86344 13.3651 8.65387 13.2697 8.50919 13.1035L4.35869 8.33747C4.1093 8.05111 4.1093 7.62496 4.35869 7.33855C6.66009 4.69579 9.72885 3.2404 12.9996 3.2404C16.2704 3.2404 19.3392 4.69584 21.6406 7.3386C21.8899 7.62496 21.8899 8.05111 21.6406 8.33747Z" fill="#89CBC4"/>
<path d="M18.6714 6.65693L18.0105 7.43916C17.8598 7.61969 17.6432 7.71287 17.4251 7.71287C17.2531 7.71287 17.0802 7.65503 16.9377 7.53641C16.6146 7.26732 16.571 6.78748 16.8404 6.46467L17.354 5.83716C16.228 5.2512 15.0157 4.89604 13.7613 4.79361V5.73078C13.7613 6.15104 13.4203 6.49173 12.9996 6.49173C12.579 6.49173 12.2379 6.15104 12.2379 5.73078V4.79361C10.9836 4.89604 9.77126 5.2512 8.64518 5.83711L9.15884 6.46462C9.42823 6.78743 9.38461 7.26727 9.06154 7.53636C8.9191 7.65493 8.74614 7.71282 8.57414 7.71282C8.35593 7.71282 8.13935 7.61964 7.98868 7.43911L7.32533 6.6587C6.8454 7.01067 6.3872 7.40895 5.9552 7.85201L9.43077 11.8431H11.4592L12.6555 9.25459C12.791 8.96138 13.2081 8.96138 13.3436 9.25459L14.5399 11.8431H16.5683L20.0439 7.85201C19.6113 7.40823 19.1523 7.00935 18.6714 6.65693Z" fill="#89CBC4"/>
</g>
<defs>
<clipPath id="clip0_46_446">
<rect width="26" height="26" fill="white"/>
</clipPath>
</defs>
</svg>
