<svg width="26" height="26" viewBox="0 0 26 26" fill="none" xmlns="http://www.w3.org/2000/svg">
<path d="M11.4894 11.4223C8.73391 11.4223 6.49207 13.6641 6.49207 16.4197C6.49207 19.1753 8.73385 21.4171 11.4894 21.4171C13.0358 21.4171 14.4829 20.6983 15.4225 19.5014C14.8419 18.615 14.5038 17.5562 14.5038 16.4197C14.5038 15.2832 14.8419 14.2244 15.4225 13.3379C14.4829 12.1411 13.0358 11.4223 11.4894 11.4223ZM13.781 19.8824H12.2575V17.7218H10.7214V19.8824H9.19794V15.2708C9.19794 14.0072 10.2259 12.9793 11.4894 12.9793C12.753 12.9793 13.781 14.0072 13.781 15.2708V19.8824Z" fill="#89CBC4"/>
<path d="M11.4886 14.5026C11.0651 14.5026 10.7206 14.8472 10.7206 15.2707V16.1983H12.2567V15.2707C12.2567 14.8472 11.9121 14.5026 11.4886 14.5026Z" fill="#89CBC4"/>
<path d="M11.4891 22.9404C7.89357 22.9404 4.96832 20.0152 4.96832 16.4196C4.96832 12.824 7.89352 9.89879 11.4891 9.89879C13.4082 9.89879 15.2103 10.7465 16.4364 12.1725C17.3094 11.4094 18.4187 10.9109 19.6387 10.802C16.8725 5.36402 11.4891 0 11.4891 0C11.4891 0 1.73914 9.71395 1.73914 16.25C1.73914 21.6348 6.10429 26 11.4891 26C14.7212 26 17.585 24.4269 19.359 22.0052C18.2493 21.85 17.2421 21.371 16.4364 20.6667C15.2102 22.0927 13.4082 22.9404 11.4891 22.9404Z" fill="#89CBC4"/>
<path d="M20.1442 12.3027C17.8741 12.3027 16.0272 14.1495 16.0272 16.4197C16.0272 18.6898 17.8741 20.5366 20.1442 20.5366C22.4143 20.5366 24.2612 18.6898 24.2612 16.4197C24.2611 14.1495 22.4143 12.3027 20.1442 12.3027ZM22.4357 17.1813H20.9059V18.7111H19.3825V17.1813H17.8527V15.6579H19.3825V14.1281H20.9059V15.6579H22.4357V17.1813Z" fill="#89CBC4"/>
</svg>
