<svg width="385" height="152" viewBox="0 0 385 152" fill="none" xmlns="http://www.w3.org/2000/svg">
<g clip-path="url(#clip0_123_2863)">
<path d="M200.62 103.983C214.985 108.994 233.532 77.8027 240.819 56.9333C248.106 36.064 232.849 34.8034 218.484 29.7925C204.118 24.7816 223.093 50.7886 215.806 71.658C208.519 92.5273 186.254 98.9725 200.62 103.983Z" fill="#E8BDD8"/>
<path fill-rule="evenodd" clip-rule="evenodd" d="M198.788 135.947C198.615 136.054 197.388 136.001 197.281 135.827C197.174 135.653 197.227 135.424 197.4 135.317C200.708 133.269 202.971 129.956 203.996 126.279C204.579 124.186 204.761 121.974 204.505 119.811C204.249 117.651 203.558 115.542 202.396 113.648C200.525 110.6 197.428 108.103 192.957 106.845C192.761 106.791 192.646 106.587 192.7 106.389C192.729 106.283 192.802 106.201 192.893 106.156C196.694 104.27 197.767 100.431 198.858 96.5285C199.325 94.8589 199.795 93.1771 200.481 91.6109C203.449 84.8369 205.809 82.9093 210.328 79.2188C212.93 77.0937 216.257 74.3757 220.85 69.7744C228.234 62.3758 231.139 54.1114 230.69 46.2789C230.365 40.6125 228.283 35.1656 224.871 30.432C221.454 25.6903 217.702 22.6666 212.044 19.8538C202.054 14.8878 189.239 13.6977 175.942 18.9962C162.96 24.169 156.47 33.4308 154.093 42.5649C153.287 45.6617 153.07 48.6256 153.428 51.2107C153.782 53.7682 153.698 54.9503 155.161 56.5166C157.223 58.7249 160.397 59.7182 164.647 58.8176C169.112 57.8712 170.142 54.0335 172.349 48.7707C176.111 39.8018 181.375 28.6381 198.787 33.2314C200.957 33.8036 203.228 34.9709 205.167 36.6264C206.988 38.1805 209.519 41.1665 210.406 43.4971C211.295 45.833 211.534 48.5108 210.768 51.4417C210.102 53.9852 209.678 56.7173 207.259 59.5758C204.284 63.091 200.959 66.0227 197.723 68.8751C190.754 75.0184 183.202 80.7951 181.603 91.2556C181.129 94.3612 181.143 97.8167 182.188 100.718C183.014 103.013 184.491 104.965 186.89 106.119C187.073 106.207 187.151 106.428 187.063 106.612C187.015 106.712 186.928 106.781 186.83 106.809C181.871 108.212 178.59 111.03 176.791 114.41C175.867 116.145 175.332 118.029 175.159 119.948C174.986 121.869 175.176 123.825 175.702 125.702C176.832 129.728 178.51 132.379 182.477 134.508C182.657 134.604 182.725 135.829 182.629 136.009C182.533 136.19 182.31 136.258 182.13 136.162C177.976 133.931 175.172 130.113 173.991 125.903C173.441 123.943 173.243 121.895 173.425 119.882C173.607 117.866 174.169 115.886 175.14 114.062C176.923 110.713 180.078 107.894 184.772 106.358C182.642 105.085 181.287 103.174 180.493 100.971C179.4 97.9369 179.381 94.3545 179.871 91.1461C181.51 80.419 188.162 74.555 195.236 68.3183C198.449 65.4861 201.751 62.5752 204.694 59.0969C207.038 56.3278 208.414 53.695 209.053 51.2537C209.776 48.4872 209.551 45.9619 208.714 43.7617C207.875 41.5554 206.42 39.6708 204.689 38.1933C202.834 36.6102 200.667 35.4947 198.599 34.9493C181.805 30.5193 177.674 40.368 174.028 49.0588C171.742 54.5084 169.641 59.518 164.797 60.5443C160.266 61.504 156.858 60.4193 154.622 58.025C153.051 56.3432 152.071 54.0208 151.697 51.3128C151.326 48.6337 151.548 45.5711 152.379 42.3788C154.806 33.052 162.442 22.5787 175.67 17.3078C189.18 11.9247 202.209 13.1376 212.37 18.1889C218.138 21.0561 222.983 25.1597 226.47 29.9968C229.962 34.8419 232.094 40.4237 232.427 46.2387C232.888 54.2713 229.919 62.7364 222.371 70.3003C217.754 74.9264 214.409 77.6579 211.794 79.7943C207.367 83.4097 205.055 85.2983 202.158 91.9105C201.492 93.431 201.03 95.0859 200.57 96.7294C199.51 100.521 198.466 104.254 195.001 106.388C199.217 107.768 202.182 110.257 204.025 113.259C205.246 115.249 205.973 117.462 206.24 119.724C206.507 121.981 206.317 124.29 205.708 126.477C204.635 130.325 202.261 133.797 198.788 135.947Z" fill="black"/>
<path fill-rule="evenodd" clip-rule="evenodd" d="M182.303 135.002C182.689 135.002 183 135.45 183 136.001C183 136.554 182.688 137 182.303 137H-1V135H182.303V135.002Z" fill="black"/>
<path fill-rule="evenodd" clip-rule="evenodd" d="M197.69 136.998C197.308 136.998 197 136.55 197 135.999C197 135.446 197.309 135 197.69 135H385V137H197.69V136.998Z" fill="black"/>
</g>
<defs>
<clipPath id="clip0_123_2863">
<rect width="385" height="152" fill="white"/>
</clipPath>
</defs>
</svg>
