<svg width="1131" height="343" viewBox="0 0 1131 343" fill="none" xmlns="http://www.w3.org/2000/svg">
<path d="M218.167 91.9916C247.995 105.088 248.791 141.75 240.477 160.672C232.163 179.594 217.888 173.612 188.061 160.515C158.233 147.419 129.448 139.38 137.762 120.457C141.177 112.683 158.625 95.1608 170.286 88.8677C187.007 79.8436 200.595 84.2759 218.167 91.9916Z" fill="#E8BDD8"/>
<path d="M10.5951 -154.45C75.9336 -85.5348 -52.5854 -23.8457 32.0156 46.5068C55.8579 66.3337 67.7451 23.4873 41.0874 32.0569C16.0521 40.1055 -21.0721 92.8055 18.9295 163.693C39.2091 199.631 98.7269 226.129 140.505 214.726C145.818 213.276 149.207 208.165 147.507 202.93C144.601 193.991 136.866 182.895 131.485 183.618C121.083 185.016 135.19 200.58 131.765 199.569C128.34 198.559 115.672 182.428 135.058 171.724C157.272 159.456 157.777 151.424 157.777 151.424C157.777 151.424 126.971 178.484 117.947 176.622C108.924 174.759 127.697 171.522 116.209 154.584C104.721 137.645 106.086 158.244 103.856 156.791C101.626 155.335 101.958 142.089 122.391 136.343C137.618 132.062 125.762 133.328 123.758 133.673C102.691 137.311 101.357 149.94 101.622 141.382C101.812 135.265 98.0196 125.122 105.119 125.936C112.704 126.807 133.491 130.325 136.123 129.694C138.485 129.127 112.369 124.353 100.889 122.698C93.5496 121.639 109.973 121.148 111.679 104.618C114.393 78.3117 100.805 106.904 102.296 101.852C105.399 91.34 106.7 86.542 109.747 87.8378C112.792 89.1337 116.175 81.5383 117.13 80.6817C119.162 78.8628 139.604 91.8551 141.796 96.2877C143.079 98.8814 115.134 88.6285 113.547 89.9543C111.959 91.2801 150.006 103.16 151.723 100.652C153.787 97.6375 118.753 78.2678 115.396 73.5577C112.039 68.8475 121.636 65.0319 122.615 65.3214C123.594 65.6089 111.883 74.6478 121.055 71.5051C130.226 68.3623 142.695 48.6512 139.182 49.7414C135.669 50.8316 127.285 58.5547 128.294 56.8955C132.95 49.2323 137.128 44.0869 140.655 45.6562C144.18 47.2276 142.032 52.7065 147.878 49.1145C153.725 45.5225 156.896 43.0027 157.875 46.4809C158.854 49.9591 171.453 73.5916 170.919 74.4981C170.386 75.4046 146.106 51.5165 144.132 52.7943C142.159 54.0722 176.554 84.6591 175.829 80.2085C174.118 69.6861 159.166 44.2047 157.529 38.9395C155.893 33.6742 173.037 32.3485 177.198 33.5764C181.358 34.8044 195.799 30.0243 192.763 28.5967C189.726 27.1711 183.462 31.8792 181.869 30.9668C180.277 30.0543 189.882 23.4952 194.428 26.5641C198.974 29.631 199.675 81.3067 210.737 85.8192C218.098 88.8222 222.654 93.081 224.459 95.0038C224.974 95.5549 224.968 96.4115 224.449 96.9586L196.772 126.052C196.218 126.633 195.293 126.645 194.726 126.076L179.807 111.099C179.25 110.54 178.346 110.538 177.787 111.095L171.111 117.754C170.554 118.309 170.552 119.211 171.109 119.768L195.045 143.78C195.613 144.349 196.538 144.337 197.091 143.756L231.094 108.008C231.808 107.259 233.049 107.495 233.45 108.447C235.52 113.375 236.665 118.788 236.667 124.499C236.681 147.644 218.068 166.307 194.905 166.371C171.655 166.435 152.91 147.742 152.91 124.523C152.91 101.411 171.661 82.6744 194.79 82.6744C196.712 82.6744 198.586 82.7762 200.456 82.8022C204.191 82.8541 202.532 61.2961 202.532 46.3591C202.532 25.7495 212.929 25.7295 209.612 30.1102C206.645 34.0277 213.778 36.2499 229.704 40.413C245.629 44.576 243.271 39.7521 238.35 37.2483C228.871 32.4243 240.812 30.9807 256.947 52.2792C269.514 68.8675 275.672 61.2702 275.094 63.2269C274.517 65.1836 229.736 88.7703 231.776 84.741C246.612 55.4299 245.705 37.5577 237.435 64.2192C231.692 82.7363 226.001 88.0874 228.547 89.3712C231.094 90.6531 269.5 74.0708 275.017 67.991C280.534 61.9111 274.517 72.5274 277.77 82.0894C279.604 87.4804 281.625 88.8781 286.224 94.2152C290.768 99.4884 282.422 96.2837 282.55 99.9077C282.957 111.59 285.601 109.843 271.478 111.061C257.355 112.279 247.024 115.967 261.962 108.611C276.899 101.255 279.051 100.273 277.81 98.6517C275.7 95.8944 243.525 116.111 243.525 116.111C241.479 117.634 284.182 110.821 288.542 113.17C292.902 115.518 288.848 126.547 288.848 126.547C288.848 126.547 289.082 113.595 286.682 117.67C284.282 121.745 275.476 148.423 279.357 150.589C287.026 154.872 281.309 130.686 284.174 134.27C286.224 136.834 288.534 140.067 284.916 148.107C277.488 164.602 267.357 143.159 244.049 143.171C226.553 143.179 241.693 145.068 251.69 147.019C261.687 148.97 277.958 160.74 279.844 164.486C281.73 168.232 280.697 170.717 278.885 172.972C277.073 175.228 281.984 163.322 276.519 166.295C271.054 169.268 250.421 185.109 256.419 190.466C262.418 195.824 269.973 172.936 272.583 174.9C275.194 176.865 268.081 188.122 257.289 196.303C246.496 204.483 253.778 185.9 229.094 174.24C204.411 162.579 227.987 162.871 242.766 188.965C250.894 203.319 247.53 207.51 241.157 211.08C237.225 213.282 247.831 201.089 239.141 203.047C227.837 205.595 192.164 210.156 204.291 214.347C216.418 218.538 227.889 210.759 229.518 214.027C231.146 217.296 224.828 218.426 209.93 218.218C195.031 218.01 202.307 206.204 197.333 188.594C192.36 170.983 190.687 169.893 195.279 192.174C199.871 214.454 198.812 215.339 190.34 213.638C181.865 211.937 171.403 212.242 174.798 221.015C178.191 229.789 180.515 228.681 169.57 223.859C158.626 219.037 177.625 182.384 178.94 173.205C180.253 164.025 161.048 200.522 157.581 217.266C150.694 250.528 121.168 349.577 126.526 352.484C131.883 355.391 156.115 335.916 161.216 335.916C166.317 335.916 187.4 362.623 189.914 362.551C194.34 362.423 199.03 315.398 198.97 312.465C198.852 306.658 179.106 229.366 181.496 228.988C186.343 228.223 211.978 362.933 215.549 363.444C219.119 363.953 235.7 330.307 240.546 328.015C245.391 325.721 273.24 343.309 277.233 342.219C280.671 341.281 248.764 239.624 242.874 220.958C242.8 220.724 243.132 220.594 243.239 220.814C274.445 284.1 408.171 335.766 462.552 291.267C501.952 259.024 439.895 250.473 460.344 284.528C501.095 352.395 608.913 225.195 681.411 277.54C714.662 301.55 688.528 333.468 681.269 310.98C670.85 278.706 737 275 835.489 292.807C976 299.465 1130 211.08 1130 211.08" stroke="black" stroke-width="2.5" stroke-miterlimit="10" stroke-linecap="round" stroke-linejoin="round"/>
</svg>
