<svg width="345" height="193" viewBox="0 0 345 193" fill="none" xmlns="http://www.w3.org/2000/svg">
<path d="M180.536 49.6526C196.627 57.2909 197.057 78.6731 192.571 89.7092C188.086 100.745 180.385 97.2562 164.293 89.6179C148.202 81.9796 132.672 77.2908 137.158 66.2547C139 61.7205 148.413 51.501 154.704 47.8307C163.725 42.5675 171.055 45.1526 180.536 49.6526Z" fill="#E8BDD8"/>
<path d="M-1.5 1.5C33.7326 38.6699 34.7732 -16.8613 80.3928 21.0839C93.2493 31.7777 99.6593 8.66812 85.2846 13.2903C71.7848 17.6313 51.7662 46.0555 73.3364 84.2894C84.2717 103.673 116.366 117.965 138.894 111.814C141.759 111.033 143.586 108.276 142.669 105.452C141.103 100.631 136.932 94.6461 134.03 95.036C128.421 95.7898 136.028 104.184 134.181 103.639C132.334 103.095 125.503 94.3941 135.956 88.6208C147.935 82.0042 148.207 77.6717 148.207 77.6717C148.207 77.6717 131.596 92.2672 126.73 91.2624C121.864 90.2577 131.987 88.512 125.793 79.3765C119.598 70.2399 120.334 81.3505 119.132 80.5665C117.929 79.7814 118.108 72.6371 129.126 69.5378C137.337 67.2288 130.944 67.9116 129.863 68.0979C118.503 70.06 117.784 76.8716 117.927 72.2559C118.029 68.9562 115.984 63.4855 119.813 63.9249C123.903 64.3944 135.112 66.2919 136.531 65.9516C137.804 65.6458 123.722 63.0708 117.532 62.1781C113.574 61.6073 122.43 61.3424 123.35 52.4266C124.813 38.2382 117.486 53.6596 118.29 50.935C119.963 45.2651 120.665 42.6772 122.308 43.3761C123.95 44.0751 125.774 39.9785 126.289 39.5165C127.385 38.5354 138.408 45.5429 139.59 47.9337C140.282 49.3326 125.213 43.8026 124.357 44.5177C123.501 45.2328 144.017 51.6404 144.943 50.2878C146.056 48.6617 127.164 38.2145 125.354 35.674C123.544 33.1336 128.719 31.0756 129.247 31.2317C129.775 31.3868 123.46 36.262 128.405 34.5669C133.351 32.8719 140.075 22.2405 138.18 22.8285C136.286 23.4165 131.765 27.582 132.309 26.6871C134.82 22.5539 137.073 19.7787 138.975 20.6252C140.875 21.4727 139.717 24.4277 142.87 22.4904C146.022 20.553 147.732 19.1939 148.26 21.0699C148.788 22.9459 155.582 35.6923 155.294 36.1813C155.006 36.6702 141.914 23.7859 140.849 24.4751C139.786 25.1644 158.333 41.6617 157.941 39.2612C157.019 33.5859 148.956 19.8422 148.074 17.0024C147.191 14.1626 156.436 13.4475 158.68 14.1098C160.923 14.7721 168.71 12.1939 167.073 11.424C165.435 10.655 162.057 13.1944 161.199 12.7023C160.34 12.2101 165.519 8.67243 167.971 10.3277C170.422 11.9818 170.8 39.8535 176.765 42.2874C180.735 43.9071 183.191 46.2041 184.164 47.2412C184.442 47.5384 184.439 48.0004 184.159 48.2955L169.235 63.9873C168.936 64.3007 168.437 64.3072 168.131 64.0002L160.087 55.9223C159.786 55.6207 159.299 55.6197 158.997 55.9201L155.398 59.5116C155.097 59.811 155.096 60.2978 155.396 60.5982L168.304 73.5493C168.61 73.8562 169.109 73.8497 169.407 73.5363L187.743 54.2552C188.127 53.8513 188.796 53.9784 189.013 54.4921C190.129 57.1499 190.747 60.0695 190.748 63.1495C190.755 75.6331 180.718 85.6991 168.228 85.7335C155.691 85.768 145.583 75.6859 145.583 63.1624C145.583 50.6971 155.694 40.5912 168.166 40.5912C169.202 40.5912 170.213 40.6461 171.221 40.6601C173.235 40.6881 172.341 29.0607 172.341 21.0042C172.341 9.88827 177.947 9.8775 176.158 12.2403C174.558 14.3532 178.405 15.5518 186.993 17.7972C195.58 20.0425 194.309 17.4407 191.655 16.0902C186.543 13.4884 192.982 12.7098 201.683 24.1973C208.459 33.1443 211.78 29.0467 211.469 30.102C211.157 31.1574 187.01 43.8791 188.11 41.7058C196.11 25.8967 195.621 16.2572 191.161 30.6373C188.065 40.6246 184.996 43.5108 186.369 44.2032C187.743 44.8946 208.452 35.9508 211.427 32.6716C214.402 29.3924 211.157 35.1183 212.911 40.2757C213.901 43.1834 214.99 43.9372 217.47 46.8158C219.921 49.66 215.42 47.9315 215.489 49.8861C215.709 56.1872 217.134 55.2449 209.518 55.9018C201.903 56.5587 196.332 58.5478 204.387 54.5804C212.442 50.613 213.602 50.0832 212.933 49.2087C211.795 47.7215 194.446 58.6253 194.446 58.6253C193.342 59.447 216.369 55.7726 218.72 57.039C221.071 58.3055 218.885 64.2544 218.885 64.2544C218.885 64.2544 219.011 57.2684 217.717 59.4664C216.423 61.6644 211.675 76.0531 213.767 77.2216C217.902 79.5316 214.82 66.4868 216.365 68.4199C217.47 69.8027 218.716 71.5462 216.765 75.883C212.76 84.7794 207.297 73.2144 194.728 73.2208C185.293 73.2251 193.457 74.2439 198.848 75.296C204.239 76.3482 213.013 82.6966 214.03 84.7169C215.047 86.7372 214.49 88.078 213.513 89.2938C212.535 90.5108 215.184 84.0891 212.237 85.6926C209.29 87.2961 198.164 95.8404 201.399 98.7298C204.633 101.619 208.707 89.2744 210.114 90.3341C211.523 91.3938 207.687 97.4655 201.867 101.878C196.048 106.29 199.974 96.2669 186.664 89.9777C173.354 83.6885 186.067 83.8457 194.036 97.92C198.419 105.662 196.605 107.922 193.169 109.848C191.048 111.036 196.768 104.459 192.082 105.515C185.986 106.89 166.75 109.349 173.289 111.61C179.828 113.87 186.014 109.675 186.892 111.437C187.771 113.2 184.364 113.81 176.33 113.698C168.296 113.586 172.219 107.218 169.537 97.7197C166.855 88.2212 165.954 87.6332 168.43 99.6506C170.906 111.668 170.335 112.145 165.766 111.227C161.197 110.31 155.555 110.475 157.385 115.207C159.215 119.939 160.468 119.341 154.567 116.74C148.665 114.139 158.91 94.3704 159.619 89.4198C160.327 84.4682 149.971 104.153 148.102 113.184C144.388 131.125 128.467 184.547 131.356 186.115C134.244 187.683 147.311 177.179 150.062 177.179C152.813 177.179 164.181 191.584 165.537 191.545C167.923 191.476 170.452 166.113 170.42 164.531C170.356 161.399 159.709 119.71 160.997 119.507C163.611 119.094 177.434 191.751 179.36 192.027C181.285 192.301 190.226 174.154 192.839 172.918C195.452 171.68 210.469 181.167 212.622 180.579C214.476 180.073 197.271 125.244 194.094 115.175C194.054 115.049 194.233 114.979 194.291 115.098C211.119 149.232 283.228 177.099 312.552 153.097C333.798 135.707 300.334 131.095 311.361 149.463C333.335 186.067 391.474 117.461 430.567 145.694C448.498 158.644 434.405 175.859 430.491 163.73C424.873 146.323 460.543 144.324 513.651 153.928C589.42 157.519 672.461 109.848 672.461 109.848" stroke="black" stroke-width="1.5" stroke-miterlimit="10" stroke-linecap="round" stroke-linejoin="round"/>
</svg>
