<svg width="567" height="445" viewBox="0 0 567 445" fill="none" xmlns="http://www.w3.org/2000/svg">
<path d="M414.751 288.456C393.906 313.408 326.966 277.582 291.51 247.943C256.054 218.304 265.508 206.075 286.354 181.122C307.2 156.17 318.908 127.467 354.364 157.106C368.931 169.283 371.796 198.688 384.511 219.912C402.745 250.347 427.033 273.755 414.751 288.456Z" fill="#E8BDD8"/>
<path d="M136.105 319.323C77.9571 329.075 28.0792 200.75 14.2453 118.1C0.411396 35.4498 27.86 29.7719 86.0076 20.0204C144.155 10.2689 194.15 -15.43 207.984 67.2201C213.667 101.177 182.908 145.041 175.366 189.267C164.55 252.687 170.362 313.578 136.105 319.323Z" fill="#89CBC4"/>
<path d="M365.446 362.837C373.182 359.024 380.918 355.205 393.461 346.5C406.005 337.789 423.351 324.187 433.995 306.746C444.64 289.304 448.578 268.03 450.929 238.918C453.285 209.806 454.054 172.856 452.255 155.671C450.457 138.486 446.082 141.065 430.288 139.399C414.489 137.738 387.272 131.832 371.685 125.039C356.097 118.245 352.144 110.563 342.82 114.171C333.492 117.773 318.793 132.665 301.106 137.743C283.423 142.816 262.752 138.074 251.736 138.977C240.719 139.876 239.348 146.419 239.157 170.443C238.966 194.467 239.951 235.967 245.481 266.479C251.012 296.986 261.094 316.5 277.767 336.881C294.44 357.263 317.713 378.512 333.065 388.291C348.416 398.071 355.856 396.375 374.011 386.781C392.165 377.187 421.04 359.691 439.787 341.482C458.535 323.273 467.15 304.357 471.847 266.565C476.539 228.772 477.312 172.109 476.981 143.453C476.654 114.798 475.227 114.15 459.62 113.212C444.012 112.274 414.228 111.035 393.512 103.624C372.8 96.2126 361.156 82.62 353.651 77.8433C346.141 73.0665 342.77 77.1057 337.505 82.9512C332.246 88.7966 325.093 96.4535 314.709 101.371C304.326 106.288 290.712 108.471 273.733 109.248C256.754 110.026 236.414 109.399 226.237 114.321C216.059 119.243 216.049 129.715 216.577 158.581C217.104 187.447 218.179 234.703 222.077 269.59C225.975 304.478 232.702 327.006 250.977 347.819C269.252 368.632 299.076 387.734 317.281 399.119C335.486 410.504 342.072 414.172 344.403 419.425C346.733 424.679 344.809 431.518 338.113 433.791C331.417 436.064 319.954 433.771 298.72 427.142C277.491 420.514 246.491 409.551 217.154 384.021C187.818 358.492 160.133 318.396 150.735 263.022C141.336 207.648 150.227 136.996 193.218 89.464C236.208 41.9324 313.298 17.5218 381.249 25.274C449.201 33.0262 508.02 72.9411 536.584 126.98C565.142 181.02 563.439 249.184 545.977 300.047C528.516 350.91 495.296 384.468 468.386 403.951C441.475 423.429 420.874 428.828 400.268 434.227" stroke="black" stroke-width="2.5" stroke-miterlimit="2.6131" stroke-linecap="round" stroke-linejoin="round"/>
</svg>
