<svg width="16" height="16" viewBox="0 0 16 16" fill="none" xmlns="http://www.w3.org/2000/svg">
<circle cx="8" cy="8" r="7.5" fill="#FAFCFD" stroke="#89CBC4"/>
<path d="M7.3 5.91436C7.49259 6.12983 7.72593 6.23757 8 6.23757C8.27407 6.23757 8.51111 6.12983 8.71111 5.91436C8.9037 5.69061 9 5.42541 9 5.11878C9 4.81216 8.9037 4.55111 8.71111 4.33564C8.51111 4.11188 8.27407 4 8 4C7.72593 4 7.49259 4.11188 7.3 4.33564C7.1 4.55111 7 4.81216 7 5.11878C7 5.42541 7.1 5.69061 7.3 5.91436ZM7.16667 12H8.83333V6.78453H7.16667V12Z" fill="#89CBC4"/>
</svg>
