<svg width="30" height="30" viewBox="0 0 30 30" fill="none" xmlns="http://www.w3.org/2000/svg">
<g clip-path="url(#clip0_132_3771)">
<path d="M27.3633 3.51562H12.275C11.8666 1.51225 10.091 0 7.96875 0H2.63672C1.18283 0 0 1.18283 0 2.63672V27.3633C0 28.8172 1.18283 30 2.63672 30H27.3633C28.8172 30 30 28.8172 30 27.3633C30 25.4786 30 9.04529 30 6.15234C30 4.69846 28.8172 3.51562 27.3633 3.51562ZM2.63672 1.75781H7.96875C9.42264 1.75781 10.6055 2.94064 10.6055 4.39453C10.6055 4.87992 10.999 5.27344 11.4844 5.27344H27.3633C27.8479 5.27344 28.2422 5.66772 28.2422 6.15234V10.5469H26.4844V7.91016C26.4844 7.42477 26.0909 7.03125 25.6055 7.03125H4.39453C3.90914 7.03125 3.51562 7.42477 3.51562 7.91016V10.5469H1.75781V2.63672C1.75781 2.15209 2.15209 1.75781 2.63672 1.75781ZM5.27344 10.5469V8.78906H24.7266V10.5469H5.27344ZM28.2422 27.3633C28.2422 27.8479 27.8479 28.2422 27.3633 28.2422H2.63672C2.15209 28.2422 1.75781 27.8479 1.75781 27.3633V12.3047H28.2422V27.3633Z" fill="black"/>
<path d="M12.1057 19.1371L14.121 17.1219V22.0312C14.121 22.5166 14.5145 22.9102 14.9999 22.9102C15.4853 22.9102 15.8788 22.5166 15.8788 22.0312V17.1219L17.8941 19.1371C18.2373 19.4803 18.7938 19.4804 19.137 19.1371C19.4803 18.7939 19.4803 18.2374 19.137 17.8942L15.6214 14.3786C15.6214 14.3785 15.6214 14.3785 15.6213 14.3784C15.2764 14.0338 14.7182 14.0391 14.3786 14.3784C14.3786 14.3785 14.3786 14.3785 14.3785 14.3786L10.8629 17.8942C10.5197 18.2374 10.5197 18.7939 10.8629 19.1371C11.206 19.4804 11.7625 19.4804 12.1057 19.1371Z" fill="black"/>
<path d="M20.2734 22.9102C19.788 22.9102 19.3945 23.3037 19.3945 23.7891V24.668H10.6055V23.7891C10.6055 23.3037 10.212 22.9102 9.72656 22.9102C9.24117 22.9102 8.84766 23.3037 8.84766 23.7891V25.5469C8.84766 26.0323 9.24117 26.4258 9.72656 26.4258H20.2734C20.7588 26.4258 21.1523 26.0323 21.1523 25.5469V23.7891C21.1523 23.3037 20.7588 22.9102 20.2734 22.9102Z" fill="black"/>
</g>
<defs>
<clipPath id="clip0_132_3771">
<rect width="30" height="30" fill="white"/>
</clipPath>
</defs>
</svg>
