<svg width="153" height="41" viewBox="0 0 153 41" fill="none" xmlns="http://www.w3.org/2000/svg">
<g clip-path="url(#clip0_138_4712)">
<path d="M38.5982 20.198C38.5982 31.1673 30.1937 40.0578 19.8191 40.0578C9.44441 40.0578 1.04688 31.1673 1.04688 20.198C1.04688 9.22866 9.4514 0.338135 19.8261 0.338135C30.2007 0.338135 38.5982 9.22866 38.5982 20.198Z" fill="white"/>
<path d="M21.8463 11.0916C20.98 10.7895 20.0509 10.6169 19.0937 10.5953C18.1506 10.5809 17.2354 10.7104 16.3761 10.9622C12.6384 12.0699 9.8788 15.5872 9.79496 19.7951C9.76003 21.5287 10.1862 23.1615 10.9617 24.5713C11.6813 25.8948 12.7152 27.0241 13.9518 27.8513C15.3351 28.7792 16.9699 29.3258 18.7304 29.3618C20.498 29.3978 22.1537 28.9158 23.565 28.0455C24.8784 27.2399 25.9892 26.1034 26.7647 24.7367C27.5402 23.3988 27.9943 21.838 28.0222 20.162C28.113 15.9757 25.5141 12.372 21.8463 11.0916Z" fill="#E8BDD8"/>
<path d="M6.34509 28.6425C6.68742 27.0169 9.30728 25.9163 13.0449 28.1965C16.1119 30.0667 24.3348 32.0448 27.8349 24.7151C31.3211 17.3998 36.0928 19.2916 36.2464 22.7442C36.5958 30.5846 28.6244 40.18 17.7328 38.6695C15.4762 38.3602 13.3733 37.4251 11.5778 36.0441C9.27235 34.2602 5.8281 31.1312 6.34509 28.6425Z" fill="#89CBC4"/>
<path d="M19.6808 28.2973C18.0739 28.2973 16.4671 27.9304 15.0629 27.1823C14.965 27.132 14.9161 27.0313 14.9161 26.9306C14.9161 26.8874 14.9231 26.8443 14.9441 26.8011C15.014 26.6644 15.1816 26.6069 15.3144 26.6788C17.9761 28.0887 21.4204 28.0815 24.0752 26.6644C24.6131 26.3767 25.1231 26.0315 25.5842 25.6358C25.5842 25.6358 25.5842 25.6358 25.5912 25.6358C27.3448 24.1325 28.3857 21.9674 28.3857 19.8239C28.3857 19.8023 28.3857 19.7808 28.3857 19.7664C28.3578 16.9755 26.6182 14.2925 23.9494 12.9258C23.8446 12.8755 23.7468 12.8251 23.642 12.7748H23.635C23.0692 12.5158 22.5522 12.3576 22.0422 12.3001C21.099 12.185 19.7018 12.1274 18.4372 12.523C17.4592 12.8251 16.4112 13.3215 15.4192 13.9401C13.6516 15.0478 12.5059 17.3064 12.5059 19.6441C12.5059 19.7592 12.5059 19.8671 12.5129 19.975C12.6386 22.622 14.2594 25.0748 16.6487 26.2329C17.4592 26.6213 18.3883 26.8658 19.3385 26.9234C21.2807 27.0457 23.1809 26.4415 24.4175 25.305C24.5293 25.1971 24.7039 25.2115 24.8087 25.3265C24.8576 25.3841 24.8786 25.4488 24.8786 25.5136C24.8786 25.5927 24.8507 25.6718 24.7878 25.7222C23.4464 26.9594 21.3994 27.6211 19.3105 27.4844C18.2905 27.4197 17.2845 27.1608 16.4182 26.7364C13.8472 25.492 12.1077 22.845 11.9679 19.9894C11.9609 19.8671 11.9609 19.752 11.9609 19.6297C11.9609 17.0978 13.2115 14.645 15.1397 13.4365C16.1737 12.7892 17.2566 12.2857 18.2835 11.962C19.6389 11.5376 21.113 11.5951 22.112 11.7174C22.6779 11.7894 23.2438 11.9548 23.8586 12.2353C23.8586 12.2353 23.8656 12.2353 23.8656 12.2425C23.9774 12.2929 24.0892 12.3432 24.2009 12.4008C27.0513 13.8609 28.9167 16.7453 28.9446 19.7448C28.9446 19.7664 28.9446 19.788 28.9446 19.8095C28.9446 22.1185 27.8268 24.449 25.9545 26.0602C25.9545 26.0602 25.9545 26.0602 25.9475 26.0674C25.4515 26.4918 24.9135 26.8587 24.3337 27.168C22.9224 27.9232 21.3016 28.2973 19.6808 28.2973Z" fill="black"/>
<path d="M33.3876 8.15594C30.0412 4.78243 25.4721 2.71804 20.7634 2.57418C19.6316 2.53103 18.4858 2.59576 17.3611 2.76839C17.9339 2.6605 18.5068 2.57418 19.0797 2.50945C21.0358 2.27927 23.0269 2.43032 24.9622 2.87629C28.8605 3.71068 32.4375 5.98366 35.1342 9.08383C35.4695 9.52261 36.0285 9.33559 35.7001 8.79611C35.6721 8.75296 35.6442 8.71699 35.6163 8.67383H35.6232C35.6093 8.65945 35.5953 8.64506 35.5813 8.62348C32.9754 4.76804 28.8605 1.89085 24.2495 0.819095C19.5757 -0.267046 14.5037 0.51699 10.3119 2.95541C6.11311 5.38664 2.9064 9.44348 1.3764 14.0398C-0.209494 18.6361 0.0280415 23.7216 1.71174 28.0805C3.38147 32.4754 6.64407 36.0359 10.5075 38.1363C12.4427 39.1865 14.5316 39.8842 16.6554 40.2007C18.7863 40.5028 20.9311 40.3949 22.985 39.9633C23.1527 39.9273 23.3204 39.8842 23.4811 39.8482C24.8643 39.5821 26.2267 39.1721 27.5261 38.6038C29.2867 37.8414 30.8935 36.7409 32.3397 35.4533C33.7789 34.1658 35.0434 32.6481 36.0075 30.9361C36.3149 30.4326 35.8678 30.1377 35.5394 30.5045C35.7909 30.0154 36.0285 29.5119 36.2311 28.994C37.1253 26.7858 37.5724 24.4121 37.5445 22.0456C37.5584 21.4342 36.9437 21.4414 36.9157 22.0312C36.8808 22.5275 36.8878 23.0238 36.8249 23.5202L36.6153 24.9947L36.273 26.4405C36.1612 26.9296 35.9656 27.3828 35.8189 27.8575C35.1412 29.7205 34.1631 31.4828 32.9265 33.0365C31.69 34.5902 30.2019 35.964 28.5042 37.0286C27.7148 37.5249 26.8834 37.9493 26.0241 38.3161C24.1587 39.0498 22.1537 39.4454 20.1346 39.4742C18.898 39.4598 17.6685 39.3159 16.4598 39.0642L15.1185 38.7189L13.819 38.2442C13.5954 38.1723 13.3858 38.0788 13.1832 37.9709L12.5545 37.6688C12.3449 37.5681 12.1353 37.4745 11.9257 37.3595L11.3319 36.9926C9.739 36.0359 8.26489 34.8419 7.04927 33.3961C5.81968 31.9647 4.7927 30.3463 4.01722 28.5984C3.26968 26.8361 2.8016 24.9516 2.599 23.031L2.4942 21.5852L2.52914 20.1323C2.51516 19.6431 2.61297 19.1684 2.66188 18.6865L2.7527 17.96C2.78763 17.7226 2.85051 17.4852 2.9064 17.2479C3.02516 16.7803 3.08804 16.2912 3.24873 15.8309L3.70283 14.4426C4.0801 13.5507 4.45037 12.6372 4.95338 11.8028C5.12804 11.4935 5.31667 11.1914 5.5053 10.8965C6.27379 9.78156 7.16804 8.75296 8.1601 7.83945C9.87174 6.27138 11.8838 5.04857 14.0286 4.26454C16.1804 3.47331 18.4649 3.12804 20.7354 3.21436C25.2835 3.35822 29.6919 5.34348 32.9265 8.6091C36.1891 11.8531 38.2641 16.3272 38.6832 21.0961C38.7601 21.7363 39.3889 21.7579 39.312 21.0817C38.9068 16.1545 36.762 11.5079 33.3876 8.15594ZM5.84763 33.6551C4.36653 32.0295 3.19284 30.0945 2.34749 27.9942C1.50914 25.8938 1.02708 23.6209 0.929274 21.3119C0.817493 18.9958 1.18078 16.658 1.89338 14.4282C3.33256 9.97577 6.37859 5.98366 10.4306 3.61717C14.4548 1.2219 19.3591 0.365937 23.8863 1.39453C26.4013 1.9412 28.7837 3.04892 30.8376 4.57383C29.0631 3.4805 27.1349 2.67489 25.1228 2.23611C23.1248 1.77576 21.0638 1.61752 19.0378 1.85489C17.0257 2.07787 15.0276 2.54541 13.1902 3.40857C11.3528 4.25734 9.65516 5.37945 8.1601 6.73892C6.93749 7.85383 5.88256 9.14138 4.9953 10.5368C4.41544 11.3712 3.90544 12.2559 3.4653 13.1838C2.42434 15.3849 1.82352 17.7945 1.70475 20.2186C1.579 22.7649 1.9353 25.3328 2.77366 27.7137C3.60503 30.0945 4.91147 32.2884 6.56722 34.1298C7.58722 35.2663 8.73996 36.2661 9.99749 37.1077C8.48147 36.1726 7.07722 35.0145 5.84763 33.6551Z" fill="black"/>
<path d="M24.2989 21.4568C24.2989 21.8164 24.1662 21.989 23.8937 21.989C23.7819 21.989 23.6701 21.9675 23.5514 21.9243C23.5514 22.4926 23.6841 23.1327 23.9566 23.8376C23.9426 23.9815 23.8797 24.1038 23.754 24.1901C23.6282 24.2764 23.4885 24.3268 23.3418 24.3268C23.209 24.3268 23.0623 24.2836 22.9016 24.2117C22.8178 24.0319 22.7689 23.7513 22.7689 23.3701C22.7689 23.2694 22.7759 23.0824 22.7829 22.8162V22.2624C22.7829 22.061 22.7689 21.9243 22.734 21.8596C22.6362 21.8452 22.4964 21.8524 22.3218 21.874C22.1401 21.8955 22.0144 21.9099 21.9375 21.9099C21.4694 21.9099 20.7359 21.9747 19.7368 22.1113C18.5981 22.2696 17.9414 22.4206 17.7667 22.5789C17.6689 22.658 17.5641 23.0608 17.4593 23.7873C17.3755 24.3771 17.3266 24.8159 17.3126 25.0964C17.2567 25.1755 17.1799 25.2115 17.082 25.2115C16.9423 25.2115 16.7816 25.1396 16.614 24.9957C16.4393 24.8518 16.3555 24.708 16.3555 24.5785C16.3555 24.5138 16.3974 24.3627 16.4882 24.1254C16.572 23.888 16.6209 23.7441 16.6349 23.6866C16.8166 22.4494 17.1729 21.0755 17.6899 19.5794C19.122 15.3931 20.2259 13.2927 21.0083 13.2927C21.8467 13.2927 22.4894 14.3861 22.9436 16.5799C23.1042 17.3496 23.2999 18.8241 23.5164 21.0036C23.5793 21.0611 23.747 21.1187 24.0055 21.1906C24.2011 21.2338 24.2989 21.3273 24.2989 21.4568ZM22.72 20.9748C22.4475 19.0111 22.2729 17.8171 22.196 17.4071C21.8397 15.5297 21.4555 14.5947 21.0572 14.609C20.6101 14.6306 20.0512 15.4938 19.3805 17.1913C19.0033 18.2631 18.626 19.3348 18.2557 20.4066C18.1929 20.5504 18.123 20.7734 18.0462 21.0611C18.0042 21.3273 18.0811 21.464 18.2767 21.464C18.3396 21.464 18.6749 21.4064 19.2688 21.2985C19.7368 21.1978 20.8826 21.0971 22.72 20.9748Z" fill="black"/>
<path d="M49.7159 28.1102H47.9414L54.4596 12.6885H55.9407L62.4589 28.1102H60.6844L59.0356 24.0606H51.3647L49.7159 28.1102ZM51.9376 22.622H58.4278L55.1932 14.5227L51.9376 22.622Z" fill="black"/>
<path d="M66.5306 27.0673C66.5306 27.3694 66.4258 27.6428 66.2092 27.8802C65.9997 28.1175 65.7202 28.2398 65.3849 28.2398C65.0425 28.2398 64.7701 28.1175 64.5605 27.8802C64.3509 27.6428 64.2461 27.3694 64.2461 27.0673C64.2461 26.7652 64.3509 26.4919 64.5605 26.2473C64.7701 26.0028 65.0495 25.8877 65.3849 25.8877C65.7202 25.8877 65.9997 26.01 66.2092 26.2473C66.4258 26.4919 66.5306 26.7652 66.5306 27.0673Z" fill="black"/>
<path d="M71.8824 26.679H79.8957V28.1104H70.3594V12.6958H79.6442V14.1344H71.8824V19.3781H79.1342V20.8167H71.8824V26.679Z" fill="black"/>
<path d="M83.1504 30.1603C83.5626 30.7286 84.0936 31.1817 84.7503 31.5198C85.407 31.8579 86.1336 32.0305 86.937 32.0305C87.6426 32.0305 88.2434 31.9226 88.7325 31.714C89.2285 31.5054 89.6267 31.2177 89.9271 30.8581C90.2275 30.4912 90.4511 30.0668 90.5838 29.5849C90.7166 29.0958 90.7864 28.5779 90.7864 28.024V26.197H90.7445C90.2904 26.8947 89.7455 27.391 89.0958 27.6788C88.446 27.9665 87.7614 28.1175 87.0418 28.1175C86.3222 28.1175 85.6515 27.9881 85.0227 27.7291C84.394 27.4702 83.849 27.1105 83.381 26.6502C82.9129 26.1898 82.5496 25.6431 82.2841 25.003C82.0186 24.3628 81.8789 23.6723 81.8789 22.9314C81.8789 22.1905 82.0047 21.5 82.2562 20.8598C82.5077 20.2196 82.857 19.6586 83.3041 19.1838C83.7512 18.7019 84.2752 18.3279 84.89 18.0617C85.5048 17.7956 86.1755 17.6589 86.909 17.6589C87.2025 17.6589 87.5169 17.6877 87.8522 17.7452C88.1806 17.8028 88.5159 17.9035 88.8442 18.0474C89.1726 18.1912 89.501 18.3926 89.8293 18.6444C90.1507 18.8961 90.4581 19.2198 90.7375 19.6154H90.7795V17.9179H92.1767V28.024C92.1767 28.5779 92.1068 29.1605 91.9741 29.7863C91.8414 30.4121 91.5759 30.9875 91.1916 31.5054C90.8074 32.0305 90.2625 32.4621 89.5708 32.8145C88.8792 33.1598 87.978 33.3396 86.8601 33.3396C85.8751 33.3396 84.9878 33.1742 84.2193 32.8361C83.4438 32.4981 82.7382 31.9874 82.1025 31.2896L83.1504 30.1603ZM83.4089 22.8882C83.4089 23.4277 83.5067 23.9312 83.6953 24.3988C83.884 24.8735 84.1495 25.2835 84.4778 25.6431C84.8132 25.9956 85.1974 26.2833 85.6375 26.4919C86.0847 26.7005 86.5667 26.8084 87.0907 26.8084C87.6007 26.8084 88.0827 26.7149 88.5369 26.5279C88.991 26.3409 89.4032 26.0747 89.7525 25.7295C90.1018 25.3914 90.3743 24.9814 90.5629 24.4995C90.7515 24.0175 90.8423 23.4852 90.8284 22.8882C90.8284 22.3488 90.7445 21.8452 90.5768 21.3777C90.4092 20.903 90.1577 20.493 89.8363 20.1333C89.5149 19.7737 89.1167 19.4931 88.6556 19.2845C88.1875 19.0759 87.6706 18.9681 87.0907 18.9681C86.5667 18.9681 86.0847 19.0759 85.6375 19.2845C85.1974 19.4931 84.8062 19.7809 84.4778 20.1333C84.1495 20.4858 83.884 20.903 83.6953 21.3777C83.4997 21.8452 83.4089 22.3488 83.4089 22.8882Z" fill="black"/>
<path d="M96.0762 30.1603C96.4884 30.7286 97.0193 31.1817 97.6761 31.5198C98.3328 31.8579 99.0593 32.0305 99.8628 32.0305C100.568 32.0305 101.169 31.9226 101.658 31.714C102.154 31.5054 102.552 31.2177 102.853 30.8581C103.153 30.4912 103.377 30.0668 103.51 29.5849C103.642 29.0958 103.712 28.5779 103.712 28.024V26.197H103.67C103.216 26.8947 102.671 27.391 102.022 27.6788C101.372 27.9665 100.687 28.1175 99.9676 28.1175C99.248 28.1175 98.5773 27.9881 97.9485 27.7291C97.3198 27.4702 96.7748 27.1105 96.3067 26.6502C95.8387 26.1898 95.4754 25.6431 95.2099 25.003C94.9444 24.3628 94.8047 23.6723 94.8047 22.9314C94.8047 22.1905 94.9304 21.5 95.182 20.8598C95.4335 20.2196 95.7828 19.6586 96.2299 19.1838C96.677 18.7019 97.201 18.3279 97.8158 18.0617C98.4306 17.7956 99.1013 17.6589 99.8348 17.6589C100.128 17.6589 100.443 17.6877 100.778 17.7452C101.106 17.8028 101.442 17.9035 101.77 18.0474C102.098 18.1912 102.427 18.3926 102.755 18.6444C103.076 18.8961 103.384 19.2198 103.663 19.6154H103.705V17.9179H105.102V28.024C105.102 28.5779 105.033 29.1605 104.9 29.7863C104.767 30.4121 104.502 30.9875 104.117 31.5054C103.733 32.0305 103.188 32.4621 102.497 32.8145C101.805 33.1598 100.904 33.3396 99.7859 33.3396C98.8009 33.3396 97.9136 33.1742 97.1451 32.8361C96.3696 32.4981 95.664 31.9874 95.0283 31.2896L96.0762 30.1603ZM96.3347 22.8882C96.3347 23.4277 96.4325 23.9312 96.6211 24.3988C96.8098 24.8735 97.0752 25.2835 97.4036 25.6431C97.7389 25.9956 98.1232 26.2833 98.5633 26.4919C99.0104 26.7005 99.4925 26.8084 100.016 26.8084C100.526 26.8084 101.009 26.7149 101.463 26.5279C101.917 26.3409 102.329 26.0747 102.678 25.7295C103.028 25.3914 103.3 24.9814 103.489 24.4995C103.677 24.0175 103.768 23.4852 103.754 22.8882C103.754 22.3488 103.67 21.8452 103.503 21.3777C103.335 20.903 103.083 20.493 102.762 20.1333C102.441 19.7737 102.042 19.4931 101.581 19.2845C101.113 19.0759 100.596 18.9681 100.016 18.9681C99.4925 18.9681 99.0104 19.0759 98.5633 19.2845C98.1232 19.4931 97.7319 19.7809 97.4036 20.1333C97.0752 20.4858 96.8098 20.903 96.6211 21.3777C96.4255 21.8452 96.3347 22.3488 96.3347 22.8882Z" fill="black"/>
<path d="M108.75 12.6958H113.214C113.836 12.6958 114.437 12.7605 115.01 12.89C115.59 13.0195 116.1 13.2353 116.554 13.5446C117.008 13.8467 117.364 14.2495 117.63 14.7458C117.895 15.2421 118.028 15.8463 118.028 16.5728C118.028 17.4144 117.797 18.1409 117.343 18.7379C116.882 19.3421 116.232 19.7449 115.387 19.9463V19.9895C116.442 20.0758 117.273 20.457 117.874 21.1332C118.475 21.8093 118.775 22.7084 118.775 23.8449C118.775 24.0895 118.712 24.4563 118.594 24.9311C118.475 25.413 118.223 25.8877 117.846 26.3553C117.469 26.83 116.917 27.24 116.197 27.5853C115.478 27.9305 114.521 28.1104 113.319 28.1104H108.75V12.6958ZM110.273 19.4428H113.34C113.703 19.4428 114.067 19.3925 114.43 19.299C114.786 19.2055 115.115 19.0472 115.401 18.8314C115.687 18.6156 115.925 18.3351 116.107 17.9898C116.288 17.6518 116.379 17.2346 116.379 16.7383C116.379 16.58 116.344 16.357 116.281 16.0621C116.218 15.7744 116.079 15.4795 115.862 15.1918C115.645 14.904 115.324 14.6523 114.898 14.4437C114.472 14.2351 113.906 14.1272 113.186 14.1272H110.266V19.4428H110.273ZM110.273 26.679H113.193C113.745 26.679 114.255 26.6214 114.737 26.5063C115.212 26.3912 115.632 26.2114 115.988 25.974C116.337 25.7367 116.617 25.4346 116.826 25.0677C117.029 24.7081 117.134 24.2693 117.134 23.7586C117.134 22.7444 116.812 21.9891 116.183 21.4928C115.548 20.9965 114.618 20.7519 113.389 20.7519H110.28V26.679H110.273Z" fill="black"/>
<path d="M127.912 21.8595V21.6006C127.912 19.8455 127.067 18.9679 125.376 18.9679C124.223 18.9679 123.21 19.3708 122.351 20.1692L121.506 19.1478C122.435 18.1623 123.832 17.666 125.697 17.666C126.18 17.666 126.641 17.7379 127.081 17.8818C127.528 18.0257 127.912 18.2486 128.234 18.5436C128.555 18.8385 128.82 19.2125 129.016 19.6657C129.212 20.1188 129.309 20.6511 129.309 21.2769V25.8301C129.309 26.2185 129.323 26.6357 129.365 27.0601C129.4 27.4916 129.442 27.8441 129.484 28.1174H128.129C128.087 27.8729 128.052 27.5995 128.031 27.3118C128.01 27.0241 127.996 26.7364 127.996 26.463H127.954C127.542 27.1464 127.06 27.6355 126.508 27.9304C125.949 28.2253 125.271 28.3764 124.468 28.3764C124.028 28.3764 123.609 28.3116 123.196 28.1894C122.784 28.0671 122.421 27.8801 122.107 27.6211C121.792 27.3693 121.534 27.0529 121.345 26.686C121.156 26.3192 121.059 25.8804 121.059 25.3913C121.059 24.5641 121.268 23.9167 121.68 23.442C122.1 22.9672 122.617 22.6148 123.245 22.3846C123.874 22.1544 124.545 22.0034 125.257 21.9458C125.97 21.8883 126.62 21.8595 127.214 21.8595H127.912ZM127.193 23.0392C126.843 23.0392 126.396 23.0608 125.872 23.0967C125.341 23.1327 124.838 23.219 124.349 23.3557C123.86 23.4923 123.448 23.7081 123.099 23.9958C122.749 24.2836 122.582 24.6864 122.582 25.1971C122.582 25.5351 122.651 25.8157 122.784 26.0602C122.917 26.2976 123.099 26.499 123.322 26.6501C123.546 26.8011 123.797 26.909 124.07 26.9737C124.342 27.0385 124.622 27.0744 124.908 27.0744C125.418 27.0744 125.858 26.9881 126.228 26.8155C126.599 26.6429 126.913 26.4055 127.172 26.1106C127.423 25.8157 127.612 25.4632 127.731 25.0676C127.849 24.6648 127.912 24.2404 127.912 23.7944V23.0536H127.193V23.0392Z" fill="black"/>
<path d="M133.88 17.9179C133.908 18.1912 133.922 18.4645 133.929 18.7379C133.936 19.004 133.943 19.2774 133.943 19.5579H133.985C134.138 19.2845 134.334 19.0256 134.578 18.7954C134.816 18.5652 135.088 18.3638 135.382 18.1984C135.675 18.033 135.99 17.9035 136.325 17.8028C136.653 17.7093 136.982 17.6589 137.31 17.6589C138.582 17.6589 139.518 18.0042 140.126 18.6947C140.733 19.3852 141.034 20.3707 141.034 21.6438V28.1103H139.636V22.471C139.636 21.3417 139.448 20.4714 139.064 19.8672C138.679 19.263 137.974 18.9609 136.947 18.9609C136.877 18.9609 136.681 18.9896 136.353 19.0472C136.032 19.1047 135.689 19.263 135.326 19.5291C134.97 19.7881 134.648 20.1837 134.362 20.7016C134.082 21.2267 133.936 21.9531 133.936 22.881V28.1103H132.538V20.1621C132.538 19.8888 132.531 19.5363 132.51 19.1191C132.489 18.6947 132.462 18.2991 132.434 17.9179H133.88Z" fill="black"/>
<path d="M145.699 22.5141L150.373 17.9178H152.469L147.543 22.5788L153 28.1102H150.841L145.699 22.7587V28.1102H144.309V11.6455H145.699V22.5141Z" fill="black"/>
</g>
<defs>
<clipPath id="clip0_138_4712">
<rect width="153" height="41" fill="white"/>
</clipPath>
</defs>
</svg>
