<svg width="40" height="40" viewBox="0 0 40 40" fill="none" xmlns="http://www.w3.org/2000/svg">
<path d="M10 0C8.625 0 7.5 1.125 7.5 2.5V37.5C7.5 38.8763 8.625 40 10 40H35C36.375 40 37.5 38.8763 37.5 37.5V10L27.5 0H10Z" fill="#E2E5E7"/>
<path d="M30 10H37.5L27.5 0V7.5C27.5 8.875 28.625 10 30 10Z" fill="#B0B7BD"/>
<path d="M37.5 17.5L30 10H37.5V17.5Z" fill="#CAD1D8"/>
<path d="M32.5 32.5C32.5 33.1875 31.9375 33.75 31.25 33.75H3.75C3.0625 33.75 2.5 33.1875 2.5 32.5V20C2.5 19.3125 3.0625 18.75 3.75 18.75H31.25C31.9375 18.75 32.5 19.3125 32.5 20V32.5Z" fill="#50BEE8"/>
<path d="M9.15469 25.6124V29.3112C9.15469 29.7512 8.79594 30.0012 8.43469 30.0012C8.11469 30.0012 7.83594 29.7512 7.83594 29.3112V23.6837C7.83594 23.1649 8.27594 22.9937 8.43469 22.9937C8.72469 22.9937 8.89469 23.1649 9.06469 23.3537L11.2647 26.3224L13.5422 23.2437C13.8734 22.8337 14.6822 22.9937 14.6822 23.6837V29.3112C14.6822 29.7512 14.4009 30.0012 14.0822 30.0012C13.7234 30.0012 13.4422 29.7512 13.4422 29.3112V25.6124L11.7834 27.7124C11.4247 28.1524 10.9747 28.1524 10.6447 27.7124L9.15469 25.6124Z" fill="white"/>
<path d="M16.4287 23.6837C16.4287 23.3537 16.6887 22.9937 17.1087 22.9937H19.4175C20.7175 22.9937 21.8875 23.8637 21.8875 25.5324C21.8875 27.1124 20.7175 27.9912 19.4175 27.9912H17.7487V29.3112C17.7487 29.7512 17.4687 30.0012 17.1087 30.0012C16.7787 30.0012 16.4287 29.7512 16.4287 29.3112V23.6837ZM17.7475 24.2537V26.7424H19.4162C20.0862 26.7424 20.6162 26.1524 20.6162 25.5324C20.6162 24.8324 20.0862 24.2537 19.4162 24.2537H17.7475Z" fill="white"/>
<path d="M25.1613 24.3337H23.4526C22.6138 24.3337 22.6638 23.085 23.4526 23.085H26.5113C27.1201 23.085 27.4001 23.785 26.9513 24.235L25.2926 25.7837C26.5126 25.6937 27.4713 26.6025 27.4713 27.7225C27.4713 28.9512 26.6013 30.0012 24.7726 30.0012C23.9726 30.0012 23.1838 29.6712 22.7238 28.9512C22.2438 28.2425 23.2726 27.5625 23.8126 28.2612C24.0726 28.6012 24.4926 28.7712 24.9413 28.7712C25.5513 28.7712 26.1513 28.5112 26.1513 27.7212C26.1513 26.6825 24.8813 26.8425 24.1926 26.9125C23.3526 27.0725 23.1038 26.1625 23.5938 25.7837L25.1613 24.3337Z" fill="white"/>
<path d="M31.25 33.75H7.5V35H31.25C31.9375 35 32.5 34.4375 32.5 33.75V32.5C32.5 33.1875 31.9375 33.75 31.25 33.75Z" fill="#CAD1D8"/>
</svg>
