<svg width="386" height="140" viewBox="0 0 386 140" fill="none" xmlns="http://www.w3.org/2000/svg">
<mask id="mask0_315_12076" style="mask-type:luminance" maskUnits="userSpaceOnUse" x="0" y="0" width="386" height="140">
<path d="M386 0H0V140H386V0Z" fill="white"/>
</mask>
<g mask="url(#mask0_315_12076)">
<path d="M238.837 111.28C224.321 133.518 222.286 109.965 210.104 102.012C197.921 94.06 184.189 93.876 198.705 71.6381C213.221 49.4001 219.941 38.4251 232.123 46.3775C237.128 49.6448 233.425 67.4408 235.955 77.0212C239.583 90.759 247.389 98.179 238.837 111.28Z" fill="#89CBC4"/>
<path d="M-15.4961 134.95H174.458C171.95 133.605 161.459 108.976 154.857 106.979C148.255 104.982 145.235 106.979 139.964 106.621C134.259 106.233 129.369 99.23 128.751 91.325C128.141 83.5284 132.338 76.4622 136.674 75.4813C141.256 74.4443 145.07 73.9093 142.306 74.9256C139.542 75.9418 131.826 80.0465 134.283 94.178C135.589 101.69 136.873 102.716 136.097 96.027C135.408 90.096 136.656 85.934 137.866 83.2039C139.401 79.7391 143.11 74.6261 154.396 72.366C164.485 70.3457 166.728 69.2666 168.471 70.6251C169.544 71.4614 166.936 70.6525 164.12 71.7005C161.971 72.5002 159.749 74.5663 158.667 78.1799C155.778 87.83 159.565 102.063 167.139 103.19C175.376 104.415 161.919 102.985 160.486 89.672C159.148 77.2442 163.634 71.828 171.439 71.4443C175.926 71.2241 190.128 68.1223 197.345 60.1349C204.561 52.1476 199.69 55.8789 198.889 67.0426C198.749 68.9897 198.434 70.6348 199.28 71.8536C201.22 74.6505 213.773 71.6346 221.491 72.2629C224.919 72.5423 228.145 74.5157 229.168 81.0695C230.162 87.432 229.015 92.027 224.946 92.718C221.86 93.243 219.603 87.951 219.112 86.036C218.361 83.1087 217.898 78.4868 220.033 75.2837C222.029 72.2886 226.929 75.9364 227.682 80.8218C228.039 83.135 228.696 87.486 227.172 90.095C223.839 95.8 212.081 95.119 211.281 96.712C210.453 98.361 211.723 103.477 213.945 108.399C216.307 113.629 223.185 125.58 233.569 123.26C244.112 120.905 247.72 96.687 244.931 79.4311C242.167 62.3297 235.561 38.6965 222.412 37.9571C213.302 37.4454 208.389 51.2698 206.559 63.493C204.847 74.9299 206.848 82.4249 207.877 89.364C208.291 92.15 209.294 94.943 206.521 95.559C203.758 96.174 203.402 94.231 202.223 88.224C199.637 75.0433 199.796 58.347 208.082 41.6434C218.604 20.4343 241.859 38.3604 247.183 70.3164C252.506 102.266 247.204 126.574 233.672 128.482C218.421 130.632 212.068 113.838 209.973 112.814C207.878 111.79 194.981 103.291 182.903 103.291C170.825 103.291 168.982 105.953 170.21 107.592C171.439 109.23 188.635 120.494 190.068 125.615C190.847 128.401 187.288 133.104 183.074 134.942L396.493 134.938" stroke="black" stroke-width="2" stroke-miterlimit="10" stroke-linecap="round" stroke-linejoin="round"/>
</g>
</svg>
