<svg width="480" height="321" viewBox="0 0 480 321" fill="none" xmlns="http://www.w3.org/2000/svg">
<path d="M200.227 305.844C190.694 338.431 166.13 306.453 134.952 297.331C103.775 288.21 76.2761 289.959 85.8094 257.372C95.3426 224.785 99.162 208.767 130.339 217.889C143.149 221.636 151.274 246.561 164.655 259.32C183.842 277.616 205.843 286.645 200.227 305.844Z" fill="#B8DDF1"/>
<mask id="mask0_314_12101" style="mask-type:luminance" maskUnits="userSpaceOnUse" x="0" y="0" width="480" height="284">
<path d="M5.24318 3.95236e-05L479.514 5.76343L474.27 283.197L-0.000877943 277.434L5.24318 3.95236e-05Z" fill="white"/>
</mask>
<g mask="url(#mask0_314_12101)">
<path d="M375.272 90.739C411.178 128.476 370.154 201.665 334.048 236.017C297.943 270.37 280.428 252.877 244.522 215.14C208.616 177.404 168.646 150.128 204.752 115.776C219.586 101.662 258.918 110.066 286.149 102.131C325.199 90.753 354.118 68.507 375.272 90.739Z" fill="#FFEBC5"/>
<path d="M-15.6133 -18.1255C2.47553 8.69321 83.6225 62.472 114.663 79.763C128.078 87.235 142.53 93.925 149.647 98.241C160.153 104.608 133.258 109.765 113.672 132.205C102.63 144.857 72.9145 202.387 68.4945 217.303C65.2907 228.114 67.497 235.779 58.323 229.583M58.0621 236.305C76.7396 245.998 94.6733 217.167 106.517 204.357C115.857 194.256 128.652 213.097 133.952 195.559C144.036 162.171 140.777 157.625 164.956 131.762C170.084 126.278 172.555 122.803 174.183 119.319C178.541 109.986 156.541 102.313 155.839 106.939C155.005 112.435 169.731 115.912 179.267 114.556C223.268 108.294 231.104 100.792 262.196 122.254C280.595 134.945 283.918 142.853 290.387 162.119C295.97 178.776 283.222 174.87 277.085 168.632C263.536 154.868 277.896 147.358 285.54 157.856C300.409 178.259 280.04 185.981 265.838 177.472C246.241 165.728 246.065 134.363 249.765 138.911C251.787 141.397 250.972 145.896 249.406 148.697C246.304 154.241 243.746 149.502 241.761 146.555C239.8 143.645 238.759 129.852 241.097 132.52C242.551 134.176 242.656 138.711 241.922 142.227C238.389 159.164 220.789 123.756 235.053 140.101C237.511 142.915 238.952 146.679 235.197 149.413C223.44 157.972 209.997 165.715 197.527 174.004C187.529 180.649 163.345 175.346 167.545 172.296C170.622 170.061 196.587 175.761 188.736 180.582C183.271 183.938 169.061 193.288 161.397 199.694C158.692 201.957 154.981 207.243 152.463 210.577C149.482 214.526 146.153 212.815 143.629 209.752C130.135 193.36 152.965 201.363 149.596 216.48C146.95 228.36 157.473 240.666 163.978 234.353C174.469 224.178 183.368 215.867 195.249 208.146C203.115 203.029 210.718 199.695 215.126 191.372C216.874 188.071 218.516 184.176 215.074 185.544C207.793 188.432 219.729 196.847 208.358 203.345C201.416 207.311 187.917 215.348 181.438 223.1C178.064 227.138 175.498 230.268 173.603 232.78C160.14 250.66 180.131 260.566 188.424 249.75C200.082 234.545 208.453 229.784 224.098 218.736C227.137 216.59 229.921 210.561 226.896 211.768C224.492 212.727 223.965 217.74 223.276 220.539C222.357 224.264 207.984 233.157 204.172 236.031C202.462 237.321 192.277 248.308 189.782 251.653C178.993 266.121 199.416 269.458 210.186 260.663C212.373 258.877 226.836 243.762 234.29 239.279C239.37 236.228 243.886 236.666 249.322 232.079C253.255 228.759 256.202 224.418 252.31 224.988C249.393 225.413 249.558 231.372 248.498 234.943C247.188 239.356 225.051 247.621 218.139 256.901C202.921 277.332 223.457 277.111 236.25 268.571C239.919 266.123 242.26 268.788 244.12 269.818C245.667 270.673 255.454 270.833 261.065 269.568C266.814 268.273 268.709 262.792 272.788 262.303C277.579 261.728 291.573 256.842 293.296 252.22C298.921 237.156 301.948 249.7 315.65 240.224C320.964 236.548 315.522 232.084 319.922 231.148C324.319 230.213 323.408 232.455 327.298 232.011C331.188 231.57 336.114 229.39 338.632 220.162C340.343 213.894 340.059 209.675 338.519 207.832C336.252 205.121 320.836 207.679 318.888 215.455C317.49 221.013 317.008 229.651 319.491 227.137C322.417 224.176 319.083 220.871 315.152 215.927C311.218 210.983 309.626 208.707 303.751 208.115C297.872 207.523 288.928 211.022 287.591 216.511C286.258 222.001 287.935 227.036 289.649 229.565C291.364 232.095 291.403 241.738 294.81 240.222C297.338 239.099 293.251 236.941 290.418 235.693C284.232 232.963 287.322 227.167 282.999 222.073C275.546 213.297 261.955 224.258 263.456 230.666C264.922 236.93 269.804 240.535 270.286 246.576C270.634 250.937 270.559 257.144 273.112 254.854C276.539 251.777 270.014 252.803 268.057 249.645C266.101 246.483 267.368 245.626 264.037 242.322C255.158 233.509 250.828 242.247 249.501 250.99C248.667 256.487 248.008 258.481 246.964 261.22C246.398 262.709 244.299 264.807 242.705 266.735C237.518 272.998 245.811 273.656 250.421 273.045C253.808 272.598 259.441 272.809 263.085 271.984C266.729 271.163 267.657 267.797 271.819 265.982C275.977 264.167 283.02 262.395 284.531 261.793C286.041 261.191 293.469 258.922 296.023 255.582C298.577 252.241 295.72 250.944 300.137 248.63C304.555 246.319 310.828 245.534 312.714 245.064C314.6 244.593 322.183 240.071 321.743 236.186C321.299 232.297 324.775 234.479 328.528 234.788C332.281 235.096 332.769 235.854 336.228 230.896C342.708 221.61 343.845 208.801 337.842 199.041C331.948 189.46 319.046 169.597 317.174 166.492C300.646 139.143 307.011 156.24 287.137 140.565C285.92 139.603 279.438 134.162 274.611 129.589C269.696 124.934 266.506 121.158 273.305 121.794C276.862 122.125 281.925 123.056 285.951 123.191C289.03 123.293 292.181 123.788 294.816 124.368C309.38 127.572 316.006 121.535 328.151 114.235C357.147 96.808 433.241 49.642 455.312 40.167C463.826 36.514 464.989 39.785 454.338 43.229C446.094 45.895 433.806 48.767 431.263 50.104C414.353 58.969 334.789 104.482 315.598 115.761C298.138 126.019 322.409 165.865 337.059 186.797C350.67 206.245 354.633 203.155 377.711 191.647C409.439 175.822 501.559 128.056 501.559 128.056" stroke="black" stroke-width="1.5" stroke-miterlimit="2.6131"/>
</g>
</svg>
