<svg width="24" height="24" viewBox="0 0 24 24" fill="none" xmlns="http://www.w3.org/2000/svg">
<path d="M12.0008 0C8.57224 0 5.76953 2.80271 5.76953 6.2313C5.76953 9.6599 8.57224 12.4626 12.0008 12.4626C15.4294 12.4626 18.2321 9.6599 18.2321 6.2313C18.2321 2.80271 15.4294 0 12.0008 0Z" fill="#89CBC4"/>
<path d="M22.6948 17.4422C22.5315 17.034 22.3139 16.6531 22.069 16.2993C20.8173 14.449 18.8853 13.2245 16.7085 12.9252C16.4364 12.898 16.137 12.9523 15.9193 13.1156C14.7765 13.9592 13.416 14.3945 12.001 14.3945C10.586 14.3945 9.22543 13.9592 8.08257 13.1156C7.86486 12.9523 7.56554 12.8707 7.29345 12.9252C5.11658 13.2245 3.15741 14.449 1.93293 16.2993C1.68804 16.6531 1.47033 17.0612 1.3071 17.4422C1.22548 17.6055 1.25267 17.7959 1.33429 17.9592C1.55199 18.3402 1.82408 18.7211 2.06897 19.0477C2.44991 19.5647 2.85809 20.0272 3.32069 20.4626C3.70163 20.8435 4.13699 21.1973 4.57241 21.551C6.72205 23.1565 9.3071 24 11.9738 24C14.6404 24 17.2255 23.1565 19.3751 21.551C19.8105 21.2245 20.2458 20.8435 20.6268 20.4626C21.0622 20.0272 21.4976 19.5646 21.8786 19.0477C22.1506 18.6939 22.3956 18.3402 22.6132 17.9592C22.7492 17.7959 22.7764 17.6054 22.6948 17.4422Z" fill="#89CBC4"/>
</svg>
