<svg width="520" height="611" viewBox="0 0 520 611" fill="none" xmlns="http://www.w3.org/2000/svg">
<path opacity="0.4" d="M338.751 573.456C317.906 598.408 250.966 562.582 215.51 532.943C180.054 503.304 189.508 491.075 210.354 466.122C231.2 441.17 242.908 412.467 278.364 442.106C292.931 454.283 295.796 483.688 308.511 504.912C326.745 535.347 351.033 558.755 338.751 573.456Z" fill="#E8BDD8"/>
<path opacity="0.4" d="M314.57 327.034C299.973 329.482 287.452 297.268 283.979 276.521C280.507 255.773 287.397 254.348 301.994 251.9C316.591 249.452 329.141 243.001 332.613 263.748C334.04 272.273 326.319 283.284 324.425 294.386C321.71 310.306 323.169 325.592 314.57 327.034Z" fill="#89CBC4"/>
<path opacity="0.4" d="M197.817 166.918C198.244 154.093 220.179 148.732 233.687 149.186C247.196 149.641 247.164 155.74 246.736 168.565C246.308 181.39 248.672 193.131 235.164 192.676C229.614 192.489 223.733 184.108 217.01 180.672C207.369 175.744 197.565 174.474 197.817 166.918Z" fill="#FFEBC5"/>
<path d="M300.337 446.156C300.337 463.272 318.671 461.802 319.799 467.439C320.543 471.155 314.377 471.924 311.823 477.233C309.127 482.835 306.517 491.584 305.045 505.279C299.732 554.699 292.879 554.236 256.533 554.236C219.571 554.236 213.077 543.98 216.337 541.535C220.956 538.071 286.696 545.765 288.643 536.224C290.954 524.908 211.947 535.301 209.405 526.524C206.52 516.562 291.645 522.829 293.725 514.746C296.363 504.485 206.171 516.362 203.629 504.586C201.607 495.221 296.496 506.664 298.113 495.58C299.688 484.772 204.002 496.03 200.393 485.42C196.465 473.872 298.202 485.292 299.961 477.336C301.363 470.996 251.512 471.878 221.874 471.403C211.429 471.237 194.605 472.138 194.605 468.925C194.605 463.968 201.299 462.482 201.547 457.525C201.778 452.914 224.329 460.822 311.401 457.553C321.717 457.166 327.131 453.622 329.34 438.147C331.552 422.668 332.29 405.718 340.4 384.346C348.511 362.973 399.432 309.789 386.849 235.992C376.594 164.867 318.249 127.612 255.143 127.612C236.883 127.612 219.428 131.355 203.802 138.642C197.711 141.484 186.509 146.489 186.603 158.824C186.639 163.663 184.039 167.65 178.059 172.489C172.078 177.328 178.343 177.043 180.907 179.035C183.471 181.027 187.743 178.467 190.591 177.896C193.439 177.328 202.836 171.634 205.4 174.481C207.964 177.328 204.26 182.451 206.54 186.153C208.819 189.853 223.913 188.716 230.746 187.008C237.582 185.3 236.727 188.148 241.852 192.702C246.977 197.257 251.249 185.585 263.781 183.877C276.311 182.169 280.583 183.593 283.147 190.995C285.711 198.397 286.279 195.265 285.426 201.528C284.571 207.791 274.321 207.791 282.863 209.498C291.404 211.206 290.551 210.353 290.551 206.083C290.551 201.812 298.24 204.659 302.512 210.922C306.785 217.184 301.657 221.739 298.24 225.726C294.824 229.712 282.007 232.273 278.875 224.018C275.742 215.761 268.622 211.206 267.673 216.9C266.723 222.594 272.61 229.141 264.066 231.704C255.521 234.267 259.793 236.543 258.085 240.245C256.377 243.948 249.825 246.224 247.264 251.063C244.7 255.902 254.953 260.457 251.726 263.304C248.5 266.151 234.45 274.121 237.011 275.545C239.572 276.968 241.283 290.064 244.131 290.064C246.979 290.064 245.271 282.378 250.396 286.078C255.521 289.778 260.649 293.196 262.357 293.48C264.066 293.764 259.793 280.1 262.073 278.96C264.352 277.821 263.213 271.558 265.205 267.004C267.198 262.449 271.754 267.004 270.33 279.815C268.906 292.627 274.887 284.086 281.152 289.496C287.417 294.906 279.443 296.33 272.039 298.606C264.634 300.884 266.343 302.592 267.673 308.571C269.003 314.549 265.774 309.71 261.786 307.715C257.798 305.721 260.362 304.016 260.362 298.89C260.362 293.767 248.685 295.474 248.685 296.327C248.685 297.182 248.117 304.013 251.724 307.145C255.331 310.276 262.926 311.984 261.786 319.67C260.646 327.356 250.109 321.093 247.261 318.815C244.413 316.536 240.712 313.691 240.712 310.273C240.712 306.856 237.295 302.016 232.452 297.462C227.611 292.907 223.624 291.199 226.472 297.462C229.32 303.724 223.055 317.675 224.192 320.807C225.332 323.938 223.908 327.354 234.729 330.487C245.55 333.621 242.418 337.034 246.406 337.034C250.394 337.034 253.526 334.471 258.083 334.471C262.639 334.471 262.923 321.946 265.771 322.515C268.62 323.083 268.335 329.632 272.321 327.354C276.309 325.075 275.169 320.236 280.01 320.807C284.85 321.375 282.002 327.354 287.13 325.362C292.255 323.37 297.002 323.938 297.002 323.938C297.002 323.938 297.382 338.173 300.799 339.31C304.216 340.45 306.78 329.916 309.912 329.916C313.045 329.916 310.481 340.165 307.633 340.45C304.785 340.734 294.532 357.816 289.123 358.385C283.711 358.953 276.877 365.977 276.877 365.977C276.877 365.977 268.904 366.642 268.617 364.647C268.333 362.655 260.073 360.377 253.239 363.224C246.403 366.071 239.131 369.73 230.173 364.932C222.199 360.661 220.869 361.516 214.698 355.726C208.528 349.938 216.313 352.026 210.901 345.098C205.489 338.171 197.326 345.192 187.738 342.442C178.15 339.691 173.023 341.018 172.929 335.23C172.835 329.442 178.719 328.493 172.929 324.222C167.139 319.952 159.353 323.557 155.462 320.048C151.57 316.536 144.45 302.681 150.525 299.55C156.599 296.419 159.259 298.032 161.536 299.169C163.813 300.306 162.676 302.301 164.194 292.716C165.712 283.132 160.018 281.424 164.575 275.256C169.131 269.087 182.516 280.285 170.649 266.524C158.782 252.763 153.182 248.021 155.84 238.434C158.498 228.847 162.389 224.863 156.98 224.011C151.568 223.156 151.568 222.207 148.151 222.113C144.735 222.019 137.564 220.708 134.096 229.676C131.082 237.478 128.482 254.213 132.559 279.274C142.414 339.848 194.641 385.933 258.078 385.904C277.916 385.895 280.648 396.416 283.506 411.595C290.828 450.467 286.258 447.967 241.107 447.967C205.978 447.967 192.733 448.48 189.398 436.22C185.808 423.025 186.427 404.36 170.943 377.828C155.46 351.296 114.03 300.964 128.492 227.356C139.448 171.585 183.287 122.963 256.748 122.655C360.25 122.221 432.096 253.515 357.826 334.445C342.068 351.616 323.437 358.361 319.873 358.382C311.462 358.435 314.059 351.657 315.958 349.663C317.857 347.671 308.428 348.244 307.927 346.257C307.428 344.282 314.283 344.311 315.141 342.461C316.016 340.573 314.64 338.039 320.714 335.666C326.789 333.293 325.849 326.684 331.165 327.062C336.48 327.443 339.916 336.478 342.275 332.949C344.639 329.415 327.56 312.832 319.493 315.108C311.425 317.384 321.391 298.502 323.859 296.888C326.326 295.275 321.96 282.94 324.524 278.288C327.088 273.637 340.092 263.578 332.403 245.265C324.714 226.949 332.878 222.207 327.088 221.352C321.297 220.496 326.994 242.608 324.524 242.989C322.056 243.369 312.657 212.338 317.213 209.585C321.77 206.832 301.891 199.531 296.708 196.299C292.857 193.897 291.395 188.62 286.364 179.414C281.332 170.208 268.991 180.269 266.617 176.757C264.244 173.245 273.778 168.035 274.537 161.488C275.296 154.941 263.119 147.71 255.697 146.193C219.373 138.764 255.659 131.196 286.135 137.348C338.181 147.855 379.071 197.72 381.932 249.996C383.592 280.365 380.047 327.51 341.509 360.531C313.457 384.589 300.337 392.136 300.337 446.156Z" stroke="black" stroke-width="2.5" stroke-miterlimit="10" stroke-linecap="round" stroke-linejoin="round"/>
<path d="M98.1386 147.864C69.5516 126.93 84.9655 138.398 50.0703 122.229" stroke="black" stroke-width="2.5" stroke-miterlimit="10" stroke-linecap="round" stroke-linejoin="round"/>
<path d="M175.054 72.9684C161.609 22.3712 167.17 60.0095 153.684 21.4872" stroke="black" stroke-width="2.5" stroke-miterlimit="10" stroke-linecap="round" stroke-linejoin="round"/>
<path d="M284 72.9684C289.318 45.7019 284.923 40.7496 294.144 14.6537" stroke="black" stroke-width="2.5" stroke-miterlimit="10" stroke-linecap="round" stroke-linejoin="round"/>
<path d="M374.42 97.3637C400.354 65.9446 385.338 74.6448 409.038 48.5755" stroke="black" stroke-width="2.5" stroke-miterlimit="10" stroke-linecap="round" stroke-linejoin="round"/>
<path d="M428.818 163.779C462.649 157.03 451.957 153.075 491.089 141.662" stroke="black" stroke-width="2.5" stroke-miterlimit="10" stroke-linecap="round" stroke-linejoin="round"/>
<path d="M444.227 246.491C483.235 254.038 463.946 245.976 502.955 253.52" stroke="black" stroke-width="2.5" stroke-miterlimit="10" stroke-linecap="round" stroke-linejoin="round"/>
<path d="M91.0183 336.391C58.8483 360.396 82.2427 339.293 50.0703 363.299" stroke="black" stroke-width="2.5" stroke-miterlimit="10" stroke-linecap="round" stroke-linejoin="round"/>
<path d="M420.422 329.485C438.004 351.06 443.436 351.472 468.03 363.299" stroke="black" stroke-width="2.5" stroke-miterlimit="10" stroke-linecap="round" stroke-linejoin="round"/>
<path d="M70.5185 239.255C33.7896 240.195 47.9699 238.501 11.3711 235.112" stroke="black" stroke-width="2.5" stroke-miterlimit="10" stroke-linecap="round" stroke-linejoin="round"/>
</svg>
