<svg width="601" height="396" viewBox="0 0 601 396" fill="none" xmlns="http://www.w3.org/2000/svg">
<g clip-path="url(#clip0_119_3080)">
<path d="M35.9044 222.15C-21.5509 176.992 62.0109 153.55 105.217 98.5809C148.422 43.6114 166.964 -12.7217 224.419 32.4355C281.875 77.5927 310.811 98.0582 267.605 153.028C249.854 175.612 193.553 171.87 157.344 188.374C105.422 212.04 69.7541 248.754 35.9044 222.15Z" fill="#B8DDF1"/>
<path d="M402.743 263.548C428.025 283.225 409.75 331.483 390.924 355.672C372.098 379.86 359.849 370.819 334.567 351.142C309.285 331.466 282.485 318.523 301.312 294.335C309.046 284.397 333.736 285.919 349.575 278.609C372.288 268.125 387.848 251.956 402.743 263.548Z" fill="#FFEBC5"/>
<path fill-rule="evenodd" clip-rule="evenodd" d="M11.3873 376.749C10.7467 376.749 10.2227 376.224 10.2227 375.583C10.2227 374.941 10.7467 374.417 11.3873 374.417L51.9152 374.009C64.4346 373.892 75.4691 373.775 83.5339 373.717C93.9862 373.63 99.4306 373.6 107.874 373.542L125.518 373.426H126.333C121.005 372.085 116.841 370.714 113.493 369.403C106.826 366.75 103.507 364.272 101.178 362.406C98.7901 360.511 97.4217 359.229 95.8204 355.993C94.2773 352.874 92.4722 347.976 89.2113 338.735C85.9796 329.582 81.2629 316.114 76.3717 301.392C71.5095 286.758 66.5891 271.075 62.9497 257.636C59.8053 246.034 57.6508 236.035 56.1659 227.727C54.2152 216.678 53.4582 208.516 53.3127 203.298C53.1671 198.109 53.5456 195.514 58.8445 194.436C63.4155 193.503 71.9753 193.969 88.3379 194.902C97.8002 195.427 109.883 196.127 123.043 196.884C155.186 198.721 193.938 200.937 217.259 202.19L218.161 202.248C251.061 203.997 253.71 204.143 261.979 234.781C266.055 249.853 271.529 272.445 276.828 295.154C282.097 317.601 287.309 340.543 290.832 356.08L290.977 356.751C297.616 386.048 297.936 387.418 302.158 387.185C304.72 387.039 308.534 386.485 313.978 385.494C319.452 384.503 326.585 383.075 335.727 381.238C344.753 379.431 355.875 377.186 366.531 374.941C377.041 372.755 386.824 370.656 393.083 369.14C397.887 367.974 401.265 368.266 400.799 367.887C399.984 367.245 395.209 366.546 386.154 365.496C378.963 364.651 369.442 363.602 359.31 362.494C342.744 360.686 324.663 358.704 313.367 357.217C305.535 356.168 301.022 355.352 299.1 354.798C298.198 354.535 297.645 354.215 297.412 353.865C296.655 352.757 297.092 352.058 298.635 351.766C299.508 351.591 301.371 351.562 303.934 351.649C308.912 351.824 316.599 352.437 325.974 353.165C333.165 353.748 341.317 354.39 349.789 354.973C359.281 355.614 369.267 356.168 378.38 356.605C388.367 357.072 397.276 357.392 403.273 357.509C408.922 357.625 411.95 357.538 414.046 357.013C415.997 356.518 417.249 355.585 419.316 353.982L419.491 353.836C423.974 350.367 431.981 344.158 444.326 341.505C450.148 340.251 456.932 339.814 463.687 339.96C471.344 340.105 479.001 341.038 485.319 342.35C491.259 343.604 496.004 345.236 499.702 346.81C503.4 348.384 506.049 349.9 507.796 350.892C508.961 351.562 508.961 351.562 508.495 349.551C507.971 347.335 507.214 344.012 506.369 340.339C505.583 337.045 504.797 333.75 504.244 331.535C503.516 330.602 502.701 329.728 501.798 328.882C501.07 328.212 500.255 327.57 499.382 326.929C498.654 326.812 497.81 326.725 496.791 326.608L496.645 326.579C492.598 326.084 486.396 325.326 480.428 324.568C476.148 324.043 471.694 323.46 467.938 322.964L467.093 322.848C459.989 321.886 457.689 321.594 451.08 323.839C447.353 325.092 442.258 327.133 437.192 329.436C432.68 331.477 428.225 333.721 424.789 335.762C418.996 339.202 416.171 342.117 414.425 343.924C413.959 344.391 413.58 344.799 413.231 345.12C411.659 346.548 410.843 346.635 408.631 346.81C407.99 346.869 407.204 346.927 406.214 347.043C405.486 347.131 404.758 347.248 403.943 347.364C399.663 347.976 392.938 348.967 382.66 348.909C374.071 348.851 363.124 348.093 352.817 347.364C348.275 347.043 343.85 346.723 339.89 346.49C333.893 346.14 328.798 345.936 324.46 345.79C319.073 345.586 314.852 345.44 311.678 345.09C308.708 344.77 306.641 344.245 304.982 343.633C303.293 342.991 302.099 342.292 300.935 341.505C299.712 340.718 298.489 339.814 297.965 339.173C296.509 337.249 296.859 336.141 300.789 336.84C302.012 337.045 303.846 337.511 306.146 338.094C310.776 339.26 317.355 340.922 324.489 341.971C329.438 342.7 334.65 343.108 339.599 343.312C345.306 343.545 350.663 343.429 354.739 343.137C355.496 343.079 356.224 343.021 356.894 342.962C354.477 342.729 351.886 342.35 349.295 341.825C345.946 341.155 342.598 340.251 339.774 339.231C336.862 338.152 334.504 336.957 332.553 335.179C330.603 333.401 329.118 331.098 327.982 327.833C327.429 326.259 326.963 324.451 326.614 322.527C326.148 324.918 325.624 327.104 324.984 328.882C323.877 331.943 322.421 333.896 320.151 334.129C318.054 334.363 315.492 332.934 312.173 329.232C309.058 325.792 305.156 320.253 301.197 313.869C297.295 307.572 293.394 300.489 290.22 293.784C287.222 287.429 284.863 281.424 283.175 276.118C281.253 270.113 280.118 264.982 279.797 261.251C279.186 254.4 280.991 252.156 291.705 239.008L294.413 235.656C301.139 227.377 310.892 215.192 320.529 202.977C329.205 192.045 337.736 181.143 343.879 173.155L346.849 169.278C357.621 155.169 360.3 151.671 367.928 152.691C369.005 152.837 370.141 153.07 371.364 153.391C371.014 152.108 371.684 151.233 373.081 150.679C375.498 149.717 380.884 149.863 386.038 150.038C387.843 150.096 389.619 150.155 391.395 150.155C392.85 150.155 393.986 150.126 395.005 150.096C400.508 149.922 403.361 149.834 407.35 154.702C408.834 156.51 410.436 159.017 412.066 161.553C414.425 165.255 416.87 169.074 418.821 170.765C417.54 169.278 415.939 167.004 413.755 163.798C409.941 158.201 404.205 149.601 399.547 138.931C394.888 128.233 391.336 115.435 391.977 101.588C392.588 88.3828 396.985 74.2152 403.448 61.2429C410.523 47.017 420.102 34.1612 429.855 25.4157C439.23 17.0201 448.809 12.4725 457.864 10.0529C466.89 7.6625 475.42 7.40015 482.757 7.60421C490.065 7.80827 496.208 8.47875 501.536 9.35329C506.864 10.2278 511.348 11.2773 515.366 12.2393C519.384 13.2013 522.907 14.0758 525.993 15.0087C529.137 15.9707 531.816 16.991 534.028 18.2153C536.358 19.498 538.192 21.043 539.764 23.5792C541.278 26.0279 542.472 29.4386 543.52 34.4818C544.597 39.6125 545.529 46.5214 546.111 53.6052C546.664 60.2225 546.926 67.0148 546.723 72.7577C546.49 79.1418 545.674 84.1559 545.034 87.8873L545.179 87.9747C546.286 88.5577 547.218 89.7238 547.742 91.0356C548.237 92.2891 548.353 93.6884 547.858 94.8836C547.45 95.8747 546.606 96.7493 545.733 97.1574L545.587 97.2157C547.45 98.0903 549.285 99.4021 550.828 101.064C553.681 104.125 555.428 108.235 557.058 112.025C557.612 113.336 558.165 114.619 558.718 115.785C559.271 116.922 559.853 117.972 560.406 118.992C562.095 122.082 563.522 124.676 563.289 127.912C563.143 129.982 562.299 132.139 561.367 134.53C560.436 136.92 559.417 139.544 558.98 142.43C558.543 145.141 558.63 148.172 558.689 151.146C558.747 154.527 558.834 157.851 558.194 160.766C557.582 163.623 556.33 165.984 554.642 168.054C552.982 170.065 550.944 171.785 548.644 173.388C547.13 174.438 545.5 175.429 543.782 176.333C545.587 176.828 547.014 177.79 548.062 179.452C549.576 181.901 550.071 185.719 550.799 191.754C551.294 195.748 551.905 200.762 553.011 206.825C554.584 215.6 557.204 226.91 559.882 238.454C561.833 246.879 563.813 255.45 565.443 263.35C568.471 277.838 570.335 289.936 571.674 298.419C572.023 300.751 572.344 302.792 572.664 304.716L572.926 306.377C573.828 311.654 574.236 314.132 572.402 315.647C572.606 315.939 572.78 316.23 572.955 316.58C573.654 317.98 574.091 319.787 574.294 322.323C574.498 324.509 574.527 327.337 574.498 330.34C574.44 333.955 574.265 337.773 574.032 340.98C573.799 344.012 573.566 346.577 572.751 348.734C571.907 351.008 570.48 352.815 567.976 354.186C566.404 355.031 564.424 355.701 562.241 356.168C564.919 355.993 567.54 355.701 570.16 355.323C574.265 354.739 578.254 353.923 581.719 353.224C586.377 352.291 590.133 351.533 592.2 351.708C593.044 351.766 593.685 351.999 594.122 352.378C594.733 352.874 594.937 353.515 594.82 354.273C594.733 354.798 594.442 355.381 593.947 355.964C592.84 357.276 590.54 358.937 587.163 360.57C583.495 362.348 578.487 364.155 573.071 365.525C568.384 366.692 563.376 367.566 558.63 367.741C549.139 368.149 540.812 365.963 533.33 363.98L531.641 363.543L530.214 363.164C522.732 361.24 516.239 359.549 512.745 354.827C512.309 354.215 511.901 353.573 511.552 352.903C512.047 355.964 510.999 355.381 506.602 352.874C504.884 351.883 502.322 350.425 498.77 348.909C495.189 347.393 490.589 345.79 484.824 344.566C478.652 343.254 471.14 342.379 463.629 342.204C457.02 342.059 450.44 342.496 444.791 343.691C432.971 346.227 425.226 352.232 420.888 355.585L420.713 355.731C418.413 357.538 417.016 358.558 414.57 359.171C412.27 359.724 409.096 359.841 403.215 359.724C397.159 359.608 388.221 359.287 378.264 358.821C369.093 358.383 359.077 357.829 349.644 357.188C340.968 356.605 332.903 355.964 325.799 355.381C319.073 354.856 313.192 354.361 308.621 354.098C310.106 354.331 311.795 354.565 313.687 354.798C324.838 356.285 342.977 358.267 359.572 360.074C369.821 361.182 379.487 362.261 386.416 363.077C395.937 364.214 401.032 364.972 402.284 365.992C404.788 368.033 401.498 369.432 393.637 371.327C387.26 372.872 377.478 374.971 367.025 377.157C356.748 379.285 345.48 381.588 336.193 383.454C327.022 385.29 319.889 386.719 314.415 387.71C308.883 388.701 304.982 389.284 302.303 389.43C296.131 389.75 295.811 388.322 288.736 357.188L288.59 356.518C285.125 341.213 279.972 318.563 274.586 295.591C269.258 272.911 263.813 250.319 259.737 235.277C251.905 206.271 249.401 206.155 218.045 204.464L217.142 204.406C193.676 203.152 155.011 200.937 122.897 199.1C109.708 198.342 97.6255 197.642 88.1923 197.118C72.0335 196.214 63.5611 195.748 59.3103 196.622C55.7583 197.351 55.5254 199.275 55.6128 203.152C55.7583 208.254 56.4862 216.299 58.4369 227.26C59.8926 235.539 62.0471 245.451 65.1624 256.966C68.8018 270.434 73.7222 286.059 78.5262 300.576C83.301 315.006 88.0758 328.591 91.3367 337.861C94.5685 347.044 96.3445 351.883 97.8293 354.856C99.256 357.684 100.45 358.792 102.575 360.482C104.788 362.231 107.961 364.622 114.308 367.129C119.374 369.14 126.478 371.268 136.698 373.251C158.971 373.134 190.531 373.134 214.114 374.388C228.118 375.146 239.357 376.312 248.47 377.623C257.612 378.935 264.628 380.364 270.248 381.559C275.692 382.725 279.826 383.716 282.738 384.503C285.97 385.378 287.833 386.077 288.444 386.573C290.57 388.322 290.22 389.284 283.146 389.08C278.778 388.934 270.801 388.497 256.738 387.564C242.618 386.631 222.354 385.261 201.915 383.483C181.418 381.734 160.572 379.577 145.228 377.128C142.084 376.632 139.172 376.107 136.465 375.583L126.537 375.641H125.459L107.816 375.758C99.3724 375.816 93.9279 375.845 83.4757 375.933C75.4109 375.991 64.3763 376.108 51.8569 376.224L11.3873 376.749ZM214.027 376.807C194.898 375.787 170.617 375.612 150.236 375.641C164.91 377.798 183.631 379.693 202.148 381.267C222.703 383.046 242.88 384.416 256.913 385.349C269.811 386.194 277.555 386.66 282.068 386.835C279.186 386.077 275.139 385.115 269.811 383.949C264.221 382.754 257.262 381.326 248.179 380.043C239.095 378.731 227.944 377.536 214.027 376.807ZM286.989 388.468C286.872 388.351 286.581 388.234 286.173 388.06C287.047 388.555 287.571 388.934 286.989 388.468ZM500.226 324.714C504.768 325.384 505.205 326.142 506.34 330.544C507.417 332.03 508.32 333.634 508.99 335.383C509.95 337.832 510.533 340.543 511.086 343.225C511.901 347.102 512.716 350.921 514.638 353.515C517.637 357.567 523.78 359.17 530.826 360.978L532.252 361.357L533.941 361.794C541.278 363.718 549.401 365.875 558.543 365.496C563.114 365.292 567.947 364.476 572.489 363.339C577.759 361.998 582.592 360.249 586.144 358.529C589.23 357.042 591.268 355.614 592.171 354.535C592.287 354.39 592.375 354.244 592.462 354.156C592.346 354.127 592.2 354.098 592.025 354.098C590.249 353.952 586.639 354.681 582.184 355.585C578.662 356.285 574.615 357.13 570.48 357.713C565.705 358.383 560.785 358.762 555.777 358.85C550.77 358.908 545.674 358.704 540.579 358.15C535.31 357.596 530.04 356.722 525.847 355.731C521.742 354.769 518.568 353.632 517.287 352.495C516.938 352.174 516.676 351.853 516.53 351.504C516.152 350.629 516.327 349.842 516.938 349.113C517.346 348.618 518.015 348.151 518.83 347.772C520.577 346.898 523.256 346.198 525.643 345.732C527.856 345.324 529.865 345.149 531.554 344.974L532.223 344.915C530.651 342.875 529.05 340.484 527.448 337.686C525.527 334.333 523.634 330.369 522.499 326.929C521.538 323.956 521.131 321.303 521.771 319.583C522.033 318.854 522.47 318.3 523.023 317.892C523.751 317.338 524.624 317.076 525.643 317.047C526.546 317.018 527.536 317.222 528.526 317.571C530.506 318.3 532.573 319.758 534.116 321.828C535.892 324.189 536.998 327.279 537.697 330.34C538.396 333.371 538.687 336.374 538.862 338.648C539.036 340.98 539.094 342.583 538.832 343.749C538.512 345.178 537.813 345.994 536.503 346.519C537.377 347.51 538.221 348.414 539.036 349.259C540.463 350.717 541.773 351.941 543.345 352.874C544.888 353.777 546.752 354.419 549.285 354.71C552.051 355.031 555.632 354.973 559.009 354.477C562.008 354.04 564.861 353.282 566.841 352.232C568.792 351.183 569.869 349.784 570.538 348.035C571.237 346.14 571.47 343.779 571.674 340.922C571.907 337.686 572.111 333.925 572.14 330.427C572.169 327.541 572.14 324.801 571.936 322.644C571.732 320.37 571.383 318.854 570.83 317.746C570.684 317.426 570.48 317.134 570.276 316.872C569.781 317.047 569.199 317.222 568.559 317.396C565.705 318.125 561.164 318.767 556.33 319.058C552.08 319.32 547.596 319.32 543.84 318.912C539.618 318.446 536.241 317.484 534.378 316.405C533.65 315.968 533.097 315.502 532.777 315.035C532.311 314.306 532.223 313.578 532.631 312.849C532.893 312.382 533.359 311.945 534.058 311.625C535.659 310.837 538.949 310.342 542.734 310.05C547.072 309.73 552.167 309.73 556.127 309.963C559.853 310.167 562.648 310.633 564.803 311.216C567.016 311.829 568.588 312.586 569.869 313.432C570.131 313.607 570.364 313.782 570.597 313.957C571.616 312.82 571.295 310.925 570.626 306.96L570.364 305.299C570.102 303.637 569.752 301.451 569.374 298.973C568.064 290.519 566.2 278.508 563.172 264.02C561.542 256.208 559.562 247.608 557.612 239.183C554.933 227.639 552.342 216.328 550.74 207.437C549.605 201.141 548.993 196.185 548.499 192.22C547.8 186.507 547.334 182.892 546.082 180.88C545.15 179.364 543.607 178.694 541.627 178.49C540.929 178.432 540.143 178.432 539.327 178.461C537.086 179.277 534.698 179.86 532.107 180.21C530.156 180.472 528.06 180.589 525.993 180.472C521.276 181.143 516.705 181.376 513.764 179.714C511.552 178.461 510.358 176.245 509.892 173.563C509.863 173.33 509.805 173.097 509.776 172.864C508.407 171.056 507.272 168.957 506.428 166.742C504.972 162.981 504.273 158.9 504.273 155.373C504.273 152.691 504.681 150.33 505.554 147.735C503.458 150.709 501.303 153.449 499.178 155.898C493.821 162.049 488.522 166.246 483.31 169.191C478.07 172.106 472.916 173.738 467.85 174.759C462.697 175.779 457.573 176.187 452.914 174.525C448.198 172.864 444.093 169.161 441.036 162.019C439.434 158.23 438.124 153.478 437.076 148.202C436.435 149.397 435.504 150.126 434.485 150.942C433.262 151.904 431.806 153.07 430.496 155.693C429.622 157.472 428.836 159.891 428.021 162.34C426.129 168.083 424.149 174.03 420.626 174.03C417.336 174.03 413.638 168.287 410.145 162.836C408.543 160.329 406.971 157.88 405.574 156.189C402.313 152.195 399.867 152.283 395.121 152.429C393.957 152.458 392.676 152.516 391.424 152.516C389.91 152.516 387.959 152.458 386.008 152.399C381.117 152.254 375.964 152.079 373.984 152.895C373.809 152.982 373.664 152.982 373.693 152.982C373.867 153.42 374.333 153.944 375.061 154.557C377.332 155.344 379.661 156.306 381.932 157.413C386.736 159.716 391.22 162.573 393.695 165.139C394.335 165.809 394.83 166.45 395.238 167.063C395.937 167.471 396.577 167.85 397.13 168.199C401.119 170.648 403.07 172.251 403.448 173.913C403.885 175.837 402.487 177.266 399.867 179.364C396.897 181.726 392.123 185.136 388.017 188.081L386.183 189.393C385.019 192.57 384.174 196.622 383.883 202.073C383.621 206.854 383.796 212.685 384.262 219.04C386.3 229.622 388.891 243.585 391.336 256.645C393.142 266.294 394.83 275.418 396.199 282.561C396.694 285.126 397.13 287.371 397.509 289.265C398.237 291.51 398.935 293.521 399.634 295.3L399.896 295.941C400.624 294.6 402.022 290.111 404.38 281.89C409.533 263.874 418.471 229.505 424.498 206.184L427.701 193.853C428.079 192.337 428.458 190.967 428.807 189.655C428.429 187.702 428.225 185.807 428.225 184C428.254 181.084 428.866 178.432 429.826 176.333C430.554 174.759 431.515 173.447 432.592 172.543C433.757 171.552 435.067 171.027 436.465 171.027C437.221 171.027 438.008 171.202 438.765 171.552C441.356 172.747 443.743 176.012 446.422 179.627C448.751 182.804 451.313 186.244 454.166 188.547C456.991 190.821 460.193 192.074 463.629 192.424C467.355 192.803 471.373 192.162 475.537 190.704C480.02 189.101 484.679 186.536 488.609 184.349C491.957 182.484 494.811 180.909 496.732 180.385C497.548 180.181 498.217 180.122 498.77 180.239C499.702 180.414 500.343 180.939 500.692 181.726C500.983 182.367 501.041 183.125 500.954 184C500.779 185.515 500.081 187.41 499.149 189.334C498.101 191.521 496.732 193.736 495.131 195.981C493.559 198.196 491.754 200.47 489.774 202.744C487.794 205.047 485.669 207.379 483.631 209.303C481.505 211.285 479.467 212.859 477.72 213.559C477.458 213.676 477.196 213.763 476.963 213.821C477.72 214.084 478.273 214.463 478.594 215.017C479.787 217.057 477.458 220.293 473.732 225.482C470.907 229.417 467.181 234.577 463.483 241.107C459.378 248.366 455.273 257.315 451.662 265.828C448.081 274.282 444.937 282.502 442.782 288.158L442.753 288.245C438.299 299.847 437.862 301.013 432.388 303.375C429.477 304.628 425.081 306.232 420.655 307.398L419.753 307.631C422.344 307.485 425.139 307.485 428.516 307.572C433.407 307.718 439.463 308.068 445.927 308.739C451.138 309.263 456.641 310.021 461.998 311.042C467.938 312.178 473.702 313.607 479.001 315.268C484.475 316.959 489.424 318.883 493.53 320.866C496.034 322.09 498.275 323.373 500.226 324.714ZM480.69 322.294C485.727 322.935 490.793 323.547 494.607 324.014C493.908 323.635 493.209 323.285 492.452 322.935C488.464 321.011 483.601 319.146 478.244 317.455C473.033 315.822 467.355 314.394 461.503 313.286C456.204 312.295 450.76 311.537 445.607 311.012C439.201 310.342 433.204 309.992 428.371 309.875C424.032 309.759 420.655 309.788 417.482 310.109C414.337 310.429 411.367 311.041 407.874 312.062C404.496 313.024 400.624 314.365 396.956 315.764C392.938 317.309 389.153 318.912 386.562 320.195C384.349 321.303 383.097 322.061 382.893 322.731C382.718 323.256 383.388 324.101 384.931 325.501C386.649 327.046 389.269 329.057 392.122 331.069C395.587 333.546 399.43 336.024 402.4 337.861C403.303 338.415 404.205 338.939 404.991 339.406C407.524 340.893 409.067 341.825 409.329 342.846C409.504 343.516 409.329 344.041 408.805 344.449C410.174 344.332 410.785 344.216 411.659 343.4C411.979 343.108 412.328 342.729 412.765 342.321C414.599 340.426 417.569 337.394 423.596 333.78C427.119 331.681 431.661 329.407 436.232 327.337C441.356 325.005 446.509 322.935 450.323 321.653C457.456 319.262 459.873 319.583 467.384 320.574L468.229 320.691C471.315 321.128 475.857 321.682 480.69 322.294ZM382.66 346.606C388.745 346.635 393.578 346.315 397.392 345.907C394.801 345.907 392.035 345.819 389.502 345.557C385.921 345.207 382.806 344.536 380.011 343.953C377.594 343.458 375.411 342.991 373.343 342.817C371.189 342.642 369.122 342.787 366.909 342.933L365.832 342.991C365.22 343.37 364.522 343.691 363.677 343.983C361.96 344.566 359.63 345.003 356.515 345.294C365.774 345.936 375.207 346.548 382.66 346.606ZM311.94 342.787C313.658 342.991 315.725 343.108 318.112 343.225C313.279 342.292 308.941 341.184 305.622 340.339C304.254 339.989 303.06 339.697 302.07 339.464L302.216 339.552C303.293 340.251 304.37 340.922 305.797 341.446C307.253 342.029 309.174 342.467 311.94 342.787ZM365.046 340.689C365.424 340.368 365.715 340.047 365.919 339.668C366.647 338.356 366.414 336.345 366.152 334.217C366.065 333.43 365.977 332.643 365.919 331.797C365.832 330.427 365.861 328.999 366.123 327.891C366.298 327.162 366.589 326.55 367.055 326.113C367.608 325.588 368.307 325.326 369.18 325.501C369.675 325.588 370.228 325.821 370.81 326.229C373.111 327.745 376.692 332.089 379.603 335.616C380.593 336.811 381.496 337.89 382.223 338.764L382.544 339.143C382.02 337.307 381.088 334.742 379.953 332.409C379.108 330.631 378.118 328.999 377.128 327.978C375.731 326.521 374.1 326.229 372.761 325.996C371.8 325.821 370.956 325.676 370.199 325.18C369.093 324.48 368.51 323.285 368.307 321.74C368.19 320.982 368.19 320.137 368.248 319.233C366.763 317.222 365.075 314.744 363.153 311.945C361.756 309.905 360.242 307.718 358.64 305.415C357.825 304.249 357.185 303.345 356.544 302.442C354.914 300.139 353.196 297.719 351.507 295.241C350.779 294.775 350.022 294.338 349.295 293.988C347.286 293.026 345.306 292.647 343.384 292.734C341.434 292.822 339.483 293.376 337.59 294.279C335.698 295.183 333.835 296.466 332.291 298.244C331.389 299.293 330.574 300.518 329.933 301.975C329.613 303.491 329.351 305.124 329.089 306.815C328.827 308.505 328.536 310.488 328.245 312.499L328.07 313.723C328.07 314.51 328.128 315.298 328.157 316.085C328.419 320.078 329.147 324.043 330.195 327.075C331.185 329.932 332.466 331.943 334.126 333.459C335.814 335.004 337.94 336.083 340.56 337.045C343.239 338.036 346.47 338.881 349.731 339.552C353.079 340.222 356.428 340.659 359.281 340.805C361.435 340.863 363.328 340.805 365.046 340.689ZM368.481 333.984C368.772 336.374 369.034 338.59 368.132 340.514C369.937 340.397 371.684 340.339 373.518 340.484C375.673 340.659 377.944 341.155 380.447 341.68L382.165 342.029C381.67 341.592 381.117 341.038 380.506 340.31C379.749 339.435 378.846 338.327 377.827 337.132C375.032 333.721 371.567 329.524 369.558 328.212C369.238 328.008 368.976 327.891 368.772 327.833C368.714 327.833 368.685 327.833 368.656 327.833C368.539 327.949 368.452 328.182 368.365 328.503C368.161 329.319 368.161 330.515 368.219 331.681C368.307 332.439 368.394 333.226 368.481 333.984ZM383.446 340.397C383.592 340.63 383.65 340.747 383.708 340.718C383.941 340.659 383.737 340.572 383.446 340.397ZM384.902 338.881C385.426 340.688 385.484 341.942 384.96 342.554C386.474 342.817 388.046 343.05 389.706 343.225C392.763 343.516 396.14 343.604 399.139 343.545C402.167 343.458 404.787 343.254 406.272 342.933C405.719 342.583 404.846 342.059 403.739 341.417C402.982 340.98 402.138 340.455 401.119 339.843C398.12 338.007 394.248 335.47 390.725 332.963C387.784 330.864 385.048 328.824 383.301 327.221C381.03 325.151 380.127 323.635 380.622 322.032C381.059 320.603 382.689 319.466 385.484 318.096C388.134 316.784 391.977 315.152 396.082 313.578C399.809 312.149 403.739 310.779 407.175 309.817C408.339 309.496 409.446 309.205 410.523 308.943C407.291 308.913 404.875 308.039 402.808 305.998C401.09 304.278 399.663 301.771 398.178 298.244C397.043 297.224 396.199 294.483 395.238 290.169C394.044 286.438 392.792 282.123 391.54 277.342C389.764 270.434 388.017 262.534 386.445 253.963C384.698 244.43 383.213 234.111 382.282 224.549C382.107 222.8 381.961 221.08 381.845 219.389C381.321 216.678 380.826 214.171 380.389 211.927C379.807 209.011 379.603 207.933 379.37 206.913C376.692 193.707 376.633 193.415 380.913 190.238C381.787 189.597 382.893 188.78 384.145 187.906C384.262 187.585 384.407 187.294 384.524 186.973C386.067 183.329 387.959 180.822 389.793 178.49L390.084 178.111C392.676 174.817 394.947 171.902 393.345 168.666C392.152 167.966 390.871 167.237 389.531 166.45C383.941 163.215 377.536 159.512 374.013 156.626C371.684 155.839 369.471 155.256 367.579 154.994C361.29 154.178 358.786 157.443 348.654 170.707L345.684 174.584C339.512 182.629 330.952 193.532 322.305 204.435C312.726 216.533 302.973 228.718 296.16 237.113L293.452 240.466C283.262 253.001 281.515 255.129 282.068 261.047C282.389 264.632 283.466 269.559 285.358 275.418C287.047 280.637 289.347 286.525 292.317 292.793C295.461 299.439 299.333 306.465 303.177 312.645C307.049 318.883 310.892 324.305 313.891 327.658C316.657 330.719 318.578 331.943 319.918 331.797C321.082 331.681 322.014 330.281 322.8 328.066C324.081 324.509 324.925 319.058 325.711 313.549C325.653 310.458 325.915 307.456 326.498 304.92C326.818 303.579 327.196 302.384 327.691 301.276C328.07 299.468 328.477 297.748 328.914 296.233C329.817 293.23 330.923 290.781 332.35 289.12C333.398 287.895 334.592 287.137 335.611 286.496C336.775 285.767 337.561 285.242 336.979 284.106C335.844 281.948 331.884 278.013 328.565 274.719C327.255 273.407 326.032 272.183 325.013 271.133C321.694 267.577 321.927 266.294 322.858 265.419C323.062 265.215 323.237 265.128 323.411 265.011L323.703 264.836H324.023C324.663 264.836 325.187 265.361 325.187 266.003C325.187 266.44 324.925 266.848 324.576 267.023L324.46 267.11L326.731 269.53C327.575 270.434 328.856 271.687 330.224 273.057C333.66 276.468 337.765 280.52 339.075 283.027C340.647 286.059 339.104 287.05 336.892 288.449C336.018 289.003 334.999 289.673 334.155 290.635C333.136 291.802 332.291 293.521 331.593 295.65C333.136 294.163 334.854 293.026 336.63 292.181C338.813 291.131 341.055 290.49 343.326 290.402C345.189 290.315 347.053 290.577 348.945 291.277C346.878 288.012 344.869 284.572 343.093 280.957C340.822 276.322 338.871 271.366 337.619 267.11C336.309 262.708 335.669 259.006 336.076 257.111C336.193 256.528 336.426 256.062 336.717 255.712C337.328 255.012 338.144 254.779 339.104 255.012C339.803 255.187 340.56 255.625 341.434 256.295C343.472 257.928 346.15 261.134 349.149 265.624C351.915 269.792 354.972 275.156 357.709 280.374C360.649 286 363.211 291.51 364.609 295.241C364.842 295.824 365.017 296.378 365.191 296.874C365.279 296.407 365.453 295.941 365.715 295.475C365.832 295.3 365.948 295.096 366.094 294.921C367.2 293.551 369.384 292.501 371.771 292.122C374.13 291.743 376.75 292.035 378.846 293.259C379.166 293.463 379.516 293.696 379.836 293.93C381.787 295.533 383.01 298.157 383.65 301.101C384.378 304.482 384.378 308.389 383.854 311.595C383.446 314.161 382.689 316.318 381.845 318.096C380.71 320.457 379.312 322.148 378.147 323.285C377.565 323.839 377.012 324.276 376.459 324.568C377.274 324.947 378.089 325.501 378.875 326.317C380.069 327.541 381.175 329.407 382.136 331.36C383.359 334.042 384.349 336.928 384.902 338.881ZM371.48 323.198C371.538 323.227 371.597 323.256 371.655 323.285C371.422 323.081 371.189 322.819 370.956 322.556C371.072 322.848 371.247 323.052 371.48 323.198ZM370.781 317.484C370.723 317.834 370.694 318.184 370.636 318.533C371.218 319.32 371.771 320.02 372.266 320.603C373.402 321.915 374.188 322.556 374.77 322.644C375.236 322.702 375.76 322.323 376.459 321.653C377.449 320.691 378.671 319.204 379.661 317.134C380.447 315.531 381.117 313.578 381.466 311.275C381.932 308.33 381.961 304.745 381.292 301.655C380.768 299.177 379.778 297.049 378.293 295.795C378.089 295.62 377.856 295.475 377.594 295.3C375.993 294.367 373.926 294.163 372.062 294.454C370.228 294.746 368.598 295.475 367.841 296.407C367.782 296.495 367.724 296.582 367.666 296.67C366.909 297.952 368.045 300.051 369.209 302.267C369.908 303.55 370.607 304.891 371.072 306.261C372.208 309.671 371.626 312.849 371.072 315.735C370.985 316.376 370.869 316.988 370.781 317.484ZM368.714 315.851L368.831 315.298C369.326 312.703 369.85 309.817 368.918 306.989C368.539 305.823 367.87 304.57 367.2 303.346C366.793 302.588 366.385 301.83 366.036 301.101V301.188C366.007 302.005 365.774 302.617 365.366 303.025C364.9 303.52 364.26 303.695 363.532 303.608C362.804 303.52 361.93 303.112 360.97 302.5C359.98 301.859 358.873 300.955 357.651 299.935L358.437 301.013C359.223 302.121 359.98 303.2 360.533 303.987C362.134 306.261 363.648 308.505 365.075 310.546C366.385 312.528 367.608 314.306 368.714 315.851ZM345.16 279.908C347.548 284.776 350.343 289.294 353.196 293.521C355.059 294.775 356.864 296.262 358.495 297.632C359.892 298.798 361.203 299.876 362.251 300.576C362.833 300.955 363.357 301.217 363.706 301.305V301.13C363.736 300.197 363.357 298.594 362.396 296.058C361.028 292.385 358.495 286.992 355.612 281.453C352.934 276.322 349.906 271.046 347.169 266.906C344.316 262.621 341.812 259.589 339.949 258.132C339.366 257.665 338.871 257.374 338.522 257.286C338.464 257.257 338.464 257.199 338.464 257.228C338.406 257.286 338.376 257.403 338.318 257.607C337.998 259.123 338.609 262.417 339.803 266.469C341.055 270.579 342.948 275.389 345.16 279.908ZM407.029 343.4C407.088 343.545 407.088 343.604 407.058 343.429C407.029 343.429 407.029 343.429 407.029 343.4ZM540.87 355.818C542.355 355.964 543.84 356.11 545.325 356.197C544.19 355.818 543.171 355.381 542.268 354.827C540.463 353.777 539.007 352.407 537.464 350.833C536.358 349.696 535.193 348.443 534.028 347.043C533.359 347.131 532.631 347.189 531.845 347.277C530.214 347.422 528.264 347.597 526.138 348.005C523.926 348.414 521.509 349.055 519.937 349.842C519.413 350.104 519.005 350.367 518.801 350.6C518.801 350.6 518.772 350.571 518.743 350.571L518.714 350.542C518.743 350.571 518.801 350.658 518.889 350.717C519.879 351.591 522.703 352.553 526.459 353.428C530.564 354.419 535.717 355.264 540.87 355.818ZM518.714 350.542C518.685 350.483 518.714 350.513 518.714 350.542V350.542ZM534.96 344.536C535.222 344.478 535.484 344.42 535.688 344.332C536.241 344.128 536.532 343.808 536.649 343.225C536.853 342.35 536.794 340.922 536.62 338.794C536.445 336.607 536.154 333.692 535.513 330.835C534.873 328.037 533.883 325.238 532.34 323.198C531.059 321.507 529.37 320.312 527.798 319.729C527.07 319.466 526.371 319.32 525.76 319.35C525.236 319.35 524.799 319.495 524.508 319.729C524.304 319.874 524.159 320.108 524.042 320.37C523.605 321.565 523.984 323.693 524.799 326.2C525.876 329.494 527.711 333.313 529.545 336.52C531.204 339.435 532.864 341.884 534.494 343.953L534.96 344.536ZM568.297 315.006C567.278 314.394 566.026 313.811 564.279 313.344C562.27 312.791 559.62 312.382 556.098 312.178C552.225 311.945 547.247 311.974 542.996 312.266C539.473 312.528 536.503 312.965 535.193 313.607C535.077 313.665 534.989 313.723 534.931 313.753C535.077 313.927 535.339 314.102 535.659 314.306C537.26 315.239 540.288 316.085 544.19 316.522C547.829 316.901 552.167 316.901 556.301 316.668C560.989 316.376 565.385 315.764 568.093 315.094L568.297 315.006ZM533.068 176.77C535.193 176.391 537.144 176.099 538.92 176.012C539.415 175.837 539.881 175.633 540.346 175.458C542.909 174.38 545.267 173.009 547.392 171.523C549.488 170.065 551.41 168.491 552.895 166.654C554.351 164.876 555.428 162.806 555.952 160.358C556.505 157.705 556.447 154.527 556.389 151.292C556.33 148.202 556.272 145.082 556.709 142.167C557.204 139.019 558.281 136.279 559.242 133.772C560.115 131.556 560.872 129.545 561.018 127.825C561.193 125.289 559.941 122.956 558.427 120.187C557.874 119.167 557.262 118.088 556.68 116.864C556.098 115.669 555.544 114.357 554.962 113.016C553.419 109.401 551.73 105.495 549.168 102.725C547.421 100.83 545.238 99.4312 543.2 98.8482C541.482 98.3526 539.91 98.4401 538.949 99.3438C537.842 100.364 537.348 102.405 537.406 104.737C537.464 107.186 538.192 109.897 539.56 112.112C541.715 115.61 545.587 117.972 547.887 119.4C548.615 119.837 549.197 120.216 549.605 120.508C552.371 122.636 551.672 123.481 548.237 123.394C547.043 123.365 545.034 123.073 542.414 122.636C541.191 122.432 540.172 122.257 539.153 122.082C534.436 121.266 528.875 120.333 525.643 120.158C524.479 120.1 523.634 120.129 523.139 120.275C523.227 120.362 523.314 120.479 523.431 120.624C524.158 121.382 525.41 122.286 526.983 123.248C528.584 124.21 530.506 125.23 532.602 126.163L532.951 126.309C535.251 125.872 537.726 125.755 539.939 125.93C542.006 126.105 543.869 126.513 545.383 127.038C547.334 127.708 548.79 128.583 549.401 129.311C549.692 129.632 549.867 129.982 549.925 130.332C550.042 130.915 549.867 131.41 549.401 131.818C549.139 132.081 548.731 132.256 548.266 132.372C547.421 132.576 546.111 132.576 544.452 132.343C542.763 132.081 540.638 131.556 538.367 130.827C536.503 130.244 534.552 129.516 532.66 128.728C530.768 129.166 529.079 129.865 527.885 130.827C526.75 131.731 526.08 132.897 525.76 134.034C525.41 135.287 525.498 136.483 525.935 137.124C526.255 137.59 526.866 137.765 527.711 137.765C528.817 137.765 530.243 137.445 531.874 137.007C532.369 136.862 532.806 136.745 533.242 136.628C536.503 135.696 540.055 134.704 542.501 135.725C544.015 136.337 545.005 137.678 545.471 139.223C545.936 140.797 545.849 142.634 545.209 144.237C544.539 145.869 543.316 147.24 541.744 148.027C540.288 148.755 538.599 148.96 536.823 148.376C535.251 147.881 533.737 146.773 532.223 145.665C530.622 144.499 529.021 143.333 527.652 143.1C526.488 142.925 525.323 143.392 524.129 144.354C522.79 145.432 521.422 147.094 520.024 149.076C518.481 151.233 516.938 153.799 515.599 156.626C514.492 158.958 513.532 161.495 512.862 164.147C512.192 166.8 511.843 169.54 512.047 171.931C512.542 172.543 513.066 173.097 513.648 173.622C515.803 175.546 518.481 176.77 521.334 177.44C522.819 177.79 524.391 177.994 525.935 178.082C527.594 177.849 529.254 177.528 530.855 177.236L533.068 176.77ZM514.929 177.557C515.424 177.849 516.006 178.053 516.618 178.198C515.599 177.732 514.609 177.178 513.677 176.508C514.056 176.945 514.463 177.295 514.929 177.557ZM509.776 168.345C509.921 166.742 510.212 165.109 510.62 163.506C511.319 160.708 512.338 158.055 513.532 155.548C514.929 152.633 516.56 149.951 518.19 147.677C519.704 145.549 521.189 143.712 522.761 142.488C524.45 141.118 526.226 140.447 528.118 140.768C530.04 141.089 531.874 142.4 533.679 143.741C535.047 144.733 536.387 145.724 537.61 146.132C538.745 146.511 539.851 146.365 540.783 145.899C541.831 145.374 542.676 144.441 543.112 143.333C543.549 142.226 543.636 140.943 543.316 139.835C543.054 138.931 542.501 138.144 541.715 137.824C539.997 137.124 536.853 138.028 533.941 138.844C533.446 138.99 532.951 139.135 532.544 139.223C530.768 139.689 529.166 140.068 527.798 140.068C526.167 140.068 524.886 139.631 524.071 138.407C523.285 137.241 523.052 135.317 523.605 133.393C524.042 131.818 524.974 130.215 526.517 128.991C527.39 128.291 528.409 127.737 529.574 127.271C528.205 126.6 526.954 125.901 525.847 125.23C524.159 124.21 522.79 123.19 521.946 122.344C519.413 126.717 516.967 130.915 514.958 134.471C511.988 139.689 509.892 143.45 508.553 146.627C507.272 149.717 506.69 152.312 506.69 155.344C506.69 158.609 507.359 162.398 508.699 165.867C508.961 166.654 509.339 167.529 509.776 168.345ZM539.735 128.175C539.094 128.116 538.425 128.087 537.726 128.087C538.192 128.233 538.629 128.379 539.094 128.524C541.22 129.195 543.229 129.72 544.801 129.953C545.616 130.069 546.315 130.128 546.839 130.128C546.286 129.807 545.558 129.457 544.626 129.166C543.287 128.699 541.598 128.32 539.735 128.175ZM524.508 117.767C524.886 117.767 525.294 117.767 525.76 117.797C529.137 117.972 534.756 118.934 539.531 119.75C540.812 119.983 542.006 120.158 542.763 120.304C543.898 120.479 544.888 120.653 545.733 120.77C543.229 119.196 539.706 116.805 537.551 113.278C535.979 110.713 535.135 107.564 535.047 104.766C534.96 101.792 535.717 99.0814 537.318 97.5947C538.599 96.3995 540.346 96.0205 542.268 96.2537C542.035 95.8164 541.889 95.2917 541.831 94.6212C541.773 93.6884 541.919 92.4349 542.181 90.8607C540.841 92.0851 538.978 94.4172 536.241 98.5858C533.766 102.317 530.622 107.448 527.361 112.899C526.429 114.473 525.469 116.135 524.508 117.767ZM523.664 114.648C524.246 113.657 524.828 112.666 525.41 111.704C528.7 106.194 531.874 101.035 534.349 97.3032C537.318 92.8139 539.327 90.3068 540.812 88.995C541.54 88.3537 542.181 87.9747 542.763 87.7707C543.432 84.0684 544.248 79.0835 544.481 72.6993C544.684 67.1023 544.422 60.3683 543.869 53.8092C543.287 46.7837 542.355 39.9914 541.307 34.9482C540.317 30.1674 539.211 27.0191 537.842 24.7744C536.532 22.6172 534.96 21.3345 532.98 20.2268C530.913 19.0607 528.38 18.0987 525.381 17.195C522.353 16.2622 518.86 15.4168 514.871 14.4548C510.911 13.4928 506.457 12.4725 501.216 11.6271C495.975 10.7817 489.919 10.1112 482.728 9.90718C475.566 9.70312 467.268 9.96548 458.504 12.2976C449.77 14.6297 440.541 19.0316 431.457 27.1357C421.907 35.677 412.532 48.2705 405.574 62.2631C399.227 75.0023 394.918 88.8201 394.335 101.676C393.724 115.115 397.159 127.562 401.73 137.999C406.301 148.464 411.979 156.976 415.735 162.486C419.927 168.637 421.383 170.765 421.412 170.736C421.499 170.677 421.703 169.57 421.965 167.966L422.053 167.471C422.256 166.305 422.577 164.556 422.955 162.486C424.091 156.306 425.75 147.094 427.701 134.005C428.371 129.457 429.04 124.706 429.739 119.837C430.496 114.532 431.253 109.11 432.039 103.891C431.69 103.658 431.311 103.454 430.933 103.25C429.914 102.696 428.865 102.142 428.021 101.035C427.002 99.7227 426.391 97.7696 426.129 95.4083C425.896 93.1054 426.012 90.3943 426.507 87.45C427.002 84.4474 427.876 81.2116 428.982 78.4713C430.001 75.906 431.253 73.6905 432.592 72.437C433.349 71.7374 434.135 71.3001 434.921 71.096C435.795 70.892 436.639 70.9794 437.367 71.3293C437.891 71.5916 438.386 71.9997 438.765 72.5244C440.919 68.1809 443.423 67.8602 447.179 67.3647H447.237L447.557 67.3355C452.536 66.6942 459.844 65.7613 468.986 66.3152C472.45 66.5193 476.119 66.9565 479.729 67.3647C485.902 68.0643 491.987 68.7639 496.441 68.3849C499.818 68.0934 502.264 67.1606 504.215 65.7322C506.224 64.3037 507.796 62.3214 509.426 60.0185C510.62 58.2985 511.843 56.4329 512.949 54.6255C513.357 53.4011 513.852 52.2351 514.347 51.2148C515.366 49.0575 516.414 47.3668 516.996 46.6088C517.2 46.3465 517.404 46.1424 517.579 46.0258C518.889 45.1221 519.558 45.4136 519.529 47.0461C519.529 47.2793 519.413 47.6583 519.209 48.1247C518.714 49.2616 517.404 51.7103 515.744 54.4797L515.104 55.6166C514.813 56.5203 514.551 57.4823 514.376 58.4443C513.968 60.689 513.968 63.0502 514.754 65.3532C515.657 68.0351 517.637 70.7171 519.791 73.6322C521.509 75.9643 523.343 78.4422 524.857 81.2407C526.633 84.4765 527.973 88.1205 528.235 92.7264C528.526 97.274 527.769 102.754 525.44 109.78C524.916 111.325 524.333 112.958 523.664 114.648ZM545.645 91.881C545.412 91.2688 545.063 90.7441 544.655 90.3651C544.335 92.2017 544.131 93.5718 544.19 94.4463C544.219 94.8545 544.306 95.0877 544.393 95.1751H544.422C544.51 95.1751 544.655 95.146 544.801 95.0877C545.209 94.8836 545.587 94.5046 545.791 94.0091C545.995 93.3969 545.907 92.6098 545.645 91.881ZM425.197 162.894L424.993 164.031C425.284 163.215 425.546 162.398 425.808 161.553C426.653 158.988 427.497 156.451 428.4 154.615C429.914 151.496 431.602 150.184 433.029 149.047C434.135 148.172 435.067 147.444 435.445 145.869C435.795 144.47 435.824 142.371 435.678 139.893C435.562 139.135 435.475 138.348 435.387 137.59C434.135 127.358 433.64 116.427 433.786 107.564C433.175 111.733 432.563 116.018 431.981 120.187C431.282 125.23 430.583 130.128 429.943 134.384C428.05 147.327 426.332 156.656 425.197 162.894ZM432.359 101.414C433.553 93.4843 434.776 86.2839 435.94 81.1824C436.435 79.0252 436.93 77.247 437.425 75.7311C437.367 75.1189 437.221 74.6234 437.018 74.2444C436.814 73.8654 436.552 73.6031 436.29 73.4573C436.028 73.3407 435.737 73.3115 435.416 73.3698C435.009 73.4573 434.572 73.7197 434.135 74.1569C433.058 75.1772 431.981 77.0721 431.078 79.375C430.059 81.9695 429.215 85.0304 428.749 87.8873C428.312 90.5984 428.196 93.1345 428.4 95.2334C428.603 97.1866 429.069 98.7024 429.797 99.6644C430.35 100.364 431.166 100.801 431.981 101.268L432.359 101.414ZM447.441 69.6968C443.976 70.134 441.822 70.4255 439.813 76.0518C439.813 76.2267 439.813 76.4307 439.813 76.6057C439.784 78.1507 439.405 79.9289 438.91 82.3485C437.978 86.8087 436.581 93.4552 436.202 104.387L436.173 105.815C436.901 108.322 436.901 112.2 436.872 116.776C436.872 119.371 436.843 122.198 436.989 125.114C437.105 127.737 437.338 130.565 437.571 133.247C437.775 135.492 437.949 137.649 438.037 139.602C439.172 147.91 440.861 155.548 443.19 160.999C445.956 167.442 449.595 170.765 453.701 172.222C457.864 173.68 462.61 173.301 467.414 172.339C472.305 171.377 477.225 169.803 482.204 167.033C487.183 164.235 492.278 160.183 497.46 154.236C502.526 148.406 507.679 140.797 512.163 132.926C516.909 124.56 520.927 115.96 523.256 108.964C525.498 102.259 526.197 97.0408 525.935 92.7847C525.672 88.5869 524.45 85.2636 522.819 82.2902C521.393 79.6665 519.617 77.247 517.928 74.9732C515.657 71.9123 513.561 69.0554 512.542 66.0528C511.93 64.2454 511.726 62.4381 511.785 60.689L511.319 61.3303C509.572 63.8373 507.825 65.9654 505.554 67.5978C503.254 69.2595 500.459 70.3381 496.616 70.6588C491.957 71.0669 485.727 70.3672 479.438 69.6385C475.828 69.2303 472.159 68.7931 468.811 68.589C459.873 68.0351 452.711 68.968 447.819 69.6093L447.47 69.6676L447.441 69.6968ZM401.177 174.38C400.973 173.505 399.518 172.368 396.461 170.473C396.664 173.592 394.452 176.42 392.006 179.539L391.715 179.918C390.492 181.463 389.24 183.096 388.134 185.107C391.831 182.454 395.82 179.568 398.44 177.499C400.304 175.983 401.323 175.05 401.177 174.38ZM383.01 191.608L382.369 192.074C379.428 194.261 379.341 194.611 381.408 204.843C381.437 203.823 381.466 202.861 381.525 201.899C381.728 197.817 382.282 194.436 383.01 191.608ZM406.534 282.531C404.06 291.189 402.313 296.203 400.624 297.982C401.876 300.897 403.099 302.996 404.496 304.366C406.156 306.027 408.165 306.669 410.96 306.64C413.522 306.61 416.754 305.998 419.985 305.153C424.294 304.016 428.574 302.471 431.398 301.247C435.97 299.264 436.377 298.186 440.511 287.4L440.541 287.312C442.695 281.715 445.81 273.611 449.479 264.924C453.118 256.295 457.253 247.258 461.416 239.941C465.172 233.324 468.928 228.106 471.81 224.112C475.013 219.681 476.992 216.911 476.556 216.183C475.973 215.162 471.053 215.716 465.638 216.328C462.61 216.678 459.436 217.028 456.525 217.116C452.216 217.232 448.664 216.678 445.577 215.308C442.462 213.938 439.813 211.723 437.338 208.516C434.776 205.251 432.388 200.878 430.671 196.331C430.409 195.631 430.176 194.931 429.943 194.232L429.885 194.407L426.682 206.738C420.597 230.175 411.659 264.691 406.534 282.531ZM430.496 183.212C432.097 177.732 433.087 175.75 434.194 176.041C435.3 176.333 435.533 178.082 435.882 180.705L436.115 182.396C436.727 186.74 437.833 192.832 439.289 198.021C440.337 201.724 441.56 204.901 442.87 206.563C444.529 208.662 446.626 207.816 448.664 206.184C449.857 205.251 451.08 203.997 452.216 202.802L452.303 202.715C454.108 200.878 455.739 199.217 457.34 198.138C459.145 196.914 460.892 196.418 462.697 197.147C465.346 198.255 467.734 202.161 469.83 205.63C470.18 206.213 470.529 206.796 470.936 207.466C471.985 209.157 472.945 210.498 473.935 211.198C474.751 211.781 475.653 211.927 476.818 211.46C478.244 210.877 480.079 209.478 482 207.671C483.98 205.805 486.047 203.531 487.969 201.286C489.89 199.042 491.666 196.826 493.18 194.669C494.694 192.541 495.975 190.413 496.994 188.372C497.81 186.681 498.421 185.02 498.567 183.795C498.625 183.329 498.596 182.95 498.508 182.717C498.479 182.659 498.421 182.6 498.304 182.571C498.072 182.542 497.722 182.571 497.256 182.688C495.597 183.125 492.86 184.641 489.628 186.419C485.61 188.635 480.865 191.258 476.206 192.92C471.723 194.523 467.355 195.194 463.279 194.756C459.407 194.348 455.797 192.949 452.594 190.355C449.508 187.848 446.858 184.262 444.442 180.997C441.967 177.645 439.725 174.584 437.687 173.651C437.221 173.447 436.785 173.33 436.348 173.33C435.533 173.33 434.718 173.68 433.961 174.292C433.145 174.992 432.388 176.012 431.806 177.295C431.107 178.927 430.612 180.968 430.496 183.212ZM433.611 178.286C433.291 178.228 433.029 181.347 431.078 189.597C431.486 191.55 432.068 193.561 432.825 195.514C434.456 199.829 436.727 203.968 439.143 207.058C441.385 209.944 443.743 211.927 446.48 213.151C449.246 214.375 452.478 214.871 456.437 214.754C459.174 214.696 462.348 214.317 465.346 213.996C468.171 213.676 470.878 213.355 473.12 213.355C472.945 213.238 472.771 213.122 472.596 213.005C471.315 212.072 470.209 210.527 468.986 208.632C468.666 208.137 468.258 207.437 467.85 206.767C465.929 203.618 463.774 200.033 461.824 199.246C460.863 198.867 459.815 199.217 458.65 200.004C457.253 200.966 455.709 202.54 453.963 204.289L453.875 204.376C452.711 205.572 451.43 206.854 450.119 207.933C447.062 210.382 443.889 211.518 441.065 207.962C439.522 206.038 438.182 202.569 437.047 198.604C435.562 193.328 434.426 187.09 433.815 182.688L433.582 180.997C433.378 179.306 434.019 178.373 433.611 178.286Z" fill="black"/>
</g>
<defs>
<clipPath id="clip0_119_3080">
<rect width="601" height="396" fill="white"/>
</clipPath>
</defs>
</svg>
