<svg width="20" height="20" viewBox="0 0 20 20" fill="none" xmlns="http://www.w3.org/2000/svg">
<path d="M16.1952 5.9375H3.80532C3.79254 6.0898 3.74653 5.27645 4.6436 18.7332C4.69086 19.4434 5.28578 20 5.99789 20H14.0026C14.7147 20 15.3096 19.4434 15.3569 18.7332C16.2547 5.26484 16.2077 6.08672 16.1952 5.9375ZM7.55453 17.4977C7.20758 17.5272 6.9075 17.271 6.87758 16.9293L6.25258 9.7418C6.2225 9.39766 6.47719 9.09492 6.82094 9.06484C7.16469 9.03516 7.46782 9.28945 7.49789 9.6332L8.12289 16.8207C8.15297 17.1648 7.89828 17.4676 7.55453 17.4977ZM10.6252 16.875C10.6252 17.2203 10.3455 17.5 10.0002 17.5C9.65492 17.5 9.37524 17.2203 9.37524 16.875V9.6875C9.37524 9.34219 9.65492 9.0625 10.0002 9.0625C10.3455 9.0625 10.6252 9.34219 10.6252 9.6875V16.875ZM13.7479 9.7418L13.1229 16.9293C13.0948 17.2547 12.8217 17.5 12.501 17.5C12.1317 17.5 11.8458 17.1843 11.8776 16.8207L12.5026 9.6332C12.5327 9.28945 12.8354 9.03516 13.1795 9.06484C13.5233 9.09492 13.778 9.39766 13.7479 9.7418ZM16.4553 2.1875H13.4331C13.4394 2.10527 13.4377 2.16672 13.4377 1.35742C13.4377 0.608984 12.8288 0 12.0803 0H7.92016C7.17172 0 6.56274 0.608984 6.56274 1.35742C6.56274 2.15109 6.56106 2.10496 6.56742 2.1875H3.54516C2.79672 2.1875 2.18774 2.79648 2.18774 3.54492C2.18774 4.66145 2.18598 4.60852 2.19203 4.6875H17.8084C17.8146 4.6073 17.8127 4.655 17.8127 3.54492C17.8127 2.79648 17.2038 2.1875 16.4553 2.1875ZM12.1877 2.08008C12.1877 2.13945 12.1397 2.1875 12.0803 2.1875H7.92016C7.86078 2.1875 7.81274 2.13945 7.81274 2.08008V1.35742C7.81274 1.29805 7.86078 1.25 7.92016 1.25H12.0803C12.1397 1.25 12.1877 1.29805 12.1877 1.35742V2.08008Z" fill="#FF3535"/>
</svg>
