<svg width="74" height="74" viewBox="0 0 74 74" fill="none" xmlns="http://www.w3.org/2000/svg">
<g clip-path="url(#clip0_92_2186)">
<path d="M26.8906 34.3247V36.0591C26.8906 36.6579 27.376 37.1431 27.9746 37.1431C28.5733 37.1431 29.0586 36.6579 29.0586 36.0591V34.3247C29.0586 33.7259 28.5733 33.2407 27.9746 33.2407C27.376 33.2407 26.8906 33.7259 26.8906 34.3247Z" fill="white"/>
<path d="M44.9414 34.3247V36.0591C44.9414 36.6579 45.4267 37.1431 46.0254 37.1431C46.624 37.1431 47.1094 36.6579 47.1094 36.0591V34.3247C47.1094 33.7259 46.624 33.2407 46.0254 33.2407C45.4267 33.2407 44.9414 33.7259 44.9414 34.3247Z" fill="white"/>
<path d="M38.5631 35.2952C37.7358 36.2446 36.2651 36.2439 35.4384 35.2952C35.045 34.844 34.3603 34.797 33.9089 35.1901C33.4576 35.5835 33.4106 36.2682 33.8039 36.7195C35.4953 38.6603 38.5076 38.6586 40.1975 36.7195C40.5908 36.2682 40.5438 35.5835 40.0924 35.1901C39.6412 34.7968 38.9564 34.8438 38.5631 35.2952Z" fill="white"/>
<path d="M70.7847 10.1364C64.8401 8.70958 58.6838 9.90052 53.7451 13.3989C52.9907 12.7105 52.2508 12.2276 50.8905 12.1765C50.5575 11.2685 49.9048 10.4953 49.0372 10.0147C45.3709 7.98418 41.2092 6.91089 37.0022 6.91089C33.6356 6.91089 30.2925 7.59033 27.1862 8.92421C26.6361 9.16052 26.3818 9.7979 26.6179 10.348C26.8542 10.8981 27.4916 11.1524 28.0417 10.9163C30.9182 9.68097 33.9753 9.07886 37.0022 9.07886C40.8428 9.07886 44.6413 10.0582 47.9869 11.9112C48.5315 12.2129 48.8951 12.7588 48.9593 13.3716C49.0171 13.9234 49.4823 14.3425 50.0373 14.3425L50.526 14.3392C51.2036 14.3392 51.6283 14.4109 52.0689 14.8024C54.982 17.3924 57.1872 20.712 58.4459 24.4016C58.5382 24.6728 58.5158 24.9598 58.3992 25.2098H58.12C56.5558 25.2098 55.0854 24.6008 53.9794 23.4948L46.8893 16.4046C46.466 15.9811 45.7796 15.9812 45.3564 16.4046C39.6783 22.0828 32.1289 25.2098 24.0987 25.2098H15.601C15.4842 24.96 15.4614 24.6726 15.5535 24.4026C17.1495 19.7233 20.295 15.6335 24.4102 12.8868C24.9081 12.5544 25.0424 11.8813 24.7101 11.3834C24.3777 10.8855 23.7048 10.7511 23.2067 11.0835C22.1633 11.7799 21.1778 12.5558 20.2562 13.3996C15.3175 9.90052 9.16043 8.70915 3.21571 10.1364C0.921566 10.6871 -0.467669 13.0208 0.14471 15.3061L2.05382 22.4315C2.78703 25.1681 5.96282 26.4426 8.36131 24.924C10.0876 23.8309 11.9523 23.039 13.9253 22.5589C13.775 22.9365 13.6328 23.3176 13.5014 23.703C13.3302 24.2051 13.2826 24.7437 13.3758 25.2879C10.1635 25.7819 7.6956 28.5647 7.6956 31.9131C7.6956 35.5889 10.6701 38.582 14.3384 38.6147C16.4853 45.6607 21.8345 51.3233 28.6836 53.9002C25.6568 56.3978 23.8468 60.1579 23.8468 64.1641V66.0048C23.8468 66.6036 24.3322 67.0888 24.9308 67.0888H49.0696C49.6684 67.0888 50.1535 66.6036 50.1535 66.0048V64.1641C50.1535 60.1657 48.3424 56.3995 45.3169 53.9007C46.7409 53.367 48.1161 52.6978 49.4205 51.8926C49.9298 51.5783 50.0879 50.9104 49.7734 50.4009C49.4589 49.8916 48.791 49.7335 48.2817 50.048C44.8978 52.1366 40.9966 53.2407 36.9999 53.2407C25.1353 53.2407 15.4828 43.588 15.4828 31.7233C15.4828 30.2615 15.6328 28.8039 15.9254 27.3778H24.0987C32.1194 27.3778 40.0329 24.3788 46.1101 18.6913L52.4465 25.0279C53.9514 26.5326 55.9488 27.3651 58.0752 27.3767C58.3675 28.8022 58.5174 30.2602 58.5174 31.7233C58.5173 37.7205 55.9838 43.492 51.5666 47.558C51.1261 47.9635 51.0978 48.6492 51.5032 49.0897C51.9095 49.5308 52.5951 49.558 53.0348 49.1532C56.1633 46.2734 58.4316 42.6156 59.6524 38.615C63.325 38.5872 66.3043 35.5921 66.3043 31.9131C66.3043 28.5646 63.8363 25.7818 60.624 25.2878C60.7162 24.7482 60.6709 24.2106 60.4979 23.7022C60.3664 23.3166 60.2225 22.9359 60.0721 22.558C62.046 23.0381 63.9116 23.8302 65.6386 24.9238C68.0394 26.4436 71.2141 25.164 71.9461 22.4314L73.8554 15.306C74.4672 13.0233 73.0808 10.6876 70.7847 10.1364ZM9.86357 31.9131C9.86357 29.6483 11.5322 27.766 13.7046 27.431C13.4456 28.8438 13.3148 30.2822 13.3148 31.7234C13.3148 33.3259 13.4757 34.8911 13.7804 36.4051C11.5714 36.1024 9.86357 34.204 9.86357 31.9131ZM28.6425 64.1642V64.921H26.0147V64.1642C26.0147 63.7384 26.0405 63.3162 26.0884 62.8988C26.9313 63.1938 27.787 63.4582 28.6512 63.6835C28.6454 63.8438 28.6425 64.0042 28.6425 64.1642ZM47.9856 64.1642V64.921H45.3577V64.1642C45.3577 64.0043 45.3548 63.8438 45.349 63.6835C46.2132 63.4582 47.0688 63.1938 47.9116 62.899C47.9596 63.3164 47.9856 63.7386 47.9856 64.1642ZM31.2697 54.7064C33.1054 55.1641 35.0244 55.4088 36.9999 55.4088C38.944 55.4088 40.8674 55.1705 42.7307 54.7069C44.9933 56.1105 46.6513 58.278 47.4505 60.7645C46.3097 61.175 45.1399 61.5204 43.9601 61.7924C43.4256 61.9159 43.0673 62.4188 43.1259 62.9643C43.1682 63.36 43.1897 63.7637 43.1897 64.1642V64.921H30.8105V64.1642C30.8105 63.7637 30.832 63.3602 30.8744 62.9643C30.9329 62.4188 30.5746 61.9157 30.0401 61.7924C28.86 61.5203 27.6896 61.1747 26.5483 60.7641C27.3467 58.2759 29.0049 56.1106 31.2697 54.7064ZM15.0534 20.1209C12.2407 20.5742 9.60182 21.5723 7.20159 23.0922C6.04636 23.8236 4.5045 23.2014 4.14794 21.8703L2.23882 14.7451C1.94485 13.6485 2.60535 12.5125 3.72157 12.2445C8.93207 10.9935 14.3234 11.9841 18.6986 14.9569C17.272 16.5156 16.0443 18.2534 15.0534 20.1209ZM60.2959 27.431C62.468 27.7663 64.1365 29.6484 64.1365 31.9131C64.1365 34.2065 62.4251 36.1065 60.2125 36.406C60.5232 34.8742 60.6852 33.3062 60.6852 31.7234C60.6852 30.2814 60.5544 28.8431 60.2959 27.431ZM71.7614 14.7451L69.8521 21.8703C69.4944 23.2048 67.95 23.8218 66.7986 23.0922C64.3991 21.5727 61.761 20.5747 58.9493 20.1212C57.9605 18.2525 56.7352 16.5144 55.3055 14.9542C59.68 11.9835 65.0693 10.9939 70.2787 12.2444C71.3897 12.5112 72.0567 13.6432 71.7614 14.7451Z" fill="white"/>
</g>
<defs>
<clipPath id="clip0_92_2186">
<rect width="74" height="74" fill="white"/>
</clipPath>
</defs>
</svg>
