<svg width="74" height="74" viewBox="0 0 74 74" fill="none" xmlns="http://www.w3.org/2000/svg">
<g clip-path="url(#clip0_92_2194)">
<path d="M71.5942 23.8482C71.3304 23.1542 71.0415 22.4591 70.7355 21.782L68.7559 22.6762C69.0436 23.3134 69.3156 23.9675 69.5639 24.6205L71.5942 23.8482Z" fill="white"/>
<path d="M4.12225 48.5198L2.07227 49.2383C2.31787 49.9391 2.58795 50.6403 2.87454 51.3225L4.87702 50.4808C4.60724 49.839 4.35338 49.1793 4.12225 48.5198Z" fill="white"/>
<path d="M73.3951 30.3059L71.2582 30.6965C71.6356 32.7615 71.827 34.8823 71.8269 36.9999C71.8269 56.204 56.2032 71.8277 36.9991 71.8277C23.6394 71.8277 11.6651 64.381 5.74868 52.3932L3.80078 53.3547C6.81205 59.456 11.4458 64.6114 17.2013 68.2634C23.1158 72.0163 29.9616 73.9999 36.9991 73.9999C46.8824 73.9999 56.1739 70.1514 63.1622 63.1631C70.1505 56.1748 73.9991 46.8832 73.9991 36.9999C73.9993 34.7518 73.7961 32.4996 73.3951 30.3059Z" fill="white"/>
<path d="M2.17221 37C2.17221 17.7959 17.7959 2.17221 37 2.17221C46.2349 2.17221 55.0519 5.84035 61.558 12.3092H55.3914V14.4814H65.1663V4.70646H62.9941V10.6735C56.092 3.86031 46.7657 0 37 0C27.1167 0 17.8252 3.84858 10.8369 10.8369C3.84858 17.8252 1.05653e-07 27.1167 1.05653e-07 37C-0.000144708 38.9215 0.148579 40.8515 0.441973 42.7362L2.58841 42.402C2.3121 40.6274 2.17207 38.81 2.17221 37Z" fill="white"/>
<path d="M2.97562 44.4714L0.853516 44.9351C1.01194 45.6599 1.19484 46.3901 1.39744 47.105L3.48739 46.5132C3.29682 45.8404 3.12463 45.1535 2.97562 44.4714Z" fill="white"/>
<path d="M70.8176 28.6377L72.9267 28.1182C72.749 27.397 72.5467 26.6717 72.3254 25.9626L70.252 26.6101C70.4603 27.2771 70.6505 27.9593 70.8176 28.6377Z" fill="white"/>
<path d="M37 12.0196C44.6839 12.0196 51.8284 15.48 56.6019 21.5133L58.3055 20.1656C53.1174 13.6082 45.3519 9.84741 37 9.84741C28.5231 9.84741 20.6859 13.6999 15.498 20.417L17.2171 21.7448C21.9905 15.5644 29.2012 12.0196 37 12.0196Z" fill="white"/>
<path d="M9.84766 36.9999C9.84766 48.6292 17.2391 58.9606 28.2405 62.7082L28.9408 60.652C18.8199 57.2043 12.0199 47.6992 12.0199 36.9999C12.0199 32.1681 13.4012 27.4803 16.0146 23.4433L14.1911 22.2629C11.3495 26.6523 9.84766 31.7483 9.84766 36.9999Z" fill="white"/>
<path d="M64.1529 37C64.1527 31.6348 62.59 26.4462 59.6336 21.9954L57.8243 23.1972C60.5432 27.2908 61.9805 32.0637 61.9806 37C61.9806 50.7743 50.7745 61.9804 37.0002 61.9804C34.9479 61.9804 32.9075 61.731 30.9357 61.2394L30.4102 63.3472C32.5538 63.8815 34.7709 64.1526 37.0002 64.1526C51.9722 64.1526 64.1529 51.972 64.1529 37Z" fill="white"/>
<path d="M59.8078 37.0001C59.8078 24.4236 49.5761 14.1919 36.9996 14.1919C24.4231 14.1919 14.1914 24.4236 14.1914 37.0001C14.1914 49.5766 24.4231 59.8083 36.9996 59.8083C49.5761 59.8083 59.8078 49.5766 59.8078 37.0001ZM16.3636 37.0001C16.3636 25.6213 25.6209 16.3641 36.9996 16.3641C48.3784 16.3641 57.6356 25.6213 57.6356 37.0001C57.6356 48.3789 48.3784 57.6361 36.9996 57.6361C25.6209 57.6361 16.3636 48.3789 16.3636 37.0001Z" fill="white"/>
<path d="M50.613 40.2584H45.9066V38.0862H50.613V35.914H45.9066V33.7418H50.613V31.5696H43.7344V42.4306H50.613V40.2584Z" fill="white"/>
<path d="M41.5624 38.4482V35.914H37.58V38.0862H39.3902V38.4482C39.3902 39.4465 38.5782 40.2584 37.58 40.2584C36.5818 40.2584 35.7699 39.4465 35.7699 38.4482V35.552C35.7699 34.5538 36.5818 33.7418 37.58 33.7418H40.4763V31.5696H37.58C35.3842 31.5696 33.5977 33.356 33.5977 35.552V38.4482C33.5977 40.6442 35.3842 42.4306 37.58 42.4306C39.7759 42.4306 41.5624 40.6442 41.5624 38.4482Z" fill="white"/>
<path d="M27.4414 31.5696C25.2456 31.5696 23.459 33.356 23.459 35.552V42.503H25.6312V40.4032H29.2515V42.503H31.4238V35.552C31.4238 33.356 29.6372 31.5696 27.4414 31.5696ZM29.2515 38.231H25.6312V35.552C25.6312 34.5538 26.4432 33.7418 27.4414 33.7418C28.4396 33.7418 29.2515 34.5538 29.2515 35.552V38.231Z" fill="white"/>
<path d="M35.9141 18.5361H38.0863V20.7083H35.9141V18.5361Z" fill="white"/>
<path d="M35.9141 53.2915H38.0863V55.4637H35.9141V53.2915Z" fill="white"/>
<path d="M26.8262 21.5527L28.7073 20.4666L29.7934 22.3478L27.9123 23.4339L26.8262 21.5527Z" fill="white"/>
<path d="M44.2031 51.6511L46.0843 50.565L47.1704 52.4462L45.2892 53.5323L44.2031 51.6511Z" fill="white"/>
<path d="M20.4668 28.7092L21.5529 26.8281L23.434 27.9142L22.3479 29.7953L20.4668 28.7092Z" fill="white"/>
<path d="M50.5645 46.0874L51.6506 44.2063L53.5317 45.2924L52.4456 47.1735L50.5645 46.0874Z" fill="white"/>
<path d="M18.5371 35.9138H20.7093V38.086H18.5371V35.9138Z" fill="white"/>
<path d="M53.291 35.9138H55.4632V38.086H53.291V35.9138Z" fill="white"/>
<path d="M20.4668 45.2903L22.3479 44.2042L23.434 46.0853L21.5529 47.1714L20.4668 45.2903Z" fill="white"/>
<path d="M50.5645 27.9133L52.4456 26.8272L53.5317 28.7084L51.6506 29.7945L50.5645 27.9133Z" fill="white"/>
<path d="M26.8262 52.4475L27.9123 50.5664L29.7934 51.6525L28.7073 53.5336L26.8262 52.4475Z" fill="white"/>
<path d="M44.2051 22.3489L45.2912 20.4677L47.1723 21.5538L46.0862 23.435L44.2051 22.3489Z" fill="white"/>
</g>
<defs>
<clipPath id="clip0_92_2194">
<rect width="74" height="74" fill="white"/>
</clipPath>
</defs>
</svg>
