<svg width="74" height="74" viewBox="0 0 74 74" fill="none" xmlns="http://www.w3.org/2000/svg">
<g clip-path="url(#clip0_93_2231)">
<path d="M52.5854 36.1068C53.5029 33.0562 53.7287 30.0569 53.7718 27.4188C56.1121 27.3786 58.5782 27.1987 61.0569 26.6107C65.4574 25.5667 69.259 23.3968 72.6789 19.9769C73.3551 19.3007 73.7275 18.4016 73.7275 17.4453C73.7275 16.4891 73.3551 15.59 72.679 14.9138C72.0027 14.2376 71.1037 13.8652 70.1474 13.8652C69.3295 13.8652 68.5539 14.1385 67.9233 14.6405L59.3583 6.07543C60.4731 4.67134 60.3835 2.61835 59.086 1.32084C58.4097 0.644625 57.5107 0.272217 56.5544 0.272217C55.5982 0.272217 54.6991 0.644625 54.0229 1.32084C50.9593 4.38444 48.9123 7.72793 47.765 11.5423C46.8475 14.5929 46.6217 17.5921 46.5787 20.2302C44.2383 20.2704 41.7723 20.4503 39.2936 21.0384C34.8931 22.0823 31.0915 24.2523 27.6715 27.6723C24.2515 31.0922 22.0816 34.8938 21.0376 39.2942C20.4496 41.773 20.2697 44.239 20.2295 46.5794C17.5914 46.6224 14.5921 46.8482 11.5417 47.7658C7.72726 48.9131 4.38378 50.9601 1.32011 54.0237C0.643892 54.6999 0.271484 55.5989 0.271484 56.5552C0.271484 57.5115 0.643892 58.4105 1.32011 59.0867C2.01807 59.7847 2.93466 60.1337 3.85153 60.1336C4.63909 60.1335 5.42587 59.8741 6.07472 59.3591L14.6397 67.9241C14.1377 68.5546 13.8645 69.3302 13.8645 70.1482C13.8645 71.1045 14.2369 72.0035 14.9131 72.6797C15.611 73.3776 16.5278 73.7266 17.4445 73.7266C18.3613 73.7266 19.2781 73.3776 19.9761 72.6797C23.3961 69.2597 25.566 65.4581 26.6099 61.0576C27.198 58.5785 27.3779 56.1121 27.4182 53.7714C33.6137 53.6596 40.1425 52.5133 46.3275 46.3282C49.3912 43.2646 51.4381 39.9211 52.5854 36.1068ZM62.7833 18.4649L55.534 11.2156C56.0979 10.0743 56.8337 8.93395 57.798 7.78543L66.2131 16.2006C65.0691 17.1616 63.9307 17.8996 62.7833 18.4649ZM54.6049 13.5568L60.4402 19.3921C58.3019 20.0431 56.0978 20.2303 53.7347 20.265C53.7656 17.9609 53.9347 15.7459 54.6049 13.5568ZM55.6581 2.956C55.8975 2.71662 56.2159 2.58472 56.5544 2.58472C56.893 2.58472 57.2113 2.71662 57.4507 2.956C57.945 3.45021 57.945 4.25445 57.4507 4.74866C55.4229 6.77646 54.0735 8.8171 53.1746 10.8496C53.1093 10.9525 53.0624 11.0633 53.0328 11.1779C51.7455 14.2515 51.4656 17.3038 51.4228 20.2621C51.0303 20.2573 50.6332 20.2511 50.2307 20.2448C49.7917 20.238 49.3446 20.2312 48.8911 20.2263C48.9789 14.8638 49.8268 8.78736 55.6581 2.956ZM16.1998 66.2139L7.78519 57.7992C8.93294 56.8363 10.0739 56.1006 11.2167 55.5367L18.4641 62.7841C17.8989 63.9315 17.1608 65.0698 16.1998 66.2139ZM19.3914 60.441L13.5585 54.6081C15.7452 53.9388 17.9603 53.7667 20.2642 53.7353C20.2296 56.0985 20.0424 58.3027 19.3914 60.441ZM2.95526 57.4515C2.71588 57.2121 2.58398 56.8938 2.58398 56.5552C2.58398 56.2166 2.71588 55.8983 2.95526 55.6589C8.78658 49.8276 14.863 48.9797 20.2256 48.8919C20.2305 49.3454 20.2373 49.7926 20.2441 50.2318C20.2504 50.6339 20.2565 51.0308 20.2614 51.423C15.0678 51.4926 9.9524 52.247 4.74793 57.4515C4.25372 57.9457 3.44948 57.9458 2.95526 57.4515ZM18.3409 71.0445C17.8466 71.5388 17.0424 71.5387 16.5483 71.0445C16.3089 70.8051 16.177 70.4867 16.177 70.1482C16.177 69.8096 16.3088 69.4913 16.5483 69.2519C18.5889 67.2112 19.9481 65.1671 20.85 63.1076C20.8965 63.0267 20.9333 62.9417 20.9586 62.8539C22.3699 59.4904 22.587 56.0847 22.5822 52.5851C22.5823 52.582 22.5827 52.5789 22.5827 52.5757C22.5827 52.5718 22.5822 52.5682 22.5822 52.5644C22.5809 51.7796 22.5687 50.9902 22.5563 50.1953C22.4547 43.6703 22.3395 36.2746 29.3067 29.3074C35.4268 23.1873 41.877 22.5321 47.7781 22.5321C48.5949 22.5321 49.4017 22.5447 50.1951 22.5571C54.5415 22.6247 58.7291 22.6898 62.8532 20.9594C62.941 20.9341 63.026 20.8973 63.107 20.8507C65.1664 19.9489 67.2105 18.5896 69.2511 16.549C69.4905 16.3096 69.8089 16.1777 70.1474 16.1777C70.486 16.1777 70.8043 16.3095 71.0437 16.549C71.2831 16.7884 71.415 17.1067 71.415 17.4453C71.415 17.7839 71.2832 18.1022 71.0437 18.3417C64.0766 25.3089 56.6814 25.1939 50.1554 25.092C45.5334 25.0203 41.0904 24.9514 36.7122 27.042C36.6262 27.0722 36.5428 27.1118 36.4645 27.1629C34.6682 28.0549 32.8824 29.317 31.0993 31.1001C29.3158 32.8837 28.0534 34.6699 27.1613 36.4668C27.1108 36.5443 27.0716 36.6268 27.0416 36.7119C25.3133 40.3305 25.0603 43.9935 25.0654 47.7655C25.0653 47.7691 25.0648 47.7726 25.0648 47.7763C25.0648 47.7806 25.0654 47.7848 25.0654 47.7891C25.0667 48.5733 25.0789 49.3622 25.0913 50.1564C25.1929 56.6815 25.3081 64.0773 18.3409 71.0445ZM28.5211 39.1214L34.88 45.4803C32.436 46.3713 29.9654 46.5814 27.3834 46.6166C27.4223 43.9615 27.6553 41.5073 28.5211 39.1214ZM37.1234 44.4534L29.5446 36.8747C30.1575 35.7736 30.9426 34.6781 31.9391 33.5749L40.4255 42.0614C39.3198 43.0592 38.2216 43.8419 37.1234 44.4534ZM42.0607 40.4262L33.5742 31.9398C34.6773 30.9433 35.7728 30.1582 36.8739 29.5454L44.4545 37.126C43.843 38.2225 43.0595 39.32 42.0607 40.4262ZM45.4814 34.8826L39.1205 28.5217C41.5063 27.6559 43.9605 27.4228 46.6157 27.384C46.5811 29.9657 46.3742 32.4357 45.4814 34.8826ZM27.422 51.4603C27.4171 51.0066 27.4103 50.5592 27.4035 50.12C27.3972 49.7179 27.3911 49.3211 27.3862 48.9289C32.5816 48.8588 37.6951 48.105 42.8997 42.9004C44.6739 41.1262 45.929 39.3422 46.8177 37.5624C46.8873 37.4621 46.9399 37.3537 46.9741 37.2407C48.5569 33.9074 48.8813 30.592 48.9276 27.3869C49.3202 27.3918 49.7173 27.3979 50.1198 27.4042C50.5588 27.411 51.0059 27.4178 51.4593 27.4227C51.3715 32.7852 50.5237 38.8617 44.6923 44.6931C38.8434 50.542 32.7705 51.3739 27.422 51.4603Z" fill="white"/>
<path d="M1.50179 15.0148L3.4034 15.0183C3.5305 16.1656 3.84841 17.2561 4.32626 18.2566L2.31591 19.5116C1.7742 19.8497 1.6092 20.5629 1.94738 21.1047C2.16665 21.456 2.54357 21.6488 2.92932 21.6488C3.13835 21.6488 3.35007 21.5921 3.54047 21.4732L5.55524 20.2155C6.94472 21.958 8.8931 23.2343 11.1275 23.7713L11.0349 25.233C10.9945 25.8703 11.4783 26.4197 12.1157 26.4601C12.1406 26.4617 12.1653 26.4625 12.1899 26.4625C12.7951 26.4625 13.3039 25.9917 13.3427 25.3793L13.4268 24.0522C13.4518 24.0524 13.4764 24.0541 13.5014 24.0541C16.2075 24.0541 18.6679 22.9888 20.4908 21.2581L22.3118 22.7842C22.5284 22.9656 22.7919 23.0542 23.0539 23.0542C23.3842 23.0542 23.712 22.9135 23.9408 22.6407C24.3509 22.1512 24.2866 21.4219 23.7972 21.0117L21.9783 19.4874C22.8481 18.174 23.4211 16.6482 23.601 15.0054L24.758 15.0018C25.3966 14.9998 25.9127 14.4806 25.9107 13.842C25.9087 13.2034 25.3915 12.6888 24.7509 12.6893L23.59 12.6929C23.2856 10.1177 22.0152 7.83565 20.1513 6.21829L21.4926 4.25738C21.8531 3.73028 21.7181 3.01073 21.191 2.65025C20.6638 2.28962 19.9443 2.42463 19.5839 2.9518L18.2449 4.90939C17.1515 4.32967 15.9406 3.94423 14.6577 3.79819V1.42822C14.6577 0.789618 14.14 0.271973 13.5014 0.271973C12.8628 0.271973 12.3452 0.789618 12.3452 1.42822V3.79819C10.4898 4.00939 8.78474 4.72115 7.36884 5.7963L5.9294 4.34122C5.48014 3.88723 4.74817 3.88321 4.29418 4.33247C3.84026 4.78152 3.83631 5.51363 4.28536 5.96762L5.69624 7.39374C4.46502 8.87 3.64561 10.6996 3.41111 12.7058L1.50603 12.7023C1.50532 12.7023 1.50461 12.7023 1.50384 12.7023C0.866291 12.7023 0.348858 13.2186 0.347658 13.8564C0.346459 14.495 0.863186 15.0136 1.50179 15.0148ZM13.5014 6.04299C17.4243 6.04299 20.6842 8.9357 21.2603 12.7001L20.5347 12.7023C19.8961 12.7043 19.38 13.2235 19.382 13.8621C19.3839 14.4995 19.9012 15.0148 20.5381 15.0148H20.5417L21.2695 15.0126C20.7274 18.7886 17.4887 21.7043 13.5733 21.7398L13.6042 21.2519C13.6446 20.6147 13.1608 20.0653 12.5234 20.0249C11.8867 19.9833 11.3368 20.4684 11.2964 21.1057L11.2766 21.4185C8.37956 20.5606 6.17662 18.0736 5.73457 15.0226L6.57633 15.0241H6.57852C7.21607 15.0241 7.7335 14.5078 7.7347 13.87C7.7359 13.2314 7.21917 12.7128 6.58057 12.7116L5.74119 12.7101C6.31302 8.94086 9.57502 6.04299 13.5014 6.04299Z" fill="white"/>
<path d="M14.2933 15.1568C15.9455 15.1568 17.2897 13.8126 17.2897 12.1605C17.2897 10.5082 15.9455 9.16406 14.2933 9.16406C12.6411 9.16406 11.2969 10.5082 11.2969 12.1605C11.2969 13.8126 12.6411 15.1568 14.2933 15.1568ZM14.2933 11.4766C14.6704 11.4766 14.9772 11.7833 14.9772 12.1605C14.9772 12.5375 14.6704 12.8443 14.2933 12.8443C13.9162 12.8443 13.6094 12.5375 13.6094 12.1605C13.6094 11.7833 13.9162 11.4766 14.2933 11.4766Z" fill="white"/>
<path d="M72.5709 53.4737C72.5697 53.4737 72.5685 53.4737 72.5673 53.4737L71.4064 53.4773C71.102 50.9021 69.8316 48.6201 67.9677 47.0027L69.309 45.0418C69.6695 44.5147 69.5345 43.7952 69.0074 43.4347C68.4802 43.074 67.7607 43.2091 67.4003 43.7362L66.0613 45.6938C64.9679 45.1141 63.757 44.7287 62.4741 44.5826V42.2126C62.4741 41.574 61.9564 41.0564 61.3178 41.0564C60.6792 41.0564 60.1616 41.574 60.1616 42.2126V44.5826C58.3062 44.7938 56.6011 45.5056 55.1852 46.5807L53.7458 45.1256C53.2968 44.6717 52.5647 44.6676 52.1107 45.1168C51.6567 45.5659 51.6527 46.298 52.1018 46.7519L53.5127 48.1781C52.2814 49.6544 51.462 51.484 51.2275 53.4902L49.3224 53.4866C49.3217 53.4866 49.321 53.4866 49.3202 53.4866C48.6827 53.4866 48.1653 54.003 48.1641 54.6408C48.1629 55.2793 48.6796 55.7979 49.3182 55.7991L51.2198 55.8027C51.3469 56.95 51.6648 58.0405 52.1427 59.041L50.1323 60.2958C49.5906 60.634 49.4256 61.3473 49.7638 61.889C49.9831 62.2403 50.36 62.4331 50.7457 62.4331C50.9548 62.4331 51.1665 62.3764 51.3569 62.2575L53.3717 60.9999C54.7612 62.7424 56.7095 64.0187 58.9439 64.5557L58.8513 66.0174C58.8109 66.6547 59.2947 67.2041 59.9321 67.2444C59.957 67.2461 59.9817 67.2468 60.0063 67.2468C60.6115 67.2468 61.1203 66.776 61.1591 66.1636L61.2432 64.8366C61.2682 64.8368 61.2928 64.8385 61.3178 64.8385C64.0239 64.8385 66.4843 63.7732 68.3072 62.0425L70.1283 63.5686C70.3448 63.7501 70.6083 63.8386 70.8703 63.8386C71.2006 63.8386 71.5284 63.6979 71.7572 63.4251C72.1673 62.9356 72.103 62.2063 71.6136 61.7961L69.7947 60.2718C70.6645 58.9584 71.2375 57.4326 71.4174 55.7898L72.5744 55.7862C73.213 55.7843 73.7291 55.265 73.7271 54.6265C73.7251 53.989 73.2078 53.4737 72.5709 53.4737ZM61.3897 62.5242L61.4206 62.0364C61.461 61.3991 60.9772 60.8497 60.3398 60.8093C59.7037 60.7676 59.1532 61.2528 59.1128 61.8901L59.093 62.2029C56.196 61.345 53.993 58.858 53.551 55.807L54.3927 55.8085H54.3949C55.0325 55.8085 55.5499 55.2922 55.5511 54.6544C55.5523 54.0159 55.0356 53.4972 54.397 53.496L53.5576 53.4945C54.1294 49.7253 57.3914 46.8274 61.3178 46.8274C65.2407 46.8274 68.5006 49.7201 69.0767 53.4845L68.3511 53.4867C67.7125 53.4887 67.1964 54.008 67.1984 54.6465C67.2003 55.2839 67.7176 55.7992 68.3545 55.7992H68.3581L69.0859 55.797C68.5437 59.5729 65.3051 62.4887 61.3897 62.5242Z" fill="white"/>
<path d="M61.3187 49.3152C59.6664 49.3152 58.3223 50.6594 58.3223 52.3115C58.3223 53.9638 59.6664 55.3079 61.3187 55.3079C62.9708 55.3079 64.315 53.9638 64.315 52.3115C64.315 50.6594 62.9708 49.3152 61.3187 49.3152ZM61.3187 52.9954C60.9415 52.9954 60.6348 52.6887 60.6348 52.3115C60.6348 51.9345 60.9415 51.6277 61.3187 51.6277C61.6957 51.6277 62.0025 51.9345 62.0025 52.3115C62.0025 52.6887 61.6957 52.9954 61.3187 52.9954Z" fill="white"/>
</g>
<defs>
<clipPath id="clip0_93_2231">
<rect width="74" height="74" fill="white"/>
</clipPath>
</defs>
</svg>
