<svg width="68" height="74" viewBox="0 0 68 74" fill="none" xmlns="http://www.w3.org/2000/svg">
<path d="M66.6845 16.0312H61.751C61.0699 16.0312 60.5176 16.5834 60.5176 17.2646V18.4979C60.5176 17.8168 59.9654 17.2646 59.2843 17.2646H55.5841C54.9335 17.2632 54.3937 17.7673 54.3507 18.4165L54.2656 19.7313H51.884V17.2646C51.884 16.5834 51.3317 16.0312 50.6506 16.0312H45.7171C45.0359 16.0312 44.4837 16.5834 44.4837 17.2646V24.6648C44.4837 25.346 45.0359 25.8982 45.7171 25.8982H50.6506C51.3317 25.8982 51.884 25.346 51.884 24.6648V22.1981H54.1041L53.4306 32.2883C53.3202 33.5626 52.2503 34.5386 50.9713 34.5319H43.2503V34.0027C43.2485 33.5277 42.974 33.0961 42.5448 32.8927C40.8745 32.1124 39.1035 31.5687 37.2832 31.277C37.0856 31.2486 36.8841 31.269 36.6961 31.3362C36.0172 31.1293 35.3214 30.9824 34.6167 30.8971V27.5324C34.9824 27.3454 35.3366 27.1365 35.6774 26.9071C39.8215 24.0074 43.2503 21.0954 43.2503 14.8286V13.5644C43.2443 9.81417 41.6919 6.23259 38.9594 3.66408C34.1515 -0.806 26.8473 -1.23398 21.5502 2.64407C16.1931 1.68018 11.0687 5.24172 10.1048 10.5991C10.0019 11.1707 9.94984 11.7503 9.94907 12.331V30.8317C9.94907 31.5129 10.5013 32.0651 11.1824 32.0651C15.8984 32.0731 20.4351 30.2582 23.8443 26.9996C24.1368 27.1925 24.439 27.3702 24.7496 27.5324V30.8971C24.0447 30.9807 23.3485 31.1259 22.6689 31.3312C22.4814 31.2642 22.2802 31.2438 22.0831 31.272C20.2627 31.5637 18.4918 32.1075 16.8215 32.8878C16.3922 33.0911 16.1178 33.5228 16.116 33.9978V34.0385C11.4518 39.2779 8.82546 46.0188 8.71569 53.0326C8.71569 56.4157 8.87726 60.3095 9.87877 62.8996H7.48231V60.4328C7.48231 59.7517 6.93006 59.1995 6.24893 59.1995H1.31541C0.634277 59.1995 0.0820312 59.7517 0.0820312 60.4328V67.8331C0.0820312 68.5142 0.634277 69.0665 1.31541 69.0665H6.24893C6.93006 69.0665 7.48231 68.5142 7.48231 67.8331V65.3663H14.5335C13.1502 68.0345 12.4242 70.9946 12.4158 74H14.8826C14.8889 71.8781 15.3078 69.7778 16.116 67.8158V67.8331C16.116 68.5142 16.6682 69.0665 17.3493 69.0665H22.2829C22.964 69.0665 23.5162 68.5142 23.5162 67.8331V62.8996H38.9582L39.6686 63.7876C41.9833 66.6885 43.246 70.2888 43.2503 74H45.7171C45.7117 69.7288 44.2581 65.5856 41.5939 62.2471L40.6504 61.068L40.1767 59.6472C39.0288 56.1982 39.1384 52.4543 40.4863 49.0783L40.5554 48.9057C42.086 48.4262 43.1594 47.0487 43.2503 45.4473V45.3967L56.6189 42.5328C58.8879 42.0356 60.5079 40.0306 60.5176 37.7078V24.6648C60.5176 25.346 61.0699 25.8982 61.751 25.8982H66.6845C67.3657 25.8982 67.9179 25.346 67.9179 24.6648V17.2646C67.9179 16.5834 67.3657 16.0312 66.6845 16.0312ZM49.4172 23.4314H46.9505V18.4979H49.4172V23.4314ZM5.01555 66.5997H2.54879V61.6662H5.01555V66.5997ZM14.573 62.3791L14.6593 62.9033H12.6119C11.9077 61.9228 11.1824 59.3746 11.1824 53.0326C11.2847 47.6 13.0021 42.321 16.116 37.8682V45.3585C14.4891 49.0438 13.9489 58.6321 14.573 62.3791ZM28.9431 2.48743C34.7926 2.09337 39.9376 6.32124 40.6849 12.1362L33.9346 8.7604C33.6981 8.64153 33.4292 8.60253 33.1687 8.64939L18.8393 11.1778C19.853 6.32848 23.9968 2.76432 28.9431 2.48743ZM12.4158 29.5515V12.331C12.4208 8.5111 15.3295 5.32143 19.1328 4.96529C17.1659 7.39813 16.1001 10.4359 16.116 13.5644V14.8286C16.116 20.1198 18.5642 23.017 21.8191 25.5381C19.2153 27.8798 15.9081 29.2914 12.4158 29.5515ZM18.5827 14.8286V13.7285L33.197 11.1495L40.7774 14.9396C40.7416 19.5327 38.6436 21.8194 34.2639 24.8868C31.5109 26.8037 27.8554 26.8037 25.1024 24.8868C20.6856 21.7935 18.5827 19.5007 18.5827 14.8286ZM23.5162 33.6327C24.3201 33.4124 25.1495 33.3 25.983 33.2985C26.6641 33.2985 27.2164 32.7462 27.2164 32.0651V28.4673C28.8327 28.8975 30.5336 28.8975 32.1499 28.4673V32.0651C32.1499 32.7462 32.7021 33.2985 33.3833 33.2985C34.2167 33.3 35.0462 33.4124 35.85 33.6327V35.6061L29.6831 36.932L23.5162 35.6061V33.6327ZM16.8054 59.3388C16.7297 55.651 17.0486 51.9657 17.7564 48.3457C18.0777 48.568 18.4236 48.7521 18.7875 48.8946C20.0309 52.2082 20.0845 55.8507 18.9392 59.1995H17.3493C17.1596 59.2024 16.9732 59.2502 16.8054 59.3388ZM21.0495 66.5997H18.5827V61.6662H21.0495V66.5997ZM23.5162 60.4328C23.5162 59.7517 22.964 59.1995 22.2829 59.1995H21.5428C22.4764 55.9766 22.4764 52.5552 21.5428 49.3324H37.7741C36.616 52.9454 36.638 56.8332 37.837 60.4328H23.5162ZM40.7836 45.4473C40.7836 46.117 39.729 46.8657 38.3168 46.8657H21.0495C19.6373 46.8657 18.5827 46.117 18.5827 45.4473V34.8057C19.3833 34.4751 20.208 34.2059 21.0495 34.0003V36.6064C21.0493 37.1879 21.4553 37.6905 22.0239 37.8126L29.4241 39.4049C29.5948 39.4423 29.7715 39.4423 29.9422 39.4049L37.3424 37.8126C37.911 37.6905 38.317 37.1879 38.3168 36.6064V33.999C39.1583 34.2047 39.9829 34.4739 40.7836 34.8044V45.4473ZM56.1009 40.1203L43.2503 42.8732V36.9986H50.9713C53.5375 37.0065 55.6783 35.0397 55.8875 32.482L56.7386 19.7313H58.0509V37.7078C58.0464 38.8695 57.2359 39.8724 56.1009 40.1203ZM65.4511 23.4314H62.9844V18.4979H65.4511V23.4314Z" fill="white"/>
</svg>
