<svg width="65" height="65" viewBox="0 0 65 65" fill="none" xmlns="http://www.w3.org/2000/svg">
<circle cx="33" cy="32" r="20" fill="#89CBC4"/>
<path d="M32.5002 2.70825C26.6079 2.70825 20.848 4.4555 15.9488 7.72905C11.0496 11.0026 7.23113 15.6554 4.97626 21.0991C2.7214 26.5429 2.13143 32.533 3.28095 38.312C4.43047 44.091 7.26785 49.3994 11.4343 53.5658C15.6007 57.7322 20.9091 60.5696 26.6881 61.7191C32.4671 62.8687 38.4572 62.2787 43.901 60.0238C49.3447 57.769 53.9975 53.9505 57.271 49.0513C60.5446 44.1521 62.2918 38.3922 62.2918 32.4999C62.2825 24.6015 59.1408 17.0293 53.5558 11.4443C47.9708 5.85932 40.3986 2.71757 32.5002 2.70825ZM43.9889 40.1618C44.2476 40.4116 44.4539 40.7105 44.5959 41.0409C44.7378 41.3713 44.8125 41.7267 44.8156 42.0863C44.8188 42.4459 44.7502 42.8026 44.6141 43.1354C44.4779 43.4683 44.2768 43.7707 44.0225 44.0249C43.7682 44.2792 43.4658 44.4803 43.133 44.6165C42.8001 44.7527 42.4435 44.8212 42.0839 44.8181C41.7243 44.815 41.3689 44.7403 41.0385 44.5983C40.708 44.4564 40.4092 44.25 40.1593 43.9914L32.5002 36.3295L24.841 43.9914C24.3302 44.4847 23.6461 44.7577 22.936 44.7515C22.2258 44.7454 21.5466 44.4605 21.0444 43.9584C20.5423 43.4562 20.2574 42.777 20.2513 42.0668C20.2451 41.3567 20.5181 40.6726 21.0114 40.1618L28.6706 32.4999L21.0114 24.838C20.7528 24.5882 20.5464 24.2894 20.4045 23.9589C20.2625 23.6285 20.1878 23.2731 20.1847 22.9135C20.1816 22.5539 20.2501 22.1973 20.3863 21.8644C20.5225 21.5316 20.7236 21.2292 20.9779 20.9749C21.2321 20.7206 21.5345 20.5195 21.8674 20.3833C22.2002 20.2471 22.5569 20.1786 22.9165 20.1817C23.2761 20.1849 23.6315 20.2596 23.9619 20.4015C24.2923 20.5435 24.5912 20.7498 24.841 21.0085L32.5002 28.6703L40.1593 21.0085C40.4092 20.7498 40.708 20.5435 41.0385 20.4015C41.3689 20.2596 41.7243 20.1849 42.0839 20.1817C42.4435 20.1786 42.8001 20.2471 43.133 20.3833C43.4658 20.5195 43.7682 20.7206 44.0225 20.9749C44.2768 21.2292 44.4779 21.5316 44.6141 21.8644C44.7502 22.1973 44.8188 22.5539 44.8156 22.9135C44.8125 23.2731 44.7378 23.6285 44.5959 23.9589C44.4539 24.2894 44.2476 24.5882 43.9889 24.838L36.3298 32.4999L43.9889 40.1618Z" fill="white"/>
</svg>
