<svg width="869" height="488" viewBox="0 0 869 488" fill="none" xmlns="http://www.w3.org/2000/svg">
<path d="M452.14 160.658C483.132 59.8772 652.967 59.7041 749.388 89.3584C845.81 119.013 832.307 167.265 801.315 268.046C770.322 368.827 761.821 466.406 665.4 436.752C625.784 424.568 601.616 346.827 560.612 306.638C501.814 249.008 433.881 220.033 452.14 160.658Z" fill="#FFEBC5"/>
<path d="M343.167 321.992C372.995 335.088 373.791 371.75 365.477 390.672C357.163 409.594 342.888 403.612 313.061 390.515C283.233 377.419 254.448 369.38 262.762 350.457C266.177 342.683 283.625 325.161 295.286 318.868C312.007 309.844 325.595 314.276 343.167 321.992Z" fill="#89CBC4"/>
<path d="M312.547 20.3176C318.893 23.1042 319.063 30.9047 317.294 34.9309C315.525 38.9571 312.487 37.6842 306.141 34.8976C299.795 32.111 293.67 30.4005 295.439 26.3743C296.165 24.7201 299.878 20.9919 302.359 19.6529C305.917 17.7328 308.808 18.6758 312.547 20.3176Z" fill="#E8BDD8"/>
<path d="M859 462.673C843.92 461.477 752.706 462.552 738.861 462.673C725.422 462.794 728.582 463.608 728.431 449.087L728.668 223.842C728.698 195.518 729.527 202.59 698.545 202.243L603.224 201.188C585.44 200.992 588.037 197.971 588.329 215.538L592.222 450.786C592.448 464.523 591.8 460.733 576.467 460.733C557.161 460.733 557.86 465.086 557.744 447.388L556.362 257.017C556.267 243.852 556.177 247.336 541.603 247.496L463.599 248.371C438.982 248.648 442.574 244.385 442.956 268.703L445.548 434.57C446.111 470.62 452.32 465.588 416.923 464.568C388.609 463.754 391.985 469.288 391.186 442.09L387.73 324.129C386.921 296.559 392.613 301.872 365.655 302.305C351.051 302.541 333.639 302.712 329.484 302.3C324.872 301.797 323.375 299.475 322.742 297.268C320.833 290.608 318.688 292.217 317.291 287.386C315.935 282.777 317.97 280.812 321.356 282.842C326.922 287.155 330.097 283.501 330.248 277.741C330.248 277.741 331.619 231.221 332.197 224.405C332.785 217.469 334.392 178.564 335.693 164.329C336.161 159.217 339.441 148.27 338.507 141.368C337.487 133.794 329.439 133.854 322.707 134.186C311.559 134.738 321.356 142.198 321.356 154.306C321.356 161.017 322.712 174.508 316.613 178.845C311.378 182.625 305.144 182.414 299.628 181.464C289.078 179.645 290.364 170.567 291.685 161.534C294.503 142.258 302.481 121.931 296.051 102.785C293.021 93.758 284.019 80.458 285.446 72.5464C286.908 64.4287 296.905 67.0073 299.693 76.5625C301.828 83.876 307.108 96.0701 311.871 100.473C317.969 105.49 324.068 105.897 327.454 107.048C329.373 107.912 333.684 106.902 336.507 107.184C340.2 107.551 342.033 118.171 336.06 119.337C333.764 119.785 330.579 119.79 328.133 119.996C307.073 122.102 305.526 120.293 296.603 100.795C293.313 93.6021 289.47 85.0773 288.158 82.2374C284.637 74.5972 288.073 68.8017 292.901 62.7147C296.292 58.4422 303.672 56.4266 300.281 56.5623C296.217 56.6277 300.351 59.2565 303.064 61.9004C303.898 62.7549 305.315 64.1674 306.907 65.8864C318.819 78.7139 315.935 78.6284 315.935 93.6273C315.257 96.3415 317.964 97.0151 317.964 94.3712C317.482 92.5416 314.262 92.2852 311.71 90.4858C308.992 88.5707 299.241 72.843 297.257 64.0718C296.513 60.7745 297.538 57.3917 297.874 54.2703C298.171 51.4957 297.488 45.0066 294.931 43.6645C292.218 42.3074 291.544 41.7645 290.188 38.9196C289.424 37.3161 289.304 34.9839 288.987 33.3955C288.545 31.199 287.234 30.9125 286.777 33.1643C285.817 37.859 286.817 52.5864 286.842 56.4015C286.882 62.4885 286.651 71.0888 283.416 65.9668C280.613 60.5835 287.083 59.2364 289.786 56.2055C292.388 53.2901 290.379 46.6 289.349 41.7293C287.852 34.6421 287.802 29.0125 290.193 21.8347C293.579 13.7019 299.678 12.1387 307.133 12.003C309.62 11.9527 311.559 12.5358 312.951 13.4305C322.647 19.6683 304.667 23.2974 303.069 28.8164C301.713 33.4961 299.005 35.9339 301.034 35.6624C302.391 35.391 298.327 29.5603 295.614 31.9328C293.584 34.3053 294.257 39.2563 296.292 39.8645C298.327 40.5431 298.774 41.7143 299.452 40.2214C299.452 39.4775 299.341 38.9447 299.145 38.6783C298.191 37.3765 297.236 41.7645 300.361 43.7952C302.396 45.6248 311.202 48.4748 315.267 48.8116C325.169 49.8018 324.214 31.8424 321.637 23.589C317.246 9.49483 292.032 12.199 289.937 26.8963C289.495 29.9926 290.967 34.1545 293.112 38.0852C300.658 51.8928 305.571 49.7113 310.283 50.033C315.618 50.3899 324.068 55.9793 324.068 62.0361C324.068 70.0734 338.778 77.0853 338.778 88.8321C338.778 92.4561 338.863 95.8691 339.315 98.5281C340.381 104.846 340.898 103.811 345.078 100.674C347.786 98.709 349.142 97.759 349.142 95.658C349.142 93.7881 346.133 93.8816 343.792 96.415M341.199 107.184C342.164 108.244 342.259 108.325 342.249 109.747C342.229 114.18 334.126 112.064 331.524 111.934C323.511 111.531 330.107 105.942 326.967 104.273C325.611 103.122 322.034 105.158 321.361 103.464C320.682 101.7 320.682 101.564 319.326 100.142C317.296 98.7191 317.296 97.6987 313.227 97.6987C309.163 97.6987 307.128 98.3773 307.806 99.7344C308.485 101.092 318.628 101.84 317.291 100.071C316.442 99.3474 315.854 100.468 315.036 101.735C314.403 102.715 312.564 104.479 311.675 106.148C309.108 110.979 313.629 108.867 315.935 107.254C317.964 106.239 321.356 104.273 319.999 103.66C318.643 103.047 319.321 104.881 318.643 106.369C317.281 109.37 311.303 117.613 317.964 111.114C320.677 108.47 322.707 106.842 322.029 106.505C320.672 106.098 320.672 109.013 319.999 110.436C319.321 111.793 319.321 114.165 320.677 113.894C322.034 113.622 323.39 111.25 324.742 109.486C326.098 107.792 327.449 105.892 326.771 105.62C325.415 105.284 324.742 110.843 326.771 112.059C328.128 113.281 330.835 113.21 333.548 113.21C335.558 113.21 338.527 113.713 340.466 113.778C344.405 113.914 341.003 111.974 341.003 108.737C341.003 107.55 341.209 106.394 342.516 105.213C347.258 100.941 340.139 81.8956 336.939 77.412C333.553 71.8528 329.484 70.0885 327.454 67.515C321.24 55.7079 330.238 58.779 335.583 64.67C340.325 69.0782 341.004 79.1763 347.102 83.5141C373.336 102.182 353.533 110.642 346.565 114.13C342.817 116.005 343.887 122.142 344.962 126.827C345.254 128.104 345.791 128.933 345.751 130.34M345.756 130.24C345.756 130.24 346.434 150.577 350.498 157.151C359.471 174.568 342.134 170.431 340.335 168.134C337.623 164.676 341.692 151.864 340.335 142.645C339.893 136.649 334.789 133.417 330.755 132.225C324.093 130.26 324.124 135.03 324.621 140.393C326.068 156.066 321.014 189.064 317.975 204.068C316.618 214.171 313.232 235.187 314.589 243.928C315.096 250.537 314.463 262.249 314.111 268.668C313.81 274.192 315.684 280.746 312.554 284.938C303.466 295.092 302.883 280.364 306.455 299.309C308.645 305.12 320.486 304.496 317.975 297.208C317.296 293.343 315.267 287.648 313.232 288.055C308.143 288.904 303.34 296.147 301.034 284.054C299.678 276.936 296.97 254.9 296.97 247.919C296.292 240.942 297.648 201.148 297.648 191.045C296.97 180.941 303.747 184.47 308.49 184.334C316.799 184.058 319.477 177.554 318.246 188.979C317.422 196.619 315.528 210.974 314.297 219.635C312.368 233.221 313.066 245.36 313.207 258.776C313.262 264.159 312.283 271.452 312.71 277.142C313.368 285.984 316.357 278.982 322.717 281.344C330.318 284.059 332.92 292.604 334.915 299.988C336.095 304.361 336.005 303.637 331.157 303.838C320.029 304.3 274.795 305.607 255.238 306.17C244.1 306.487 246.115 304.154 246.285 314.856L248.757 470.167C248.903 479.497 248.169 476.677 237.338 477.009L221.895 477.481C213.445 477.737 215.66 477.647 215.535 468.283L214.53 393.258C214.244 371.77 216.62 376.223 194.018 376.54L118.29 377.601C99.5762 377.862 103.183 375.399 103.183 394.771V456.596C103.183 487.262 107.649 481.743 76.4568 482.186L19 483" stroke="black" stroke-width="2.5" stroke-miterlimit="2.6131"/>
</svg>
