<svg width="602" height="304" viewBox="0 0 602 304" fill="none" xmlns="http://www.w3.org/2000/svg">
<path d="M600.5 302.423C536.71 303.99 475.715 304.898 438.48 302.423C401.25 299.948 390.575 293.433 383.747 283.922C376.919 274.407 373.938 261.896 375.695 249.116C377.452 236.336 383.946 223.287 394.076 216.031C404.206 208.776 417.976 207.31 430.046 210.983C442.116 214.655 452.486 223.458 455.943 237.325C459.399 251.192 455.943 270.124 444.987 280.128C434.031 290.127 415.581 291.198 402.738 284.708C389.896 278.218 382.669 264.172 383.23 251.701C383.792 239.234 392.137 228.343 402.563 223.71C412.99 219.081 425.495 220.709 433.856 227.476C442.218 234.247 446.439 246.152 444.556 256.64C442.677 267.124 434.694 276.183 425.874 278.577C417.053 280.971 407.395 276.692 401.746 270.385C396.097 264.074 394.463 255.732 393.417 251.555C392.376 247.377 391.929 247.369 391.527 247.361C391.124 247.353 390.77 247.345 385.809 247.247C380.848 247.149 371.279 246.958 365.809 246.852C360.339 246.742 358.969 246.718 358.257 246.628C357.545 246.539 357.497 246.384 357.395 210.555C357.297 174.727 357.147 103.22 357.07 66.2476C356.992 29.2749 356.988 26.8321 357.086 25.1506C357.184 23.4691 357.387 22.553 362.552 22.4308C367.716 22.3087 377.838 22.9764 392.051 24.9185C406.264 26.8606 424.568 30.0688 439.855 36.7338C455.137 43.3987 467.402 53.5162 477.349 73.4418C487.292 93.3714 494.918 123.109 498.785 138.239C502.652 153.368 502.758 153.889 502.896 154.215C503.035 154.541 503.197 154.667 510.261 157.48C517.325 160.293 531.282 165.798 538.195 180.642C545.104 195.487 544.97 219.679 544.783 231.955C544.6 244.23 544.368 244.592 543.185 244.763C542.001 244.934 539.866 244.914 527.134 244.747C514.401 244.584 491.066 244.279 479.427 243.998C467.789 243.717 467.842 243.465 467.858 240.936C467.878 238.412 467.862 233.616 466.304 226.939C464.747 220.266 461.648 211.716 454.91 205.25C448.175 198.789 437.805 194.412 427.931 192.954C418.058 191.501 408.68 192.967 399.233 195.715C389.782 198.463 380.262 202.494 374.943 204.509C369.623 206.525 368.505 206.525 367.952 206.069C367.399 205.613 367.415 204.692 367.472 193.7C367.529 182.707 367.627 161.637 367.655 150.644C367.688 139.651 367.651 138.735 369.656 138.263C371.661 137.791 375.707 137.758 382.673 137.856C389.64 137.954 399.53 138.182 406.199 140.352C412.868 142.522 416.321 146.634 412.498 148.898C408.676 151.161 397.582 151.572 390.961 151.76C384.341 151.947 382.194 151.906 381.112 151.609C380.03 151.312 380.022 150.75 379.782 138.674C379.542 126.598 379.07 103.013 379.176 85.4769C379.282 67.9453 379.965 56.468 380.376 49.5588C380.786 42.6496 380.925 40.3044 391.352 41.3508C401.775 42.4012 422.482 46.8431 437.028 54.3264C451.571 61.8138 459.956 72.3425 465.215 83.942C470.473 95.5415 472.612 108.212 472.445 115.202C472.282 122.197 469.814 123.512 459.871 124.005C449.928 124.497 432.506 124.168 415.414 124.086C398.322 124.005 381.559 124.168 370.555 124.367C359.55 124.567 354.304 124.799 351.275 124.933C348.245 125.067 347.432 125.104 346.936 104.832C346.439 84.5609 346.26 43.9768 346.171 23.4406C346.082 2.90427 346.082 2.40756 345.085 2.15106C344.089 1.89456 342.092 1.87012 292.674 1.78462C243.256 1.69912 146.42 1.54848 97.3398 1.46705C48.2592 1.38562 46.9375 1.36935 46.1974 2.22842C45.4573 3.08749 45.2946 4.81784 45.2295 12.1953C45.1644 19.5727 45.2011 32.6013 45.2336 39.6774C45.2621 46.7495 45.2906 47.8732 45.3516 48.545C45.4166 49.2168 45.5143 49.4448 84.5461 49.0865C123.578 48.7282 201.54 47.7795 249.165 47.5597C296.79 47.3398 314.081 47.8488 323.487 48.1256C332.893 48.4025 334.418 48.4473 335.13 48.5206C335.842 48.5939 335.74 48.6956 336.183 80.5993C336.626 112.503 337.619 176.209 338.046 209.892C338.473 243.575 338.334 247.239 337.907 249.201C337.48 251.16 336.769 251.416 320.99 251.461C305.208 251.51 274.358 251.347 244.472 251.27C214.586 251.188 185.66 251.188 170.036 251.131C154.415 251.07 152.097 250.952 150.678 249.747C149.259 248.542 148.742 246.249 147.6 242.117C146.457 237.98 144.692 231.999 143.208 227.598C141.719 223.197 140.511 220.371 139.771 218.645C139.031 216.919 138.763 216.284 128.283 215.917C117.803 215.551 97.1121 215.449 86.3761 215.4C75.6401 215.347 74.8552 215.343 74.1476 215.738C73.44 216.129 72.8097 216.919 70.7275 219.521C68.6454 222.122 65.1115 226.54 63.0212 234.459C60.931 242.378 60.2884 253.802 62.5088 263.077C64.7292 272.351 69.8125 279.476 78.2997 283.658C86.7868 287.839 98.6777 289.073 108.93 284.843C119.182 280.612 127.799 270.914 130.369 260.451C132.939 249.987 129.462 238.75 123.053 232.069C116.644 225.387 107.299 223.258 99.2917 222.875C91.2845 222.493 84.6193 223.861 79.479 228.054C74.3387 232.248 70.7316 239.271 69.7922 246.624C68.8528 253.977 70.5811 261.664 73.9117 267.087C77.2423 272.51 82.1711 275.674 88.6533 276.842C95.1356 278.015 103.167 277.192 109.243 272.453C115.319 267.718 119.434 259.066 118.214 250.972C116.994 242.882 110.434 235.35 95.4529 231.556C80.4672 227.765 57.0595 227.712 45.3027 227.765C33.546 227.818 33.4443 227.969 33.3955 226.365C33.3426 224.76 33.3427 221.402 33.3427 219.492C33.3427 217.583 33.3427 217.127 33.481 216.899C33.6192 216.671 33.8998 216.671 34.5546 216.638C35.2093 216.605 36.234 216.54 37.2914 216.544C38.3446 216.552 39.4263 216.63 39.9631 216.475C40.4999 216.324 40.4919 215.942 40.4838 215.331C40.4716 214.72 40.4553 213.882 40.3618 206.716C40.2642 199.554 40.0893 186.066 39.9185 161.173C39.7477 136.28 39.585 99.9793 39.4996 81.4788C39.4142 62.9782 39.4142 62.2779 39.4548 61.6102C39.4996 60.9425 39.589 60.3073 42.6797 60.059C45.7704 59.8106 51.8542 59.9491 54.9124 60.1486C57.9705 60.344 57.9949 60.6005 58.0071 61.2112C58.0193 61.8219 58.0232 62.7909 58.0476 81.4747C58.072 100.158 58.1209 136.561 58.1494 156.12C58.1738 175.683 58.1737 178.403 58.3445 179.844C58.5153 181.282 58.861 181.436 62.4071 181.326C65.9532 181.217 72.7081 180.846 116.551 180.366C160.394 179.885 241.328 179.295 282.219 178.998C323.105 178.7 323.947 178.692 324.516 178.831C325.089 178.969 325.394 179.246 325.549 179.885C325.708 180.52 325.716 181.514 325.813 191.082C325.911 200.649 326.094 218.792 326.187 228.413C326.281 238.033 326.293 239.124 326.2 239.674C326.102 240.22 325.899 240.22 307.753 240.321C289.604 240.423 253.516 240.627 226.229 240.663C198.945 240.7 180.467 240.574 170.898 240.843C161.329 241.111 160.674 241.775 160.031 242.581C159.389 243.391 158.759 244.344 157.872 250.007C156.986 255.671 155.843 266.049 152.89 274.99C149.942 283.931 145.188 291.438 139.06 295.453C132.935 299.467 125.436 299.992 42.147 299.638C1.5 299.638 160.576 300.872 1.5 299.638" stroke="black" stroke-width="2.5" stroke-miterlimit="2.6131" stroke-linecap="round"/>
<path d="M323.282 117.359C328.896 156.326 301.043 129.133 236.848 138.361C172.653 147.589 96.4242 189.745 90.81 150.778C85.1959 111.811 67.0153 78.2997 131.211 69.0713C157.586 65.2797 190.406 85.9116 224.267 90.9874C272.823 98.2659 319.975 94.4018 323.282 117.359Z" fill="#E8BDD8" fill-opacity="0.4"/>
<g clip-path="url(#clip0_307_12071)">
<path d="M158.655 113.661C158.655 125.968 148.932 135.943 136.93 135.943C124.928 135.943 115.213 125.968 115.213 113.661C115.213 101.354 124.936 91.3793 136.938 91.3793C148.94 91.3793 158.655 101.354 158.655 113.661Z" fill="white"/>
<path d="M139.273 103.444C138.271 103.105 137.196 102.912 136.089 102.887C134.998 102.871 133.939 103.017 132.945 103.299C128.621 104.542 125.428 108.488 125.331 113.209C125.291 115.154 125.784 116.986 126.681 118.568C127.514 120.053 128.71 121.32 130.14 122.248C131.741 123.289 133.632 123.902 135.669 123.942C137.713 123.983 139.629 123.442 141.261 122.466C142.781 121.562 144.066 120.287 144.963 118.753C145.86 117.252 146.386 115.501 146.418 113.621C146.523 108.924 143.516 104.881 139.273 103.444Z" fill="#E8BDD8"/>
<path d="M121.339 123.135C121.735 121.312 124.765 120.077 129.089 122.635C132.638 124.733 142.15 126.953 146.199 118.729C150.232 110.522 155.753 112.644 155.93 116.518C156.334 125.314 147.113 136.08 134.513 134.385C131.902 134.038 129.469 132.989 127.392 131.44C124.725 129.438 120.741 125.928 121.339 123.135Z" fill="#89CBC4"/>
<path d="M136.768 122.748C134.909 122.748 133.05 122.336 131.425 121.497C131.312 121.441 131.256 121.328 131.256 121.215C131.256 121.166 131.264 121.118 131.288 121.069C131.369 120.916 131.563 120.852 131.716 120.932C134.796 122.514 138.78 122.506 141.851 120.916C142.474 120.593 143.064 120.206 143.597 119.762C143.597 119.762 143.597 119.762 143.605 119.762C145.634 118.075 146.838 115.646 146.838 113.241C146.838 113.217 146.838 113.193 146.838 113.177C146.806 110.046 144.793 107.035 141.706 105.502C141.585 105.446 141.472 105.389 141.35 105.333H141.342C140.688 105.042 140.09 104.865 139.5 104.8C138.408 104.671 136.792 104.606 135.329 105.05C134.198 105.389 132.985 105.946 131.838 106.64C129.793 107.883 128.467 110.417 128.467 113.04C128.467 113.169 128.467 113.29 128.475 113.411C128.621 116.381 130.496 119.133 133.26 120.432C134.198 120.868 135.273 121.142 136.372 121.207C138.619 121.344 140.817 120.666 142.247 119.391C142.377 119.27 142.579 119.286 142.7 119.415C142.757 119.48 142.781 119.552 142.781 119.625C142.781 119.714 142.749 119.802 142.676 119.859C141.124 121.247 138.756 121.989 136.339 121.836C135.159 121.764 133.996 121.473 132.993 120.997C130.019 119.601 128.007 116.631 127.845 113.427C127.837 113.29 127.837 113.161 127.837 113.024C127.837 110.183 129.284 107.431 131.514 106.075C132.71 105.349 133.963 104.784 135.151 104.421C136.719 103.945 138.425 104.009 139.58 104.146C140.235 104.227 140.89 104.413 141.601 104.727C141.601 104.727 141.609 104.727 141.609 104.735C141.738 104.792 141.868 104.848 141.997 104.913C145.294 106.551 147.452 109.787 147.485 113.153C147.485 113.177 147.485 113.201 147.485 113.225C147.485 115.816 146.192 118.431 144.026 120.238C144.026 120.238 144.026 120.238 144.017 120.246C143.444 120.722 142.821 121.134 142.15 121.481C140.518 122.328 138.643 122.748 136.768 122.748Z" fill="black"/>
<path d="M152.625 100.152C148.754 96.3667 143.468 94.0505 138.021 93.8891C136.711 93.8407 135.386 93.9133 134.085 94.107C134.748 93.986 135.41 93.8891 136.073 93.8165C138.336 93.5582 140.639 93.7277 142.878 94.2281C147.388 95.1642 151.526 97.7144 154.646 101.193C155.034 101.685 155.68 101.475 155.301 100.87C155.268 100.821 155.236 100.781 155.204 100.733H155.212C155.195 100.716 155.179 100.7 155.163 100.676C152.148 96.3505 147.388 93.1224 142.054 91.92C136.647 90.7014 130.779 91.581 125.93 94.3168C121.072 97.0446 117.363 101.596 115.593 106.753C113.758 111.91 114.033 117.615 115.981 122.506C117.912 127.437 121.687 131.432 126.156 133.788C128.395 134.966 130.811 135.749 133.268 136.104C135.734 136.443 138.215 136.322 140.591 135.838C140.785 135.798 140.979 135.749 141.165 135.709C142.765 135.41 144.341 134.95 145.844 134.313C147.881 133.457 149.74 132.222 151.413 130.778C153.078 129.333 154.541 127.631 155.656 125.71C156.012 125.145 155.495 124.814 155.115 125.226C155.406 124.677 155.68 124.112 155.915 123.531C156.949 121.053 157.467 118.39 157.434 115.735C157.45 115.049 156.739 115.057 156.707 115.719C156.666 116.276 156.675 116.833 156.602 117.389L156.359 119.044L155.963 120.666C155.834 121.215 155.608 121.723 155.438 122.256C154.654 124.346 153.522 126.323 152.092 128.066C150.661 129.809 148.94 131.351 146.976 132.545C146.063 133.102 145.101 133.578 144.107 133.99C141.949 134.813 139.629 135.257 137.293 135.289C135.863 135.273 134.44 135.112 133.042 134.829L131.49 134.442L129.987 133.909C129.728 133.828 129.486 133.724 129.252 133.602L128.524 133.264C128.282 133.151 128.039 133.046 127.797 132.916L127.11 132.505C125.267 131.432 123.562 130.092 122.155 128.47C120.733 126.864 119.545 125.048 118.648 123.087C117.783 121.11 117.241 118.995 117.007 116.841L116.886 115.219L116.926 113.588C116.91 113.04 117.023 112.507 117.08 111.966L117.185 111.151C117.225 110.885 117.298 110.619 117.363 110.352C117.5 109.828 117.573 109.279 117.759 108.762L118.284 107.205C118.721 106.204 119.149 105.179 119.731 104.243C119.933 103.896 120.151 103.557 120.369 103.226C121.258 101.975 122.293 100.821 123.441 99.7965C125.421 98.0372 127.748 96.6653 130.23 95.7856C132.719 94.8979 135.362 94.5105 137.988 94.6074C143.25 94.7688 148.35 96.9961 152.092 100.66C155.866 104.3 158.267 109.319 158.752 114.67C158.841 115.388 159.568 115.412 159.479 114.654C159.01 109.126 156.529 103.912 152.625 100.152ZM120.765 128.76C119.052 126.936 117.694 124.766 116.716 122.409C115.746 120.053 115.189 117.502 115.075 114.912C114.946 112.313 115.366 109.691 116.191 107.189C117.856 102.193 121.38 97.7144 126.067 95.0593C130.723 92.3719 136.396 91.4116 141.634 92.5656C144.543 93.1789 147.299 94.4217 149.675 96.1326C147.622 94.906 145.392 94.0021 143.064 93.5098C140.753 92.9933 138.368 92.8158 136.025 93.0821C133.697 93.3323 131.385 93.8568 129.26 94.8253C127.134 95.7775 125.17 97.0365 123.441 98.5617C122.026 99.8126 120.806 101.257 119.779 102.823C119.108 103.759 118.518 104.752 118.009 105.793C116.805 108.262 116.11 110.966 115.973 113.685C115.827 116.542 116.239 119.423 117.209 122.094C118.171 124.766 119.682 127.227 121.598 129.293C122.778 130.568 124.111 131.69 125.566 132.634C123.812 131.585 122.188 130.286 120.765 128.76Z" fill="black"/>
<path d="M142.11 115.073C142.11 115.477 141.957 115.671 141.642 115.671C141.512 115.671 141.383 115.646 141.246 115.598C141.246 116.235 141.399 116.954 141.714 117.745C141.698 117.906 141.625 118.043 141.48 118.14C141.334 118.237 141.173 118.293 141.003 118.293C140.85 118.293 140.68 118.245 140.494 118.164C140.397 117.962 140.34 117.648 140.34 117.22C140.34 117.107 140.348 116.897 140.357 116.599V115.977C140.357 115.751 140.34 115.598 140.3 115.525C140.187 115.509 140.025 115.517 139.823 115.541C139.613 115.566 139.467 115.582 139.379 115.582C138.837 115.582 137.988 115.654 136.833 115.808C135.515 115.985 134.756 116.155 134.554 116.332C134.44 116.421 134.319 116.873 134.198 117.688C134.101 118.35 134.044 118.842 134.028 119.157C133.964 119.246 133.875 119.286 133.761 119.286C133.6 119.286 133.414 119.205 133.22 119.044C133.018 118.882 132.921 118.721 132.921 118.576C132.921 118.503 132.969 118.334 133.074 118.067C133.171 117.801 133.228 117.64 133.244 117.575C133.454 116.187 133.867 114.646 134.465 112.967C136.121 108.27 137.398 105.914 138.304 105.914C139.274 105.914 140.017 107.14 140.542 109.602C140.728 110.465 140.955 112.12 141.205 114.565C141.278 114.629 141.472 114.694 141.771 114.775C141.997 114.823 142.11 114.928 142.11 115.073ZM140.284 114.533C139.969 112.329 139.767 110.99 139.678 110.53C139.265 108.424 138.821 107.374 138.36 107.391C137.843 107.415 137.196 108.383 136.42 110.288C135.984 111.49 135.548 112.693 135.119 113.895C135.047 114.057 134.966 114.307 134.877 114.629C134.828 114.928 134.917 115.081 135.144 115.081C135.216 115.081 135.604 115.017 136.291 114.896C136.833 114.783 138.158 114.67 140.284 114.533Z" fill="black"/>
<path d="M171.513 122.538H169.46L177.001 105.236H178.714L186.255 122.538H184.202L182.294 117.995H173.42L171.513 122.538ZM174.083 116.381H181.591L177.849 107.294L174.083 116.381Z" fill="black"/>
<path d="M190.967 121.368C190.967 121.707 190.846 122.014 190.595 122.28C190.353 122.546 190.03 122.684 189.642 122.684C189.246 122.684 188.93 122.546 188.688 122.28C188.445 122.014 188.324 121.707 188.324 121.368C188.324 121.029 188.445 120.722 188.688 120.448C188.93 120.174 189.254 120.045 189.642 120.045C190.03 120.045 190.353 120.182 190.595 120.448C190.846 120.722 190.967 121.029 190.967 121.368Z" fill="black"/>
<path d="M197.158 120.932H206.429V122.538H195.396V105.244H206.138V106.858H197.158V112.741H205.548V114.355H197.158V120.932Z" fill="black"/>
<path d="M210.195 124.838C210.671 125.476 211.286 125.984 212.045 126.364C212.805 126.743 213.646 126.936 214.575 126.936C215.391 126.936 216.087 126.815 216.652 126.581C217.226 126.347 217.687 126.025 218.034 125.621C218.382 125.209 218.64 124.733 218.794 124.193C218.948 123.644 219.028 123.063 219.028 122.441V120.392H218.98C218.455 121.174 217.824 121.731 217.073 122.054C216.321 122.377 215.529 122.546 214.696 122.546C213.864 122.546 213.088 122.401 212.361 122.111C211.633 121.82 211.003 121.416 210.461 120.9C209.92 120.384 209.5 119.77 209.192 119.052C208.885 118.334 208.724 117.559 208.724 116.728C208.724 115.896 208.869 115.122 209.16 114.404C209.451 113.685 209.855 113.056 210.372 112.523C210.89 111.982 211.496 111.563 212.207 111.264C212.918 110.966 213.694 110.812 214.543 110.812C214.882 110.812 215.246 110.845 215.634 110.909C216.014 110.974 216.402 111.087 216.782 111.248C217.161 111.409 217.541 111.635 217.921 111.918C218.293 112.2 218.649 112.564 218.972 113.007H219.02V111.103H220.637V122.441C220.637 123.063 220.556 123.716 220.402 124.419C220.249 125.121 219.942 125.766 219.497 126.347C219.053 126.936 218.422 127.421 217.622 127.816C216.822 128.204 215.779 128.405 214.486 128.405C213.347 128.405 212.32 128.22 211.431 127.84C210.534 127.461 209.718 126.888 208.982 126.105L210.195 124.838ZM210.494 116.679C210.494 117.285 210.607 117.849 210.825 118.374C211.043 118.907 211.35 119.367 211.73 119.77C212.118 120.166 212.563 120.488 213.072 120.722C213.589 120.956 214.147 121.078 214.753 121.078C215.343 121.078 215.901 120.973 216.426 120.763C216.951 120.553 217.428 120.254 217.832 119.867C218.236 119.488 218.552 119.028 218.77 118.487C218.988 117.946 219.093 117.349 219.077 116.679C219.077 116.074 218.98 115.509 218.786 114.985C218.592 114.452 218.301 113.992 217.929 113.588C217.557 113.185 217.097 112.87 216.563 112.636C216.022 112.402 215.424 112.281 214.753 112.281C214.147 112.281 213.589 112.402 213.072 112.636C212.563 112.87 212.11 113.193 211.73 113.588C211.35 113.984 211.043 114.452 210.825 114.985C210.599 115.509 210.494 116.074 210.494 116.679Z" fill="black"/>
<path d="M225.147 124.838C225.624 125.476 226.238 125.984 226.998 126.364C227.757 126.743 228.598 126.936 229.527 126.936C230.344 126.936 231.039 126.815 231.604 126.581C232.178 126.347 232.639 126.025 232.986 125.621C233.334 125.209 233.593 124.733 233.746 124.193C233.9 123.644 233.981 123.063 233.981 122.441V120.392H233.932C233.407 121.174 232.776 121.731 232.025 122.054C231.273 122.377 230.481 122.546 229.649 122.546C228.816 122.546 228.04 122.401 227.313 122.111C226.585 121.82 225.955 121.416 225.413 120.9C224.872 120.384 224.452 119.77 224.145 119.052C223.837 118.334 223.676 117.559 223.676 116.728C223.676 115.896 223.821 115.122 224.112 114.404C224.403 113.685 224.807 113.056 225.325 112.523C225.842 111.982 226.448 111.563 227.159 111.264C227.87 110.966 228.646 110.812 229.495 110.812C229.834 110.812 230.198 110.845 230.586 110.909C230.966 110.974 231.354 111.087 231.734 111.248C232.114 111.409 232.493 111.635 232.873 111.918C233.245 112.2 233.601 112.564 233.924 113.007H233.972V111.103H235.589V122.441C235.589 123.063 235.508 123.716 235.355 124.419C235.201 125.121 234.894 125.766 234.449 126.347C234.005 126.936 233.374 127.421 232.574 127.816C231.774 128.204 230.732 128.405 229.438 128.405C228.299 128.405 227.272 128.22 226.383 127.84C225.486 127.461 224.67 126.888 223.934 126.105L225.147 124.838ZM225.446 116.679C225.446 117.285 225.559 117.849 225.777 118.374C225.995 118.907 226.302 119.367 226.682 119.77C227.07 120.166 227.515 120.488 228.024 120.722C228.541 120.956 229.099 121.078 229.705 121.078C230.295 121.078 230.853 120.973 231.378 120.763C231.903 120.553 232.38 120.254 232.784 119.867C233.189 119.488 233.504 119.028 233.722 118.487C233.94 117.946 234.045 117.349 234.029 116.679C234.029 116.074 233.932 115.509 233.738 114.985C233.544 114.452 233.253 113.992 232.881 113.588C232.51 113.185 232.049 112.87 231.516 112.636C230.974 112.402 230.376 112.281 229.705 112.281C229.099 112.281 228.541 112.402 228.024 112.636C227.515 112.87 227.062 113.193 226.682 113.588C226.302 113.984 225.995 114.452 225.777 114.985C225.551 115.509 225.446 116.074 225.446 116.679Z" fill="black"/>
<path d="M239.808 105.244H244.972C245.691 105.244 246.387 105.316 247.049 105.462C247.72 105.607 248.31 105.849 248.835 106.196C249.361 106.535 249.773 106.987 250.08 107.544C250.387 108.101 250.541 108.779 250.541 109.594C250.541 110.538 250.274 111.353 249.749 112.023C249.215 112.701 248.464 113.153 247.486 113.379V113.427C248.706 113.524 249.668 113.952 250.363 114.71C251.058 115.469 251.406 116.478 251.406 117.753C251.406 118.027 251.333 118.439 251.195 118.971C251.058 119.512 250.767 120.045 250.331 120.569C249.894 121.102 249.256 121.562 248.423 121.949C247.591 122.336 246.484 122.538 245.093 122.538H239.808V105.244V105.244ZM241.57 112.814H245.118C245.538 112.814 245.958 112.757 246.378 112.652C246.791 112.547 247.17 112.37 247.502 112.128C247.833 111.886 248.108 111.571 248.318 111.184C248.528 110.804 248.633 110.336 248.633 109.779C248.633 109.602 248.593 109.352 248.52 109.021C248.447 108.698 248.286 108.367 248.035 108.044C247.785 107.721 247.413 107.439 246.92 107.205C246.427 106.971 245.772 106.85 244.94 106.85H241.561V112.814H241.57ZM241.57 120.932H244.948C245.586 120.932 246.176 120.868 246.734 120.739C247.284 120.609 247.769 120.408 248.181 120.141C248.585 119.875 248.908 119.536 249.151 119.125C249.385 118.721 249.506 118.229 249.506 117.656C249.506 116.518 249.134 115.671 248.407 115.114C247.672 114.557 246.597 114.282 245.174 114.282H241.578V120.932H241.57Z" fill="black"/>
<path d="M261.977 115.525V115.235C261.977 113.266 261 112.281 259.044 112.281C257.71 112.281 256.538 112.733 255.544 113.629L254.566 112.483C255.641 111.377 257.257 110.82 259.415 110.82C259.973 110.82 260.506 110.901 261.016 111.062C261.533 111.224 261.977 111.474 262.349 111.805C262.721 112.136 263.028 112.555 263.254 113.064C263.481 113.572 263.594 114.169 263.594 114.872V119.98C263.594 120.416 263.61 120.884 263.659 121.36C263.699 121.844 263.747 122.24 263.796 122.546H262.228C262.18 122.272 262.139 121.965 262.115 121.642C262.091 121.32 262.074 120.997 262.074 120.69H262.026C261.549 121.457 260.991 122.006 260.353 122.336C259.706 122.667 258.922 122.837 257.993 122.837C257.484 122.837 256.999 122.764 256.522 122.627C256.045 122.49 255.625 122.28 255.261 121.989C254.897 121.707 254.598 121.352 254.38 120.94C254.162 120.529 254.049 120.036 254.049 119.488C254.049 118.56 254.291 117.833 254.768 117.301C255.253 116.768 255.851 116.373 256.579 116.114C257.306 115.856 258.082 115.687 258.906 115.622C259.731 115.558 260.482 115.525 261.169 115.525H261.977V115.525ZM261.145 116.849C260.741 116.849 260.224 116.873 259.617 116.913C259.003 116.954 258.421 117.051 257.856 117.204C257.29 117.357 256.813 117.599 256.409 117.922C256.005 118.245 255.811 118.697 255.811 119.27C255.811 119.649 255.892 119.964 256.045 120.238C256.199 120.505 256.409 120.731 256.667 120.9C256.926 121.069 257.217 121.191 257.532 121.263C257.847 121.336 258.171 121.376 258.502 121.376C259.092 121.376 259.601 121.279 260.03 121.086C260.458 120.892 260.822 120.626 261.121 120.295C261.412 119.964 261.63 119.568 261.767 119.125C261.905 118.673 261.977 118.196 261.977 117.696V116.865H261.145V116.849Z" fill="black"/>
<path d="M268.879 111.103C268.911 111.409 268.928 111.716 268.936 112.023C268.944 112.321 268.952 112.628 268.952 112.943H269C269.178 112.636 269.404 112.346 269.687 112.087C269.962 111.829 270.277 111.603 270.617 111.418C270.956 111.232 271.32 111.087 271.708 110.974C272.088 110.869 272.468 110.812 272.847 110.812C274.318 110.812 275.401 111.2 276.105 111.974C276.808 112.749 277.155 113.855 277.155 115.283V122.538H275.539V116.211C275.539 114.944 275.321 113.968 274.876 113.29C274.432 112.612 273.615 112.273 272.427 112.273C272.346 112.273 272.12 112.305 271.74 112.37C271.368 112.434 270.972 112.612 270.552 112.911C270.14 113.201 269.768 113.645 269.437 114.226C269.113 114.815 268.944 115.63 268.944 116.671V122.538H267.327V113.621C267.327 113.314 267.319 112.919 267.295 112.451C267.271 111.974 267.238 111.531 267.206 111.103H268.879Z" fill="black"/>
<path d="M282.555 116.26L287.962 111.103H290.386L284.688 116.332L291.001 122.538H288.503L282.555 116.534V122.538H280.946V104.066H282.555V116.26Z" fill="black"/>
</g>
<defs>
<clipPath id="clip0_307_12071">
<rect width="177" height="46" fill="white" transform="translate(114 91)"/>
</clipPath>
</defs>
</svg>
