<svg width="14" height="10" viewBox="0 0 14 10" fill="none" xmlns="http://www.w3.org/2000/svg">
<path d="M13.7853 4.40417C12.1285 2.40215 9.62066 0.475015 7.00003 0.475015C4.37888 0.475015 1.87043 2.40349 0.214792 4.40417C-0.0715972 4.7501 -0.0715972 5.2523 0.214792 5.59822C0.631039 6.10122 1.50368 7.0722 2.66917 7.92059C5.60443 10.0574 8.38916 10.0621 11.3309 7.92059C12.4964 7.0722 13.369 6.10122 13.7853 5.59822C14.0708 5.25297 14.0723 4.75124 13.7853 4.40417ZM7.00003 1.98374C8.66394 1.98374 10.0175 3.33729 10.0175 5.0012C10.0175 6.66511 8.66394 8.01866 7.00003 8.01866C5.33612 8.01866 3.98257 6.66511 3.98257 5.0012C3.98257 3.33729 5.33612 1.98374 7.00003 1.98374Z" fill="#89CBC4"/>
</svg>
