<svg width="52" height="52" viewBox="0 0 52 52" fill="none" xmlns="http://www.w3.org/2000/svg">
<g clip-path="url(#clip0_83_2364)">
<path d="M26 52C20.2873 52 14.8665 50.1825 10.3235 46.7442C5.92851 43.4178 2.6456 38.6921 1.07961 33.4374C0.959359 33.0343 1.18889 32.6101 1.59209 32.4899C1.99499 32.3697 2.41942 32.5992 2.53957 33.0023C5.60574 43.2909 15.2532 50.4766 26 50.4766C39.4964 50.4766 50.4766 39.4964 50.4766 26C50.4766 12.5036 39.4964 1.52344 26 1.52344C12.5036 1.52344 1.52344 12.5036 1.52344 26C1.52344 27.218 1.61373 28.4418 1.79177 29.6373C1.85372 30.0534 1.5667 30.4408 1.1506 30.5028C0.735516 30.5644 0.347039 30.2777 0.285086 29.8616C0.095875 28.5921 0 27.2929 0 26C0 19.0552 2.70451 12.5259 7.61516 7.61516C12.5258 2.70441 19.0552 0 26 0C32.9448 0 39.4741 2.70451 44.3848 7.61516C49.2956 12.5258 52 19.0552 52 26C52 32.9448 49.2955 39.4741 44.3848 44.3848C39.4742 49.2956 32.9448 52 26 52Z" fill="black"/>
<path d="M26 48.1611C20.0805 48.1611 14.5154 45.856 10.3297 41.6703C6.14403 37.4846 3.83887 31.9195 3.83887 26C3.83887 20.0805 6.14403 14.5154 10.3297 10.3297C14.5154 6.14403 20.0805 3.83887 26 3.83887C30.5834 3.83887 34.9819 5.22611 38.72 7.85059C39.0643 8.09241 39.1475 8.56752 38.9058 8.91171C38.664 9.25591 38.1889 9.33919 37.8446 9.09747C34.3642 6.65387 30.2684 5.3623 26 5.3623C14.6203 5.3623 5.3623 14.6203 5.3623 26C5.3623 37.3797 14.6203 46.6377 26 46.6377C37.3797 46.6377 46.6377 37.3797 46.6377 26C46.6377 20.4268 44.4504 15.2038 40.4785 11.2933C40.1786 10.9981 40.175 10.5158 40.47 10.2161C40.7652 9.91616 41.2474 9.91271 41.5472 10.2076C45.8122 14.407 48.161 20.0153 48.161 26C48.161 31.9195 45.8559 37.4846 41.6702 41.6703C37.4845 45.856 31.9195 48.1611 26 48.1611Z" fill="black"/>
<path d="M20.3125 24.7548C18.1691 24.7548 16.1454 24.1254 14.6144 22.9826C13.0168 21.79 12.1367 20.1834 12.1367 18.459C12.1367 16.7346 13.0167 15.1279 14.6144 13.9354C16.1454 12.7926 18.1691 12.1632 20.3125 12.1632C22.4559 12.1632 24.4796 12.7926 26.0106 13.9354C27.6082 15.1279 28.4883 16.7346 28.4883 18.459C28.4883 20.1834 27.6083 21.79 26.0106 22.9826C24.4796 24.1254 22.4559 24.7548 20.3125 24.7548ZM20.3125 13.6867C16.6444 13.6867 13.6602 15.8275 13.6602 18.459C13.6602 21.0905 16.6444 23.2313 20.3125 23.2313C23.9806 23.2313 26.9648 21.0905 26.9648 18.459C26.9648 15.8275 23.9806 13.6867 20.3125 13.6867Z" fill="black"/>
<path d="M20.3124 21.3064C17.5264 21.3064 15.585 19.8058 15.585 18.459C15.585 17.1122 17.5264 15.6116 20.3124 15.6116C23.0984 15.6116 25.0398 17.1122 25.0398 18.459C25.0398 19.8058 23.0984 21.3064 20.3124 21.3064ZM17.1094 18.459C17.1699 18.7785 18.2528 19.7829 20.3124 19.7829C22.372 19.7829 23.4548 18.7784 23.5154 18.459C23.4548 18.1395 22.372 17.135 20.3124 17.135C18.2528 17.135 17.1699 18.1395 17.1094 18.459Z" fill="black"/>
<path d="M26.2655 41.955C25.05 41.9551 23.7438 41.6128 22.4717 40.921C22.1021 40.72 21.9655 40.2574 22.1664 39.8879C22.3675 39.5182 22.8299 39.3817 23.1995 39.5826C25.3628 40.7592 27.6797 40.6857 28.9649 39.4005C29.793 38.5724 30.136 37.3374 29.9308 35.923C29.7134 34.4261 28.9177 32.9257 27.6902 31.6984C26.4628 30.4709 24.9625 29.6751 23.4656 29.4578C22.0511 29.2524 20.8161 29.5954 19.9881 30.4236C18.3872 32.0245 18.6889 35.0645 20.6898 37.495C20.9572 37.8197 20.9107 38.2998 20.5859 38.5672C20.2612 38.8347 19.781 38.7882 19.5137 38.4633C17.0117 35.4242 16.7525 31.5047 18.9107 29.3464C20.0872 28.17 21.7824 27.674 23.6845 27.9503C25.5042 28.2145 27.3092 29.163 28.7675 30.6211C30.2255 32.0792 31.1741 33.8844 31.4383 35.7041C31.7145 37.6061 31.2186 39.3013 30.0421 40.4778C29.0616 41.4582 27.7295 41.955 26.2655 41.955Z" fill="black"/>
<path d="M26.2508 38.8943C25.0818 38.8943 23.6081 38.3167 22.3401 37.0487C22.34 37.0487 22.34 37.0487 22.34 37.0486C20.3298 35.0382 20.0548 32.5114 21.0653 31.5008C22.0759 30.4905 24.6029 30.7653 26.613 32.7755C28.6234 34.786 28.8983 37.3128 27.8879 38.3234C27.5147 38.6964 26.9349 38.8943 26.2508 38.8943ZM23.4172 35.9714C24.9489 37.503 26.5385 37.5186 26.8105 37.2461C27.0828 36.9739 27.0672 35.3844 25.5358 33.8528C24.0043 32.3214 22.4147 32.306 22.1426 32.5782C21.8704 32.8503 21.8858 34.4399 23.4172 35.9714Z" fill="black"/>
<path d="M36.8672 29.5446C36.769 29.5446 36.6713 29.5431 36.574 29.54C36.1535 29.527 35.8232 29.1755 35.8363 28.7551C35.8493 28.3345 36.1974 28.0014 36.6213 28.0174C39.6965 28.1419 42.4854 26.306 42.453 24.0449C42.453 21.8524 39.9472 20.0686 36.8671 20.0686C33.787 20.0686 31.2811 21.8524 31.2811 24.0449C31.2811 25.276 32.1153 26.4616 33.5124 27.2161C33.8826 27.4161 34.0206 27.8782 33.8207 28.2483C33.6208 28.6186 33.1585 28.7564 32.7885 28.5566C30.8907 27.5317 29.7578 25.8451 29.7578 24.0449C29.7578 21.0124 32.9471 18.5452 36.8672 18.5452C40.7873 18.5452 43.9766 21.0124 43.9766 24.0449C43.9766 27.0775 40.7873 29.5446 36.8672 29.5446Z" fill="black"/>
<path d="M36.8672 26.4977C34.542 26.4977 32.8047 25.2027 32.8047 24.0449C32.8047 22.8871 34.542 21.5921 36.8672 21.5921C39.1924 21.5921 40.9297 22.8871 40.9297 24.0449C40.9297 25.2027 39.1924 26.4977 36.8672 26.4977ZM34.3564 24.0449C34.5448 24.3192 35.3658 24.9743 36.8672 24.9743C38.3686 24.9743 39.1895 24.3192 39.378 24.0449C39.1896 23.7706 38.3686 23.1155 36.8672 23.1155C35.3658 23.1155 34.5449 23.7706 34.3564 24.0449Z" fill="black"/>
</g>
<defs>
<clipPath id="clip0_83_2364">
<rect width="52" height="52" fill="white"/>
</clipPath>
</defs>
</svg>
