<svg width="52" height="52" viewBox="0 0 52 52" fill="none" xmlns="http://www.w3.org/2000/svg">
<g clip-path="url(#clip0_83_2386)">
<path d="M29.9758 33.4374L30.2817 34.1282C30.4077 34.4126 30.6864 34.5816 30.9785 34.5816C31.0816 34.5816 31.1863 34.5606 31.2867 34.5161C31.6713 34.3457 31.8451 33.8959 31.6747 33.5112L31.3045 32.6754L31.6747 31.8396C31.845 31.455 31.6713 31.0051 31.2867 30.8347C30.9022 30.6645 30.4521 30.838 30.2817 31.2227L29.9756 31.9138H28.6642L27.9919 30.7492L28.6477 29.613L29.3989 29.6934C29.4265 29.6964 29.4539 29.6979 29.481 29.6979C29.8653 29.6979 30.1956 29.4079 30.2374 29.0171C30.2822 28.5989 29.9794 28.2235 29.5611 28.1787L28.6524 28.0814L28.1137 27.343C27.8657 27.0029 27.3892 26.9283 27.0494 27.1765C26.7096 27.4244 26.635 27.9009 26.8829 28.2408L27.3285 28.8514L26.6729 29.9871H25.3272L24.6716 28.8514L25.1171 28.2408C25.365 27.9009 25.2905 27.4245 24.9506 27.1765C24.6105 26.9283 24.134 27.003 23.8863 27.343L23.3476 28.0814L22.4389 28.1787C22.0205 28.2234 21.7178 28.5989 21.7626 29.0171C21.8044 29.4079 22.1347 29.6979 22.519 29.6979C22.5461 29.6979 22.5735 29.6964 22.6011 29.6934L23.3523 29.6131L24.0081 30.7493L23.3357 31.9139H22.0243L21.7182 31.2228C21.5478 30.8381 21.0977 30.6643 20.7132 30.8348C20.3285 31.0052 20.1548 31.455 20.3253 31.8397L20.6954 32.6755L20.3253 33.5113C20.1548 33.8959 20.3286 34.3458 20.7132 34.5162C20.8136 34.5607 20.9183 34.5817 21.0214 34.5817C21.3136 34.5817 21.5922 34.4126 21.7182 34.1283L22.0241 33.4375H23.3359L24.008 34.6018L23.3519 35.7379L22.601 35.6575C22.1827 35.6116 21.8074 35.9154 21.7625 36.3338C21.7177 36.752 22.0205 37.1274 22.4388 37.1722L23.3475 37.2695L23.8862 38.0079C24.0354 38.2125 24.2672 38.3209 24.5022 38.3209C24.6579 38.3208 24.8151 38.2732 24.9505 38.1744C25.2903 37.9265 25.3649 37.45 25.117 37.1101L24.6713 36.4992L25.327 35.3638H26.6726L27.3283 36.4992L26.8826 37.11C26.6347 37.4499 26.7092 37.9263 27.0491 38.1743C27.1846 38.2732 27.3417 38.3208 27.4974 38.3208C27.7324 38.3207 27.9643 38.2123 28.1134 38.0078L28.6521 37.2694L29.5608 37.1721C29.9792 37.1274 30.2819 36.7519 30.2371 36.3337C30.1924 35.9153 29.8171 35.6119 29.3986 35.6574L28.6477 35.7377L27.9917 34.6016L28.6638 33.4373H29.9758V33.4374ZM26.6724 33.8403H25.3275L24.6551 32.6755L25.3275 31.5108H26.6725L27.3449 32.6755L26.6724 33.8403Z" fill="black"/>
<path d="M36.279 0H15.7208C12.8149 0 10.4507 2.36407 10.4507 5.27008V30.3682C10.4507 30.789 10.7917 31.1299 11.2124 31.1299C11.6331 31.1299 11.9741 30.789 11.9741 30.3682V5.27008C11.9741 3.2042 13.6549 1.52344 15.7208 1.52344H36.279C38.3449 1.52344 40.0257 3.2042 40.0257 5.27008V25.6635H38.0448C37.1768 25.6635 36.4706 26.3697 36.4706 27.2377V34.938C36.4706 35.35 36.6287 35.7397 36.9158 36.0351L40.0257 39.2356V41.3359H11.9741V33.9229C11.9741 33.5021 11.6331 33.1612 11.2124 33.1612C10.7917 33.1612 10.4507 33.5021 10.4507 33.9229V50.2227C10.4507 51.2026 11.2481 52 12.228 52H39.7718C40.7518 52 41.5491 51.2026 41.5491 50.2227V5.27008C41.5491 2.36407 39.1849 0 36.279 0V0ZM40.0257 50.2227C40.0257 50.3627 39.9117 50.4766 39.7718 50.4766H12.228C12.0881 50.4766 11.9741 50.3627 11.9741 50.2227V42.8594H40.0257V50.2227ZM40.0257 37.0495L38.0083 34.9734C37.9991 34.9639 37.994 34.9513 37.994 34.938V27.2377C37.994 27.2098 38.0168 27.187 38.0448 27.187H40.0257V37.0495Z" fill="black"/>
<path d="M32.6426 48.9531H37.2323C37.653 48.9531 37.994 48.6122 37.994 48.1914C37.994 47.7706 37.653 47.4297 37.2323 47.4297H32.6426C32.2219 47.4297 31.8809 47.7706 31.8809 48.1914C31.8809 48.6122 32.2219 48.9531 32.6426 48.9531Z" fill="black"/>
<path d="M35.1318 45.9062H37.2322C37.6529 45.9062 37.994 45.5653 37.994 45.1445C37.994 44.7238 37.6529 44.3828 37.2322 44.3828H35.1318C34.7112 44.3828 34.3701 44.7238 34.3701 45.1445C34.3701 45.5653 34.7112 45.9062 35.1318 45.9062Z" fill="black"/>
<path d="M15.5801 49.4879H24.6105C25.4786 49.4879 26.1847 48.7818 26.1847 47.9137V45.8825C26.1847 45.0144 25.4786 44.3083 24.6105 44.3083H15.5801C14.712 44.3083 14.0059 45.0144 14.0059 45.8825V47.9137C14.0059 48.7817 14.712 49.4879 15.5801 49.4879ZM15.5293 45.8825C15.5293 45.8545 15.552 45.8317 15.5801 45.8317H24.6105C24.6385 45.8317 24.6613 45.8545 24.6613 45.8825V47.9137C24.6613 47.9417 24.6385 47.9645 24.6105 47.9645H15.5801C15.552 47.9645 15.5293 47.9417 15.5293 47.9137V45.8825Z" fill="black"/>
<rect x="14.75" y="3.75" width="22.5" height="19.5" rx="2.25" stroke="black" stroke-width="1.5"/>
<path d="M26.1758 19.5915C24.0324 19.5915 22.0087 18.9621 20.4777 17.8194C18.88 16.6268 18 15.0202 18 13.2958C18 11.5713 18.8799 9.96471 20.4777 8.77216C22.0087 7.62938 24.0324 7 26.1758 7C28.3192 7 30.3429 7.62938 31.8738 8.77216C33.4715 9.96471 34.3516 11.5713 34.3516 13.2958C34.3516 15.0202 33.4716 16.6268 31.8738 17.8194C30.3429 18.9621 28.3192 19.5915 26.1758 19.5915ZM26.1758 8.52344C22.5076 8.52344 19.5234 10.6643 19.5234 13.2958C19.5234 15.9272 22.5076 18.0681 26.1758 18.0681C29.8439 18.0681 32.8281 15.9272 32.8281 13.2958C32.8281 10.6643 29.8439 8.52344 26.1758 8.52344Z" fill="black"/>
<path d="M26.1757 16.1431C23.3897 16.1431 21.4482 14.6426 21.4482 13.2957C21.4482 11.9489 23.3897 10.4483 26.1757 10.4483C28.9616 10.4483 30.9031 11.9489 30.9031 13.2957C30.9031 14.6426 28.9616 16.1431 26.1757 16.1431ZM22.9727 13.2957C23.0332 13.6153 24.1161 14.6197 26.1757 14.6197C28.2353 14.6197 29.3181 13.6152 29.3786 13.2957C29.3181 12.9762 28.2353 11.9718 26.1757 11.9718C24.1161 11.9718 23.0332 12.9762 22.9727 13.2957Z" fill="black"/>
</g>
<defs>
<clipPath id="clip0_83_2386">
<rect width="52" height="52" fill="white"/>
</clipPath>
</defs>
</svg>
