<svg width="52" height="52" viewBox="0 0 52 52" fill="none" xmlns="http://www.w3.org/2000/svg">
<g clip-path="url(#clip0_83_2422)">
<path d="M49.5625 23.5625V19.4789C50.5432 18.7362 51.1875 17.5711 51.1875 16.25C51.1875 14.0099 49.3651 12.1875 47.125 12.1875C44.8849 12.1875 43.0625 14.0099 43.0625 16.25C43.0625 17.5719 43.7068 18.7371 44.6875 19.4789V23.5625H40.625V15.4375H42.25V10.9403L27.9394 1.39993C26.7881 0.632113 25.2127 0.632113 24.0614 1.39993L9.75 10.9403V15.4375H11.375V23.5625H7.3125V19.4789C8.29319 18.7362 8.9375 17.5711 8.9375 16.25C8.9375 14.0099 7.11506 12.1875 4.875 12.1875C2.63494 12.1875 0.8125 14.0099 0.8125 16.25C0.8125 17.5719 1.45681 18.7371 2.4375 19.4789V23.5625C1.54131 23.5625 0.8125 24.2913 0.8125 25.1875V26.8125C0.8125 27.7087 1.54131 28.4375 2.4375 28.4375V49.5625H10.5625V51.1875H41.4375V49.5625H49.5625V28.4375C50.4587 28.4375 51.1875 27.7087 51.1875 26.8125V25.1875C51.1875 24.2913 50.4587 23.5625 49.5625 23.5625ZM47.125 13.8125C48.4689 13.8125 49.5625 14.9061 49.5625 16.25C49.5625 17.5939 48.4689 18.6875 47.125 18.6875C45.7811 18.6875 44.6875 17.5939 44.6875 16.25C44.6875 14.9061 45.7811 13.8125 47.125 13.8125ZM46.3125 20.2304C46.5749 20.284 46.8471 20.3125 47.125 20.3125C47.4029 20.3125 47.6751 20.284 47.9375 20.2304V23.5625H46.3125V20.2304ZM39 23.5625H37.375V15.4375H39V23.5625ZM19.5 15.4375V23.5625H16.25V15.4375H19.5ZM21.125 15.4375H22.75V23.5625H21.125V15.4375ZM24.375 15.4375H27.625V23.5625H24.375V15.4375ZM29.25 15.4375H30.875V23.5625H29.25V15.4375ZM32.5 15.4375H35.75V23.5625H32.5V15.4375ZM11.375 13.8125V12.1875H40.625V13.8125H11.375ZM18.9337 10.5625L26 5.85161L33.0663 10.5625H18.9337ZM24.9624 2.75193C25.5791 2.3408 26.4217 2.3408 27.0384 2.75193L38.7538 10.5625H35.9954L26 3.89836L16.0038 10.5625H13.2454L24.9624 2.75193ZM13 15.4375H14.625V23.5625H13V15.4375ZM4.875 13.8125C6.21887 13.8125 7.3125 14.9061 7.3125 16.25C7.3125 17.5939 6.21887 18.6875 4.875 18.6875C3.53113 18.6875 2.4375 17.5939 2.4375 16.25C2.4375 14.9061 3.53113 13.8125 4.875 13.8125ZM4.0625 20.2304C4.32494 20.284 4.59713 20.3125 4.875 20.3125C5.15287 20.3125 5.42506 20.284 5.6875 20.2304V23.5625H4.0625V20.2304ZM13.8125 28.4375V43.0625H12.1875H4.0625V28.4375H13.8125ZM13.8125 46.3125V44.6875H14.625H38.1875V46.3125H13.8125ZM30.0625 43.0625H26.8125V31.6875H30.0625V43.0625ZM25.1875 43.0625H21.9375V31.6875H25.1875V43.0625ZM34.9375 43.0625V28.4375H36.5625V43.0625H34.9375ZM33.3125 43.0625H31.6875V30.0625H20.3125V43.0625H18.6875V28.4375H33.3125V43.0625ZM17.0625 43.0625H15.4375V28.4375H17.0625V43.0625ZM4.0625 47.9375V44.6875H12.1875V46.3125H10.5625V47.9375H4.0625ZM39.8125 49.5625H12.1875V47.9375H39.8125V49.5625ZM41.4375 47.9375V46.3125H39.8125V44.6875H47.9375V47.9375H41.4375ZM47.9375 43.0625H39.8125H39H38.1875V28.4375H47.9375V43.0625ZM49.5625 26.8125H2.4375V25.1875H49.5625V26.8125Z" fill="black"/>
<path d="M46.3125 30.0625H39.8125V41.4375H46.3125V30.0625ZM44.6875 39.8125H41.4375V31.6875H44.6875V39.8125Z" fill="black"/>
<path d="M12.1875 41.4375V30.0625H5.6875V41.4375H12.1875ZM7.3125 31.6875H10.5625V39.8125H7.3125V31.6875Z" fill="black"/>
</g>
<defs>
<clipPath id="clip0_83_2422">
<rect width="52" height="52" fill="white"/>
</clipPath>
</defs>
</svg>
