<svg width="20" height="18" viewBox="0 0 20 18" fill="none" xmlns="http://www.w3.org/2000/svg">
<path d="M9.99998 17.7936C9.71525 17.7936 9.44075 17.6904 9.22682 17.503C8.41887 16.7966 7.63991 16.1326 6.95265 15.547L6.94914 15.544C4.93422 13.8269 3.19427 12.344 1.98364 10.8833C0.630339 9.25033 0 7.70203 0 6.01059C0 4.36723 0.563506 2.85111 1.58661 1.74134C2.62191 0.618453 4.0425 1.52588e-05 5.58715 1.52588e-05C6.74162 1.52588e-05 7.7989 0.365005 8.72954 1.08476C9.1992 1.44807 9.62492 1.89271 9.99998 2.41136C10.3752 1.89271 10.8008 1.44807 11.2706 1.08476C12.2012 0.365005 13.2585 1.52588e-05 14.413 1.52588e-05C15.9575 1.52588e-05 17.3782 0.618453 18.4135 1.74134C19.4366 2.85111 20 4.36723 20 6.01059C20 7.70203 19.3698 9.25033 18.0165 10.8832C16.8058 12.344 15.066 13.8267 13.0514 15.5437C12.363 16.1302 11.5828 16.7952 10.773 17.5033C10.5592 17.6904 10.2846 17.7936 9.99998 17.7936ZM5.58715 1.17158C4.37362 1.17158 3.25881 1.6559 2.44781 2.53541C1.62475 3.4282 1.17141 4.66233 1.17141 6.01059C1.17141 7.43317 1.70013 8.70544 2.88558 10.1358C4.03136 11.5184 5.73561 12.9707 7.70888 14.6524L7.71254 14.6554C8.40239 15.2434 9.1844 15.9099 9.9983 16.6215C10.8171 15.9085 11.6003 15.2409 12.2915 14.6521C14.2647 12.9704 15.9687 11.5184 17.1145 10.1358C18.2998 8.70544 18.8285 7.43317 18.8285 6.01059C18.8285 4.66233 18.3752 3.4282 17.5522 2.53541C16.7413 1.6559 15.6263 1.17158 14.413 1.17158C13.524 1.17158 12.7078 1.45417 11.9871 2.01143C11.3449 2.50825 10.8975 3.1363 10.6352 3.57575C10.5003 3.80174 10.2629 3.93662 9.99998 3.93662C9.73707 3.93662 9.49965 3.80174 9.36476 3.57575C9.10261 3.1363 8.65523 2.50825 8.01283 2.01143C7.29216 1.45417 6.47597 1.17158 5.58715 1.17158Z" fill="#89CBC4"/>
</svg>
