<svg width="46" height="46" viewBox="0 0 46 46" fill="none" xmlns="http://www.w3.org/2000/svg">
<path d="M39.0064 8.98087C35.0603 5.1044 29.6726 2.73223 24.12 2.56692C22.7854 2.51733 21.4344 2.59172 20.108 2.79009C20.7836 2.66611 21.4591 2.56692 22.1346 2.49254C24.4413 2.22804 26.7892 2.40161 29.0712 2.91407C33.6681 3.87285 37.886 6.48472 41.0659 10.0471C41.4614 10.5513 42.1204 10.3364 41.7332 9.71649C41.7003 9.66689 41.6673 9.62557 41.6344 9.57598H41.6426C41.6261 9.55944 41.6096 9.54291 41.5932 9.51812C38.5203 5.08787 33.6681 1.78171 28.2309 0.550167C22.7195 -0.697907 16.7386 0.203021 11.7957 3.00499C6.84461 5.79869 3.0633 10.4604 1.25914 15.742C-0.610922 21.0235 -0.330824 26.8672 1.65457 31.876C3.62349 36.9262 7.47071 41.0175 12.0264 43.431C14.3084 44.6378 16.7716 45.4395 19.276 45.8032C21.7886 46.1503 24.3177 46.0263 26.7398 45.5304C26.9375 45.4891 27.1352 45.4395 27.3247 45.3982C28.9558 45.0924 30.5623 44.6212 32.0946 43.9683C34.1706 43.0921 36.0654 41.8275 37.7707 40.348C39.4677 38.8685 40.9588 37.1245 42.0957 35.1574C42.4582 34.5788 41.9309 34.2399 41.5437 34.6614C41.8403 34.0994 42.1204 33.5208 42.3593 32.9257C43.4138 30.3882 43.941 27.6607 43.9081 24.9413C43.9246 24.2388 43.1996 24.247 43.1667 24.9248C43.1255 25.4951 43.1337 26.0654 43.0596 26.6357L42.8124 28.3301L42.4087 29.9915C42.2769 30.5535 42.0463 31.0743 41.8733 31.6198C41.0742 33.7605 39.9208 35.7855 38.4627 37.5709C37.0045 39.3562 35.2498 40.9349 33.2479 42.1582C32.317 42.7285 31.3367 43.2161 30.3234 43.6376C28.1238 44.4807 25.7594 44.9353 23.3786 44.9684C21.9204 44.9518 20.4705 44.7865 19.0453 44.4973L17.4636 44.1005L15.9313 43.555C15.6677 43.4723 15.4205 43.3649 15.1816 43.2409L14.4402 42.8938C14.1931 42.7781 13.9459 42.6706 13.6988 42.5384L12.9985 42.1168C11.1202 41.0175 9.38197 39.6455 7.94853 37.9841C6.49861 36.3393 5.2876 34.4796 4.37316 32.4711C3.49168 30.4461 2.93972 28.2806 2.70082 26.0737L2.57725 24.4124L2.61844 22.7427C2.60196 22.1807 2.71729 21.6352 2.77496 21.0814L2.88206 20.2466C2.92325 19.9738 2.99739 19.7011 3.0633 19.4283C3.20335 18.8911 3.27749 18.329 3.46697 17.8L4.00245 16.2048C4.44731 15.1799 4.88393 14.1302 5.47708 13.1714C5.68303 12.816 5.90546 12.4689 6.12789 12.13C7.03409 10.8488 8.08857 9.6669 9.25839 8.61719C11.2767 6.81534 13.6493 5.41022 16.1784 4.50929C18.7158 3.6001 21.4097 3.20336 24.0871 3.30254C29.4501 3.46785 34.6484 5.7491 38.4627 9.50159C42.3099 13.2293 44.7566 18.3704 45.2509 23.8503C45.3415 24.5859 46.083 24.6107 45.9923 23.8338C45.5145 18.172 42.9854 12.8325 39.0064 8.98087ZM6.53156 38.2817C4.78507 36.4137 3.40106 34.1903 2.40424 31.7768C1.41567 29.3633 0.847232 26.7515 0.731898 24.0983C0.600088 21.4368 1.02847 18.7506 1.86876 16.1883C3.56582 11.072 7.15766 6.48472 11.9358 3.7654C16.681 1.01303 22.4642 0.0294466 27.8025 1.2114C30.7682 1.83957 33.5774 3.11244 35.9995 4.8647C33.907 3.60836 31.6332 2.68264 29.2606 2.17845C26.9045 1.64946 24.4743 1.46763 22.0852 1.74039C19.7126 1.99661 17.3565 2.53386 15.1899 3.52571C13.0232 4.50103 11.0214 5.79042 9.25839 7.35258C7.81672 8.63372 6.57275 10.1132 5.52651 11.7167C4.84274 12.6755 4.24135 13.6921 3.72235 14.7584C2.49486 17.2876 1.78638 20.0565 1.64633 22.8419C1.49805 25.7679 1.91819 28.7186 2.90677 31.4545C3.88711 34.1903 5.42765 36.7113 7.38009 38.8272C8.58286 40.1331 9.94216 41.282 11.425 42.2491C9.63735 41.1746 7.98148 39.8438 6.53156 38.2817Z" fill="white"/>
<g clip-path="url(#clip0_303_12068)">
<path d="M33.57 21.7344L29.8092 17.6035C29.0882 16.8806 27.8362 16.8756 27.1023 17.6095C26.8653 17.8465 26.7033 18.1315 26.6193 18.4355C25.8893 17.8755 24.7754 17.9365 24.1024 18.6095C23.8654 18.8465 23.7034 19.1315 23.6174 19.4345C22.8894 18.8745 21.7745 18.9385 21.1025 19.6094C20.8695 19.8424 20.7095 20.1214 20.6225 20.4164L18.8506 18.6445C18.1057 17.9005 16.8957 17.8985 16.1427 18.6505C15.3977 19.3944 15.3977 20.6064 16.1427 21.3513L22.9504 28.159L18.9146 28.793C17.8226 28.9491 16.9997 29.897 16.9997 31C16.9997 31.8269 17.6726 32.4999 18.4996 32.4999H27.9282C29.3962 32.4999 30.7771 31.9279 31.8191 30.888L33.391 29.3151C34.429 28.2781 34.9999 26.8982 34.9999 25.4312C34.9999 24.0613 34.492 22.7483 33.57 21.7344ZM32.683 28.6091L31.1111 30.182C30.2601 31.0319 29.1292 31.4999 27.9282 31.4999H18.4996C18.2246 31.4999 17.9996 31.2759 17.9996 30.9999C17.9996 30.3919 18.4536 29.869 19.0616 29.781L24.0764 28.993C24.2624 28.964 24.4154 28.833 24.4744 28.654C24.5324 28.476 24.4854 28.279 24.3524 28.1461L16.8497 20.6434C16.4957 20.2884 16.4957 19.7114 16.8557 19.3505C17.0337 19.1735 17.2667 19.0845 17.4997 19.0845C17.7327 19.0845 17.9656 19.1735 18.1437 19.3514L21.0795 22.2873C21.0865 22.2954 21.0955 22.3033 21.1035 22.3113L23.1474 24.3543C23.3424 24.5492 23.6594 24.5492 23.8544 24.3543C24.0494 24.1593 24.0494 23.8423 23.8544 23.6473L21.7935 21.5864C21.4565 21.2304 21.4625 20.6654 21.8165 20.3104C22.1605 19.9684 22.7585 19.9664 23.1025 20.3104L24.0854 21.2944C24.0914 21.3004 24.0965 21.3064 24.1025 21.3114L25.1464 22.3544C25.3414 22.5494 25.6584 22.5494 25.8534 22.3544C26.0484 22.1594 26.0484 21.8424 25.8534 21.6474L24.7974 20.5924C24.4564 20.2364 24.4605 19.6675 24.8164 19.3105C25.1594 18.9685 25.7584 18.9665 26.1024 19.3105L27.1463 20.3584C27.1473 20.3594 27.1473 20.3604 27.1484 20.3604L27.1493 20.3614C27.1574 20.3655 27.1554 20.3645 27.1533 20.3634C27.1533 20.3634 27.1533 20.3644 27.1543 20.3644C27.1553 20.3654 27.1553 20.3654 27.1553 20.3654C27.1563 20.3664 27.1563 20.3664 27.1563 20.3664H27.1573C27.1582 20.3664 27.1582 20.3664 27.1582 20.3664C27.3562 20.5504 27.6642 20.5454 27.8542 20.3534C28.0482 20.1584 28.0482 19.8424 27.8532 19.6474L27.7932 19.5874C27.4552 19.2314 27.4603 18.6655 27.8152 18.3105C28.1592 17.9685 28.7732 17.9835 29.0852 18.2935L32.829 22.4083C33.584 23.2383 33.999 24.3112 33.999 25.4322C33.999 26.6312 33.531 27.7601 32.683 28.6091Z" fill="white"/>
<path d="M27.1522 20.3633H27.153C27.1522 20.3628 27.1514 20.3624 27.1514 20.3624C27.1522 20.3633 27.1531 20.3633 27.1522 20.3633Z" fill="white"/>
<path d="M21.5967 18.1545C20.8677 16.5426 19.2607 15.5006 17.4998 15.5006C15.0189 15.5006 13 17.5195 13 20.0004C13 21.7603 14.0419 23.3683 15.6529 24.0973C15.7199 24.1272 15.7899 24.1413 15.8589 24.1413C16.0499 24.1413 16.2309 24.0313 16.3149 23.8473C16.4279 23.5953 16.3169 23.2993 16.0649 23.1853C14.8109 22.6183 14 21.3684 14 20.0005C14 18.0705 15.5699 16.5006 17.4999 16.5006C18.8678 16.5006 20.1178 17.3115 20.6847 18.5655C20.7987 18.8175 21.0937 18.9294 21.3467 18.8155C21.5977 18.7025 21.7097 18.4055 21.5967 18.1545Z" fill="white"/>
<path d="M23.7745 18.3295C23.0195 15.4866 20.4386 13.5007 17.4997 13.5007C13.9159 13.5007 11 16.4166 11 20.0005C11 22.9393 12.9859 25.5202 15.8298 26.2752C15.8728 26.2872 15.9158 26.2922 15.9578 26.2922C16.1798 26.2922 16.3818 26.1452 16.4408 25.9212C16.5118 25.6542 16.3538 25.3803 16.0858 25.3092C13.6809 24.6703 12 22.4873 12 20.0005C12 16.9676 14.4679 14.5007 17.4997 14.5007C19.9857 14.5007 22.1696 16.1806 22.8085 18.5865C22.8785 18.8525 23.1435 19.0125 23.4205 18.9415C23.6865 18.8705 23.8445 18.5965 23.7745 18.3295Z" fill="white"/>
</g>
<defs>
<clipPath id="clip0_303_12068">
<rect width="24" height="24" fill="white" transform="translate(11 11.0003)"/>
</clipPath>
</defs>
</svg>
