<svg width="14" height="14" viewBox="0 0 14 14" fill="none" xmlns="http://www.w3.org/2000/svg">
<g clip-path="url(#clip0_188_8310)">
<path d="M0.4375 2.46803H7.09857C7.29933 3.38183 8.11538 4.06785 9.0886 4.06785C10.0618 4.06785 10.8779 3.38185 11.0786 2.46803H13.5625C13.8041 2.46803 14 2.27214 14 2.03053C14 1.78892 13.8041 1.59303 13.5625 1.59303H11.0784C10.8773 0.67969 10.0601 -0.0067749 9.0886 -0.0067749C8.11658 -0.0067749 7.2998 0.679581 7.09874 1.59303H0.4375C0.195891 1.59303 0 1.78892 0 2.03053C0 2.27214 0.195891 2.46803 0.4375 2.46803ZM7.92632 2.03167C7.92632 2.03012 7.92635 2.02853 7.92635 2.02697C7.92827 1.38803 8.44963 0.868252 9.0886 0.868252C9.72666 0.868252 10.2481 1.38732 10.2508 2.02596L10.2509 2.03239C10.2499 2.67242 9.72888 3.19288 9.0886 3.19288C8.44859 3.19288 7.92775 2.67294 7.9263 2.03329L7.92632 2.03167ZM13.5625 11.532H11.0784C10.8772 10.6186 10.0601 9.93216 9.0886 9.93216C8.11658 9.93216 7.2998 10.6185 7.09874 11.532H0.4375C0.195891 11.532 0 11.7278 0 11.9695C0 12.2111 0.195891 12.407 0.4375 12.407H7.09857C7.29933 13.3208 8.11538 14.0068 9.0886 14.0068C10.0618 14.0068 10.8779 13.3208 11.0786 12.407H13.5625C13.8041 12.407 14 12.2111 14 11.9695C14 11.7278 13.8041 11.532 13.5625 11.532ZM9.0886 13.1318C8.44859 13.1318 7.92775 12.6118 7.9263 11.9722L7.92632 11.9706C7.92632 11.969 7.92635 11.9675 7.92635 11.9659C7.92827 11.327 8.44963 10.8072 9.0886 10.8072C9.72666 10.8072 10.2481 11.3262 10.2508 11.9648L10.2509 11.9713C10.25 12.6114 9.72893 13.1318 9.0886 13.1318ZM13.5625 6.56251H6.90143C6.70067 5.64871 5.88462 4.96271 4.9114 4.96271C3.93818 4.96271 3.12214 5.64871 2.92138 6.56251H0.4375C0.195891 6.56251 0 6.7584 0 7.00001C0 7.24164 0.195891 7.43751 0.4375 7.43751H2.9216C3.12277 8.35081 3.93991 9.03731 4.9114 9.03731C5.88342 9.03731 6.7002 8.35092 6.90126 7.43751H13.5625C13.8041 7.43751 14 7.24164 14 7.00001C14 6.7584 13.8041 6.56251 13.5625 6.56251ZM6.07368 6.99886C6.07368 7.00044 6.07365 7.002 6.07365 7.00356C6.07173 7.6425 5.55037 8.16228 4.9114 8.16228C4.27334 8.16228 3.75195 7.64321 3.74918 7.0046L3.7491 6.9982C3.75006 6.35808 4.27109 5.83771 4.9114 5.83771C5.55141 5.83771 6.07225 6.35762 6.0737 6.9973L6.07368 6.99886Z" fill="white"/>
</g>
<defs>
<clipPath id="clip0_188_8310">
<rect width="14" height="14" fill="white"/>
</clipPath>
</defs>
</svg>
