<svg width="20" height="18" viewBox="0 0 20 18" fill="none" xmlns="http://www.w3.org/2000/svg">
<g clip-path="url(#clip0_25_646)">
<path d="M9.99998 17.7936C9.71525 17.7936 9.44075 17.6904 9.22682 17.503C8.41887 16.7966 7.63991 16.1327 6.95265 15.547L6.94914 15.544C4.93422 13.8269 3.19427 12.3441 1.98364 10.8833C0.630339 9.25035 0 7.70204 0 6.01061C0 4.36724 0.563506 2.85113 1.58661 1.74136C2.62191 0.618468 4.0425 3.05176e-05 5.58715 3.05176e-05C6.74162 3.05176e-05 7.7989 0.36502 8.72954 1.08478C9.1992 1.44809 9.62492 1.89273 9.99998 2.41137C10.3752 1.89273 10.8008 1.44809 11.2706 1.08478C12.2012 0.36502 13.2585 3.05176e-05 14.413 3.05176e-05C15.9575 3.05176e-05 17.3782 0.618468 18.4135 1.74136C19.4366 2.85113 20 4.36724 20 6.01061C20 7.70204 19.3698 9.25035 18.0165 10.8832C16.8058 12.3441 15.066 13.8268 13.0514 15.5437C12.363 16.1302 11.5828 16.7952 10.773 17.5034C10.5592 17.6904 10.2846 17.7936 9.99998 17.7936ZM5.58715 1.1716C4.37362 1.1716 3.25881 1.65591 2.44781 2.53543C1.62475 3.42822 1.17141 4.66234 1.17141 6.01061C1.17141 7.43318 1.70013 8.70546 2.88558 10.1358C4.03136 11.5184 5.73561 12.9707 7.70888 14.6524L7.71254 14.6555C8.40239 15.2434 9.1844 15.9099 9.9983 16.6215C10.8171 15.9085 11.6003 15.2409 12.2915 14.6521C14.2647 12.9704 15.9687 11.5184 17.1145 10.1358C18.2998 8.70546 18.8285 7.43318 18.8285 6.01061C18.8285 4.66234 18.3752 3.42822 17.5522 2.53543C16.7413 1.65591 15.6263 1.1716 14.413 1.1716C13.524 1.1716 12.7078 1.45419 11.9871 2.01144C11.3449 2.50827 10.8975 3.13632 10.6352 3.57577C10.5003 3.80175 10.2629 3.93664 9.99998 3.93664C9.73707 3.93664 9.49965 3.80175 9.36476 3.57577C9.10261 3.13632 8.65523 2.50827 8.01283 2.01144C7.29216 1.45419 6.47597 1.1716 5.58715 1.1716Z" fill="white"/>
</g>
<defs>
<clipPath id="clip0_25_646">
<rect width="20" height="18" fill="white"/>
</clipPath>
</defs>
</svg>
