<svg width="20" height="18" viewBox="0 0 20 18" fill="none" xmlns="http://www.w3.org/2000/svg">
<path d="M11 6.5C11 9.53757 8.53757 12 5.5 12C2.46243 12 0 9.53757 0 6.5C0 3.46243 2.46243 1 5.5 1C8.53757 1 11 3.46243 11 6.5Z" fill="#E8BDD8"/>
<path d="M20 6.5C20 9.53757 17.5376 12 14.5 12C11.4624 12 9 9.53757 9 6.5C9 3.46243 11.4624 1 14.5 1C17.5376 1 20 3.46243 20 6.5Z" fill="#E8BDD8"/>
<path d="M10 18L1.80386 9H18.1962L10 18Z" fill="#E8BDD8"/>
<path d="M9.99998 17.7935C9.71525 17.7935 9.44075 17.6904 9.22682 17.503C8.41887 16.7965 7.63991 16.1326 6.95265 15.547L6.94914 15.5439C4.93423 13.8269 3.19427 12.344 1.98364 10.8833C0.630339 9.25032 0 7.70201 0 6.01058C0 4.36721 0.563506 2.8511 1.58661 1.74133C2.62191 0.618438 4.0425 0 5.58715 0C6.74162 0 7.7989 0.36499 8.72954 1.08475C9.1992 1.44806 9.62492 1.8927 9.99998 2.41134C10.3752 1.8927 10.8008 1.44806 11.2706 1.08475C12.2012 0.36499 13.2585 0 14.413 0C15.9575 0 17.3782 0.618438 18.4135 1.74133C19.4366 2.8511 20 4.36721 20 6.01058C20 7.70201 19.3698 9.25032 18.0165 10.8832C16.8058 12.344 15.066 13.8267 13.0514 15.5436C12.363 16.1302 11.5828 16.7952 10.773 17.5033C10.5592 17.6904 10.2846 17.7935 9.99998 17.7935ZM5.58715 1.17157C4.37362 1.17157 3.25881 1.65588 2.44781 2.5354C1.62475 3.42819 1.17141 4.66231 1.17141 6.01058C1.17141 7.43315 1.70013 8.70543 2.88558 10.1358C4.03136 11.5184 5.73561 12.9707 7.70888 14.6524L7.71254 14.6554C8.40239 15.2433 9.1844 15.9099 9.9983 16.6215C10.8171 15.9085 11.6003 15.2409 12.2915 14.6521C14.2647 12.9704 15.9687 11.5184 17.1145 10.1358C18.2998 8.70543 18.8285 7.43315 18.8285 6.01058C18.8285 4.66231 18.3752 3.42819 17.5522 2.5354C16.7413 1.65588 15.6263 1.17157 14.413 1.17157C13.524 1.17157 12.7078 1.45416 11.9871 2.01141C11.3449 2.50823 10.8975 3.13629 10.6352 3.57574C10.5003 3.80172 10.2629 3.93661 9.99998 3.93661C9.73707 3.93661 9.49965 3.80172 9.36476 3.57574C9.10261 3.13629 8.65523 2.50823 8.01283 2.01141C7.29216 1.45416 6.47597 1.17157 5.58715 1.17157Z" fill="#E8BDD8"/>
</svg>
