<svg width="177" height="46" viewBox="0 0 177 46" fill="none" xmlns="http://www.w3.org/2000/svg">
<g clip-path="url(#clip0_25_619)">
<path d="M44.6542 22.6611C44.6542 34.9681 34.9313 44.9428 22.9292 44.9428C10.9272 44.9428 1.2124 34.9681 1.2124 22.6611C1.2124 10.354 10.9353 0.379303 22.9373 0.379303C34.9394 0.379303 44.6542 10.354 44.6542 22.6611Z" fill="white"/>
<path d="M25.2727 12.4442C24.2705 12.1053 23.1956 11.9116 22.0883 11.8874C20.9972 11.8712 19.9384 12.0165 18.9443 12.299C14.6204 13.5418 11.4279 17.4881 11.3309 22.2091C11.2905 24.154 11.7835 25.986 12.6806 27.5677C13.5131 29.0526 14.7093 30.3197 16.1398 31.2477C17.7401 32.2888 19.6313 32.9021 21.668 32.9425C23.7128 32.9828 25.6283 32.4421 27.2609 31.4656C28.7804 30.5618 30.0654 29.2867 30.9626 27.7533C31.8597 26.2523 32.385 24.5011 32.4174 22.6207C32.5224 17.9239 29.5158 13.8807 25.2727 12.4442Z" fill="#E8BDD8"/>
<path d="M7.33862 32.1354C7.73464 30.3116 10.7655 29.0768 15.0894 31.6351C18.6375 33.7333 28.1503 35.9526 32.1994 27.7291C36.2324 19.5217 41.7526 21.6442 41.9304 25.5179C42.3345 34.3144 33.1127 45.08 20.5126 43.3853C17.902 43.0382 15.4693 41.9891 13.3922 40.4396C10.7251 38.4382 6.74053 34.9277 7.33862 32.1354Z" fill="#89CBC4"/>
<path d="M22.7672 31.7481C20.9083 31.7481 19.0494 31.3365 17.4249 30.4972C17.3118 30.4407 17.2552 30.3277 17.2552 30.2147C17.2552 30.1663 17.2633 30.1179 17.2875 30.0695C17.3683 29.9161 17.5623 29.8516 17.7159 29.9323C20.7952 31.514 24.7797 31.506 27.8509 29.9161C28.4733 29.5933 29.0633 29.206 29.5967 28.7621C29.5967 28.7621 29.5967 28.7621 29.6048 28.7621C31.6334 27.0754 32.8377 24.6463 32.8377 22.2414C32.8377 22.2172 32.8377 22.193 32.8377 22.1768C32.8053 19.0456 30.7929 16.0354 27.7055 14.5021C27.5842 14.4456 27.4711 14.3891 27.3499 14.3326H27.3418C26.6871 14.0421 26.089 13.8646 25.499 13.8C24.4079 13.6709 22.7915 13.6063 21.3286 14.0502C20.1971 14.3891 18.9848 14.946 17.8371 15.64C15.7923 16.8828 14.4668 19.4168 14.4668 22.0396C14.4668 22.1688 14.4668 22.2898 14.4749 22.4109C14.6204 25.3807 16.4955 28.1326 19.2596 29.4319C20.1971 29.8677 21.272 30.1421 22.3712 30.2067C24.6181 30.3439 26.8164 29.666 28.247 28.3909C28.3763 28.2698 28.5783 28.286 28.6996 28.4151C28.7562 28.4796 28.7804 28.5523 28.7804 28.6249C28.7804 28.7137 28.7481 28.8025 28.6753 28.8589C27.1235 30.247 24.7555 30.9895 22.3389 30.8361C21.1589 30.7635 19.9951 30.473 18.9929 29.9968C16.0186 28.6007 14.0062 25.6309 13.8445 22.427C13.8364 22.2898 13.8364 22.1607 13.8364 22.0235C13.8364 19.1828 15.2831 16.4309 17.5138 15.0751C18.71 14.3488 19.9627 13.7839 21.1508 13.4207C22.7188 12.9446 24.4241 13.0091 25.5799 13.1463C26.2345 13.227 26.8892 13.4126 27.6004 13.7274C27.6004 13.7274 27.6085 13.7274 27.6085 13.7354C27.7378 13.7919 27.8671 13.8484 27.9964 13.913C31.294 15.5512 33.4519 18.7874 33.4842 22.1526C33.4842 22.1768 33.4842 22.201 33.4842 22.2253C33.4842 24.8158 32.1911 27.4305 30.0251 29.2382C30.0251 29.2382 30.0251 29.2382 30.017 29.2463C29.4431 29.7224 28.8208 30.134 28.15 30.481C26.5174 31.3284 24.6423 31.7481 22.7672 31.7481Z" fill="black"/>
<path d="M38.6248 9.15157C34.7535 5.36666 29.4677 3.05052 24.0203 2.88912C22.711 2.8407 21.3855 2.91333 20.0843 3.10701C20.747 2.98596 21.4098 2.88912 22.0725 2.81649C24.3355 2.55824 26.6389 2.72771 28.8777 3.22806C33.3876 4.1642 37.5257 6.71438 40.6454 10.1926C41.0333 10.6849 41.6799 10.4751 41.3 9.86982C41.2677 9.8214 41.2354 9.78105 41.2031 9.73263H41.2111C41.195 9.71649 41.1788 9.70035 41.1626 9.67613C38.148 5.35052 33.3876 2.12245 28.0533 0.919992C22.6463 -0.298604 16.7787 0.581046 11.9294 3.31684C7.07196 6.04455 3.36224 10.5961 1.59224 15.753C-0.242422 20.9098 0.0323731 26.6154 1.98018 31.506C3.91183 36.4368 7.68621 40.4316 12.1557 42.7881C14.3944 43.9663 16.811 44.7491 19.268 45.1042C21.7331 45.4431 24.2143 45.3221 26.5905 44.8379C26.7844 44.7975 26.9784 44.7491 27.1643 44.7088C28.7646 44.4102 30.3406 43.9502 31.8439 43.3126C33.8806 42.4572 35.7395 41.2225 37.4125 39.7779C39.0774 38.3333 40.5403 36.6305 41.6557 34.7098C42.0113 34.1449 41.494 33.814 41.1142 34.2256C41.4051 33.6768 41.6799 33.1119 41.9143 32.5309C42.9488 30.0533 43.4661 27.3902 43.4337 24.7351C43.4499 24.0491 42.7387 24.0572 42.7063 24.7189C42.6659 25.2758 42.674 25.8326 42.6013 26.3895L42.3588 28.0439L41.9628 29.666C41.8335 30.2147 41.6072 30.7232 41.4374 31.2558C40.6535 33.346 39.522 35.3232 38.0914 37.0663C36.6609 38.8095 34.9394 40.3509 32.9754 41.5453C32.0621 42.1021 31.1003 42.5782 30.1062 42.9898C27.9483 43.813 25.6287 44.2568 23.2929 44.2891C21.8624 44.273 20.4399 44.1116 19.0417 43.8291L17.4899 43.4417L15.9866 42.9091C15.728 42.8284 15.4855 42.7235 15.2511 42.6025L14.5237 42.2635C14.2813 42.1505 14.0388 42.0456 13.7963 41.9165L13.1094 41.5049C11.2666 40.4316 9.56128 39.0919 8.15498 37.4698C6.73251 35.8639 5.54443 34.0481 4.6473 32.087C3.78251 30.1098 3.241 27.9954 3.00662 25.8407L2.88539 24.2186L2.9258 22.5884C2.90963 22.0396 3.02278 21.507 3.07936 20.9663L3.18443 20.1512C3.22484 19.8849 3.29758 19.6186 3.36224 19.3523C3.49963 18.8277 3.57237 18.2789 3.75826 17.7625L4.2836 16.2049C4.72004 15.2042 5.1484 14.1793 5.73032 13.2432C5.93237 12.8961 6.15059 12.5572 6.36881 12.2263C7.25785 10.9754 8.29237 9.8214 9.44004 8.79648C11.4202 7.03719 13.7479 5.66526 16.2291 4.78561C18.7184 3.89789 21.3613 3.51052 23.988 3.60736C29.2495 3.76877 34.3494 5.99613 38.0914 9.65999C41.8658 13.2996 44.2662 18.3193 44.7511 23.6698C44.84 24.3881 45.5674 24.4123 45.4785 23.6537C45.0098 18.1256 42.5285 12.9123 38.6248 9.15157ZM6.76484 37.7603C5.05141 35.9365 3.69361 33.7656 2.71566 31.4091C1.7458 29.0526 1.18813 26.5024 1.07498 23.9119C0.94566 21.3133 1.36593 18.6905 2.19032 16.1888C3.85525 11.1933 7.37909 6.71438 12.0668 4.05929C16.7221 1.37192 22.3958 0.411571 27.6331 1.56561C30.5426 2.17894 33.2987 3.42175 35.6748 5.13263C33.622 3.90596 31.3913 3.0021 29.0636 2.50982C26.7521 1.99333 24.3679 1.81578 22.024 2.0821C19.6963 2.33228 17.3848 2.85684 15.2592 3.82526C13.1336 4.77754 11.1696 6.03648 9.44004 7.56175C8.02566 8.81262 6.80525 10.2572 5.77881 11.8228C5.10799 12.7589 4.51799 13.7516 4.00881 14.7926C2.80456 17.2621 2.1095 19.9656 1.9721 22.6853C1.82662 25.5421 2.23881 28.4231 3.20867 31.0944C4.17045 33.7656 5.68182 36.227 7.5973 38.293C8.7773 39.5681 10.1109 40.6898 11.5657 41.634C9.81183 40.5849 8.1873 39.2856 6.76484 37.7603Z" fill="black"/>
<path d="M28.1099 24.0733C28.1099 24.4769 27.9563 24.6705 27.6411 24.6705C27.5118 24.6705 27.3825 24.6463 27.2451 24.5979C27.2451 25.2355 27.3986 25.9537 27.7138 26.7446C27.6977 26.906 27.6249 27.0432 27.4795 27.14C27.334 27.2369 27.1723 27.2933 27.0026 27.2933C26.849 27.2933 26.6793 27.2449 26.4934 27.1642C26.3964 26.9625 26.3399 26.6477 26.3399 26.22C26.3399 26.107 26.3479 25.8972 26.356 25.5986V24.9772C26.356 24.7512 26.3399 24.5979 26.2995 24.5253C26.1863 24.5091 26.0247 24.5172 25.8226 24.5414C25.6125 24.5656 25.467 24.5818 25.3781 24.5818C24.8366 24.5818 23.9879 24.6544 22.8322 24.8077C21.5148 24.9853 20.7551 25.1547 20.553 25.3323C20.4399 25.4211 20.3186 25.873 20.1974 26.6881C20.1004 27.3498 20.0438 27.8421 20.0277 28.1569C19.963 28.2456 19.8741 28.286 19.761 28.286C19.5993 28.286 19.4134 28.2053 19.2195 28.0439C19.0174 27.8825 18.9204 27.7211 18.9204 27.5758C18.9204 27.5032 18.9689 27.3337 19.074 27.0674C19.171 26.8011 19.2275 26.6397 19.2437 26.5751C19.4538 25.187 19.866 23.6456 20.4641 21.967C22.121 17.2702 23.3979 14.9137 24.3031 14.9137C25.273 14.9137 26.0166 16.1404 26.5419 18.6018C26.7278 19.4653 26.9541 21.1197 27.2047 23.5649C27.2774 23.6295 27.4714 23.694 27.7704 23.7747C27.9967 23.8232 28.1099 23.9281 28.1099 24.0733ZM26.2833 23.5326C25.9681 21.3295 25.766 19.9898 25.6771 19.5298C25.2649 17.4235 24.8204 16.3744 24.3597 16.3905C23.8425 16.4148 23.1959 17.3832 22.42 19.2877C21.9836 20.4902 21.5471 21.6926 21.1188 22.8951C21.046 23.0565 20.9652 23.3067 20.8763 23.6295C20.8278 23.9281 20.9167 24.0814 21.143 24.0814C21.2158 24.0814 21.6037 24.0169 22.2907 23.8958C22.8322 23.7828 24.1577 23.6698 26.2833 23.5326Z" fill="black"/>
<path d="M57.5128 31.5382H55.46L63.0006 14.2358H64.7141L72.2548 31.5382H70.2019L68.2945 26.9947H59.4202L57.5128 31.5382ZM60.083 25.3807H67.5913L63.8493 16.2937L60.083 25.3807Z" fill="black"/>
<path d="M76.9666 30.3681C76.9666 30.707 76.8454 31.0137 76.5948 31.28C76.3524 31.5463 76.0291 31.6835 75.6411 31.6835C75.2451 31.6835 74.9299 31.5463 74.6874 31.28C74.445 31.0137 74.3237 30.707 74.3237 30.3681C74.3237 30.0291 74.445 29.7225 74.6874 29.4481C74.9299 29.1737 75.2532 29.0446 75.6411 29.0446C76.0291 29.0446 76.3524 29.1817 76.5948 29.4481C76.8454 29.7225 76.9666 30.0291 76.9666 30.3681Z" fill="black"/>
<path d="M83.1574 29.9323H92.4277V31.5383H81.3955V14.2439H92.1367V15.8579H83.1574V21.7411H91.5467V23.3551H83.1574V29.9323Z" fill="black"/>
<path d="M96.1941 33.8382C96.671 34.4758 97.2852 34.9842 98.0449 35.3635C98.8047 35.7428 99.6452 35.9365 100.575 35.9365C101.391 35.9365 102.086 35.8154 102.652 35.5814C103.226 35.3474 103.686 35.0246 104.034 34.6211C104.381 34.2095 104.64 33.7333 104.794 33.1926C104.947 32.6439 105.028 32.0628 105.028 31.4414V29.3916H104.979C104.454 30.1744 103.824 30.7312 103.072 31.054C102.32 31.3768 101.528 31.5463 100.696 31.5463C99.8634 31.5463 99.0875 31.4011 98.3601 31.1105C97.6327 30.82 97.0023 30.4165 96.4608 29.9C95.9193 29.3835 95.499 28.7702 95.1919 28.0519C94.8848 27.3337 94.7231 26.5589 94.7231 25.7277C94.7231 24.8965 94.8686 24.1218 95.1596 23.4035C95.4505 22.6853 95.8547 22.0558 96.3719 21.5232C96.8892 20.9825 97.4953 20.5628 98.2066 20.2642C98.9178 19.9656 99.6937 19.8123 100.542 19.8123C100.882 19.8123 101.245 19.8446 101.633 19.9091C102.013 19.9737 102.401 20.0867 102.781 20.2481C103.161 20.4095 103.541 20.6354 103.921 20.9179C104.292 21.2004 104.648 21.5635 104.971 22.0074H105.02V20.1028H106.636V31.4414C106.636 32.0628 106.555 32.7165 106.402 33.4186C106.248 34.1207 105.941 34.7663 105.497 35.3474C105.052 35.9365 104.422 36.4207 103.622 36.8161C102.822 37.2035 101.779 37.4053 100.486 37.4053C99.3462 37.4053 98.3197 37.2197 97.4307 36.8404C96.5336 36.4611 95.7173 35.8881 94.9818 35.1053L96.1941 33.8382ZM96.4931 25.6793C96.4931 26.2846 96.6063 26.8495 96.8245 27.374C97.0427 27.9067 97.3499 28.3667 97.7297 28.7702C98.1177 29.1656 98.5622 29.4884 99.0714 29.7225C99.5886 29.9565 100.146 30.0775 100.752 30.0775C101.342 30.0775 101.9 29.9726 102.425 29.7628C102.951 29.553 103.428 29.2544 103.832 28.867C104.236 28.4877 104.551 28.0277 104.769 27.487C104.988 26.9463 105.093 26.3491 105.076 25.6793C105.076 25.074 104.979 24.5091 104.785 23.9846C104.591 23.4519 104.301 22.9919 103.929 22.5884C103.557 22.1849 103.096 21.8702 102.563 21.6361C102.021 21.4021 101.423 21.2811 100.752 21.2811C100.146 21.2811 99.5886 21.4021 99.0714 21.6361C98.5622 21.8702 98.1096 22.193 97.7297 22.5884C97.3499 22.9839 97.0427 23.4519 96.8245 23.9846C96.5982 24.5091 96.4931 25.074 96.4931 25.6793Z" fill="black"/>
<path d="M111.146 33.8382C111.623 34.4758 112.237 34.9842 112.997 35.3635C113.757 35.7428 114.597 35.9365 115.527 35.9365C116.343 35.9365 117.038 35.8154 117.604 35.5814C118.178 35.3474 118.638 35.0246 118.986 34.6211C119.334 34.2095 119.592 33.7333 119.746 33.1926C119.899 32.6439 119.98 32.0628 119.98 31.4414V29.3916H119.932C119.406 30.1744 118.776 30.7312 118.024 31.054C117.273 31.3768 116.48 31.5463 115.648 31.5463C114.816 31.5463 114.04 31.4011 113.312 31.1105C112.585 30.82 111.954 30.4165 111.413 29.9C110.871 29.3835 110.451 28.7702 110.144 28.0519C109.837 27.3337 109.675 26.5589 109.675 25.7277C109.675 24.8965 109.821 24.1218 110.112 23.4035C110.403 22.6853 110.807 22.0558 111.324 21.5232C111.841 20.9825 112.447 20.5628 113.159 20.2642C113.87 19.9656 114.646 19.8123 115.494 19.8123C115.834 19.8123 116.198 19.8446 116.586 19.9091C116.965 19.9737 117.353 20.0867 117.733 20.2481C118.113 20.4095 118.493 20.6354 118.873 20.9179C119.245 21.2004 119.6 21.5635 119.924 22.0074H119.972V20.1028H121.588V31.4414C121.588 32.0628 121.508 32.7165 121.354 33.4186C121.2 34.1207 120.893 34.7663 120.449 35.3474C120.004 35.9365 119.374 36.4207 118.574 36.8161C117.774 37.2035 116.731 37.4053 115.438 37.4053C114.298 37.4053 113.272 37.2197 112.383 36.8404C111.486 36.4611 110.669 35.8881 109.934 35.1053L111.146 33.8382ZM111.445 25.6793C111.445 26.2846 111.558 26.8495 111.777 27.374C111.995 27.9067 112.302 28.3667 112.682 28.7702C113.07 29.1656 113.514 29.4884 114.024 29.7225C114.541 29.9565 115.098 30.0775 115.705 30.0775C116.295 30.0775 116.852 29.9726 117.378 29.7628C117.903 29.553 118.38 29.2544 118.784 28.867C119.188 28.4877 119.503 28.0277 119.721 27.487C119.94 26.9463 120.045 26.3491 120.029 25.6793C120.029 25.074 119.932 24.5091 119.738 23.9846C119.544 23.4519 119.253 22.9919 118.881 22.5884C118.509 22.1849 118.048 21.8702 117.515 21.6361C116.974 21.4021 116.375 21.2811 115.705 21.2811C115.098 21.2811 114.541 21.4021 114.024 21.6361C113.514 21.8702 113.062 22.193 112.682 22.5884C112.302 22.9839 111.995 23.4519 111.777 23.9846C111.55 24.5091 111.445 25.074 111.445 25.6793Z" fill="black"/>
<path d="M125.807 14.2439H130.972C131.691 14.2439 132.386 14.3165 133.049 14.4618C133.72 14.607 134.31 14.8491 134.835 15.1961C135.36 15.5351 135.772 15.987 136.08 16.5439C136.387 17.1007 136.54 17.7786 136.54 18.5937C136.54 19.5379 136.274 20.353 135.748 21.0228C135.215 21.7007 134.463 22.1526 133.485 22.3786V22.427C134.706 22.5239 135.667 22.9516 136.362 23.7102C137.058 24.4688 137.405 25.4775 137.405 26.7526C137.405 27.027 137.332 27.4386 137.195 27.9712C137.058 28.5119 136.767 29.0446 136.33 29.5691C135.894 30.1018 135.255 30.5618 134.423 30.9491C133.59 31.3365 132.483 31.5383 131.093 31.5383H125.807V14.2439ZM127.569 21.8137H131.117C131.537 21.8137 131.958 21.7572 132.378 21.6523C132.79 21.5474 133.17 21.3698 133.501 21.1277C133.833 20.8856 134.108 20.5709 134.318 20.1835C134.528 19.8042 134.633 19.3361 134.633 18.7793C134.633 18.6018 134.592 18.3516 134.52 18.0207C134.447 17.6979 134.285 17.367 134.035 17.0442C133.784 16.7214 133.412 16.439 132.919 16.2049C132.426 15.9709 131.772 15.8498 130.939 15.8498H127.561V21.8137H127.569ZM127.569 29.9323H130.947C131.586 29.9323 132.176 29.8677 132.734 29.7386C133.283 29.6095 133.768 29.4077 134.18 29.1414C134.584 28.8751 134.908 28.5361 135.15 28.1246C135.385 27.7211 135.506 27.2288 135.506 26.6558C135.506 25.5179 135.134 24.6705 134.407 24.1137C133.671 23.5568 132.596 23.2825 131.174 23.2825H127.577V29.9323H127.569Z" fill="black"/>
<path d="M147.976 24.5253V24.2347C147.976 22.2656 146.999 21.281 145.043 21.281C143.709 21.281 142.537 21.733 141.543 22.6288L140.565 21.4828C141.64 20.3772 143.256 19.8203 145.414 19.8203C145.972 19.8203 146.506 19.901 147.015 20.0625C147.532 20.2239 147.976 20.474 148.348 20.8049C148.72 21.1358 149.027 21.5554 149.253 22.0639C149.48 22.5723 149.593 23.1695 149.593 23.8716V28.98C149.593 29.4158 149.609 29.8839 149.658 30.36C149.698 30.8442 149.746 31.2396 149.795 31.5463H148.227C148.179 31.2719 148.138 30.9653 148.114 30.6425C148.09 30.3196 148.073 29.9968 148.073 29.6902H148.025C147.548 30.4568 146.99 31.0056 146.352 31.3365C145.705 31.6674 144.921 31.8368 143.992 31.8368C143.483 31.8368 142.998 31.7642 142.521 31.627C142.044 31.4898 141.624 31.28 141.26 30.9895C140.896 30.707 140.597 30.3519 140.379 29.9403C140.161 29.5288 140.048 29.0365 140.048 28.4877C140.048 27.5596 140.29 26.8333 140.767 26.3007C141.252 25.7681 141.85 25.3726 142.578 25.1144C143.305 24.8561 144.081 24.6867 144.905 24.6221C145.73 24.5575 146.481 24.5253 147.168 24.5253H147.976ZM147.144 25.8488C146.74 25.8488 146.223 25.873 145.616 25.9133C145.002 25.9537 144.42 26.0505 143.855 26.2039C143.289 26.3572 142.812 26.5993 142.408 26.9221C142.004 27.2449 141.81 27.6968 141.81 28.2698C141.81 28.6491 141.891 28.9639 142.044 29.2382C142.198 29.5046 142.408 29.7305 142.666 29.9C142.925 30.0695 143.216 30.1905 143.531 30.2632C143.846 30.3358 144.17 30.3761 144.501 30.3761C145.091 30.3761 145.6 30.2793 146.029 30.0856C146.457 29.8919 146.821 29.6256 147.12 29.2947C147.411 28.9639 147.629 28.5684 147.766 28.1246C147.904 27.6726 147.976 27.1965 147.976 26.6961V25.8649H147.144V25.8488Z" fill="black"/>
<path d="M154.879 20.1028C154.911 20.4095 154.928 20.7161 154.936 21.0228C154.944 21.3214 154.952 21.6281 154.952 21.9428H155C155.178 21.6361 155.404 21.3456 155.687 21.0874C155.962 20.8291 156.277 20.6032 156.617 20.4175C156.956 20.2319 157.32 20.0867 157.708 19.9737C158.088 19.8688 158.468 19.8123 158.847 19.8123C160.318 19.8123 161.401 20.1997 162.105 20.9744C162.808 21.7491 163.155 22.8547 163.155 24.2832V31.5382H161.539V25.2112C161.539 23.9442 161.321 22.9677 160.876 22.2898C160.432 21.6119 159.615 21.273 158.427 21.273C158.346 21.273 158.12 21.3053 157.74 21.3698C157.368 21.4344 156.972 21.6119 156.552 21.9105C156.14 22.2011 155.768 22.6449 155.437 23.226C155.113 23.8151 154.944 24.6302 154.944 25.6712V31.5382H153.327V22.6207C153.327 22.314 153.319 21.9186 153.295 21.4505C153.271 20.9744 153.238 20.5305 153.206 20.1028H154.879Z" fill="black"/>
<path d="M168.554 25.2597L173.961 20.1028H176.386L170.688 25.3323L177 31.5382H174.503L168.554 25.534V31.5382H166.946V13.0656H168.554V25.2597Z" fill="black"/>
</g>
<defs>
<clipPath id="clip0_25_619">
<rect width="177" height="46" fill="white"/>
</clipPath>
</defs>
</svg>
