<svg width="20" height="20" viewBox="0 0 20 20" fill="none" xmlns="http://www.w3.org/2000/svg">
<g clip-path="url(#clip0_153_12434)">
<path d="M18.5625 13.0156C18.0781 12.7812 17.4922 12.9883 17.2578 13.4727C16.6094 14.8203 15.6016 15.9609 14.3398 16.7734C13.0469 17.6055 11.5469 18.0469 10 18.0469C5.5625 18.0469 1.95312 14.4375 1.95312 10C1.95312 5.5625 5.5625 1.95312 10 1.95312C11.5469 1.95312 13.0469 2.39453 14.3438 3.22266C15.6055 4.03125 16.6133 5.17578 17.2617 6.52344C17.4961 7.00781 18.0781 7.21484 18.5664 6.98047C19.0508 6.74609 19.2578 6.16406 19.0234 5.67578C18.2188 4 16.9688 2.58203 15.3984 1.57812C13.7891 0.546875 11.9219 0 10 0C7.32812 0 4.81641 1.03906 2.92969 2.92969C1.03906 4.81641 0 7.32812 0 10C0 12.6719 1.03906 15.1836 2.92969 17.0703C4.82031 18.9609 7.32812 20 10 20C11.9219 20 13.7891 19.4531 15.3984 18.418C16.9648 17.4102 18.2188 15.9922 19.0234 14.3203C19.2539 13.832 19.0508 13.25 18.5625 13.0156Z" fill="black"/>
<path d="M10.5195 13.8008C10.7109 13.9922 10.9609 14.0859 11.2109 14.0859C11.4609 14.0859 11.7109 13.9922 11.9023 13.8008L14.3594 11.3438C14.7188 10.9844 14.9141 10.5078 14.9141 10.0039C14.9141 9.5 14.7148 9.01953 14.3594 8.66406L11.9023 6.20703C11.5195 5.82422 10.9023 5.82422 10.5195 6.20703C10.1367 6.58984 10.1367 7.20703 10.5195 7.58984L11.9609 9.03125H6.41016C5.87109 9.03125 5.43359 9.46875 5.43359 10.0078C5.43359 10.5469 5.87109 10.9844 6.41016 10.9844H11.9648L10.5234 12.4258C10.1406 12.8008 10.1406 13.418 10.5195 13.8008Z" fill="black"/>
</g>
<defs>
<clipPath id="clip0_153_12434">
<rect width="20" height="20" fill="white"/>
</clipPath>
</defs>
</svg>
