<svg width="20" height="20" viewBox="0 0 20 20" fill="none" xmlns="http://www.w3.org/2000/svg">
<path d="M19.8239 3.97339L13.7583 9.99991L19.8239 16.0264C19.9335 15.7973 20.0001 15.5439 20.0001 15.2733V4.72647C20.0001 4.45589 19.9335 4.20257 19.8239 3.97339Z" fill="#89CBC4"/>
<path d="M18.2423 2.96875H1.75797C1.48738 2.96875 1.23406 3.03527 1.00488 3.14492L8.75735 10.8583C9.44281 11.5438 10.5575 11.5438 11.243 10.8583L18.9954 3.14492C18.7663 3.03527 18.5129 2.96875 18.2423 2.96875Z" fill="#89CBC4"/>
<path d="M0.176172 3.97339C0.0665234 4.20257 0 4.45589 0 4.72647V15.2733C0 15.5439 0.0665234 15.7973 0.176172 16.0264L6.24176 9.99991L0.176172 3.97339Z" fill="#89CBC4"/>
<path d="M12.9298 10.8286L12.0715 11.6869C10.9294 12.8291 9.0709 12.8291 7.92875 11.6869L7.07047 10.8286L1.00488 16.8551C1.23406 16.9648 1.48738 17.0313 1.75797 17.0313H18.2423C18.5129 17.0313 18.7663 16.9648 18.9954 16.8551L12.9298 10.8286Z" fill="#89CBC4"/>
</svg>
