<svg width="22" height="12" viewBox="0 0 22 12" fill="none" xmlns="http://www.w3.org/2000/svg">
<path d="M20.75 6.75H1.25C1.05109 6.75 0.860322 6.67098 0.71967 6.53033C0.579018 6.38968 0.5 6.19891 0.5 6C0.5 5.80109 0.579018 5.61032 0.71967 5.46967C0.860322 5.32902 1.05109 5.25 1.25 5.25H20.75C20.9489 5.25 21.1397 5.32902 21.2803 5.46967C21.421 5.61032 21.5 5.80109 21.5 6C21.5 6.19891 21.421 6.38968 21.2803 6.53033C21.1397 6.67098 20.9489 6.75 20.75 6.75ZM21.5 11.25C21.5 11.0511 21.421 10.8603 21.2803 10.7197C21.1397 10.579 20.9489 10.5 20.75 10.5H1.25C1.05109 10.5 0.860322 10.579 0.71967 10.7197C0.579018 10.8603 0.5 11.0511 0.5 11.25C0.5 11.4489 0.579018 11.6397 0.71967 11.7803C0.860322 11.921 1.05109 12 1.25 12H20.75C20.9489 12 21.1397 11.921 21.2803 11.7803C21.421 11.6397 21.5 11.4489 21.5 11.25ZM21.5 0.75C21.5 0.551088 21.421 0.360322 21.2803 0.21967C21.1397 0.0790178 20.9489 0 20.75 0H1.25C1.05109 0 0.860322 0.0790178 0.71967 0.21967C0.579018 0.360322 0.5 0.551088 0.5 0.75C0.5 0.948912 0.579018 1.13968 0.71967 1.28033C0.860322 1.42098 1.05109 1.5 1.25 1.5H20.75C20.9489 1.5 21.1397 1.42098 21.2803 1.28033C21.421 1.13968 21.5 0.948912 21.5 0.75Z" fill="black"/>
</svg>
