<svg width="80" height="80" viewBox="0 0 80 80" fill="none" xmlns="http://www.w3.org/2000/svg">
<path d="M74.0622 56.4753C74.7095 56.4753 75.2341 55.9508 75.2341 55.3034V52.5103C75.2341 48.2708 71.785 44.8217 67.5455 44.8217H62.3766V8.64062C62.3766 6.62281 60.735 4.98125 58.7172 4.98125H57.2313V3.65937C57.2313 1.64156 55.5897 0 53.5719 0H19.0795C18.823 0.021875 18.5672 0.0425 18.2502 0.344062L5.10984 13.4625C4.77437 13.7975 4.67359 14.3017 4.85484 14.7398C5.03609 15.178 5.46359 15.4638 5.93781 15.4638H16.5925C18.61 15.4638 20.2514 13.8223 20.2514 11.8048V2.34375H53.5719C54.2973 2.34375 54.8875 2.93391 54.8875 3.65937V44.8217H47.7444C43.5048 44.8217 40.0558 48.2708 40.0558 52.5103V63.5672H8.425C7.69953 63.5672 7.10938 62.977 7.10938 62.2516V19.7675C7.10938 19.1202 6.58484 18.5956 5.9375 18.5956C5.29016 18.5956 4.76562 19.1202 4.76562 19.7675V62.2516C4.76562 64.2694 6.40719 65.9109 8.425 65.9109H9.9125V67.2328C9.9125 69.2506 11.5534 70.8922 13.5703 70.8922H40.0559V72.3114C40.0559 76.5509 43.505 80 47.7445 80H67.5456C71.7852 80 75.2342 76.5509 75.2342 72.3114V60.7739C75.2342 60.1266 74.7097 59.602 74.0623 59.602C73.415 59.602 72.8905 60.1266 72.8905 60.7739V72.3114C72.8905 75.2584 70.4927 77.6562 67.5456 77.6562H47.7444C44.7973 77.6562 42.3995 75.2584 42.3995 72.3114V52.5103C42.3995 49.5633 44.7973 47.1655 47.7444 47.1655H67.5455C70.4925 47.1655 72.8903 49.5633 72.8903 52.5103V55.3034C72.8903 55.9508 73.4148 56.4753 74.0622 56.4753ZM17.9077 11.8048C17.9077 12.5302 17.3178 13.12 16.5925 13.12H8.77031L17.9077 3.99766V11.8048ZM13.5703 68.5484C12.8456 68.5484 12.2563 67.9583 12.2563 67.2328V65.9109H40.0559V68.5484H13.5703ZM57.2313 7.325H58.7172C59.4427 7.325 60.0328 7.91516 60.0328 8.64062V44.8219H57.2313V7.325Z" fill="white"/>
<path d="M62.6622 55.3063L55.4969 62.4718L53.1906 60.1655C52.1323 59.1075 50.4105 59.1075 49.3522 60.1655L47.3053 62.2124C46.2472 63.2707 46.2472 64.9925 47.3053 66.0508L52.5494 71.2946C53.2963 72.0416 54.2895 72.453 55.3458 72.453C56.402 72.453 57.3953 72.0416 58.1422 71.2947L68.3964 61.0405C69.4545 59.9822 69.4545 58.2604 68.3964 57.2021L66.5006 55.3063C65.4423 54.2482 63.7206 54.2482 62.6622 55.3063ZM66.7391 59.3832L56.4848 69.6375C56.1806 69.9418 55.7761 70.1094 55.3458 70.1094C54.9155 70.1094 54.5109 69.9419 54.2067 69.6374L48.9627 64.3935C48.8683 64.2991 48.8542 64.1889 48.8542 64.1316C48.8542 64.0743 48.8683 63.9641 48.9627 63.8697L51.0095 61.8229C51.1039 61.7285 51.2141 61.7144 51.2714 61.7144C51.3287 61.7144 51.4389 61.7285 51.5334 61.8229L54.6683 64.9575C55.1258 65.415 55.8678 65.415 56.3255 64.9575L64.3195 56.9635C64.4139 56.8691 64.5241 56.855 64.5814 56.855C64.6388 56.855 64.7489 56.8691 64.8433 56.9635L66.7391 58.8593C66.8836 59.0038 66.8836 59.2388 66.7391 59.3832Z" fill="white"/>
<path d="M46.0081 30.7801C47.7706 30.7801 49.2045 29.3462 49.2045 27.5837V9.75631C49.2045 7.99396 47.7706 6.56006 46.0081 6.56006H28.1808C26.4183 6.56006 24.9844 7.99396 24.9844 9.75631V27.5837C24.9844 29.3462 26.4183 30.7801 28.1808 30.7801H46.0081ZM32.7222 28.4363V25.511C32.7222 23.7651 34.1427 22.3446 35.8886 22.3446H38.3134C40.0594 22.3446 41.4797 23.7651 41.4797 25.511V28.4363H32.7222ZM38.7309 18.3708C38.7309 19.2697 37.9997 20.001 37.1008 20.001C36.2019 20.001 35.4706 19.2697 35.4706 18.3708V17.0938C35.4706 16.1949 36.2019 15.4637 37.1008 15.4637C37.9997 15.4637 38.7309 16.1949 38.7309 17.0938V18.3708ZM27.3281 27.5837V9.75631C27.3281 9.28615 27.7106 8.90381 28.1808 8.90381H46.0081C46.4783 8.90381 46.8608 9.28615 46.8608 9.75631V27.5837C46.8608 28.0538 46.4783 28.4363 46.0081 28.4363H43.8233V25.511C43.8233 23.2441 42.447 21.2933 40.4867 20.4485C40.8594 19.8435 41.0748 19.1319 41.0748 18.3708V17.0938C41.0748 14.9027 39.2922 13.1199 37.1009 13.1199C34.9097 13.1199 33.127 14.9026 33.127 17.0938V18.3708C33.127 19.1319 33.3425 19.8435 33.7152 20.4485C31.7547 21.2933 30.3784 23.2443 30.3784 25.511V28.4363H28.1809C27.7108 28.4363 27.3281 28.0538 27.3281 27.5837Z" fill="white"/>
<path d="M12.9375 38.718C12.9375 39.3654 13.462 39.8899 14.1094 39.8899H47.682C48.3294 39.8899 48.8539 39.3654 48.8539 38.718C48.8539 38.0707 48.3294 37.5461 47.682 37.5461H14.1094C13.462 37.5461 12.9375 38.0707 12.9375 38.718Z" fill="white"/>
<path d="M32.7094 43.4724H14.1094C13.462 43.4724 12.9375 43.9969 12.9375 44.6443C12.9375 45.2916 13.462 45.8162 14.1094 45.8162H32.7094C33.3567 45.8162 33.8812 45.2916 33.8812 44.6443C33.8812 43.9969 33.3566 43.4724 32.7094 43.4724Z" fill="white"/>
<path d="M32.7094 49.3987H28.8745C28.2272 49.3987 27.7026 49.9232 27.7026 50.5706C27.7026 51.2179 28.2272 51.7424 28.8745 51.7424H32.7094C33.3567 51.7424 33.8812 51.2179 33.8812 50.5706C33.8812 49.9232 33.3565 49.3987 32.7094 49.3987Z" fill="white"/>
<path d="M14.1094 51.7424H23.4094C24.0567 51.7424 24.5813 51.2179 24.5813 50.5706C24.5813 49.9232 24.0567 49.3987 23.4094 49.3987H14.1094C13.462 49.3987 12.9375 49.9232 12.9375 50.5706C12.9375 51.2179 13.462 51.7424 14.1094 51.7424Z" fill="white"/>
<path d="M14.1094 57.6687H32.7094C33.3567 57.6687 33.8812 57.1442 33.8812 56.4968C33.8812 55.8495 33.3567 55.325 32.7094 55.325H14.1094C13.462 55.325 12.9375 55.8495 12.9375 56.4968C12.9375 57.1442 13.462 57.6687 14.1094 57.6687Z" fill="white"/>
<path d="M17.132 24.9286L13.2809 28.7795C12.8231 29.2371 12.8231 29.9792 13.2807 30.4367C13.5096 30.6656 13.8095 30.78 14.1095 30.78C14.4093 30.78 14.7093 30.6656 14.9381 30.4368L18.7892 26.5859C19.247 26.1282 19.247 25.3862 18.7893 24.9287C18.3317 24.4712 17.5896 24.4709 17.132 24.9286Z" fill="white"/>
</svg>
