<svg width="80" height="80" viewBox="0 0 80 80" fill="none" xmlns="http://www.w3.org/2000/svg">
<path d="M75.7812 9.21753H4.21875C3.10006 9.21885 2.02758 9.66392 1.23666 10.4551C0.445745 11.2462 0.000992433 12.3188 0 13.4375L0 66.8925C0.00115797 67.9242 0.4115 68.9133 1.141 69.6428C1.8705 70.3723 2.85958 70.7826 3.89125 70.7838H76.1087C77.1406 70.7826 78.1299 70.3721 78.8594 69.6423C79.589 68.9126 79.9992 67.9232 80 66.8913V13.4375C79.999 12.3188 79.5543 11.2462 78.7633 10.4551C77.9724 9.66392 76.8999 9.21885 75.7812 9.21753ZM2.1875 13.4375C2.18816 12.899 2.40238 12.3827 2.78317 12.0019C3.16396 11.6212 3.68023 11.4069 4.21875 11.4063H75.7812C76.3198 11.4069 76.836 11.6212 77.2168 12.0019C77.5976 12.3827 77.8118 12.899 77.8125 13.4375V21.0144H2.1875V13.4375ZM77.8125 66.8925C77.812 67.3442 77.6323 67.7773 77.3129 68.0967C76.9935 68.4161 76.5605 68.5958 76.1087 68.5963H3.89125C3.43932 68.5958 3.00607 68.4159 2.68662 68.0963C2.36718 67.7766 2.18767 67.3432 2.1875 66.8913V23.2038H77.8125V66.8925Z" fill="white"/>
<path d="M73.9061 15.1162H31.0542C30.7641 15.1162 30.4859 15.2314 30.2808 15.4366C30.0757 15.6417 29.9604 15.9199 29.9604 16.21C29.9604 16.5 30.0757 16.7782 30.2808 16.9834C30.4859 17.1885 30.7641 17.3037 31.0542 17.3037H73.9061C74.1962 17.3037 74.4743 17.1885 74.6795 16.9834C74.8846 16.7782 74.9998 16.5 74.9998 16.21C74.9998 15.9199 74.8846 15.6417 74.6795 15.4366C74.4743 15.2314 74.1962 15.1162 73.9061 15.1162Z" fill="white"/>
<path d="M8.98562 15.1162H6.09375C5.80367 15.1162 5.52547 15.2314 5.32035 15.4366C5.11523 15.6417 5 15.9199 5 16.21C5 16.5 5.11523 16.7782 5.32035 16.9834C5.52547 17.1885 5.80367 17.3037 6.09375 17.3037H8.98562C9.27571 17.3037 9.55391 17.1885 9.75902 16.9834C9.96414 16.7782 10.0794 16.5 10.0794 16.21C10.0794 15.9199 9.96414 15.6417 9.75902 15.4366C9.55391 15.2314 9.27571 15.1162 8.98562 15.1162Z" fill="white"/>
<path d="M17.3061 15.1162H14.4136C14.1235 15.1162 13.8453 15.2314 13.6402 15.4366C13.4351 15.6417 13.3198 15.9199 13.3198 16.21C13.3198 16.5 13.4351 16.7782 13.6402 16.9834C13.8453 17.1885 14.1235 17.3037 14.4136 17.3037H17.3061C17.5962 17.3037 17.8744 17.1885 18.0795 16.9834C18.2846 16.7782 18.3998 16.5 18.3998 16.21C18.3998 15.9199 18.2846 15.6417 18.0795 15.4366C17.8744 15.2314 17.5962 15.1162 17.3061 15.1162Z" fill="white"/>
<path d="M25.625 15.1162H22.7344C22.4443 15.1162 22.1661 15.2314 21.961 15.4366C21.7559 15.6417 21.6406 15.9199 21.6406 16.21C21.6406 16.5 21.7559 16.7782 21.961 16.9834C22.1661 17.1885 22.4443 17.3037 22.7344 17.3037H25.625C25.9151 17.3037 26.1933 17.1885 26.3984 16.9834C26.6035 16.7782 26.7188 16.5 26.7188 16.21C26.7188 15.9199 26.6035 15.6417 26.3984 15.4366C26.1933 15.2314 25.9151 15.1162 25.625 15.1162Z" fill="white"/>
<path d="M31.6575 47.6612C33.8744 49.8633 36.8752 51.0948 40 51.0849C43.148 51.0502 46.1572 49.7842 48.3834 47.5582C50.6096 45.3321 51.8757 42.3229 51.9106 39.1749C51.9135 37.2105 51.4305 35.2759 50.5047 33.5434C49.5788 31.8109 48.2388 30.3343 46.604 29.2451C44.9692 28.1559 43.0905 27.488 41.135 27.3008C39.1796 27.1136 37.2082 27.413 35.3964 28.1722C33.5847 28.9314 31.9889 30.127 30.7512 31.6524C29.5134 33.1778 28.6722 34.9856 28.3023 36.9149C27.9325 38.8441 28.0456 40.8349 28.6315 42.7099C29.2175 44.5849 30.2581 46.2858 31.6606 47.6612H31.6575ZM38.4812 41.2537C38.0416 40.9331 37.7147 40.4817 37.5473 39.9641C37.3798 39.4464 37.3805 38.889 37.549 38.3718C37.7176 37.8545 38.0455 37.4038 38.4858 37.0842C38.9261 36.7646 39.4562 36.5925 40.0003 36.5925C40.5443 36.5925 41.0745 36.7646 41.5147 37.0842C41.955 37.4038 42.2829 37.8545 42.4515 38.3718C42.6201 38.889 42.6207 39.4464 42.4533 39.9641C42.2858 40.4817 41.9589 40.9331 41.5193 41.2537C41.3335 41.39 41.1955 41.5816 41.125 41.801C41.0545 42.0205 41.0551 42.2565 41.1268 42.4756C41.1984 42.6947 41.3375 42.8855 41.524 43.0208C41.7106 43.1562 41.9351 43.2292 42.1656 43.2293H42.4056C43.2451 43.2257 44.0631 43.4941 44.7372 43.9946C45.4112 44.495 45.9049 45.2003 46.1443 46.0049L46.3112 46.5568C44.5551 48.0676 42.3153 48.8984 39.9987 48.8984C37.6821 48.8984 35.4424 48.0676 33.6862 46.5568L33.8531 46.0049C34.0926 45.2003 34.5865 44.4949 35.2606 43.9945C35.9348 43.4941 36.7529 43.2256 37.5925 43.2293H37.8318C38.0624 43.2293 38.287 43.1564 38.4737 43.0211C38.6603 42.8858 38.7994 42.695 38.8712 42.4759C38.9429 42.2568 38.9436 42.0207 38.8731 41.8012C38.8026 41.5817 38.6646 41.39 38.4787 41.2537H38.4812ZM40 29.4518C41.7743 29.4496 43.5154 29.9336 45.0341 30.8511C46.5528 31.7687 47.7911 33.0848 48.6145 34.6565C49.438 36.2282 49.8152 37.9954 49.7051 39.7664C49.5949 41.5373 49.0018 43.2442 47.99 44.7018C47.6467 43.9024 47.1348 43.1866 46.4893 42.6034C45.8438 42.0201 45.0799 41.5832 44.25 41.3224C44.6186 40.5959 44.7947 39.787 44.7617 38.973C44.7286 38.159 44.4874 37.367 44.0611 36.6728C43.6349 35.9785 43.0377 35.4051 42.3267 35.0073C41.6157 34.6096 40.8147 34.4007 40 34.4007C39.1853 34.4007 38.3842 34.6096 37.6732 35.0073C36.9622 35.4051 36.3651 35.9785 35.9388 36.6728C35.5125 37.367 35.2713 38.159 35.2383 38.973C35.2052 39.787 35.3814 40.5959 35.75 41.3224C34.9199 41.583 34.156 42.0198 33.5104 42.603C32.8648 43.1861 32.3528 43.9019 32.0093 44.7012C30.9977 43.2436 30.4046 41.5366 30.2947 39.7657C30.1847 37.9948 30.5619 36.2277 31.3854 34.656C32.2089 33.0844 33.4473 31.7684 34.966 30.851C36.4847 29.9335 38.2257 29.4496 40 29.4518Z" fill="white"/>
<path d="M25.2344 64.5325H54.7656C55.7184 64.5315 56.632 64.1526 57.3057 63.4788C57.9794 62.8051 58.3584 61.8916 58.3594 60.9387V58.3594C58.3584 57.4066 57.9794 56.4931 57.3057 55.8193C56.632 55.1456 55.7184 54.7666 54.7656 54.7656H25.2344C24.2816 54.7668 23.3682 55.1458 22.6945 55.8195C22.0208 56.4932 21.6418 57.4066 21.6406 58.3594V60.9375C21.6415 61.8905 22.0203 62.8042 22.694 63.4782C23.3678 64.1522 24.2814 64.5313 25.2344 64.5325ZM54.7656 56.9531C55.1384 56.9536 55.4958 57.1019 55.7594 57.3656C56.0231 57.6292 56.1714 57.9866 56.1719 58.3594V60.9375C56.1714 61.3103 56.0231 61.6677 55.7594 61.9313C55.4958 62.1949 55.1384 62.3433 54.7656 62.3438H49.5312V56.9531H54.7656ZM23.8281 58.3594C23.8286 57.9866 23.9769 57.6292 24.2406 57.3656C24.5042 57.1019 24.8616 56.9536 25.2344 56.9531H47.3438V62.345H25.2344C24.8616 62.3445 24.5042 62.1962 24.2406 61.9326C23.9769 61.669 23.8286 61.3116 23.8281 60.9387V58.3594Z" fill="white"/>
</svg>
