<svg width="80" height="80" viewBox="0 0 80 80" fill="none" xmlns="http://www.w3.org/2000/svg">
<g clip-path="url(#clip0_30_927)">
<path d="M42.899 14.5297C42.2557 14.4573 41.6757 14.92 41.6033 15.5629C41.531 16.2061 41.9937 16.7862 42.6368 16.8586C54.4104 18.1845 63.2888 28.133 63.2888 39.9997C63.2888 52.8412 52.8415 63.2884 40.0001 63.2884C27.1586 63.2884 16.7114 52.8412 16.7114 39.9997C16.7114 28.1484 25.5769 18.2013 37.3334 16.862C37.9763 16.7887 38.4384 16.2081 38.3651 15.565C38.2918 14.9219 37.7118 14.4592 37.0681 14.5333C24.1268 16.0078 14.3677 26.9558 14.3677 39.9997C14.3677 54.1335 25.8663 65.6321 40.0001 65.6321C54.1338 65.6321 65.6325 54.1335 65.6325 39.9997C65.6325 26.9389 55.8591 15.9892 42.899 14.5297Z" fill="white"/>
<path d="M68.8068 50.4517C68.2398 48.6395 68.7762 46.6378 70.1732 45.3519C71.6654 43.9786 72.5213 42.0279 72.5213 39.9999C72.5213 37.972 71.6654 36.0212 70.1734 34.6479C68.7762 33.3622 68.2398 31.3603 68.8068 29.5481C69.4124 27.6127 69.1782 25.4954 68.1643 23.7391C67.1504 21.9829 65.4337 20.7214 63.4548 20.2782C61.6021 19.8632 60.1366 18.3978 59.7216 16.545C59.2785 14.5661 58.0169 12.8496 56.2607 11.8355C54.5045 10.8215 52.3871 10.5872 50.4517 11.193C48.6395 11.76 46.6378 11.2236 45.3519 9.82662C43.9786 8.33444 42.0279 7.47852 39.9999 7.47852C37.972 7.47852 36.0212 8.33444 34.6479 9.82646C33.3622 11.2236 31.3606 11.76 29.5481 11.193C27.6127 10.5874 25.4954 10.8215 23.7391 11.8355C21.9829 12.8494 20.7214 14.5661 20.2782 16.545C19.8632 18.3978 18.3978 19.8632 16.545 20.2782C14.5661 20.7214 12.8496 21.9829 11.8355 23.7391C10.8215 25.4954 10.5874 27.6127 11.193 29.5481C11.76 31.3603 11.2236 33.362 9.82662 34.6479C8.33444 36.0212 7.47852 37.972 7.47852 39.9999C7.47852 42.0279 8.33444 43.9786 9.82646 45.3519C11.2236 46.6377 11.76 48.6395 11.193 50.4517C10.5874 52.3871 10.8216 54.5045 11.8355 56.2607C12.8494 58.0169 14.5661 59.2785 16.545 59.7216C18.3978 60.1366 19.8632 61.6021 20.2782 63.4548C20.7214 65.4337 21.9829 67.1503 23.7391 68.1643C25.4955 69.1782 27.6127 69.4126 29.5481 68.8068C31.3608 68.24 33.3622 68.7762 34.6479 70.1732C36.0212 71.6654 37.972 72.5213 39.9999 72.5213C42.0279 72.5213 43.9786 71.6654 45.3519 70.1734C46.6378 68.7762 48.6397 68.2398 50.4517 68.8068C52.3868 69.4123 54.5045 69.1782 56.2607 68.1643C58.0169 67.1504 59.2785 65.4337 59.7216 63.4548C60.1366 61.6021 61.6021 60.1366 63.4548 59.7216C65.4337 59.2785 67.1503 58.0169 68.1643 56.2607C69.1784 54.5045 69.4124 52.3871 68.8068 50.4517ZM66.5701 51.1517C66.9867 52.4828 66.832 53.881 66.1347 55.0888C65.4373 56.2966 64.3037 57.1297 62.9427 57.4346C60.2089 58.0469 58.0469 60.2089 57.4346 62.9427C57.1297 64.3036 56.2968 65.4372 55.0888 66.1347C53.8809 66.832 52.4826 66.9865 51.1517 66.5701C48.4778 65.7333 45.5246 66.5248 43.6275 68.5862C42.683 69.6124 41.3947 70.1777 40.0001 70.1777C38.6054 70.1777 37.3171 69.6126 36.3726 68.5862C34.9775 67.0704 33.0112 66.2414 31.0052 66.2414C30.2831 66.2414 29.556 66.3489 28.8485 66.5701C27.5175 66.9864 26.1191 66.8318 24.9113 66.1347C23.7035 65.4373 22.8704 64.3037 22.5656 62.9427C21.9532 60.2089 19.7912 58.0469 17.0575 57.4346C15.6966 57.1297 14.563 56.2968 13.8655 55.0888C13.1681 53.881 13.0135 52.4828 13.43 51.1517C14.2666 48.4781 13.4753 45.5247 11.4139 43.6275C10.3877 42.683 9.8224 41.3947 9.8224 40.0001C9.8224 38.6054 10.3876 37.3171 11.4139 36.3726C13.4752 34.4754 14.2666 31.522 13.43 28.8485C13.0135 27.5174 13.1681 26.1191 13.8655 24.9113C14.5628 23.7035 15.6964 22.8704 17.0575 22.5656C19.7912 21.9532 21.9532 19.7912 22.5656 17.0575C22.8704 15.6966 23.7034 14.563 24.9113 13.8655C26.1193 13.168 27.5177 13.0135 28.8485 13.43C31.5219 14.2666 34.4754 13.4752 36.3726 11.4139C37.3171 10.3877 38.6054 9.8224 40.0001 9.8224C41.3947 9.8224 42.683 10.3876 43.6275 11.4139C45.5249 13.4752 48.4781 14.2666 51.1517 13.43C52.4825 13.0135 53.8809 13.168 55.0888 13.8655C56.2966 14.5628 57.1297 15.6964 57.4346 17.0575C58.0469 19.7912 60.2089 21.9532 62.9427 22.5656C64.3036 22.8704 65.4372 23.7034 66.1347 24.9113C66.832 26.1191 66.9867 27.5174 66.5701 28.8485C65.7336 31.522 66.5248 34.4754 68.5862 36.3726C69.6124 37.3171 70.1777 38.6054 70.1777 40.0001C70.1777 41.3947 69.6126 42.683 68.5862 43.6275C66.5248 45.5247 65.7334 48.4781 66.5701 51.1517Z" fill="white"/>
<path d="M68.7006 12.1461C69.0005 12.1461 69.3005 12.0317 69.5292 11.8028L79.3311 2.00092C79.7888 1.54326 79.7888 0.80123 79.3311 0.34373C78.8735 -0.113926 78.1314 -0.113926 77.6739 0.34373L67.8721 10.1456C67.4144 10.6033 67.4144 11.3453 67.8721 11.8028C68.1008 12.0315 68.4006 12.1461 68.7006 12.1461Z" fill="white"/>
<path d="M79.6327 16.4067C79.4626 15.7823 78.8185 15.4142 78.1938 15.5846L73.2929 16.9217C72.6685 17.092 72.3004 17.7362 72.4709 18.3606C72.613 18.8817 73.0854 19.2243 73.6007 19.2243C73.7027 19.2243 73.8066 19.2109 73.9099 19.1826L78.8109 17.8456C79.4351 17.6754 79.8032 17.031 79.6327 16.4067Z" fill="white"/>
<path d="M61.2093 7.20364C61.3126 7.23193 61.4163 7.24536 61.5185 7.24536C62.0338 7.24536 62.5062 6.90271 62.6484 6.38161L63.9854 1.48068C64.1557 0.8563 63.7878 0.211925 63.1634 0.041769C62.539 -0.129012 61.8948 0.239425 61.7245 0.8638L60.3874 5.76474C60.2168 6.38911 60.5848 7.03333 61.2093 7.20364Z" fill="white"/>
<path d="M10.4713 11.8025C10.7 12.0313 11 12.1458 11.2999 12.1458C11.5997 12.1458 11.8997 12.0315 12.1285 11.8025C12.5861 11.3449 12.5861 10.6029 12.1285 10.1454L2.3266 0.343486C1.86895 -0.11417 1.12691 -0.11417 0.669414 0.343486C0.211758 0.801143 0.211758 1.54317 0.669414 2.00067L10.4713 11.8025Z" fill="white"/>
<path d="M6.70713 16.9217L1.8062 15.5847C1.18182 15.4141 0.537447 15.7823 0.367291 16.4067C0.196978 17.0311 0.564947 17.6755 1.18932 17.8456L6.09026 19.1827C6.19354 19.2109 6.29729 19.2244 6.39948 19.2244C6.91479 19.2244 7.38713 18.8817 7.52932 18.3606C7.69948 17.7362 7.33151 17.092 6.70713 16.9217Z" fill="white"/>
<path d="M17.3522 6.38155C17.4944 6.90264 17.9667 7.2453 18.482 7.2453C18.584 7.2453 18.6879 7.23186 18.7912 7.20358C19.4156 7.03327 19.7837 6.38905 19.6133 5.76467L18.2762 0.863735C18.1059 0.239517 17.4623 -0.128921 16.8373 0.0417043C16.213 0.212017 15.8448 0.856235 16.0153 1.48061L17.3522 6.38155Z" fill="white"/>
<path d="M69.5292 68.1972C69.0716 67.7396 68.3296 67.7396 67.8721 68.1972C67.4144 68.6549 67.4144 69.3969 67.8721 69.8544L77.6739 79.6563C77.9027 79.8851 78.2027 79.9996 78.5025 79.9996C78.8024 79.9996 79.1024 79.8852 79.3311 79.6563C79.7888 79.1987 79.7888 78.4566 79.3311 77.9991L69.5292 68.1972Z" fill="white"/>
<path d="M78.8107 62.1543L73.9097 60.8173C73.285 60.6468 72.6411 61.015 72.4708 61.6393C72.3005 62.2637 72.6685 62.9081 73.2928 63.0782L78.1938 64.4153C78.2971 64.4435 78.4008 64.457 78.503 64.457C79.0183 64.457 79.4907 64.1143 79.6328 63.5932C79.8032 62.9689 79.435 62.3246 78.8107 62.1543Z" fill="white"/>
<path d="M62.6483 73.6181C62.478 72.9939 61.8338 72.6255 61.2094 72.7961C60.585 72.9664 60.2169 73.6106 60.3874 74.235L61.7244 79.1359C61.8666 79.657 62.3389 79.9997 62.8542 79.9997C62.9563 79.9997 63.06 79.9863 63.1635 79.958C63.7878 79.7877 64.156 79.1434 63.9855 78.5191L62.6483 73.6181Z" fill="white"/>
<path d="M10.4713 68.1972L0.669414 77.9991C0.211758 78.4568 0.211758 79.1988 0.669414 79.6563C0.898164 79.8851 1.19816 79.9996 1.49801 79.9996C1.79785 79.9996 2.09785 79.8852 2.3266 79.6563L12.1285 69.8544C12.5861 69.3968 12.5861 68.6547 12.1285 68.1972C11.6708 67.7396 10.9288 67.7396 10.4713 68.1972Z" fill="white"/>
<path d="M6.09031 60.8172L1.18938 62.1542C0.565001 62.3245 0.196876 62.9687 0.367345 63.5931C0.509532 64.1142 0.981876 64.4568 1.49719 64.4568C1.59922 64.4568 1.70313 64.4434 1.80641 64.4151L6.70734 63.0781C7.33172 62.9078 7.69984 62.2636 7.52938 61.6392C7.35922 61.0148 6.715 60.6464 6.09031 60.8172Z" fill="white"/>
<path d="M18.7912 72.7963C18.1668 72.6258 17.5226 72.994 17.3523 73.6183L16.0152 78.5193C15.8449 79.1436 16.2129 79.788 16.8373 79.9582C16.9406 79.9865 17.0443 79.9999 17.1465 79.9999C17.6618 79.9999 18.1341 79.6572 18.2763 79.1361L19.6134 74.2352C19.7837 73.611 19.4156 72.9666 18.7912 72.7963Z" fill="white"/>
<path d="M45.0453 43.792C44.5877 44.2497 44.5877 44.9917 45.0453 45.4492C45.503 45.9069 46.245 45.9069 46.7025 45.4492L56.3182 35.8335C57.0039 35.1477 57.3816 34.2362 57.3816 33.2664C57.3816 32.2965 57.0039 31.385 56.3182 30.6994L53.2962 27.6772C51.8806 26.2619 49.5775 26.2619 48.162 27.6772L36.2474 39.5918L32.079 35.4232C31.3933 34.7374 30.4817 34.3598 29.5119 34.3598C28.542 34.3598 27.6305 34.7374 26.9447 35.4232L23.6821 38.6858C22.9963 39.3716 22.6187 40.2832 22.6187 41.253C22.6187 42.2228 22.9963 43.1344 23.6821 43.82L32.0412 52.1793C33.1345 53.2726 34.5706 53.8193 36.0066 53.8193C37.4427 53.8193 38.8788 53.2726 39.9721 52.1793L42.8536 49.2978C43.3113 48.8401 43.3113 48.0981 42.8536 47.6406C42.396 47.1829 41.6539 47.1829 41.1964 47.6406L38.3149 50.5221C37.0421 51.7948 34.971 51.7948 33.6984 50.5221L25.3393 42.1628C25.0961 41.9199 24.9624 41.5967 24.9624 41.2532C24.9624 40.9094 25.0963 40.5863 25.3393 40.3433L28.6019 37.0807C28.845 36.8377 29.1681 36.7038 29.5117 36.7038C29.8553 36.7038 30.1784 36.8376 30.4215 37.0807L35.4187 42.0778C35.8763 42.5355 36.6184 42.5355 37.0759 42.0778L49.8192 29.3347C50.3207 28.8331 51.1371 28.833 51.6388 29.3347L54.6608 32.3568C54.904 32.5998 55.0377 32.9229 55.0377 33.2665C55.0377 33.6101 54.9038 33.9334 54.6608 34.1764L45.0453 43.792Z" fill="white"/>
</g>
<defs>
<clipPath id="clip0_30_927">
<rect width="80" height="80" fill="white"/>
</clipPath>
</defs>
</svg>
