<svg width="32" height="32" viewBox="0 0 32 32" fill="none" xmlns="http://www.w3.org/2000/svg">
<g clip-path="url(#clip0_25_555)">
<path d="M26.9462 10.9464C26.9462 4.90087 22.0453 0 15.9998 0C9.95424 0 5.05336 4.90087 5.05336 10.9464C3.49046 11.141 2.0127 12.1627 2.0127 14.5344V20.2509C2.0127 22.9266 3.88575 23.8997 5.6615 23.8997H7.42509C7.76093 23.8997 8.03322 23.6274 8.03322 23.2915V11.5181C8.03322 11.1822 7.76093 10.9099 7.42509 10.9099H6.26963C6.26963 5.53615 10.626 1.17978 15.9998 1.17978C21.3735 1.17978 25.7299 5.53615 25.7299 10.9099H24.5745C24.2386 10.9099 23.9663 11.1822 23.9663 11.5181V23.2733C23.9663 23.6091 24.2386 23.8814 24.5745 23.8814H25.7299C25.5596 28.0593 23.5528 29.0384 19.5452 29.2147V28.8073C19.5452 28.1355 19.0007 27.591 18.3289 27.591H14.5038C13.832 27.591 13.2875 28.1355 13.2875 28.8073V30.7837C13.2875 31.4555 13.832 32 14.5038 32H18.3411C19.0128 32 19.5574 31.4555 19.5574 30.7837V30.431C23.4129 30.2547 26.7455 29.458 26.9462 23.8449C28.5091 23.6503 29.9869 22.6287 29.9869 20.2569V14.5405C29.9869 12.1566 28.5152 11.141 26.9462 10.9464ZM6.81695 12.0836V22.6651H5.63109C4.73105 22.6651 3.19856 22.3489 3.19856 20.2326V14.5162C3.19856 12.4181 4.71281 12.0836 5.63109 12.0836H6.81695ZM18.3411 29.8655V30.7898H14.5038V28.8134H18.3411V29.8655ZM28.7706 20.2509C28.7706 22.3489 27.2563 22.6834 26.338 22.6834H25.1826V12.1262H26.3685C27.2685 12.1262 28.801 12.4424 28.801 14.5587L28.7706 20.2509Z" fill="white"/>
</g>
<defs>
<clipPath id="clip0_25_555">
<rect width="32" height="32" fill="white"/>
</clipPath>
</defs>
</svg>
