<svg width="32" height="32" viewBox="0 0 32 32" fill="none" xmlns="http://www.w3.org/2000/svg">
<g clip-path="url(#clip0_25_527)">
<path d="M12.6241 16.4996H19.119C19.3949 16.4996 19.6186 16.2759 19.6186 16C19.6186 15.7241 19.3949 15.5004 19.119 15.5004H12.6241C12.3482 15.5004 12.1245 15.7241 12.1245 16C12.1245 16.2759 12.3482 16.4996 12.6241 16.4996Z" fill="white"/>
<path d="M12.6241 13.8155H19.119C19.3949 13.8155 19.6186 13.5918 19.6186 13.3159C19.6186 13.04 19.3949 12.8163 19.119 12.8163H12.6241C12.3482 12.8163 12.1245 13.04 12.1245 13.3159C12.1245 13.5918 12.3482 13.8155 12.6241 13.8155Z" fill="white"/>
<path d="M12.6241 6.75017H19.119C19.3949 6.75017 19.6186 6.52648 19.6186 6.25054C19.6186 5.9746 19.3949 5.75092 19.119 5.75092H12.6241C12.3482 5.75092 12.1245 5.9746 12.1245 6.25054C12.1245 6.52648 12.3482 6.75017 12.6241 6.75017Z" fill="white"/>
<path d="M12.6241 4.06608H19.119C19.3949 4.06608 19.6186 3.8424 19.6186 3.56646C19.6186 3.29052 19.3949 3.06683 19.119 3.06683H12.6241C12.3482 3.06683 12.1245 3.29052 12.1245 3.56646C12.1245 3.8424 12.3482 4.06608 12.6241 4.06608Z" fill="white"/>
<path d="M24.4765 20.6754C22.381 20.6754 20.6763 22.381 20.6763 24.4774C20.6763 26.5728 22.381 28.2775 24.4765 28.2775C26.5719 28.2775 28.2766 26.5728 28.2766 24.4774C28.2766 22.3809 26.5719 20.6754 24.4765 20.6754ZM24.4764 27.2784C23.7958 27.2784 23.1712 27.0341 22.6853 26.6289V22.3245C23.1712 21.919 23.7957 21.6747 24.4764 21.6747C26.0209 21.6747 27.2774 22.932 27.2774 24.4774C27.2774 26.0218 26.0208 27.2784 24.4764 27.2784Z" fill="white"/>
<path d="M10.0367 24.0099L7.62518 26.1973L6.8225 25.3959C6.62725 25.2009 6.31087 25.2012 6.11593 25.3964C5.92093 25.5917 5.92125 25.908 6.1165 26.103L7.25568 27.2404C7.353 27.3375 7.48075 27.3864 7.60875 27.3864C7.72868 27.3864 7.84893 27.3434 7.94437 27.2569L8.87368 26.4139V27.9339H4.06706V23.565H9.37318C9.64912 23.565 9.87281 23.3413 9.87281 23.0654C9.87281 22.7894 9.64912 22.5657 9.37318 22.5657H3.5675C3.29156 22.5657 3.06787 22.7894 3.06787 23.0654V28.4335C3.06787 28.7094 3.29156 28.9331 3.5675 28.9331H9.37325C9.64918 28.9331 9.87287 28.7094 9.87287 28.4335V25.5076L10.7081 24.75C10.9124 24.5646 10.9278 24.2487 10.7424 24.0442C10.5571 23.8399 10.2411 23.8244 10.0367 24.0099Z" fill="white"/>
<path d="M31.6789 23.3077L30.7661 22.9562L30.7532 22.9512C30.5969 22.3027 30.3419 21.6878 29.9929 21.117L30.3953 20.2078C30.4788 20.0191 30.4376 19.7983 30.2917 19.6524L29.2995 18.6602C29.1534 18.5141 28.9322 18.473 28.7434 18.557L27.836 18.9602C27.2644 18.6116 26.6489 18.3564 26.0001 18.1989L25.6443 17.2734C25.5701 17.0805 25.3847 16.9531 25.178 16.9531H23.7749C23.5681 16.9531 23.3827 17.0805 23.3085 17.2734L22.9585 18.1838L22.9527 18.1988C22.8629 18.2206 22.7739 18.2447 22.6853 18.2703V0.499747C22.6853 0.22381 22.4616 0.00012207 22.1857 0.00012207H0.500602C0.224664 0.00012207 0.000976562 0.22381 0.000976562 0.499747V31.5001C0.000976562 31.776 0.224664 31.9997 0.500602 31.9997H22.1856C22.4615 31.9997 22.6852 31.776 22.6852 31.5001V30.6834C22.7739 30.7089 22.863 30.7329 22.9529 30.7546L23.3085 31.6794C23.3827 31.8723 23.568 31.9997 23.7748 31.9997H25.1779C25.3847 31.9997 25.57 31.8723 25.6442 31.6794L25.9943 30.7689L25.9999 30.7546C26.649 30.5981 27.2648 30.3426 27.8365 29.9928L28.7433 30.3958C28.9322 30.4798 29.1533 30.4387 29.2995 30.2926L30.2916 29.3004C30.4376 29.1544 30.4787 28.9337 30.3952 28.745L29.999 27.8496L29.9929 27.8358C30.3419 27.2649 30.5969 26.65 30.7532 26.0016L31.6789 25.6451C31.8717 25.5708 31.9989 25.3855 31.9989 25.1789V23.7739C31.9989 23.5673 31.8717 23.382 31.6789 23.3077ZM21.686 31.0006H1.00016V0.999372H21.686V18.6521C21.492 18.7453 21.3019 18.8474 21.1167 18.9602L20.2094 18.557C20.0205 18.4731 19.7994 18.5141 19.6532 18.6602L18.661 19.6524C18.515 19.7984 18.4739 20.0191 18.5574 20.2078L18.9536 21.1032L18.9599 21.1171C18.6108 21.6879 18.3559 22.3028 18.1995 22.9512L17.2724 23.3076C17.0795 23.3818 16.9521 23.5672 16.9521 23.7739V25.1789C16.9521 25.3856 17.0795 25.5709 17.2724 25.6452L18.1982 26.0011C18.3557 26.6501 18.6108 27.2655 18.9593 27.8369L18.5575 28.745C18.474 28.9337 18.5152 29.1545 18.6611 29.3004L19.6532 30.2926C19.7994 30.4387 20.0205 30.4798 20.2094 30.3958L21.1163 29.9928C21.3015 30.1062 21.4919 30.2086 21.686 30.3019V31.0006ZM30.9997 24.8361L30.1455 25.1637C29.984 25.225 29.8657 25.3654 29.8326 25.5349C29.6937 26.2454 29.4175 26.9116 29.0119 27.5152C28.9156 27.6584 28.9 27.8411 28.9707 27.9985L29.343 28.8361L28.8357 29.3434L27.9951 28.9704C27.8383 28.9011 27.6567 28.917 27.5144 29.0127C26.9109 29.4184 26.2452 29.6945 25.5355 29.8336C25.3676 29.8665 25.2282 29.9831 25.166 30.1426L24.8349 31.0006H24.1181L23.7869 30.1426C23.7248 29.9831 23.5854 29.8665 23.4174 29.8336C22.7078 29.6945 22.042 29.4184 21.4387 29.0127C21.2963 28.917 21.1148 28.9011 20.9579 28.9704L20.1172 29.3434L19.6099 28.8361L19.9816 27.9959C20.0509 27.8394 20.0351 27.6582 19.9399 27.5159C19.5353 26.9117 19.2589 26.2449 19.1183 25.5338C19.0849 25.3651 18.9672 25.2255 18.8067 25.1641L17.9514 24.8357V24.1172L18.8074 23.7892C18.9689 23.728 19.0872 23.5876 19.1203 23.4181C19.2592 22.7076 19.5354 22.0414 19.9411 21.4378C20.0374 21.2946 20.0529 21.1119 19.9822 20.9544L19.6099 20.1168L20.1172 19.6095L20.9578 19.9825C21.1143 20.0517 21.2955 20.036 21.4378 19.9407C21.7366 19.7407 22.0507 19.5723 22.3778 19.4358C22.3802 19.4347 22.3826 19.4336 22.385 19.4326C22.7169 19.2946 23.0622 19.1898 23.4184 19.1192C23.586 19.086 23.7249 18.9696 23.7869 18.8104L24.118 17.9524H24.8349L25.166 18.8104C25.228 18.9695 25.367 19.086 25.5345 19.1192C26.2446 19.2599 26.911 19.5364 27.5151 19.9407C27.6574 20.0361 27.8385 20.0517 27.9951 19.9825L28.8357 19.6095L29.343 20.1168L29.0876 20.694L28.9707 20.9544C28.9 21.1118 28.9155 21.2946 29.0118 21.4377C29.4175 22.0413 29.6936 22.7076 29.8325 23.4181C29.8657 23.5875 29.984 23.7279 30.1454 23.7892L30.9997 24.1169H30.9997V24.8361Z" fill="white"/>
<path d="M15.5563 22.5657H12.6241C12.3482 22.5657 12.1245 22.7894 12.1245 23.0654C12.1245 23.3413 12.3482 23.565 12.6241 23.565H15.5563C15.8322 23.565 16.0559 23.3413 16.0559 23.0654C16.0559 22.7894 15.8322 22.5657 15.5563 22.5657Z" fill="white"/>
<path d="M15.5563 25.2498H12.6241C12.3482 25.2498 12.1245 25.4735 12.1245 25.7494C12.1245 26.0254 12.3482 26.2491 12.6241 26.2491H15.5563C15.8322 26.2491 16.0559 26.0254 16.0559 25.7494C16.0559 25.4735 15.8322 25.2498 15.5563 25.2498Z" fill="white"/>
<path d="M10.0366 4.51115L7.62531 6.6999L6.82268 5.89733C6.62756 5.70221 6.31125 5.70221 6.11612 5.89733C5.921 6.09246 5.921 6.40877 6.11612 6.6039L7.25531 7.74308C7.35262 7.8404 7.4805 7.8894 7.60862 7.8894C7.72862 7.8894 7.84887 7.8464 7.94437 7.75971L8.87356 6.91627V8.43502H4.06706V4.06608H9.37318C9.64912 4.06608 9.87281 3.8424 9.87281 3.56646C9.87281 3.29052 9.64912 3.06683 9.37318 3.06683H3.5675C3.29156 3.06683 3.06787 3.29052 3.06787 3.56646V8.93458C3.06787 9.21052 3.29156 9.43421 3.5675 9.43421H9.37325C9.64918 9.43421 9.87287 9.21052 9.87287 8.93458V6.00927L10.7082 5.25102C10.9126 5.06558 10.9279 4.74965 10.7424 4.54527C10.5569 4.34096 10.241 4.32565 10.0366 4.51115Z" fill="white"/>
<path d="M10.0366 14.2606L7.62531 16.4493L6.82275 15.6467C6.62762 15.4516 6.31125 15.4516 6.11618 15.6467C5.92106 15.8418 5.92106 16.1582 6.11618 16.3533L7.25537 17.4925C7.35268 17.5898 7.48056 17.6388 7.60868 17.6388C7.72868 17.6388 7.84893 17.5958 7.94443 17.5091L8.87362 16.6657V18.1845H4.06706V13.8156H9.37318C9.64912 13.8156 9.87281 13.5919 9.87281 13.316C9.87281 13.04 9.64912 12.8163 9.37318 12.8163H3.5675C3.29156 12.8163 3.06787 13.04 3.06787 13.316V18.6841C3.06787 18.96 3.29156 19.1836 3.5675 19.1836H9.37325C9.64918 19.1836 9.87287 18.9599 9.87287 18.684V15.7587L10.7082 15.0005C10.9126 14.815 10.9279 14.4991 10.7424 14.2947C10.5569 14.0904 10.241 14.0751 10.0366 14.2606Z" fill="white"/>
</g>
<defs>
<clipPath id="clip0_25_527">
<rect width="32" height="32" fill="white"/>
</clipPath>
</defs>
</svg>
