<svg width="26" height="26" viewBox="0 0 26 26" fill="none" xmlns="http://www.w3.org/2000/svg">
<path d="M15.2501 8.01258H10.7501C10.0475 8.01324 9.37382 8.29265 8.877 8.78948C8.38017 9.2863 8.10076 9.95996 8.1001 10.6626V16.8126C8.10067 16.9986 8.15625 17.1802 8.25985 17.3347C8.36346 17.4892 8.51044 17.6095 8.68231 17.6806C8.85417 17.7517 9.04323 17.7704 9.22567 17.7342C9.40812 17.6981 9.5758 17.6088 9.7076 17.4776C9.82606 17.3597 9.91216 17.2134 9.9576 17.0526V16.8026C9.95799 16.762 9.96921 16.7223 9.9901 16.6876V12.1201C9.9901 12.0538 10.0164 11.9902 10.0633 11.9433C10.1102 11.8964 10.1738 11.8701 10.2401 11.8701C10.3064 11.8701 10.37 11.8964 10.4169 11.9433C10.4638 11.9902 10.4901 12.0538 10.4901 12.1201V16.8126C10.4895 16.9118 10.4786 17.0106 10.4576 17.1076V23.8576C10.4504 24.0123 10.4746 24.1668 10.5288 24.3119C10.583 24.457 10.6661 24.5895 10.773 24.7016C10.8799 24.8136 11.0085 24.9028 11.1508 24.9637C11.2932 25.0247 11.4465 25.0561 11.6013 25.0561C11.7562 25.0561 11.9095 25.0247 12.0518 24.9637C12.1942 24.9028 12.3228 24.8136 12.4297 24.7016C12.5366 24.5895 12.6197 24.457 12.6739 24.3119C12.7281 24.1668 12.7523 24.0123 12.7451 23.8576V18.0001C12.7451 17.9338 12.7714 17.8702 12.8183 17.8233C12.8652 17.7764 12.9288 17.7501 12.9951 17.7501C13.0614 17.7501 13.125 17.7764 13.1719 17.8233C13.2188 17.8702 13.2451 17.9338 13.2451 18.0001V23.8501C13.2451 24.1538 13.3657 24.445 13.5805 24.6597C13.7952 24.8744 14.0864 24.9951 14.3901 24.9951C14.6938 24.9951 14.985 24.8744 15.1997 24.6597C15.4145 24.445 15.5351 24.1538 15.5351 23.8501V16.8126C15.5351 16.8126 15.5351 16.7826 15.5351 16.7676V12.1201C15.5351 12.0538 15.5614 11.9902 15.6083 11.9433C15.6552 11.8964 15.7188 11.8701 15.7851 11.8701C15.8514 11.8701 15.915 11.8964 15.9619 11.9433C16.0088 11.9902 16.0351 12.0538 16.0351 12.1201V16.7501C16.032 16.8891 16.0573 17.0272 16.1093 17.1562C16.1613 17.2851 16.2389 17.4021 16.3376 17.5001C16.426 17.5834 16.5301 17.6485 16.6438 17.6914C16.7575 17.7343 16.8786 17.7542 17.0001 17.7501C17.2437 17.7417 17.4746 17.6389 17.6439 17.4635C17.8132 17.2881 17.9077 17.0539 17.9076 16.8101V10.6626C17.9073 10.314 17.8383 9.96898 17.7045 9.64712C17.5707 9.32527 17.3749 9.03293 17.128 8.78682C16.8812 8.54072 16.5884 8.34566 16.2661 8.21281C15.9439 8.07996 15.5986 8.01192 15.2501 8.01258Z" fill="#89CBC4"/>
<path d="M12.9999 6.28256C13.5227 6.28305 14.034 6.12843 14.4689 5.83826C14.9038 5.54809 15.2429 5.13541 15.4432 4.65245C15.6436 4.1695 15.6961 3.63797 15.5942 3.12515C15.4923 2.61232 15.2406 2.14124 14.8709 1.77153C14.5012 1.40182 14.0301 1.15009 13.5173 1.04821C13.0044 0.946331 12.4729 0.998872 11.99 1.19919C11.507 1.3995 11.0943 1.73858 10.8042 2.17352C10.514 2.60846 10.3594 3.11971 10.3599 3.64256C10.3612 4.34232 10.6398 5.01305 11.1346 5.50786C11.6294 6.00267 12.3001 6.28124 12.9999 6.28256Z" fill="#89CBC4"/>
</svg>
