<svg width="34" height="34" viewBox="0 0 34 34" fill="none" xmlns="http://www.w3.org/2000/svg">
<g clip-path="url(#clip0_25_565)">
<path d="M17 28.0234C16.1762 28.0234 15.5059 28.6937 15.5059 29.5176V32.5059C15.5059 33.3298 16.1762 34 17 34C17.8238 34 18.4941 33.3298 18.4941 32.5059V29.5176C18.4941 28.6937 17.8238 28.0234 17 28.0234ZM17.498 32.5059C17.498 32.7805 17.2747 33.0039 17 33.0039C16.7253 33.0039 16.502 32.7805 16.502 32.5059V29.5176C16.502 29.2429 16.7253 29.0195 17 29.0195C17.2747 29.0195 17.498 29.2429 17.498 29.5176V32.5059Z" fill="white"/>
<path d="M26.9078 24.7947C26.3254 24.2123 25.3774 24.2122 24.7948 24.7947C24.2123 25.3773 24.2123 26.3252 24.7948 26.9077L26.9078 29.0207C27.19 29.303 27.5652 29.4584 27.9643 29.4584C28.3634 29.4584 28.7386 29.3029 29.0208 29.0207C29.303 28.7385 29.4585 28.3633 29.4585 27.9642C29.4585 27.5651 29.303 27.1899 29.0209 26.9077L26.9078 24.7947ZM28.3166 28.3164C28.2225 28.4105 28.0974 28.4623 27.9643 28.4623C27.8313 28.4623 27.7062 28.4105 27.6122 28.3164L25.4991 26.2034C25.3049 26.0092 25.3049 25.6933 25.4991 25.4991C25.5962 25.402 25.7238 25.3535 25.8514 25.3535C25.9789 25.3535 26.1064 25.402 26.2035 25.4991L28.3166 27.6121C28.4106 27.7062 28.4624 27.8313 28.4624 27.9643C28.4624 28.0973 28.4106 28.2224 28.3166 28.3164Z" fill="white"/>
<path d="M32.5059 15.5059H29.5176C28.6937 15.5059 28.0234 16.1761 28.0234 17C28.0234 17.8239 28.6937 18.4941 29.5176 18.4941H32.5059C33.3297 18.4941 34 17.8239 34 17C34 16.1761 33.3297 15.5059 32.5059 15.5059ZM32.5059 17.498H29.5176C29.2429 17.498 29.0195 17.2747 29.0195 17C29.0195 16.7253 29.2429 16.502 29.5176 16.502H32.5059C32.7805 16.502 33.0039 16.7253 33.0039 17C33.0039 17.2747 32.7805 17.498 32.5059 17.498Z" fill="white"/>
<path d="M25.8513 9.6421C26.234 9.6421 26.6166 9.49647 26.9079 9.20521L29.0208 7.09223C29.303 6.81 29.4585 6.43481 29.4585 6.03571C29.4585 5.6366 29.3031 5.26141 29.0209 4.97918C28.7386 4.69696 28.3634 4.54156 27.9643 4.54156C27.5652 4.54156 27.19 4.69702 26.9078 4.97918L24.7948 7.09223C24.2123 7.67474 24.2122 8.62263 24.7948 9.20528C25.0861 9.49647 25.4687 9.64216 25.8513 9.6421ZM25.4991 7.79653L27.6122 5.68349C27.7062 5.58939 27.8313 5.53759 27.9643 5.53759C28.0973 5.53759 28.2225 5.58939 28.3165 5.68349C28.4106 5.77758 28.4624 5.90263 28.4624 6.03564C28.4624 6.16865 28.4106 6.29369 28.3165 6.38779L26.2036 8.50077C26.0093 8.69494 25.6934 8.69501 25.4992 8.50077C25.305 8.30653 25.305 7.99077 25.4991 7.79653Z" fill="white"/>
<path d="M7.09217 9.20527C7.38343 9.49653 7.76599 9.64216 8.14862 9.64216C8.53126 9.64216 8.91389 9.49653 9.20521 9.20527C9.78773 8.62269 9.78766 7.67481 9.20521 7.09229L7.09217 4.97924C6.80994 4.69702 6.43475 4.54163 6.03564 4.54163C5.63654 4.54163 5.26135 4.69708 4.97919 4.97924C4.69696 5.26147 4.5415 5.63666 4.5415 6.03577C4.5415 6.43487 4.69696 6.81006 4.97912 7.09229L7.09217 9.20527ZM5.68343 5.68355C5.77752 5.58945 5.90263 5.53765 6.03564 5.53765C6.16866 5.53765 6.29377 5.58945 6.3878 5.68355L8.50084 7.79659C8.69508 7.99077 8.69508 8.30673 8.50091 8.5009C8.30667 8.69507 7.99071 8.69514 7.79654 8.5009L5.68349 6.38785C5.58946 6.29376 5.53766 6.16871 5.53766 6.0357C5.53766 5.90269 5.58939 5.77758 5.68343 5.68355Z" fill="white"/>
<path d="M5.97656 17C5.97656 16.1761 5.30626 15.5059 4.48242 15.5059H1.49414C0.670305 15.5059 0 16.1761 0 17C0 17.8239 0.670305 18.4941 1.49414 18.4941H4.48242C5.30626 18.4941 5.97656 17.8239 5.97656 17ZM4.48242 17.498H1.49414C1.21948 17.498 0.996094 17.2747 0.996094 17C0.996094 16.7253 1.21948 16.502 1.49414 16.502H4.48242C4.75708 16.502 4.98047 16.7253 4.98047 17C4.98047 17.2747 4.75708 17.498 4.48242 17.498Z" fill="white"/>
<path d="M7.0921 24.7948L4.97919 26.9077C4.69696 27.19 4.5415 27.5652 4.5415 27.9643C4.5415 28.3634 4.69689 28.7386 4.97912 29.0208C5.26135 29.303 5.63654 29.4584 6.03564 29.4584C6.43475 29.4584 6.80994 29.303 7.09217 29.0208L9.20521 26.9077C9.78766 26.3252 9.78773 25.3774 9.20515 24.7947C8.62263 24.2122 7.67462 24.2123 7.0921 24.7948ZM8.50084 26.2034L6.3878 28.3165C6.29377 28.4106 6.16866 28.4624 6.03564 28.4624C5.90263 28.4624 5.77752 28.4106 5.68349 28.3165C5.58939 28.2224 5.5376 28.0973 5.5376 27.9643C5.5376 27.8313 5.58939 27.7063 5.68349 27.6122L7.79641 25.4992C7.89356 25.4021 8.02113 25.3536 8.14869 25.3536C8.27619 25.3536 8.40376 25.4021 8.50084 25.4992C8.69502 25.6933 8.69502 26.0092 8.50084 26.2034Z" fill="white"/>
<path d="M25.4827 11.6512C24.6758 10.3743 23.595 9.3002 22.3243 8.50286C22.5812 8.23438 22.7396 7.8708 22.7396 7.47064C22.7396 6.82132 22.3233 6.26736 21.7435 6.06183V3.48633C21.7435 2.66243 21.0732 1.99219 20.2494 1.99219H19.5611L18.7027 0.27532C18.6183 0.106582 18.4459 0 18.2573 0H15.7426C15.5539 0 15.3815 0.106582 15.2971 0.27532L14.4386 1.99219H13.7503C12.9265 1.99219 12.2562 2.66243 12.2562 3.48633V6.06189C11.6765 6.26742 11.2601 6.82138 11.2601 7.4707C11.2601 7.87087 11.4186 8.23451 11.6755 8.50299C10.4049 9.30026 9.3241 10.3743 8.5172 11.6512C7.50676 13.2502 6.97266 15.0998 6.97266 17C6.97266 22.5291 11.4709 27.0273 17 27.0273C22.5291 27.0273 27.0273 22.5291 27.0273 17C27.0273 15.0998 26.4932 13.2502 25.4827 11.6512ZM16.0503 0.996094H17.9494L18.4475 1.99219H15.5523L16.0503 0.996094ZM12.7542 6.97266C13.0294 6.97266 13.2523 6.74966 13.2523 6.47461V3.48633C13.2523 3.21167 13.4757 2.98828 13.7503 2.98828H20.2494C20.524 2.98828 20.7474 3.21167 20.7474 3.48633V5.97656H14.7464C14.4713 5.97656 14.2484 6.19955 14.2484 6.47461C14.2484 6.74966 14.4713 6.97266 14.7464 6.97266H21.2455C21.5201 6.97266 21.7435 7.19605 21.7435 7.4707C21.7435 7.74536 21.5201 7.96875 21.2455 7.96875H12.7542C12.4796 7.96875 12.2562 7.74536 12.2562 7.4707C12.2562 7.19605 12.4797 6.97266 12.7542 6.97266ZM17 26.0312C12.0202 26.0312 7.96875 21.9799 7.96875 17C7.96875 13.5891 9.84679 10.5215 12.8768 8.96484H21.1232C24.1532 10.5215 26.0312 13.5891 26.0312 17C26.0312 21.9799 21.9798 26.0312 17 26.0312Z" fill="white"/>
<path d="M17 10.957C16.0388 10.957 15.2568 11.739 15.2568 12.7002C15.2568 12.7243 15.2664 12.9203 15.2705 13.012L15.5075 18.134C15.5468 18.9318 16.2024 19.5566 17 19.5566C17.7976 19.5566 18.4532 18.9318 18.4925 18.134L18.7295 13.012C18.7337 12.9203 18.7432 12.7243 18.7432 12.7002C18.7432 11.739 17.9612 10.957 17 10.957ZM17.7442 12.7467C17.7385 12.8956 17.5807 16.2972 17.4974 18.0864C17.4844 18.3517 17.2659 18.5605 17 18.5605C16.7341 18.5605 16.5156 18.3517 16.5026 18.0864C16.4193 16.2972 16.2615 12.8956 16.2558 12.7467C16.2557 12.7431 16.2529 12.7002 16.2529 12.7002C16.2529 12.2883 16.5881 11.9531 17 11.9531C17.4119 11.9531 17.7471 12.2883 17.7471 12.7002C17.7471 12.7002 17.7443 12.7431 17.7442 12.7467Z" fill="white"/>
<path d="M17 20.5527C16.0388 20.5527 15.2568 21.3347 15.2568 22.2959C15.2568 23.2571 16.0388 24.0391 17 24.0391C17.9612 24.0391 18.7432 23.2571 18.7432 22.2959C18.7432 21.3347 17.9612 20.5527 17 20.5527ZM17 23.043C16.5881 23.043 16.2529 22.7078 16.2529 22.2959C16.2529 21.884 16.5881 21.5488 17 21.5488C17.4119 21.5488 17.7471 21.884 17.7471 22.2959C17.7471 22.7078 17.4119 23.043 17 23.043Z" fill="white"/>
</g>
<defs>
<clipPath id="clip0_25_565">
<rect width="34" height="34" fill="white"/>
</clipPath>
</defs>
</svg>
