<svg width="22" height="22" viewBox="0 0 22 22" fill="none" xmlns="http://www.w3.org/2000/svg">
<path d="M11.0002 14.3887C12.8708 14.3887 14.3872 12.8724 14.3872 11.0018C14.3872 9.13125 12.8708 7.61487 11.0002 7.61487C9.12967 7.61487 7.61328 9.13125 7.61328 11.0018C7.61328 12.8724 9.12967 14.3887 11.0002 14.3887Z" fill="#89CBC4"/>
<path d="M21.6626 10.0637C19.0591 6.91763 15.1182 3.88928 11 3.88928C6.8811 3.88928 2.93925 6.91975 0.33753 10.0637C-0.11251 10.6073 -0.11251 11.3964 0.33753 11.94C0.991633 12.7305 2.36292 14.2563 4.19441 15.5895C8.80696 18.9473 13.183 18.9547 17.8057 15.5895C19.6372 14.2563 21.0085 12.7305 21.6626 11.94C22.1113 11.3975 22.1136 10.6091 21.6626 10.0637V10.0637ZM11 6.26014C13.6148 6.26014 15.7418 8.38714 15.7418 11.0019C15.7418 13.6166 13.6148 15.7436 11 15.7436C8.38532 15.7436 6.25833 13.6166 6.25833 11.0019C6.25833 8.38714 8.38532 6.26014 11 6.26014Z" fill="#89CBC4"/>
</svg>
