<svg width="26" height="26" viewBox="0 0 26 26" fill="none" xmlns="http://www.w3.org/2000/svg">
<g clip-path="url(#clip0_25_756)">
<path d="M19.9724 0H6.02785C2.98991 0 0.619745 2.62656 0.933725 5.6452L2.57381 21.4125C2.84503 24.0194 5.04437 26 7.66798 26H12.2384V19.8797C12.2384 19.4594 12.5794 19.1187 13.0001 19.1187C13.4208 19.1187 13.7618 19.4594 13.7618 19.8797V26H18.3322C20.9559 26 23.1552 24.0194 23.4264 21.4125L25.0665 5.6452C25.3805 2.62656 23.0103 0 19.9724 0V0ZM21.6411 8.33747L17.4905 13.1035C17.3458 13.2696 17.1362 13.3651 16.9159 13.3651H9.08437C8.86393 13.3651 8.65435 13.2697 8.50968 13.1035L4.35917 8.33747C4.10979 8.05111 4.10979 7.62496 4.35917 7.33855C6.66058 4.69579 9.72934 3.2404 13.0001 3.2404C16.2709 3.2404 19.3396 4.69584 21.6411 7.3386C21.8904 7.62496 21.8904 8.05111 21.6411 8.33747Z" fill="#89CBC4"/>
<path d="M18.6718 6.6569L18.0109 7.43913C17.8602 7.61966 17.6436 7.71284 17.4254 7.71284C17.2534 7.71284 17.0805 7.655 16.938 7.53638C16.615 7.26729 16.5713 6.78745 16.8407 6.46464L17.3544 5.83713C16.2284 5.25117 15.0161 4.896 13.7617 4.79358V5.73075C13.7617 6.15101 13.4207 6.4917 13 6.4917C12.5793 6.4917 12.2383 6.15101 12.2383 5.73075V4.79358C10.9839 4.896 9.77163 5.25117 8.64555 5.83708L9.1592 6.46459C9.4286 6.7874 9.38498 7.26724 9.06191 7.53633C8.91946 7.6549 8.7465 7.71279 8.57451 7.71279C8.3563 7.71279 8.13972 7.61961 7.98905 7.43908L7.3257 6.65867C6.84576 7.01064 6.38756 7.40891 5.95557 7.85198L9.43114 11.8431H11.4596L12.6558 9.25456C12.7913 8.96135 13.2085 8.96135 13.344 9.25456L14.5402 11.8431H16.5687L20.0443 7.85198C19.6117 7.4082 19.1526 7.00932 18.6718 6.6569Z" fill="#89CBC4"/>
</g>
<defs>
<clipPath id="clip0_25_756">
<rect width="26" height="26" fill="white"/>
</clipPath>
</defs>
</svg>
