<svg width="26" height="26" viewBox="0 0 26 26" fill="none" xmlns="http://www.w3.org/2000/svg">
<path d="M11.4891 11.4222C8.73354 11.4222 6.4917 13.664 6.4917 16.4196C6.4917 19.1752 8.73349 21.417 11.4891 21.417C13.0355 21.417 14.4825 20.6982 15.4221 19.5014C14.8416 18.6149 14.5034 17.5561 14.5034 16.4196C14.5034 15.2831 14.8416 14.2244 15.4221 13.3379C14.4825 12.141 13.0354 11.4222 11.4891 11.4222ZM13.7806 19.8823H12.2571V17.7217H10.721V19.8823H9.19758V15.2707C9.19758 14.0072 10.2255 12.9792 11.4891 12.9792C12.7526 12.9792 13.7806 14.0072 13.7806 15.2707V19.8823Z" fill="#89CBC4"/>
<path d="M11.4893 14.5026C11.0657 14.5026 10.7212 14.8471 10.7212 15.2706V16.1982H12.2573V15.2706C12.2573 14.8471 11.9127 14.5026 11.4893 14.5026Z" fill="#89CBC4"/>
<path d="M11.4893 22.9404C7.89369 22.9404 4.96844 20.0152 4.96844 16.4196C4.96844 12.824 7.89364 9.89879 11.4893 9.89879C13.4083 9.89879 15.2104 10.7465 16.4365 12.1725C17.3095 11.4094 18.4189 10.9109 19.6388 10.802C16.8726 5.36402 11.4893 0 11.4893 0C11.4893 0 1.73926 9.71395 1.73926 16.25C1.73926 21.6348 6.10441 26 11.4893 26C14.7213 26 17.5851 24.4269 19.3591 22.0052C18.2495 21.85 17.2423 21.371 16.4365 20.6667C15.2104 22.0927 13.4083 22.9404 11.4893 22.9404Z" fill="#89CBC4"/>
<path d="M20.1438 12.3026C17.8737 12.3026 16.0269 14.1495 16.0269 16.4196C16.0269 18.6897 17.8737 20.5366 20.1438 20.5366C22.414 20.5366 24.2608 18.6897 24.2608 16.4196C24.2608 14.1495 22.4139 12.3026 20.1438 12.3026ZM22.4353 17.1813H20.9056V18.7111H19.3821V17.1813H17.8523V15.6578H19.3821V14.128H20.9056V15.6578H22.4353V17.1813Z" fill="#89CBC4"/>
</svg>
