<svg width="34" height="34" viewBox="0 0 34 34" fill="none" xmlns="http://www.w3.org/2000/svg">
<g clip-path="url(#clip0_25_547)">
<path d="M3.22096 25.0059C3.36858 25.2592 3.28285 25.5842 3.02944 25.7318C2.94544 25.7808 2.85346 25.8041 2.76275 25.8041C2.58 25.8041 2.40217 25.7097 2.30355 25.5403C0.477183 22.4052 -0.286157 18.8365 0.0960114 15.2199C0.57055 10.705 2.7755 6.64489 6.3048 3.78789C9.83382 0.931159 14.264 -0.380165 18.7785 0.0953699C21.8063 0.413456 24.6537 1.52051 27.0813 3.31275L26.7133 2.02049C26.633 1.73853 26.7965 1.44488 27.0785 1.36459C27.3606 1.28424 27.6541 1.44773 27.7344 1.72976L28.5664 4.65124C28.6111 4.80816 28.5812 4.97689 28.4851 5.10884C28.3893 5.24079 28.2379 5.32128 28.0749 5.32719L25.0386 5.43636C25.0321 5.43656 25.0256 5.43669 25.0192 5.43669C24.7349 5.43669 24.4994 5.21144 24.4891 4.9249C24.4785 4.63191 24.7075 4.38588 25.0005 4.37532L26.6497 4.31602C24.3316 2.54835 21.5892 1.45829 18.6675 1.1513C14.4344 0.705643 10.2814 1.93496 6.97284 4.61319C3.66402 7.29168 1.59673 11.0981 1.15187 15.3313C0.793476 18.7219 1.509 22.0673 3.22096 25.0059ZM31.6978 8.45997C31.5503 8.20663 31.2253 8.12057 30.9719 8.26819C30.7186 8.41561 30.6327 8.7406 30.7801 8.99394C32.4905 11.933 33.206 15.2785 32.8494 18.6687C31.9885 26.8436 25.0573 32.9376 17.0128 32.9373C16.4574 32.9373 15.8962 32.9082 15.3319 32.8488C12.4112 32.5415 9.66681 31.4507 7.3495 29.6841L8.99883 29.6248C9.29182 29.6143 9.52078 29.3682 9.51023 29.0753C9.49973 28.7823 9.25357 28.5528 8.96071 28.5639L5.92442 28.6731C5.76133 28.6789 5.61005 28.7595 5.51403 28.8915C5.41814 29.0235 5.38819 29.1923 5.43302 29.3493L6.26688 32.2707C6.33342 32.5039 6.54598 32.656 6.77708 32.656C6.82536 32.656 6.87436 32.6493 6.92304 32.6354C7.20493 32.5549 7.36823 32.2612 7.28774 31.9793L6.91939 30.6888C9.34587 32.4792 12.1947 33.5863 15.2207 33.9047C15.8273 33.9686 16.4315 34.0002 17.0331 34.0002C20.9094 34 24.6406 32.6851 27.6954 30.2122C31.2244 27.3555 33.4298 23.2955 33.9053 18.7799C34.2857 15.1638 33.5223 11.5952 31.6978 8.45997ZM23.5043 20.4796C23.772 20.599 24.0859 20.479 24.2054 20.2113C24.657 19.2 24.8859 18.1196 24.8859 17C24.8859 12.6521 21.3485 9.11473 17.0007 9.11473C12.6516 9.11473 9.11345 12.6521 9.11345 17C9.11345 18.115 9.34228 19.1951 9.79358 20.2106C9.8815 20.4084 10.0755 20.5259 10.279 20.5259C10.351 20.5259 10.4242 20.5111 10.4943 20.48C10.7622 20.361 10.8828 20.0473 10.7638 19.7793C10.3732 18.9006 10.1752 17.9656 10.1752 17C10.1752 13.2374 13.2371 10.1764 17.0007 10.1764C20.7632 10.1764 23.8243 13.2374 23.8243 17C23.8243 17.9695 23.6265 18.9043 23.2361 19.7785C23.1165 20.0462 23.2366 20.3601 23.5043 20.4796ZM6.85431 19.3052C7.11436 20.4569 7.56499 21.5441 8.19718 22.5449L7.46691 24.1898C7.34791 24.4578 7.46863 24.7714 7.73665 24.8904C8.00466 25.0095 8.31823 24.8887 8.43723 24.6207L9.28451 22.7115C9.35829 22.5448 9.34149 22.352 9.23989 22.2006C8.54641 21.1677 8.07366 20.027 7.83486 18.8102C7.79967 18.6306 7.67436 18.4819 7.50343 18.4165L5.8966 17.7989V16.2029L7.50529 15.5826C7.67542 15.517 7.79987 15.3685 7.83493 15.1897C8.07346 13.9747 8.54614 12.8347 9.23995 11.8012C9.34136 11.6501 9.35835 11.4577 9.28498 11.2911L8.58519 9.71365L9.71316 8.58441L11.2901 9.2852C11.4571 9.35964 11.6504 9.34284 11.802 9.24104C12.836 8.54683 13.9754 8.07408 15.1886 7.83601C15.3675 7.80089 15.5159 7.67644 15.5816 7.50637L16.2018 5.89768H17.7979L18.4181 7.50637C18.4838 7.67644 18.6322 7.80095 18.8111 7.83601C20.0261 8.07441 21.1661 8.54709 22.1995 9.24104C22.3514 9.34304 22.5452 9.35964 22.7123 9.28487L24.2865 8.58441L25.4162 9.71412L24.7155 11.2893C24.6412 11.4562 24.6579 11.6496 24.7597 11.8012C25.4536 12.8346 25.9262 13.9746 26.1648 15.1897C26.1998 15.3686 26.3243 15.517 26.4944 15.5826L28.103 16.2028V17.7989L26.4944 18.4191C26.3244 18.4848 26.1999 18.6331 26.1648 18.8119C25.9262 20.026 25.4534 21.1655 24.7597 22.1987C24.6579 22.3504 24.6412 22.5437 24.7155 22.7106L25.5643 24.6207C25.6521 24.8185 25.8462 24.9362 26.0497 24.9362C26.1217 24.9362 26.1949 24.9215 26.2649 24.8904C26.5328 24.7714 26.6536 24.4578 26.5346 24.1898L25.8028 22.5423C26.435 21.5415 26.8856 20.4552 27.1455 19.3058L28.8247 18.6586C29.0296 18.5797 29.1648 18.3829 29.1648 18.1633V15.8386C29.1648 15.619 29.0296 15.4221 28.8247 15.3432L27.1456 14.696C26.8858 13.5456 26.4352 12.4588 25.8028 11.4575L26.5345 9.8122C26.6238 9.61152 26.5802 9.37651 26.4248 9.22118L24.7796 7.57603C24.6244 7.42078 24.3895 7.37701 24.1889 7.46626L22.7079 8.12375L22.5428 8.19766C21.5418 7.56548 20.455 7.11491 19.3048 6.85526L18.6576 5.17598C18.5787 4.97112 18.3818 4.83598 18.1623 4.83598H15.8375C15.618 4.83598 15.4211 4.97112 15.3422 5.17598L14.6951 6.85526C13.5462 7.11478 12.46 7.56534 11.4585 8.19793L9.81105 7.4662C9.6103 7.37701 9.37549 7.42071 9.2203 7.57597L7.57648 9.22158C7.42148 9.37691 7.37812 9.61165 7.46717 9.8122L8.12353 11.2883L8.19764 11.4565C7.56505 12.458 7.11409 13.5454 6.85424 14.696L5.17503 15.3432C4.97016 15.4221 4.83503 15.619 4.83503 15.8386V18.1633C4.83503 18.3829 4.97016 18.5797 5.17503 18.6586L6.68617 19.2409L6.85431 19.3052ZM22.2299 28.635V22.585C22.2299 21.443 20.953 20.9565 20.1918 20.7681C18.0374 20.2327 15.8911 20.2324 13.8124 20.7669C12.8804 21.0063 11.7696 21.516 11.7696 22.585V28.635C11.7696 28.9282 11.5319 29.1658 11.2387 29.1658C10.9455 29.1658 10.7079 28.9282 10.7079 28.635V22.585C10.7079 21.22 11.7165 20.2092 13.5481 19.7387C14.2295 19.5635 14.9175 19.4422 15.6099 19.373C14.5831 18.7269 13.8759 17.3899 13.8759 15.848C13.8759 13.8555 15.0733 12.6178 17.0007 12.6178C18.927 12.6178 20.1236 13.8555 20.1236 15.848C20.1236 17.3935 19.4136 18.7331 18.3836 19.3775C19.0699 19.4472 19.7584 19.5663 20.4473 19.7375C22.2548 20.1849 23.2916 21.2227 23.2916 22.585V28.6349C23.2916 28.9281 23.054 29.1658 22.7608 29.1658C22.4676 29.1658 22.2299 28.9282 22.2299 28.635ZM17.0007 18.7242C18.1372 18.7242 19.0618 17.434 19.0618 15.848C19.0618 13.9612 17.7704 13.6795 17.0007 13.6795C16.2301 13.6795 14.9376 13.9613 14.9376 15.848C14.9375 17.434 15.863 18.7242 17.0007 18.7242ZM13.3262 23.7879V28.635C13.3262 28.9282 13.5639 29.1658 13.857 29.1658C14.1502 29.1658 14.3879 28.9282 14.3879 28.635V23.7879C14.3879 23.4947 14.1502 23.2571 13.857 23.2571C13.5639 23.2571 13.3262 23.4947 13.3262 23.7879ZM19.6134 23.7879V28.635C19.6134 28.9282 19.8511 29.1658 20.1443 29.1658C20.4374 29.1658 20.6751 28.9282 20.6751 28.635V23.7879C20.6751 23.4947 20.4374 23.2571 20.1443 23.2571C19.8511 23.2571 19.6134 23.4947 19.6134 23.7879Z" fill="white"/>
</g>
<defs>
<clipPath id="clip0_25_547">
<rect width="34" height="34" fill="white"/>
</clipPath>
</defs>
</svg>
