<svg width="26" height="26" viewBox="0 0 26 26" fill="none" xmlns="http://www.w3.org/2000/svg">
<g clip-path="url(#clip0_25_717)">
<path d="M5.17765 14.2361C5.5881 13.6143 6.28414 13.2411 7.02918 13.2434H7.64041C7.92172 13.2434 8.14977 13.0153 8.14977 12.734V10.7322C8.15058 10.5663 8.06887 10.4109 7.93177 10.3176C7.89204 10.2906 7.84772 10.2728 7.80697 10.2478C7.03561 11.223 6.18772 12.1351 5.27137 12.9754C4.88334 13.3347 4.28412 13.3347 3.89609 12.9754C3.70253 12.7977 3.47434 12.5812 3.22628 12.3352C3.11408 12.9714 3.05716 13.6161 3.05615 14.2621C3.05615 14.4358 3.07092 14.6023 3.07907 14.7714H4.17675C4.57929 14.7731 4.95559 14.5719 5.17765 14.2361Z" fill="#89CBC4"/>
<path d="M7.13122 4.58429C7.13122 3.17772 5.99097 2.03748 4.58441 2.03748C3.17784 2.03748 2.0376 3.17772 2.0376 4.58429C2.0376 5.99085 3.17784 7.1311 4.58441 7.1311C5.99027 7.12941 7.12953 5.99015 7.13122 4.58429ZM4.11121 6.11237H4.07505C3.93997 6.11234 3.81043 6.05866 3.71493 5.96313L3.20556 5.45377C3.01253 5.2539 3.01529 4.93621 3.21177 4.73973C3.40825 4.54326 3.72594 4.54049 3.9258 4.73353L4.02003 4.82776L5.19564 3.25994C5.30483 3.11436 5.48339 3.03809 5.66406 3.05986C5.84473 3.08162 6.00006 3.19812 6.07155 3.36547C6.14303 3.53282 6.11981 3.7256 6.01062 3.87118L4.48254 5.90863C4.3942 6.02722 4.25869 6.10158 4.11121 6.11237Z" fill="#89CBC4"/>
<path d="M11.2374 6.37674L11.6556 6.78881C11.8008 6.93472 12.0194 6.97897 12.2098 6.90097C12.4003 6.82297 12.5251 6.63804 12.5261 6.43226C12.5266 6.29792 12.4723 6.16919 12.3759 6.0757L12.1079 5.82663C11.8459 5.58799 11.7279 5.22953 11.797 4.88188C11.8661 4.53423 12.1122 4.24815 12.4457 4.1279C12.9533 3.94612 13.3656 3.56648 13.5887 3.07556C12.3948 3.14489 11.2203 3.409 10.1118 3.85743C10.16 4.15626 10.1852 4.45835 10.1871 4.76104C10.1838 5.15041 10.1393 5.53834 10.0542 5.91831C10.4949 5.90203 10.9228 6.06783 11.2374 6.37674Z" fill="#89CBC4"/>
<path d="M18.3369 8.64896V10.1872C18.3369 10.7499 18.793 11.206 19.3556 11.206H20.4406C20.8171 11.2049 21.1633 11.4122 21.3401 11.7446C21.5169 12.077 21.4954 12.48 21.2841 12.7916L20.3199 14.2438C20.2681 14.3197 20.2409 14.4097 20.2419 14.5015C20.2432 14.6567 20.3207 14.8013 20.4492 14.8881C20.6435 15.0189 20.9051 14.9822 21.0559 14.8031L22.448 13.1813C23.082 12.4425 23.4305 11.5011 23.4305 10.5275V7.83093C22.9136 7.09627 22.3109 6.42596 21.635 5.83423L18.5351 8.24453C18.4098 8.34123 18.3365 8.49069 18.3369 8.64896Z" fill="#89CBC4"/>
<path d="M4.58449 12.2247C5.65721 11.2381 9.16875 7.78254 9.16875 4.76152C9.21393 2.18223 7.16363 0.0526634 4.58449 0C2.00555 0.0526642 -0.0446554 2.18192 0.000235035 4.76101C0.000235035 7.78203 3.51025 11.2375 4.58449 12.2247ZM1.01896 4.58426C1.01896 2.61507 2.6153 1.01872 4.58449 1.01872C6.55368 1.01872 8.15003 2.61507 8.15003 4.58426C8.15003 6.55345 6.55368 8.14979 4.58449 8.14979C2.61623 8.14755 1.0212 6.55252 1.01896 4.58426Z" fill="#89CBC4"/>
<path d="M16.4885 16.9414L12.5206 15.3542C12.3999 15.3059 12.2711 15.281 12.1411 15.2809C12.0467 15.2805 11.9527 15.2936 11.862 15.3196L9.53825 15.9818C9.31953 16.0441 9.16862 16.2438 9.16846 16.4713V18.3371C9.16846 18.6184 9.39651 18.8464 9.67782 18.8464H10.1872C11.593 18.8481 12.7323 19.9874 12.734 21.3932V22.8892C12.7343 23.1148 12.8743 23.3165 13.0854 23.3958C13.2966 23.4751 13.5347 23.4154 13.6834 23.2458L16.5568 19.9619C16.7193 19.7762 16.8089 19.5379 16.8089 19.2911V17.4141C16.8098 17.2056 16.6825 17.0179 16.4885 16.9414Z" fill="#89CBC4"/>
<path d="M24.2278 19.367C25.7998 16.3196 25.8816 12.7181 24.4493 9.60254V10.5275C24.4493 11.7446 24.0135 12.9215 23.2207 13.845L21.8307 15.4648C21.4277 15.9366 20.7733 16.1071 20.1912 15.8921C19.6092 15.6771 19.2228 15.1221 19.2233 14.5016C19.2216 14.2086 19.3082 13.922 19.4718 13.679L20.4391 12.2247H19.3557C18.2305 12.2247 17.3183 11.3125 17.3183 10.1873V8.64901C17.3169 8.17597 17.5354 7.72915 17.9096 7.43979L20.8161 5.18077C19.0229 3.88068 16.883 3.14455 14.6696 3.06641C14.409 4.0061 13.7078 4.76037 12.7895 5.08857L13.0799 5.34325C13.4715 5.72559 13.6282 6.28847 13.4905 6.81818C13.3528 7.34789 12.9418 7.76319 12.4135 7.90639C11.8853 8.04959 11.3208 7.89874 10.9344 7.5111L10.5213 7.10361C10.3418 6.91531 10.0547 6.87875 9.83369 7.016C9.78581 7.05216 9.73488 7.07661 9.68598 7.10769C9.34933 7.92532 8.9222 8.70269 8.41257 9.42528C8.43906 9.44209 8.46962 9.45432 8.4956 9.47163C8.91528 9.75408 9.16739 10.2264 9.16847 10.7323V12.7341C9.16847 13.578 8.48432 14.2622 7.64038 14.2622H7.02915C6.6266 14.2605 6.2503 14.4618 6.02825 14.7975C5.6178 15.4193 4.92175 15.7925 4.17672 15.7903H3.1748C3.9616 21.3181 8.67869 25.4355 14.2621 25.4681C16.0387 25.4722 17.7899 25.047 19.3669 24.2289C21.7087 23.0139 23.0971 21.3302 24.2278 19.367ZM17.8276 19.2911C17.8276 19.7847 17.6484 20.2614 17.3234 20.6328L14.45 23.9161C14.0222 24.4056 13.3356 24.5784 12.727 24.3498C12.1184 24.1213 11.7153 23.5394 11.7153 22.8892V21.3933C11.7153 20.5493 11.0311 19.8652 10.1872 19.8652H9.67783C8.83389 19.8652 8.14974 19.181 8.14974 18.3371V16.4738C8.1522 15.7926 8.60329 15.1945 9.25761 15.0048L11.5823 14.3427C12.0167 14.2195 12.4796 14.2433 12.899 14.4104L16.867 15.9976C17.4476 16.2278 17.8285 16.7895 17.8276 17.4141V19.2911Z" fill="#89CBC4"/>
</g>
<defs>
<clipPath id="clip0_25_717">
<rect width="26" height="26" fill="white"/>
</clipPath>
</defs>
</svg>
