<svg width="26" height="26" viewBox="0 0 26 26" fill="none" xmlns="http://www.w3.org/2000/svg">
<g clip-path="url(#clip0_25_730)">
<path d="M12.9049 0.00118845C12.9049 0.00118845 3.89492 -0.400121 4.92709 13.5461C4.92709 13.5461 4.87042 24.9663 9.97773 25.9999C9.97773 25.9999 7.74013 23.4172 8.37099 21.5793C8.37099 21.5793 11.1833 21.0624 10.7822 16.7605C10.7822 16.7605 8.42866 14.6939 8.14144 13.2596C8.14144 13.2596 8.14144 8.78232 8.54387 8.2085C8.54387 8.2085 10.7822 8.38064 11.011 8.2085C11.011 8.2085 12.8482 6.54397 13.2495 5.68381C13.2495 5.68381 13.5939 7.17508 12.7338 8.09516H15.0859C15.0859 8.09516 15.8322 7.34884 15.9456 6.54535C15.9456 6.54535 16.1751 7.98032 15.8324 8.15096H17.2103C17.2103 8.15096 17.956 12.111 17.7835 13.2595C17.7835 13.2595 16.464 16.185 15.143 16.701C15.143 16.701 14.6831 21.1217 17.8974 21.6939C17.8974 21.6939 17.6101 25.6547 15.6583 25.8264C15.6583 25.8264 18.9305 26.6875 20.8253 19.6858C20.8253 19.6858 21.7434 9.93033 20.5183 6.75467C20.5198 6.75555 19.334 0.747512 12.9049 0.00118845Z" fill="#89CBC4"/>
</g>
<defs>
<clipPath id="clip0_25_730">
<rect width="26" height="26" fill="white"/>
</clipPath>
</defs>
</svg>
