<svg width="26" height="26" viewBox="0 0 26 26" fill="none" xmlns="http://www.w3.org/2000/svg">
<g clip-path="url(#clip0_25_746)">
<path d="M9.86209 3.5863C9.86209 1.85326 11.267 0.448364 13 0.448364C14.733 0.448364 16.1379 1.85326 16.1379 3.5863C16.1379 5.31933 14.733 6.72423 13 6.72423C11.2678 6.72225 9.86406 5.31851 9.86209 3.5863ZM16.5862 7.62078C18.3184 7.62275 19.7222 9.0265 19.7242 10.7587V14.3449C19.7242 15.0876 19.1221 15.6897 18.3793 15.6897C17.6366 15.6897 17.0345 15.0876 17.0345 14.3449V10.7587C17.0345 10.5111 16.8338 10.3104 16.5862 10.3104C16.3386 10.3104 16.1379 10.5111 16.1379 10.7587V24.207C16.1379 24.9497 15.5358 25.5518 14.7931 25.5518C14.0504 25.5518 13.4483 24.9497 13.4483 24.207V18.3794C13.4483 18.1318 13.2476 17.9311 13 17.9311C12.7524 17.9311 12.5517 18.1318 12.5517 18.3794V24.207C12.5517 24.6874 12.2954 25.1314 11.8793 25.3716C11.4632 25.6119 10.9506 25.6119 10.5345 25.3716C10.1184 25.1314 9.86209 24.6874 9.86209 24.207V10.7587C9.86209 10.5111 9.66139 10.3104 9.41381 10.3104C9.16623 10.3104 8.96553 10.5111 8.96553 10.7587V14.3449C8.96553 15.0876 8.36343 15.6897 7.62071 15.6897C6.87798 15.6897 6.27588 15.0876 6.27588 14.3449V10.7587C6.27786 9.0265 7.6816 7.62275 9.41381 7.62078H16.5862Z" fill="#89CBC4"/>
<path d="M3.58617 0.89664V25.1035C3.58617 25.3511 3.38547 25.5518 3.1379 25.5518H0.896518C0.648942 25.5518 0.448242 25.3511 0.448242 25.1035V24.207H1.79307C2.04065 24.207 2.24135 24.0063 2.24135 23.7587C2.24135 23.5111 2.04065 23.3104 1.79307 23.3104H0.448242V22.4139H1.34479C1.59237 22.4139 1.79307 22.2132 1.79307 21.9656C1.79307 21.718 1.59237 21.5173 1.34479 21.5173H0.448242V20.6208H1.79307C2.04065 20.6208 2.24135 20.4201 2.24135 20.1725C2.24135 19.9249 2.04065 19.7242 1.79307 19.7242H0.448242V18.8277H1.34479C1.59237 18.8277 1.79307 18.627 1.79307 18.3794C1.79307 18.1318 1.59237 17.9311 1.34479 17.9311H0.448242V17.0346H1.79307C2.04065 17.0346 2.24135 16.8339 2.24135 16.5863C2.24135 16.3387 2.04065 16.138 1.79307 16.138H0.448242V15.2415H1.34479C1.59237 15.2415 1.79307 15.0408 1.79307 14.7932C1.79307 14.5456 1.59237 14.3449 1.34479 14.3449H0.448242V13.4484H1.79307C2.04065 13.4484 2.24135 13.2477 2.24135 13.0001C2.24135 12.7525 2.04065 12.5518 1.79307 12.5518H0.448242V11.6553H1.34479C1.59237 11.6553 1.79307 11.4546 1.79307 11.207C1.79307 10.9594 1.59237 10.7587 1.34479 10.7587H0.448242V9.86216H1.79307C2.04065 9.86216 2.24135 9.66146 2.24135 9.41388C2.24135 9.1663 2.04065 8.9656 1.79307 8.9656H0.448242V8.06905H1.34479C1.59237 8.06905 1.79307 7.86835 1.79307 7.62078C1.79307 7.3732 1.59237 7.1725 1.34479 7.1725H0.448242V6.27595H1.79307C2.04065 6.27595 2.24135 6.07525 2.24135 5.82767C2.24135 5.5801 2.04065 5.3794 1.79307 5.3794H0.448242V4.48285H1.34479C1.59237 4.48285 1.79307 4.28215 1.79307 4.03457C1.79307 3.78699 1.59237 3.5863 1.34479 3.5863H0.448242V2.68974H1.79307C2.04065 2.68974 2.24135 2.48904 2.24135 2.24147C2.24135 1.99389 2.04065 1.79319 1.79307 1.79319H0.448242V0.89664C0.448242 0.649064 0.648942 0.448364 0.896518 0.448364H3.1379C3.38547 0.448364 3.58617 0.649064 3.58617 0.89664Z" fill="#89CBC4"/>
<path d="M25.0271 22.8621H24.2068V3.13796H25.0271C25.2021 3.13797 25.3611 3.03616 25.4343 2.87723C25.5075 2.71829 25.4816 2.53128 25.3678 2.39831L23.6509 0.398996C23.5657 0.299405 23.4413 0.242065 23.3102 0.242065C23.1792 0.242065 23.0547 0.299405 22.9695 0.398996L21.2526 2.39831C21.1389 2.53128 21.1129 2.71829 21.1861 2.87723C21.2593 3.03616 21.4183 3.13797 21.5933 3.13796H22.4137V22.8621H21.5933C21.4183 22.8621 21.2593 22.9639 21.1861 23.1228C21.1129 23.2818 21.1389 23.4688 21.2526 23.6018L22.9695 25.6011C23.0547 25.7007 23.1792 25.758 23.3102 25.758C23.4413 25.758 23.5657 25.7007 23.6509 25.6011L25.3678 23.6018C25.4816 23.4688 25.5075 23.2818 25.4343 23.1228C25.3611 22.9639 25.2021 22.8621 25.0271 22.8621Z" fill="#89CBC4"/>
</g>
<defs>
<clipPath id="clip0_25_746">
<rect width="26" height="26" fill="white"/>
</clipPath>
</defs>
</svg>
